<svg width="31" height="44" viewBox="0 0 31 44" fill="none" xmlns="http://www.w3.org/2000/svg" y='30'>
<!-- <path d="M47.5479 28.216C46.5639 28.216 45.6819 27.976 44.9019 27.496C44.1339 27.004 43.5219 26.302 43.0659 25.39C42.6219 24.478 42.3999 23.38 42.3999 22.096C42.3999 20.824 42.6279 19.732 43.0839 18.82C43.5399 17.908 44.1639 17.206 44.9559 16.714C45.7479 16.222 46.6419 15.976 47.6379 15.976C48.3579 15.976 48.9939 16.126 49.5459 16.426C50.0979 16.714 50.5419 17.05 50.8779 17.434L50.0679 18.406C49.7559 18.07 49.4019 17.8 49.0059 17.596C48.6099 17.392 48.1599 17.29 47.6559 17.29C46.9119 17.29 46.2579 17.488 45.6939 17.884C45.1419 18.268 44.7099 18.814 44.3979 19.522C44.0979 20.23 43.9479 21.076 43.9479 22.06C43.9479 23.044 44.0979 23.902 44.3979 24.634C44.6979 25.354 45.1179 25.912 45.6579 26.308C46.2099 26.704 46.8579 26.902 47.6019 26.902C48.1659 26.902 48.6699 26.782 49.1139 26.542C49.5579 26.302 49.9659 25.978 50.3379 25.57L51.1659 26.506C50.6979 27.046 50.1699 27.466 49.5819 27.766C48.9939 28.066 48.3159 28.216 47.5479 28.216ZM56.6251 28.216C55.9171 28.216 55.2511 28.036 54.6271 27.676C54.0151 27.316 53.5171 26.794 53.1331 26.11C52.7611 25.426 52.5751 24.604 52.5751 23.644C52.5751 22.66 52.7611 21.826 53.1331 21.142C53.5171 20.458 54.0151 19.936 54.6271 19.576C55.2511 19.216 55.9171 19.036 56.6251 19.036C57.3451 19.036 58.0111 19.216 58.6231 19.576C59.2351 19.936 59.7271 20.458 60.0991 21.142C60.4831 21.826 60.6751 22.66 60.6751 23.644C60.6751 24.604 60.4831 25.426 60.0991 26.11C59.7271 26.794 59.2351 27.316 58.6231 27.676C58.0111 28.036 57.3451 28.216 56.6251 28.216ZM56.6251 26.992C57.3811 26.992 57.9871 26.686 58.4431 26.074C58.9111 25.45 59.1451 24.64 59.1451 23.644C59.1451 22.636 58.9111 21.82 58.4431 21.196C57.9871 20.572 57.3811 20.26 56.6251 20.26C55.8811 20.26 55.2751 20.572 54.8071 21.196C54.3391 21.82 54.1051 22.636 54.1051 23.644C54.1051 24.64 54.3391 25.45 54.8071 26.074C55.2751 26.686 55.8811 26.992 56.6251 26.992ZM62.9789 28V19.252H64.2029L64.3289 20.512H64.3829C64.8029 20.092 65.2469 19.744 65.7149 19.468C66.1829 19.18 66.7169 19.036 67.3169 19.036C68.2409 19.036 68.9129 19.33 69.3329 19.918C69.7649 20.494 69.9809 21.34 69.9809 22.456V28H68.5049V22.654C68.5049 21.838 68.3729 21.244 68.1089 20.872C67.8449 20.5 67.4249 20.314 66.8489 20.314C66.4049 20.314 66.0029 20.428 65.6429 20.656C65.2949 20.884 64.8989 21.22 64.4549 21.664V28H62.9789ZM75.5767 28.216C74.6407 28.216 73.9867 27.946 73.6147 27.406C73.2547 26.866 73.0747 26.164 73.0747 25.3V20.458H71.7787V19.342L73.1467 19.252L73.3267 16.804H74.5687V19.252H76.9267V20.458H74.5687V25.318C74.5687 25.858 74.6647 26.278 74.8567 26.578C75.0607 26.866 75.4147 27.01 75.9187 27.01C76.0747 27.01 76.2427 26.986 76.4227 26.938C76.6027 26.878 76.7647 26.824 76.9087 26.776L77.1967 27.892C76.9567 27.976 76.6927 28.048 76.4047 28.108C76.1287 28.18 75.8527 28.216 75.5767 28.216ZM78.9047 28V19.252H80.3807V28H78.9047ZM79.6607 17.452C79.3727 17.452 79.1327 17.368 78.9407 17.2C78.7607 17.02 78.6707 16.78 78.6707 16.48C78.6707 16.192 78.7607 15.958 78.9407 15.778C79.1327 15.598 79.3727 15.508 79.6607 15.508C79.9487 15.508 80.1827 15.598 80.3627 15.778C80.5547 15.958 80.6507 16.192 80.6507 16.48C80.6507 16.78 80.5547 17.02 80.3627 17.2C80.1827 17.368 79.9487 17.452 79.6607 17.452ZM83.3344 28V19.252H84.5584L84.6844 20.512H84.7384C85.1584 20.092 85.6024 19.744 86.0704 19.468C86.5384 19.18 87.0724 19.036 87.6724 19.036C88.5964 19.036 89.2684 19.33 89.6884 19.918C90.1204 20.494 90.3364 21.34 90.3364 22.456V28H88.8604V22.654C88.8604 21.838 88.7284 21.244 88.4644 20.872C88.2004 20.5 87.7804 20.314 87.2044 20.314C86.7604 20.314 86.3584 20.428 85.9984 20.656C85.6504 20.884 85.2544 21.22 84.8104 21.664V28H83.3344ZM95.7341 28.216C94.8101 28.216 94.1321 27.928 93.7001 27.352C93.2681 26.764 93.0521 25.912 93.0521 24.796V19.252H94.5461V24.598C94.5461 25.414 94.6721 26.008 94.9241 26.38C95.1881 26.752 95.6081 26.938 96.1841 26.938C96.6401 26.938 97.0421 26.824 97.3901 26.596C97.7501 26.356 98.1341 25.978 98.5421 25.462V19.252H100.018V28H98.7941L98.6681 26.632H98.6141C98.2061 27.112 97.7741 27.496 97.3181 27.784C96.8621 28.072 96.3341 28.216 95.7341 28.216ZM106.515 28.216C105.735 28.216 105.027 28.036 104.391 27.676C103.755 27.304 103.251 26.776 102.879 26.092C102.507 25.408 102.321 24.592 102.321 23.644C102.321 22.684 102.507 21.862 102.879 21.178C103.263 20.494 103.755 19.966 104.355 19.594C104.955 19.222 105.585 19.036 106.245 19.036C107.361 19.036 108.219 19.408 108.819 20.152C109.431 20.896 109.737 21.892 109.737 23.14C109.737 23.296 109.731 23.452 109.719 23.608C109.719 23.752 109.707 23.878 109.683 23.986H103.779C103.839 24.91 104.127 25.648 104.643 26.2C105.171 26.752 105.855 27.028 106.695 27.028C107.115 27.028 107.499 26.968 107.847 26.848C108.207 26.716 108.549 26.548 108.873 26.344L109.395 27.316C109.023 27.556 108.597 27.766 108.117 27.946C107.649 28.126 107.115 28.216 106.515 28.216ZM103.761 22.924H108.441C108.441 22.036 108.249 21.364 107.865 20.908C107.493 20.44 106.965 20.206 106.281 20.206C105.669 20.206 105.117 20.446 104.625 20.926C104.145 21.394 103.857 22.06 103.761 22.924ZM116.888 28L114.458 19.252H115.97L117.266 24.31C117.362 24.718 117.452 25.126 117.536 25.534C117.62 25.93 117.704 26.332 117.788 26.74H117.86C117.956 26.332 118.052 25.93 118.148 25.534C118.244 25.126 118.346 24.718 118.454 24.31L119.804 19.252H121.244L122.612 24.31C122.72 24.718 122.822 25.126 122.918 25.534C123.026 25.93 123.128 26.332 123.224 26.74H123.296C123.392 26.332 123.482 25.93 123.566 25.534C123.662 25.126 123.752 24.718 123.836 24.31L125.114 19.252H126.518L124.178 28H122.378L121.118 23.302C121.01 22.882 120.908 22.468 120.812 22.06C120.728 21.652 120.632 21.226 120.524 20.782H120.452C120.356 21.226 120.26 21.658 120.164 22.078C120.068 22.486 119.96 22.9 119.84 23.32L118.616 28H116.888ZM128.422 28V19.252H129.898V28H128.422ZM129.178 17.452C128.89 17.452 128.65 17.368 128.458 17.2C128.278 17.02 128.188 16.78 128.188 16.48C128.188 16.192 128.278 15.958 128.458 15.778C128.65 15.598 128.89 15.508 129.178 15.508C129.466 15.508 129.7 15.598 129.88 15.778C130.072 15.958 130.168 16.192 130.168 16.48C130.168 16.78 130.072 17.02 129.88 17.2C129.7 17.368 129.466 17.452 129.178 17.452ZM135.606 28.216C134.67 28.216 134.016 27.946 133.644 27.406C133.284 26.866 133.104 26.164 133.104 25.3V20.458H131.808V19.342L133.176 19.252L133.356 16.804H134.598V19.252H136.956V20.458H134.598V25.318C134.598 25.858 134.694 26.278 134.886 26.578C135.09 26.866 135.444 27.01 135.948 27.01C136.104 27.01 136.272 26.986 136.452 26.938C136.632 26.878 136.794 26.824 136.938 26.776L137.226 27.892C136.986 27.976 136.722 28.048 136.434 28.108C136.158 28.18 135.882 28.216 135.606 28.216ZM138.934 28V15.184H140.41V18.676L140.356 20.476C140.776 20.08 141.214 19.744 141.67 19.468C142.138 19.18 142.672 19.036 143.272 19.036C144.196 19.036 144.868 19.33 145.288 19.918C145.72 20.494 145.936 21.34 145.936 22.456V28H144.46V22.654C144.46 21.838 144.328 21.244 144.064 20.872C143.8 20.5 143.38 20.314 142.804 20.314C142.36 20.314 141.958 20.428 141.598 20.656C141.25 20.884 140.854 21.22 140.41 21.664V28H138.934ZM154.507 21.394L153.949 23.194H157.495L156.937 21.394C156.721 20.734 156.517 20.08 156.325 19.432C156.133 18.772 155.941 18.1 155.749 17.416H155.677C155.497 18.1 155.311 18.772 155.119 19.432C154.927 20.08 154.723 20.734 154.507 21.394ZM150.907 28L154.903 16.192H156.595L160.591 28H158.989L157.873 24.4H153.571L152.437 28H150.907ZM162.12 31.69V19.252H163.344L163.47 20.26H163.524C163.92 19.924 164.352 19.636 164.82 19.396C165.3 19.156 165.798 19.036 166.314 19.036C167.442 19.036 168.3 19.444 168.888 20.26C169.476 21.064 169.77 22.144 169.77 23.5C169.77 24.484 169.59 25.33 169.23 26.038C168.882 26.746 168.42 27.286 167.844 27.658C167.28 28.03 166.662 28.216 165.99 28.216C165.582 28.216 165.174 28.126 164.766 27.946C164.37 27.766 163.968 27.52 163.56 27.208L163.596 28.738V31.69H162.12ZM165.738 26.974C166.458 26.974 167.052 26.668 167.52 26.056C168 25.432 168.24 24.58 168.24 23.5C168.24 22.54 168.06 21.766 167.7 21.178C167.352 20.578 166.764 20.278 165.936 20.278C165.564 20.278 165.186 20.38 164.802 20.584C164.43 20.788 164.028 21.082 163.596 21.466V26.056C163.992 26.392 164.376 26.632 164.748 26.776C165.12 26.908 165.45 26.974 165.738 26.974ZM172.104 31.69V19.252H173.328L173.454 20.26H173.508C173.904 19.924 174.336 19.636 174.804 19.396C175.284 19.156 175.782 19.036 176.298 19.036C177.426 19.036 178.284 19.444 178.872 20.26C179.46 21.064 179.754 22.144 179.754 23.5C179.754 24.484 179.574 25.33 179.214 26.038C178.866 26.746 178.404 27.286 177.828 27.658C177.264 28.03 176.646 28.216 175.974 28.216C175.566 28.216 175.158 28.126 174.75 27.946C174.354 27.766 173.952 27.52 173.544 27.208L173.58 28.738V31.69H172.104ZM175.722 26.974C176.442 26.974 177.036 26.668 177.504 26.056C177.984 25.432 178.224 24.58 178.224 23.5C178.224 22.54 178.044 21.766 177.684 21.178C177.336 20.578 176.748 20.278 175.92 20.278C175.548 20.278 175.17 20.38 174.786 20.584C174.414 20.788 174.012 21.082 173.58 21.466V26.056C173.976 26.392 174.36 26.632 174.732 26.776C175.104 26.908 175.434 26.974 175.722 26.974ZM183.654 28.216C183.102 28.216 182.7 28.048 182.448 27.712C182.208 27.364 182.088 26.872 182.088 26.236V15.184H183.564V26.344C183.564 26.572 183.606 26.74 183.69 26.848C183.774 26.944 183.87 26.992 183.978 26.992C184.026 26.992 184.068 26.992 184.104 26.992C184.152 26.98 184.218 26.968 184.302 26.956L184.5 28.072C184.404 28.12 184.29 28.156 184.158 28.18C184.026 28.204 183.858 28.216 183.654 28.216ZM190.222 28.216C189.442 28.216 188.734 28.036 188.098 27.676C187.462 27.304 186.958 26.776 186.586 26.092C186.214 25.408 186.028 24.592 186.028 23.644C186.028 22.684 186.214 21.862 186.586 21.178C186.97 20.494 187.462 19.966 188.062 19.594C188.662 19.222 189.292 19.036 189.952 19.036C191.068 19.036 191.926 19.408 192.526 20.152C193.138 20.896 193.444 21.892 193.444 23.14C193.444 23.296 193.438 23.452 193.426 23.608C193.426 23.752 193.414 23.878 193.39 23.986H187.486C187.546 24.91 187.834 25.648 188.35 26.2C188.878 26.752 189.562 27.028 190.402 27.028C190.822 27.028 191.206 26.968 191.554 26.848C191.914 26.716 192.256 26.548 192.58 26.344L193.102 27.316C192.73 27.556 192.304 27.766 191.824 27.946C191.356 28.126 190.822 28.216 190.222 28.216ZM187.468 22.924H192.148C192.148 22.036 191.956 21.364 191.572 20.908C191.2 20.44 190.672 20.206 189.988 20.206C189.376 20.206 188.824 20.446 188.332 20.926C187.852 21.394 187.564 22.06 187.468 22.924Z" fill="black"/> -->
<g filter="url(#filter0_d_1102_48672)">
<path fillRule="evenodd" clipRule="evenodd" d="M29.9322 17.3294C28.7598 16.1931 27.7423 15.0981 25.5886 14.9845C23.8532 14.9122 23.0578 15.9658 21.4567 16.0175C19.9434 16.0536 20.0571 14.8451 16.922 15.186C14.2001 15.4855 11.8243 18.2074 12.0102 22.019C12.2013 26.1509 15.073 31.8322 17.7535 31.8322C19.6439 31.7909 20.0932 30.8871 21.6427 30.8871C23.5691 30.8871 24.0237 32.0182 25.5318 31.7909C28.14 31.4139 30.5933 27.2975 30.5933 25.9753C29.1575 25.2212 27.7268 23.9352 27.5357 21.7866C27.3446 19.638 28.6875 18.2694 29.9322 17.3294Z" fill="#08080D"/>
<path fillRule="evenodd" clipRule="evenodd" d="M20.9038 15.2888C20.8264 14.0095 21.2412 12.749 22.0632 11.7657C22.8852 10.7823 24.0522 10.1506 25.3249 10C25.7381 12.5359 23.6464 15.4386 20.9038 15.2888Z" fill="#08080D"/>
</g>
<defs>
<filter id="filter0_d_1102_48672" x="0" y="0" width="48.5934" height="51.832" filterUnits="userSpaceOnUse" color-interpolation-filters="sRGB">
<feFlood flood-opacity="0" result="BackgroundImageFix"/>
<feColorMatrix in="SourceAlpha" type="matrix" values="0 0 0 0 0 0 0 0 0 0 0 0 0 0 0 0 0 0 127 0" result="hardAlpha"/>
<feOffset dx="3" dy="5"/>
<feGaussianBlur stdDeviation="7.5"/>
<feComposite in2="hardAlpha" operator="out"/>
<feColorMatrix type="matrix" values="0 0 0 0 0 0 0 0 0 0 0 0 0 0 0 0 0 0 0.08 0"/>
<feBlend mode="normal" in2="BackgroundImageFix" result="effect1_dropShadow_1102_48672"/>
<feBlend mode="normal" in="SourceGraphic" in2="effect1_dropShadow_1102_48672" result="shape"/>
</filter>
</defs>
</svg>
