<svg width="187" height="40" viewBox="0 0 187 40" fill="none" xmlns="http://www.w3.org/2000/svg">
<g clipPath="url(#clip0_10_88)">
<path fillRule="evenodd" clipRule="evenodd" d="M164.289 0.166661C163.023 0.299972 162.373 0.699906 161.94 1.58309C161.523 2.38296 161.54 3.21615 162.023 4.166C162.506 5.18249 163.906 6.71557 165.006 7.44878L165.856 8.03202L164.656 8.132C164.006 8.18199 161.257 8.3653 158.54 8.49861C155.841 8.64858 152.325 8.84855 150.725 8.93187C149.125 9.01519 146.376 9.18183 144.576 9.28181C139.627 9.5651 133.478 9.96503 131.245 10.165C130.145 10.265 125.679 10.6649 121.33 11.0482C106.582 12.3646 94.7509 13.7977 86.4856 15.2641C85.3858 15.4641 84.3527 15.6141 84.2027 15.6141C84.0527 15.6141 83.7361 15.2308 83.4861 14.7642C82.9362 13.7977 77.1372 7.58209 75.7708 6.53227C74.1877 5.3158 73.8877 5.28248 68.9386 5.93237C59.7901 7.13217 55.1409 8.06534 49.6251 9.84838C47.6921 10.4816 47.0422 10.7816 46.5423 11.2815C45.9757 11.848 45.7758 12.348 45.7758 13.1478C45.7758 13.7977 45.8757 13.981 46.7089 14.7809C47.8088 15.864 49.6751 16.9972 52.6246 18.3303C55.2075 19.5134 60.2733 21.5798 60.5733 21.5798C60.6899 21.5798 60.8899 21.6464 61.0232 21.7297C61.2065 21.8464 60.9066 22.2463 59.7734 23.3461C58.9736 24.146 57.6904 25.6124 56.9072 26.5789C56.1574 27.5454 54.9576 29.0285 54.2743 29.9117C51.8247 33.0112 51.2248 34.1277 51.2082 35.5608C51.2082 37.4271 52.7913 38.3436 55.6241 38.1603C60.0067 37.8604 63.8061 37.3271 72.5213 35.8774C81.6864 34.3276 81.8697 34.2943 82.5863 33.6278C83.6028 32.6946 83.5861 32.7779 83.5861 25.2125V18.2303L84.0194 18.1637C84.9859 17.9637 87.5521 17.5304 89.3685 17.2638C90.435 17.1138 91.7014 16.8972 92.1847 16.8139C93.1679 16.6306 96.534 16.1973 98.6836 15.9474C101.25 15.6641 104.816 15.2475 106.149 15.0642C107.415 14.8809 108.899 14.7476 113.081 14.3643C115.764 14.1143 116.697 14.031 118.53 13.8311C119.413 13.7311 121.03 13.5644 122.13 13.4811C123.23 13.3978 125.529 13.1812 127.212 13.0478C131.711 12.6646 132.078 12.6313 133.711 12.5146C134.528 12.4646 136.394 12.3646 137.844 12.248C139.294 12.1647 141.36 12.0314 142.41 11.9647C143.476 11.9147 144.476 11.8314 144.659 11.7814C144.843 11.7647 145.509 11.7147 146.159 11.7147C146.809 11.6981 149.825 11.5314 152.858 11.3648C162.873 10.7649 164.873 10.6649 165.489 10.6649H166.089L164.973 11.4648C163.023 12.8645 161.923 14.1143 160.973 16.014C159.707 18.5469 159.923 20.1133 161.64 21.1798C162.656 21.7964 165.356 21.6131 167.889 20.7632C172.455 19.2135 177.304 16.6306 181.436 13.5311C183.336 12.1147 186.202 9.39846 186.202 9.03185C186.202 8.9652 186.319 8.76523 186.469 8.63192C186.602 8.48194 186.736 8.04868 186.736 7.64875C186.736 6.63225 186.169 6.19899 183.12 4.93253C178.037 2.81622 173.238 1.19982 170.238 0.599922C168.955 0.3333 165.939 -0.0499694 165.589 -0.0166416C165.506 2.2307e-05 164.923 0.0666779 164.306 0.133333L164.289 0.166661ZM168.489 2.7329C170.255 3.06618 173.538 3.96603 175.937 4.78256C178.42 5.64908 181.52 6.83222 181.686 7.01552C181.77 7.08218 180.987 7.21549 179.937 7.26548C178.904 7.33213 176.971 7.46545 175.654 7.54876C171.771 7.83205 170.572 7.78206 169.305 7.29881C167.722 6.69891 166.756 6.19899 165.872 5.44911C164.973 4.73257 163.856 3.06618 163.989 2.69957C164.106 2.34963 166.589 2.36629 168.505 2.7329H168.489ZM74.9542 9.3318C77.2372 11.3481 81.5865 15.6307 81.5865 15.8807C81.5865 16.014 80.7199 16.264 79.1535 16.5639C76.2373 17.1138 76.3207 17.1138 76.3207 16.6639C76.3207 16.314 76.1374 16.1807 74.571 15.1308C70.8882 12.7479 66.6556 10.1983 65.4725 9.64841C64.5393 9.21515 64.306 8.94853 64.8726 8.9152C65.0226 8.9152 66.5223 8.71524 68.1554 8.49861C69.8051 8.28198 71.6714 8.09867 72.3213 8.08201H73.5211L74.9542 9.3318ZM61.7898 9.79839C62.0397 10.1483 67.7721 13.4644 72.188 15.7974C73.5211 16.5139 74.6043 17.1638 74.5876 17.2638C74.5876 17.3471 73.8877 17.5638 73.0212 17.7137C72.1714 17.8637 70.8549 18.1303 70.0884 18.297C68.372 18.6469 68.472 18.6469 68.3553 18.2636C68.2887 18.0637 67.1222 17.3305 65.5725 16.4973C64.1227 15.7141 62.7063 14.9309 62.473 14.7976C62.0064 14.4976 57.2072 12.1647 55.6241 11.4481L54.6576 11.0149L55.3408 10.7649C55.7074 10.6316 57.1905 10.315 58.5903 10.065C59.9901 9.81505 61.1899 9.56509 61.2232 9.53177C61.3732 9.38179 61.5731 9.48178 61.8064 9.79839H61.7898ZM181.886 9.99836C181.67 10.3316 179.403 12.0647 177.754 13.1478C172.371 16.6806 163.389 20.0134 162.89 18.6802C162.74 18.247 164.056 15.7974 164.923 14.9309C165.356 14.4976 166.489 13.5811 167.405 12.8812C168.322 12.1813 169.372 11.3481 169.738 11.0149L170.405 10.415L173.954 10.2816C175.904 10.215 178.254 10.0817 179.17 10.015C181.753 9.81505 182.02 9.81505 181.886 10.015V9.99836ZM57.1239 14.6143C60.09 16.114 63.2895 17.6471 64.1894 18.047C66.439 19.0302 66.4723 19.0468 65.7558 19.2135C65.4225 19.2801 64.5393 19.5301 63.7728 19.7801L62.4063 20.2133L60.3567 19.2801C51.7081 15.3308 47.9254 13.2978 48.5586 12.9145C48.8919 12.6979 51.1082 11.9647 51.4248 11.948C51.5748 11.9314 54.141 13.1478 57.1239 14.6143ZM81.5698 19.4301C81.5698 19.8967 81.4531 21.5631 81.3032 23.1462C81.1699 24.7459 81.0365 26.9955 81.0199 28.1453C81.0199 29.3285 80.9532 30.5783 80.8866 30.9782C80.7866 31.6447 80.7366 31.6947 79.9034 31.9114C79.4202 32.0114 78.487 32.2113 77.8038 32.3113C77.1372 32.4113 75.7208 32.6446 74.6543 32.8445C73.6211 33.0445 72.7213 33.1612 72.6879 33.1278C72.6379 33.0945 73.0379 32.1613 73.5545 31.0615C75.5375 26.8789 76.3707 24.6626 77.3705 20.9799L77.8371 19.2302L79.4035 18.9469C81.7198 18.5136 81.5865 18.4969 81.5865 19.4301H81.5698ZM75.4208 19.8134C75.4208 20.08 73.7544 24.4959 72.6379 27.2122C71.0382 31.1115 69.8884 33.4611 69.4885 33.6777C69.2885 33.7777 68.1387 34.0277 66.8889 34.2277C60.9732 35.1608 58.6403 35.4608 56.2573 35.5608C54.0077 35.6607 53.6578 35.6441 53.6578 35.4275C53.6578 35.1108 54.641 33.6278 56.224 31.4948C56.8906 30.6116 58.1404 28.9619 58.9902 27.8121C59.8567 26.6789 61.2732 25.0625 62.1397 24.2127C63.3562 23.0295 63.6894 22.6129 63.6394 22.2963C63.5895 21.863 63.6228 21.8464 65.3058 21.4298C66.9389 21.0465 66.9222 21.0132 65.8557 23.2961C65.3225 24.4293 64.7893 25.5958 64.6393 25.8957C64.506 26.179 63.8394 27.6454 63.1395 29.1452C62.4563 30.6449 61.7398 32.128 61.5398 32.4446C61.0732 33.2778 61.1065 33.9944 61.6398 34.3443C62.223 34.7276 62.9896 34.4276 63.4895 33.6111C64.4226 32.1113 67.3555 25.8124 68.6719 22.4796C69.0385 21.5631 69.3552 20.7966 69.3718 20.7632C69.4218 20.7132 74.7209 19.7467 75.2208 19.6967C75.3208 19.6967 75.4375 19.7467 75.4375 19.83L75.4208 19.8134Z" fill="#22232D"/>
<path fillRule="evenodd" clipRule="evenodd" d="M34.6443 19.93C31.3448 20.5132 25.5291 21.713 19.9967 22.9628C19.1802 23.1628 17.7138 23.4794 16.7472 23.6794C13.4478 24.4126 10.5983 25.1125 9.93172 25.3791C8.89856 25.7957 8.58194 26.7622 9.33182 27.2621C9.68176 27.5121 9.89839 27.4954 11.3815 27.1288C13.2645 26.6622 17.0139 25.8457 22.8796 24.6459C25.0959 24.196 33.4778 22.1463 36.094 21.4298C37.2772 21.1131 38.0604 20.6632 38.0604 20.3299C38.0604 20.2633 37.9437 20.0633 37.7771 19.93C37.4438 19.5967 36.5439 19.5967 34.6276 19.93H34.6443Z" fill="#22232D"/>
<path fillRule="evenodd" clipRule="evenodd" d="M41.8264 25.979C41.1765 26.1956 34.9275 27.8787 34.4609 27.9787C33.9277 28.0953 29.1785 29.3118 24.8958 30.4116C22.8295 30.9449 18.9968 31.928 16.3806 32.5946C4.19929 35.7441 0.56656 36.7772 0.149963 37.2771C0.0499798 37.4104 -0.0333397 37.7271 0.016652 38.0103C0.0666436 38.4603 0.116635 38.4936 0.766527 38.4769C1.1498 38.4769 2.5329 38.177 3.83268 37.8437C5.13247 37.4938 9.29844 36.4606 13.0478 35.5441C20.9465 33.6111 27.6121 31.7947 37.627 28.8119C38.7935 28.4619 39.91 28.1453 40.1433 28.0953C40.3599 28.062 40.5266 27.9787 40.5266 27.8954C40.5266 27.812 40.7099 27.7787 40.9265 27.7454C41.5431 27.7121 42.8428 27.1955 43.1928 26.8789C43.7927 26.3456 43.4927 25.7457 42.6595 25.7957C42.5096 25.7957 42.1263 25.879 41.8264 25.979Z" fill="#22232D"/>
<path fillRule="evenodd" clipRule="evenodd" d="M37.0105 34.1609C36.244 34.2943 29.5785 35.9606 28.412 36.3273C27.7788 36.5272 26.129 36.9938 24.7293 37.3937C21.7798 38.2269 21.3965 38.4102 21.3965 39.0935C21.3965 39.7433 21.6964 40.01 22.413 40.01C22.9962 40.01 29.3452 38.4102 31.4948 37.727C32.078 37.5271 32.9946 37.2771 33.5111 37.1271C36.1107 36.4606 39.2268 35.4107 39.4268 35.1608C39.6434 34.8608 39.5435 34.3942 39.2268 34.1776C39.0269 34.0443 37.7771 34.0443 37.0105 34.1609Z" fill="#22232D"/>
</g>
<defs>
<clipPath id="clip0_10_88">
<rect width="186.719" height="40.01" fill="white"/>
</clipPath>
</defs>
</svg>
