<svg width="104" height="120" viewBox="0 0 104 120" fill="none" xmlns="http://www.w3.org/2000/svg">
<g clipPath="url(#clip0_9_153)">
<path fillRule="evenodd" clipRule="evenodd" d="M29.4068 15.0396C24.5048 17.4789 19.7734 21.9541 16.7613 26.9925C14.2546 31.1771 12.4688 36.3099 11.8564 41.1159C11.6068 43.0747 11.5659 43.6636 11.5359 45.3927C11.5026 48.9694 11.9011 52.7051 12.5745 55.2598C12.6523 55.5304 12.7401 55.905 12.7802 56.083C13.0041 57.1364 13.5328 58.8322 14.0026 60.0122C14.2989 60.7661 14.5313 61.4164 14.5241 61.4518C14.5066 61.6209 16.1866 65.0829 16.8869 66.2986C20.1986 72.0438 24.703 76.6877 30.1608 79.9609C33.9894 82.2562 38.0264 83.711 42.1766 84.2774L43.1839 84.4177L43.7505 85.04C45.7153 87.1335 47.0412 88.9042 48.3498 91.1894C50.2517 94.5071 50.5621 95.1365 51.4351 97.2536C51.9347 98.4538 52.3606 99.4464 52.3942 99.4759C52.4951 99.5645 53.1044 100.796 54.1569 103.088C55.2919 105.53 56.7202 108.242 57.0282 108.494C57.1627 108.612 57.2079 108.723 57.2093 108.939C57.1838 109.619 57.7556 109.882 59.2504 109.867C61.4582 109.854 63.7131 109.345 66.2916 108.306C68.6995 107.325 69.6596 106.74 70.8719 105.501C71.3148 105.051 71.2883 105.278 71.0845 102.391C70.6879 96.8841 70.299 92.907 70.0933 92.0838C70.0134 91.7816 69.9857 91.5014 70.0169 91.4455C70.0519 91.3988 70.0437 91.2726 70.006 91.18C69.8287 90.7447 69.1917 84.5148 69.1747 82.9885C69.1785 82.7062 69.157 81.9375 69.1416 81.2635C69.1191 80.0418 69.2785 77.9145 69.4751 76.7007C69.5342 76.3419 69.6004 75.9478 69.6107 75.814C69.6118 75.684 70.1956 74.9172 70.8961 74.092C74.8966 69.4393 77.4525 63.9173 78.7511 57.1906C79.5696 52.9701 79.4951 47.5909 78.5757 42.8149C77.4838 37.1913 75.4428 32.4186 71.9283 27.2095C70.562 25.207 68.0262 22.3742 65.9049 20.5064C59.4778 14.8531 51.6221 11.79 43.3188 11.6842C40.9082 11.651 37.4443 12.1332 35.0309 12.8354C33.6369 13.2304 30.7137 14.3778 29.3883 15.0472L29.4068 15.0396ZM34.1028 14.6927C34.4181 14.6183 35.1799 14.3944 35.7784 14.1938C36.3863 13.9894 37.3223 13.7162 37.8619 13.5828C38.4014 13.4494 39.0946 13.2427 39.4095 13.1144C39.7244 12.9862 39.9803 12.9251 39.9954 12.9622C40.0708 13.1474 37.4851 14.8052 35.8006 15.6532C33.0609 17.039 31.7348 17.6007 29.6926 18.2597C27.8022 18.8677 25.6602 19.3082 25.8406 19.0619C26.1518 18.6329 27.8971 17.4038 29.1741 16.7217C30.2086 16.16 33.4 14.8493 34.0936 14.6964L34.1028 14.6927ZM42.9218 13.228C49.2604 13.0434 55.8152 15.0599 61.5724 18.9885C64.1982 20.7696 67.0355 23.4148 69.1316 26.0163C73.0077 30.8406 75.4578 36.0081 77.0452 42.7687C77.255 43.6551 77.617 46.2934 77.7225 47.719C78.1695 53.562 77.2716 59.3372 75.0981 64.5523C73.9859 67.2296 72.8102 69.2741 70.8843 71.9157C70.5475 72.3876 69.0504 74.1203 68.6038 74.5613C68.4875 74.6734 68.3476 74.86 68.2776 74.9533C68.1747 75.1248 68.1246 75.1344 67.9939 75.0256C67.8595 74.9076 65.6327 74.8752 65.3827 74.977C65.1511 75.0713 65.2026 74.694 65.6391 73.2206C66.8393 69.1685 67.571 65.3181 67.9257 61.1785C68.4797 54.4527 68.0139 48.2719 66.408 41.5188C65.5745 38.0143 63.611 32.8753 62.039 30.0495C61.9358 29.8756 61.6316 29.3408 61.3762 28.8726C61.1169 28.3952 60.8223 27.9105 60.7177 27.8127C60.6186 27.7019 60.551 27.589 60.5713 27.5592C60.5895 27.4978 59.7966 26.3199 58.7194 24.815C58.0712 23.9129 56.5598 22.1638 55.4908 21.0767C53.8425 19.4158 51.6386 17.6896 49.4689 16.3921C48.2219 15.6367 44.6621 14.1604 43.2802 13.8162C41.238 13.3091 41.2267 13.2813 42.9441 13.2297L42.9218 13.228ZM24.4674 20.701C24.5587 20.7394 24.8708 20.7634 25.1325 20.7432L25.6189 20.7179L24.8669 22.2119C24.0651 23.7694 23.0334 26.565 22.6354 28.2388C21.0607 34.7649 21.4375 42.4505 23.7043 49.7658C23.9334 50.4607 24.1555 51.2448 24.2389 51.5024C24.5221 52.5424 26.6142 57.4671 27.4715 59.1478C28.2084 60.5861 29.3974 62.7365 29.9317 63.5446C29.9955 63.6482 30.1549 63.9072 30.2993 64.1291C30.4344 64.3548 30.7157 64.7802 30.9125 65.0779C31.1186 65.3719 31.5535 66.0154 31.8926 66.5035C33.6564 69.1108 37.3133 73.3442 39.4404 75.2528C39.8177 75.5958 40.4377 76.1639 40.8095 76.52C41.1737 76.8575 41.5136 77.1618 41.5658 77.1838C41.6179 77.2057 41.9146 77.4304 42.2246 77.7145C43.0388 78.441 45.1957 80.0784 45.9955 80.584C46.7151 81.0252 46.8423 81.1785 46.6201 81.269C46.3052 81.3973 44.3414 83.0177 44.187 83.275C44.0179 83.549 43.9993 83.5566 43.3696 83.5215C42.0079 83.4391 38.6631 82.4907 36.1758 81.4738C35.3938 81.1444 34.7126 80.9035 34.6756 80.9186C34.6293 80.9375 34.5789 80.8932 34.5487 80.8191C34.526 80.7636 34.2613 80.5907 33.9708 80.4607C32.9315 79.9769 31.051 78.8856 29.8369 78.052C25.4335 75.0082 21.5786 70.8987 18.8591 66.3159C17.8512 64.6101 17.8718 64.6341 16.6212 61.8286C14.8541 57.8082 14.0594 54.8494 13.5028 50.1955C12.8856 45.0481 13.6007 38.8506 15.3948 33.844C16.4368 30.9146 18.1329 27.7619 20.0022 25.273C20.9174 24.0472 22.564 22.1781 23.4761 21.3423C24.2294 20.6468 24.2757 20.6279 24.4973 20.7212L24.4674 20.701ZM41.1867 14.9064C42.0864 15.0475 42.0994 15.053 43.7588 15.5217C46.2664 16.2172 48.8874 17.536 51.2755 19.3167C53.1766 20.7235 55.5472 22.9649 56.7396 24.4876C58.5573 26.803 58.8553 27.2431 60.7133 30.3735C61.3138 31.3707 62.8391 34.7446 63.4587 36.425C64.3599 38.8761 65.6617 43.6367 65.8612 45.2399C65.8848 45.457 65.9599 45.8799 66.025 46.1989C66.2146 47.1151 66.559 50.2141 66.6631 52.0073C67.112 59.0481 66.3097 66.1449 64.3261 72.9131C63.7027 75.0674 63.7229 75.0376 62.9549 75.1668C62.6136 75.2302 62.2926 75.2638 62.2127 75.2531C62.023 75.2116 61.1212 75.3305 61.0214 75.4036C60.9734 75.4447 60.8287 75.4605 60.6949 75.4502C60.1838 75.3884 57.1445 76.0648 56.1905 76.4533C56.0238 76.5212 55.803 75.9525 53.5591 69.6212C52.909 67.8129 52.2095 65.8303 51.9845 65.1985C51.0563 62.5748 50.1603 60.0568 49.4872 58.139C49.0939 57.0143 48.4095 55.0687 47.9634 53.8143C47.5042 52.5544 46.9899 51.0795 46.7989 50.531C46.6079 49.9826 46.0181 48.3224 45.476 46.8588C44.9394 45.3821 44.3743 43.8091 44.2135 43.3347C43.8767 42.3489 42.4349 38.3579 41.5488 35.9438C41.2032 35.0157 40.8572 34.0336 40.7756 33.7537C40.6847 33.4776 40.3483 32.5456 40.0438 31.6655C39.7208 30.7929 39.3296 29.6997 39.1818 29.2308C39.0193 28.7787 38.543 27.4502 38.1476 26.2939C37.7375 25.1545 37.2911 23.8462 37.1454 23.4089C36.9904 22.9753 36.6708 22.0581 36.4325 21.367C35.854 19.7346 35.2269 17.7441 35.2653 17.6529C35.2725 17.6175 36.009 17.1988 36.8974 16.729C37.7782 16.2407 38.8368 15.6584 39.2289 15.4015C40.2703 14.7506 40.2795 14.7468 41.1885 14.8841L41.1867 14.9064ZM28.7224 20.1989C29.2581 20.0563 30.6442 19.5889 31.8077 19.1583L33.9142 18.3651L34.4728 19.7897C34.7803 20.5714 35.617 22.8112 36.3313 24.777C37.0455 26.7428 37.6521 28.4177 37.6823 28.4918C37.7125 28.5659 37.8825 29.0365 38.0454 29.5425C38.2138 30.0354 38.7113 31.4956 39.178 32.774C40.6655 36.9299 42.1989 41.3046 43.0692 43.8655C43.2375 44.3584 43.5777 45.2996 43.8009 45.9538C44.0464 46.6096 44.3735 47.5453 44.5326 48.042C44.701 48.5349 45.0336 49.4576 45.2455 50.0839C46.1604 52.6483 47.234 55.6555 47.533 56.5487C47.7127 57.0693 48.2534 58.6091 48.754 59.9709C50.0656 63.6153 51.9238 68.8404 52.6726 70.9973C53.032 72.0386 53.5388 73.4951 53.8145 74.225C54.0809 74.9587 54.3967 75.8666 54.5068 76.2429L54.7228 76.9324L53.9263 77.2567C53.5079 77.4488 53.0431 77.6597 52.9079 77.7255C52.7728 77.7914 52.2082 78.0753 51.6268 78.3445C51.0584 78.6192 49.9405 79.2148 49.1577 79.6524C48.3657 80.0938 47.7198 80.4432 47.7068 80.4377C47.69 80.423 47.3017 80.106 46.8463 79.73C46.3963 79.341 45.6051 78.7239 45.1105 78.3315C42.8973 76.609 39.3888 73.2439 37.1966 70.7247C36.5776 70.0266 36.0354 69.4376 35.9853 69.4472C35.9407 69.4438 35.9033 69.405 35.903 69.3512C35.9157 69.3028 35.7058 68.9996 35.4438 68.6744C32.7146 65.2078 29.9673 60.9279 28.2949 57.4844C24.0357 48.7238 22.3488 39.4123 23.5779 31.375C23.7739 30.0534 24.4033 27.3568 24.7457 26.2888C25.4782 24.0577 27.2955 20.3806 27.645 20.4434C27.6765 20.4413 28.1567 20.3213 28.687 20.1917L28.7224 20.1989ZM58.0605 77.333C58.6648 77.1732 59.2119 77.0584 59.2418 77.0786C59.2809 77.0951 59.3937 77.6106 59.4773 78.2136C59.6154 79.2155 59.8821 80.5862 60.153 81.7284C60.2692 82.1993 60.3303 82.1636 58.7058 82.5229C58.194 82.645 57.069 82.9844 56.2296 83.2831L54.6974 83.8424L53.7492 81.5939L52.8103 79.3417L53.3972 79.0595C54.5138 78.54 56.9371 77.6501 58.068 77.3515L58.0605 77.333ZM52.6626 82.1337L53.5788 84.3303L53.3384 84.4823C53.2015 84.5704 52.8221 84.7789 52.4853 84.9593C51.3489 85.5625 50.7812 85.9449 49.6656 86.9175C49.0506 87.4487 48.4777 87.898 48.3776 87.9172C48.2682 87.9402 48.0233 87.6836 47.6375 87.1605C47.3079 86.7224 46.612 85.9153 46.0571 85.3747C45.517 84.8172 45.0776 84.3483 45.0794 84.326C45.1473 84.2012 47.1893 82.6137 47.9604 82.0944C49.2588 81.2525 51.3865 80.008 51.6369 79.96C51.6962 79.9466 52.095 80.7668 52.6626 82.1337ZM61.6538 76.7441C64.9534 76.4152 68.0312 76.2306 68.0802 76.351C68.0915 76.3788 68.0236 76.7952 67.9319 77.286C67.7336 78.2306 67.6553 79.0723 67.602 80.6381C67.5793 81.1656 67.5504 81.5985 67.5226 81.6098C67.4948 81.6211 66.6463 81.632 65.6454 81.6401C64.6353 81.652 63.3302 81.7085 62.7289 81.7698L61.6395 81.8788L61.4845 81.4452C61.2709 80.8411 60.3902 76.9024 60.455 76.876C60.492 76.8609 61.0302 76.8037 61.663 76.7403L61.6538 76.7441ZM59.1337 83.8387C59.8791 83.6539 60.4965 83.4996 60.5225 83.5106C60.5486 83.5216 60.7194 84.0999 60.8946 84.7952C61.0828 85.4959 61.26 86.2228 61.317 86.4155C61.3739 86.6083 61.606 87.4964 61.8398 88.3621C62.0682 89.2409 62.4327 90.5069 62.6264 91.1947L62.9963 92.4477L62.6444 92.591C62.098 92.8136 58.5774 93.74 58.4508 93.6943C58.434 93.6796 58.292 93.2515 58.1309 92.7233C57.979 92.1913 57.2634 90.3016 56.5391 88.5234C55.8149 86.7453 55.2392 85.2522 55.2611 85.2C55.3232 85.0344 57.5579 84.2646 59.1245 83.8425L59.1337 83.8387ZM55.65 89.7602C56.5199 91.9757 57.2167 93.8191 57.191 93.8619C57.1652 93.9048 56.2398 94.0981 55.112 94.2983C53.9842 94.4985 52.866 94.7488 52.6067 94.8544C52.3011 94.9789 52.1193 95.0097 52.0723 94.9209C52.0404 94.8691 51.8974 94.571 51.7674 94.2784C51.2932 93.2731 50.2126 91.2297 49.2287 89.5033C48.9695 89.0258 48.9125 89.1246 49.7035 88.5217C49.8699 88.4 50.3724 87.9901 50.827 87.6215C51.6509 86.9403 52.5925 86.3625 53.5351 85.9462L54.063 85.7312L55.6369 89.7547L55.65 89.7602ZM63.3825 82.9505C64.4273 82.8381 67.4659 82.637 67.5609 82.6847C67.587 82.6957 67.6583 83.4009 67.7192 84.2399C67.7802 85.0789 67.9066 86.2907 68.0091 86.94C68.0986 87.5838 68.2628 88.5967 68.3389 89.1812C68.4242 89.7619 68.5336 90.322 68.5713 90.4146C68.6392 90.5813 68.5634 90.6338 67.8966 90.9054C67.1186 91.2222 64.3574 92.1309 64.2699 92.1017C64.2439 92.0907 64.1259 91.6421 64.0148 91.1043C63.8852 90.574 63.6775 89.7192 63.5369 89.215C63.3833 88.7053 63.2575 88.1842 63.2194 88.0378C63.1813 87.8913 63.0504 87.4372 62.9345 87.0201C62.8001 86.6105 62.5395 85.6261 62.3396 84.8437C62.1435 84.0706 61.959 83.3791 61.9402 83.3327C61.876 83.1753 62.1875 83.0916 63.3955 82.9559L63.3825 82.9505ZM54.9589 95.9372C55.1945 95.906 55.7584 95.8059 56.2091 95.7195C56.6506 95.6369 57.0347 95.5992 57.0423 95.6177C57.0536 95.6455 56.9966 96.0358 56.9122 96.4913C56.546 98.5084 56.6145 99.6575 57.1693 101.073C57.4484 101.758 57.6137 102.058 57.8246 102.231C59.1406 103.315 60.6687 102.401 60.8199 100.439L60.8834 99.614L60.2686 98.1044C59.9291 97.2709 59.4809 96.2765 59.2686 95.8879L58.8965 95.1864L59.9458 94.8994C60.5241 94.7287 61.6066 94.4174 62.3184 94.2031C63.0486 93.9812 63.653 93.8214 63.6753 93.8232C63.7014 93.8341 63.7085 94.3819 63.6941 95.0356C63.6771 96.7702 63.7624 97.6424 64.0953 98.619C64.4379 99.6456 64.7819 100.013 65.5015 100.163C65.9124 100.244 66.0626 100.215 66.5013 99.9929C67.2196 99.6356 67.5983 99.0279 67.6687 98.1138C67.713 97.4803 67.6897 97.317 67.2611 96.1851C66.8325 95.0531 66.7461 94.894 66.2392 94.3122C65.2443 93.1949 65.1472 93.4073 67.1085 92.576C68.0456 92.1728 68.8105 91.8504 68.8105 91.8504C68.8105 91.8504 68.8496 92.45 68.8968 93.1758C68.9571 93.9071 69.0331 95.3662 69.0934 96.389C69.1885 98.2398 69.3694 100.142 69.7793 103.322C69.9966 105.102 70.0368 104.988 68.8136 105.67C66.1987 107.124 61.8069 108.297 58.8766 108.314L58.2304 108.318L57.3694 106.336C56.0015 103.19 54.4748 99.8919 54.1072 99.3074C53.9289 99.0021 53.5324 98.2673 53.2519 97.6581C52.7588 96.6065 52.7324 96.5416 52.8933 96.4329C53.0634 96.3204 54.1185 96.0743 54.9626 95.9464L54.9589 95.9372ZM59.1387 98.5646C59.6448 99.9133 59.7202 100.682 59.3847 101.077C58.747 101.845 58.0568 99.5667 58.2697 97.3853L58.3376 96.6774L58.505 97.0087C58.599 97.1864 58.8856 97.8903 59.1425 98.5739L59.1387 98.5646ZM65.4828 95.3977C65.9838 96.2302 66.3764 97.5388 66.3434 98.2001C66.3149 98.6868 65.9825 98.9841 65.6656 98.7893C65.3188 98.5742 65.0278 97.1703 65.0142 95.5993C65.018 95.317 65.0067 94.9977 64.9968 94.8938C64.9906 94.7991 64.9937 94.7007 65.0308 94.6856C65.0493 94.678 65.2574 95.0036 65.492 95.3939L65.4828 95.3977Z" fill="#22232D"/>
<path fillRule="evenodd" clipRule="evenodd" d="M60.5817 13.2158C60.5374 13.2662 60.5138 13.3406 60.5827 13.3773C60.6293 13.4123 60.6167 13.4607 60.5703 13.4795C60.3388 13.5738 60.6526 13.8671 61.8815 14.6839C65.1428 16.8325 67.3392 18.8317 70.9601 22.9501C73.2212 25.506 74.1952 26.5454 74.4261 26.6349C74.828 26.7735 75.1765 26.6748 75.3323 26.3414C75.4898 25.9857 75.3632 25.6486 74.785 24.9447C74.5343 24.6473 73.8755 23.825 73.3103 23.1266C69.5039 18.4467 65.5286 14.9693 62.3683 13.5463C61.5267 13.1764 60.7978 13.0306 60.5872 13.2027L60.5817 13.2158Z" fill="#22232D"/>
<path fillRule="evenodd" clipRule="evenodd" d="M76.9254 30.1736C76.8853 30.2871 77.0255 30.7375 77.3664 31.4949L77.8657 32.6412L78.1682 32.6152C78.6045 32.5994 78.8745 32.1224 78.7504 31.579C78.6112 30.9987 78.0498 30.018 77.7555 29.8787C77.4743 29.7449 77.0092 29.9019 76.9309 30.1605L76.9254 30.1736Z" fill="#22232D"/>
<path fillRule="evenodd" clipRule="evenodd" d="M79.6176 37.2077C79.5555 37.3733 79.6535 38.1972 79.8972 39.4584C80.6391 43.4538 80.8604 45.2964 81.048 48.8587C81.2575 52.9521 81.2441 52.8928 81.8032 52.9134C82.1524 52.9224 82.4882 52.5804 82.5764 52.1342C82.6413 51.8162 82.6439 50.1524 82.5828 49.8965C82.5581 49.8094 82.5462 49.6739 82.5643 49.6125C82.6165 49.3429 82.5564 47.1539 82.4694 46.0124C82.3498 44.4198 82.1726 43.1099 81.8021 41.1661C81.27 38.3487 80.8424 37.0867 80.3914 36.8277C80.1493 36.7104 79.7161 36.9192 79.6083 37.2114L79.6176 37.2077Z" fill="#22232D"/>
</g>
<defs>
<clipPath id="clip0_9_153">
<rect width="71" height="100" fill="white" transform="translate(0.392502 26.7812) rotate(-22.1603)"/>
</clipPath>
</defs>
</svg>
