<svg width="237" height="153" viewBox="0 0 237 153" fill="none" xmlns="http://www.w3.org/2000/svg">
<path d="M119.256 44.5742C119.152 44.8379 119.036 45.1077 118.913 45.3836C118.355 46.6589 117.754 47.8546 117.049 48.946C117.239 48.6885 117.423 48.4248 117.601 48.1551C118.349 46.9962 118.882 45.8005 119.25 44.5803L119.256 44.5742Z" fill="#030303"/>
<path d="M111.451 58.1C111.169 57.6217 111.126 57.0147 111.01 56.4751C110.991 56.3832 110.973 56.2912 110.954 56.1992C111.016 56.702 111.083 57.2109 111.144 57.7137C111.169 57.8977 111.279 58.051 111.426 58.1184C111.439 58.1184 111.445 58.1061 111.457 58.1C111.457 58.1 111.457 58.1 111.451 58.0939V58.1Z" fill="#030303"/>
<path d="M120.612 33.0465C120.513 32.9055 120.372 32.8564 120.237 32.8748C120.25 32.8871 120.268 32.9055 120.28 32.9238C120.391 32.9668 120.501 33.0158 120.612 33.0465Z" fill="#030303"/>
<path d="M117.644 49.9579C115.982 52.012 113.965 53.4835 111.758 54.4401C111.77 54.4707 111.788 54.4891 111.794 54.5259C111.911 55.0716 112.027 55.6173 112.15 56.163C112.242 56.5861 112.395 57.0521 112.426 57.4997C113.431 56.9111 114.492 56.5309 115.669 57.0889C117.668 58.0331 117.693 60.6084 118.159 62.4234C118.57 64.0176 119.539 65.2561 119.618 66.7093C119.882 66.5805 120.139 66.4518 120.409 66.3353C121.261 65.8202 122.353 65.4462 123.53 65.1703C126.786 64.177 130.269 63.7355 133.537 63.7723C139.202 63.8397 143.078 65.8632 146.248 70.5354C149.969 76.0109 150.938 83.2093 153.029 89.3838C153.452 90.6408 153.9 91.8916 154.353 93.1486C156.089 88.5192 157.364 83.7366 157.977 78.8253C158.971 68.9044 157.763 56.3899 149.344 49.7862C145.481 46.7511 140.956 45.5187 136.321 44.1636C132.893 43.158 129.741 41.852 126.964 39.5588C125.002 37.9339 122.77 36.1864 121.261 34.071C121.053 34.0526 120.838 34.022 120.618 33.9668C122.022 39.2583 121.071 45.721 117.638 49.9702L117.644 49.9579Z" fill="#030303"/>
<path d="M118.282 66.6416C118.263 66.8623 118.232 67.0892 118.183 67.3161C118.165 67.3897 118.171 67.4571 118.183 67.5184C118.208 67.4816 118.239 67.4571 118.275 67.4264C118.312 67.1689 118.312 66.9053 118.282 66.6416Z" fill="#030303"/>
<path d="M145.083 70.958C145.365 71.5098 145.634 72.0617 145.916 72.5767C146.566 73.7601 147.149 74.9435 147.67 76.1514C147.541 75.8019 147.419 75.4524 147.278 75.1091C146.658 73.5639 145.929 72.1782 145.083 70.958Z" fill="#030303"/>
<path d="M98.5073 26.9764C99.1817 27.283 99.7581 26.3632 99.102 25.9647C95.2269 23.5918 88.01 25.5968 85.3183 29.0734C84.7787 29.7724 85.7475 30.7596 86.2993 30.0544C88.6845 27.007 94.9632 25.3577 98.5134 26.9764H98.5073Z" fill="#030303"/>
<path d="M105.448 25.2969C106.865 24.2177 108.03 22.9792 109.759 22.3599C111.574 21.7099 113.566 21.6364 115.43 22.1146C116.117 22.2924 116.411 21.2256 115.725 21.0477C111.764 20.036 106.999 20.7044 104.7 24.5427C104.436 24.9842 105.001 25.6464 105.454 25.2969H105.448Z" fill="#030303"/>
<path d="M180.388 51.2945C177.641 49.8291 174.631 49.0626 171.516 49.1301C170.909 49.1423 170.927 50.0069 171.516 50.0621C174.483 50.3441 177.255 51.0738 180.002 52.2081C180.529 52.4227 180.879 51.5582 180.388 51.2945Z" fill="#030303"/>
<path d="M172.435 52.1772C171.927 52.1772 171.779 52.9988 172.313 53.0908C174.189 53.4219 175.961 53.9247 177.733 54.6176C178.273 54.826 178.598 53.9799 178.119 53.704C176.39 52.6923 174.434 52.1588 172.435 52.1772Z" fill="#030303"/>
<path d="M182.289 37.4369C182.203 37.5104 182.16 37.5963 182.142 37.6821C181.872 37.9519 181.621 38.2585 181.388 38.6018C181.4 37.6331 181.253 36.5662 180.535 35.9346C179.603 35.1069 178.604 35.5422 177.917 36.4006C177.85 36.4865 177.825 36.5723 177.807 36.6643C176.286 38.749 175.906 42.5383 176.12 45.0093C176.262 46.6403 177.862 49.191 179.462 47.4558C179.971 48.7312 181.044 49.6203 182.399 48.1671C182.749 47.7931 182.988 47.2841 183.178 46.7384C183.025 51.613 183.018 56.5367 180.492 60.8901C179.634 62.3739 179.07 63.5144 178.867 65.268C178.757 66.2122 178.812 67.1933 178.849 68.1621C175.152 67.9107 171.424 67.5489 167.739 67.8555C167.119 64.569 166.506 60.9882 165.102 58.0082C164.507 56.7451 163.814 56.2055 162.686 55.4452C160.467 53.943 158.235 52.686 156.487 50.5891C156.175 50.215 154.93 48.9826 154.936 48.4369C154.961 46.5483 157.787 47.8911 158.639 48.4062C160.093 49.283 161.061 50.8282 162.576 51.6069C163.796 52.2323 164.9 51.9809 166.23 52.1035C169.455 52.404 171.197 54.875 172.141 57.7384C172.386 58.4742 173.558 58.1615 173.312 57.4135C172.055 53.6119 169.903 51.564 166.316 51.0121C166.316 50.9876 166.328 50.9692 166.328 50.9385C166.328 46.1621 167.567 41.7596 168.376 37.0812C168.671 35.3766 168.983 33.6537 169.498 31.9982C169.67 31.4525 170.081 29.4965 170.535 29.2941C172.527 28.4051 172.38 30.7105 172.368 31.5996C172.301 35.1988 170.627 38.5651 170.945 42.2133C170.945 42.2808 170.97 42.336 170.995 42.385C170.988 42.943 171.007 43.4703 171.05 43.9486C171.197 45.6715 172.975 48.4246 174.661 46.0701C175.354 45.1013 175.28 43.4335 175.526 42.3053C175.808 41.0116 176.163 39.7423 176.268 38.4179C176.36 37.2958 176.396 35.7078 175.458 34.88C174.569 34.0952 173.625 34.4569 172.938 35.2356C173.061 34.5489 173.177 33.856 173.275 33.157C173.478 31.7468 173.662 30.1342 173.042 28.7852C172.16 26.8599 170.651 27.0991 169.59 28.7484C167.199 32.4764 167.432 37.7005 166.433 41.8822C165.691 44.9664 165.262 47.6766 165.262 50.8956C165.182 50.8956 165.108 50.8834 165.029 50.8772C162.042 50.7239 160.565 47.6827 157.879 46.6158C156.886 46.2234 154.599 45.4569 153.63 46.4073C151.723 48.2897 156.561 52.5818 157.72 53.5383C160.129 55.5188 163.422 56.5121 164.507 59.6208C165.452 62.3248 166.108 65.1454 166.702 67.9536C166.12 68.021 165.537 68.113 164.955 68.2234C164.262 68.3522 164.366 69.3332 164.955 69.5233C166.954 70.1671 166.169 77.3472 165.881 79.0333C164.906 84.7479 161.693 90.1989 159.78 95.656C158.915 98.1331 158.247 100.635 157.695 103.173C156.763 99.7825 155.555 96.4531 154.366 93.1421C153.912 91.8851 153.464 90.6342 153.041 89.3773C150.95 83.2028 149.976 76.0043 146.26 70.5289C143.084 65.8566 139.215 63.8393 133.549 63.7658C130.281 63.7228 126.798 64.1704 123.542 65.1638C122.469 65.4887 121.427 65.8811 120.421 66.3287C120.152 66.4514 119.894 66.574 119.63 66.7028C119.551 65.2557 118.582 64.011 118.171 62.4168C117.705 60.6019 117.674 58.0266 115.682 57.0824C114.504 56.5244 113.444 56.9045 112.438 57.4932C112.407 57.0456 112.254 56.5796 112.162 56.1565C112.046 55.6108 111.929 55.0651 111.807 54.5194C111.8 54.4826 111.782 54.4642 111.77 54.4335C113.977 53.477 115.988 52.0054 117.656 49.9514C121.09 45.7083 122.04 39.2395 120.636 33.948C120.857 33.997 121.071 34.0338 121.28 34.0522C124.732 34.3159 126.516 29.8828 126.099 26.5411C125.836 24.4196 124.695 22.2183 122.617 21.3967C120.495 20.5567 118.741 21.7523 118.085 23.7757C117.932 24.2479 118.668 24.5667 118.895 24.113C119.814 22.2858 121.476 21.6052 123.168 22.9664C124.517 24.0455 125.088 25.7685 125.149 27.4485C125.247 30.128 123.708 33.948 120.63 33.0467C120.526 33.016 120.409 32.9608 120.299 32.924C120.287 32.9056 120.268 32.8934 120.256 32.875C120.127 32.7401 119.949 32.7156 119.784 32.7707C119.416 32.7891 119.177 33.2613 119.459 33.5065C119.992 37.259 120.329 41.0361 119.269 44.574C118.901 45.8003 118.367 46.996 117.619 48.1487C117.442 48.4246 117.258 48.6883 117.067 48.9397C111.8 56.0155 101.837 56.2117 94.5769 52.1035C94.0803 51.8215 93.6388 52.5818 94.1293 52.8639C99.1695 55.7641 105.381 56.7022 110.691 54.8505C110.783 55.2981 110.875 55.7457 110.973 56.1933C110.991 56.2853 111.01 56.3772 111.028 56.4692C111.138 57.0027 111.187 57.6158 111.469 58.0941C111.469 58.0941 111.469 58.0941 111.476 58.1002C111.463 58.1002 111.457 58.1125 111.445 58.1186C111.138 58.3209 110.838 58.5172 110.537 58.6888C107.57 60.375 104.504 60.1297 101.254 60.2953C99.7765 60.3689 97.7163 60.3259 96.539 61.3806C95.883 59.7373 95.0307 58.1554 94.2213 56.7329C93.0686 54.7156 91.2291 53.5077 89.4264 52.2323C89.0585 51.9686 88.6906 51.705 88.3289 51.4291C87.7403 50.9815 87.17 50.5032 86.655 49.9636C83.6689 46.8733 82.0686 42.1582 82.0011 37.8967C81.9827 36.7746 82.3935 35.1375 82.3322 33.7457C82.3016 33.0589 82.1605 32.4274 81.7988 31.9491C79.4443 28.8098 78.2057 35.162 78.1137 36.3638C78.0953 36.5968 78.0953 36.8298 78.0892 37.0628C78.0769 36.9402 78.0647 36.8237 78.0463 36.7011C77.893 35.3889 77.66 31.5567 75.7531 31.4463C75.5568 31.4341 75.3422 31.4463 75.1092 31.526C73.2452 32.1331 73.2085 35.0701 73.3863 37.1793C73.1165 36.1124 72.8099 35.0517 72.3684 34.0706C71.7675 32.7401 70.5535 31.4892 69.3946 32.9424C68.3952 34.1994 68.6037 36.4865 68.7753 37.9212C69.1555 41.1097 70.2285 44.2245 71.5284 47.2228C71.7553 47.744 71.9883 48.2591 72.2213 48.768C71.9331 48.3326 71.6633 47.885 71.4058 47.4252C70.9153 46.5606 70.4677 45.6654 70.0446 44.7579C69.2413 43.0288 68.6527 40.5394 67.3222 39.123C66.7519 38.5099 66.2308 38.1604 65.4214 38.5835C63.7965 39.4357 64.5139 42.1643 64.8941 43.458C65.7341 46.3153 66.942 49.3995 68.5853 52.1526C70.0507 54.5991 71.8595 56.7942 74.0914 58.3393C77.9298 61.0004 83.7425 62.8828 85.1957 67.6164C84.84 67.7206 84.4844 67.831 84.1288 67.9475C83.5585 68.1376 83.4236 69.1247 84.1288 69.2474C85.0301 69.4007 85.5697 70.7189 85.9069 72.1599C81.4799 72.2212 76.2558 72.6749 73.092 76.0779C72.5646 76.642 72.1354 77.2736 71.7675 77.9481C70.5903 80.1186 70.1366 82.7429 69.738 85.1097C68.5423 92.1794 69.7809 99.9787 70.1611 107.097C70.5596 114.578 70.2531 122.524 71.6204 129.901C72.908 136.823 77.6171 142.354 82.8963 146.738C86.3361 149.589 89.9354 153.323 94.6321 151.815C99.3963 150.288 103.155 146.591 105.16 142.066C108.097 135.425 109.845 128.165 110.139 120.912C110.905 102.106 101.518 85.0361 100.451 66.4943C100.433 66.1509 100.157 65.7953 99.7765 65.8198C99.0836 65.8689 98.3908 65.9118 97.6979 65.9547C97.6121 64.7652 97.3239 63.5573 96.9131 62.3678C97.0663 62.3923 97.2319 62.3555 97.3852 62.2206C99.2982 60.4976 104.559 61.6197 107.006 61.1844C108.937 60.841 110.396 60.1236 112.027 59.0812C113.297 58.2719 114.572 57.113 116.209 59.2161C116.982 60.2094 116.884 61.9876 117.227 63.171C117.583 64.385 118.183 65.5255 118.306 66.6415C118.337 66.9051 118.331 67.1688 118.3 67.4263C118.269 67.457 118.232 67.4815 118.208 67.5183C118.122 67.647 118.122 67.8003 118.177 67.9352C118.042 68.3338 117.816 68.7262 117.442 69.1247C116.209 70.443 114.253 71.1788 112.573 71.7061C109.55 72.6565 106.251 73.147 103.088 72.865C102.407 72.8037 102.413 73.8644 103.088 73.9258C107.19 74.2998 111.886 73.5149 115.584 71.6939C117.037 70.9765 118.557 69.9648 119.281 68.4503C119.367 68.2663 119.434 68.0946 119.489 67.9168C123.702 65.7217 128.889 64.802 133.561 64.9062C138.749 65.0227 142.495 67.1872 145.107 70.9519C145.953 72.1721 146.683 73.5578 147.302 75.103C147.443 75.4464 147.566 75.7959 147.695 76.1454C149.62 81.2836 150.773 86.7836 152.569 91.9709C154.176 96.6125 155.494 101.395 157.137 106.018C156.824 107.68 156.555 109.354 156.291 111.034C156.181 111.095 156.083 111.193 156.027 111.334C155.512 112.683 154.36 113.707 153.802 115.062C152.716 117.705 152.729 120.924 153.201 123.689C153.299 124.278 154.231 124.125 154.225 123.548C154.2 120.599 153.777 117.472 155.23 114.762C155.433 114.388 155.672 114.032 155.917 113.689C155.414 117.975 155.463 122.199 157.413 126.21C157.781 126.97 158.86 126.301 158.535 125.553C156.04 119.845 157.002 113.401 158.167 107.367C158.425 107.3 158.639 107.055 158.566 106.693C158.523 106.478 158.468 106.27 158.425 106.061C158.517 105.595 158.609 105.129 158.701 104.669C159.872 98.7156 162.067 93.0746 164.372 87.4826C166.089 83.3254 167.53 79.4932 167.469 74.9742C167.45 73.564 167.561 70.8661 166.629 69.2964C166.751 69.278 166.868 69.2658 166.991 69.2474C166.991 69.2474 166.991 69.2535 166.991 69.2596C167.113 69.8483 167.929 69.6704 167.984 69.1493C171.577 68.8549 175.219 69.229 178.806 69.4804C177.384 88.6905 185.158 107.625 178.714 126.565C176.163 134.058 171.706 144.126 162.6 144.837C158.541 145.156 155.66 141.716 153.06 139.043C150.202 136.1 147.725 132.905 146.401 129.104C144.886 122.782 144.966 116.148 144.108 109.722C142.765 99.6476 141.342 89.4141 138.89 79.5484C138.73 78.8984 137.725 79.1744 137.884 79.8243C140.226 89.3405 141.563 99.1816 142.881 108.882C143.654 114.566 143.74 120.342 144.617 126.007C144.494 126.142 144.414 126.32 144.457 126.547C144.684 127.841 145.034 129.073 145.493 130.256C146.867 135.18 149.405 140.435 147.891 145.414C147.658 146.174 148.853 146.505 149.08 145.745C150.117 142.317 149.313 138.761 148.265 135.327C148.467 135.615 148.676 135.904 148.896 136.186C151.22 139.208 154.317 142.906 157.53 144.984C161.239 147.388 166.445 145.739 169.774 143.482C175.563 139.546 178.641 131.636 180.597 125.167C182.847 117.711 183.16 109.912 182.614 102.186C181.829 91.0573 179.26 80.0573 180.204 68.8549C180.223 68.6403 180.112 68.4687 179.959 68.346C179.94 68.0272 179.922 67.7145 179.928 67.4386C179.947 66.0712 179.977 64.5935 180.449 63.2998C180.915 62.0121 181.866 60.9023 182.418 59.6392C184.594 54.6359 183.95 48.9519 184.282 43.6359C184.686 42.6609 185.091 41.6922 185.33 40.6437C185.821 38.5037 184.95 35.1743 182.319 37.4123L182.289 37.4369ZM173.527 36.094C173.527 36.094 173.551 36.0818 173.558 36.0695C175.017 34.2852 175.231 37.0874 175.244 37.4552C175.25 37.7741 175.225 38.0991 175.195 38.4179C175.109 39.356 174.9 40.2758 174.68 41.1832C174.459 42.0723 174.33 44.3716 173.852 45.0277C173.459 45.5673 172.975 46.6465 172.38 44.948C172.307 44.7395 172.251 44.5249 172.215 44.3042C172.123 44.0589 172.16 43.7708 172.147 43.5071C172.123 42.7958 172.196 42.0662 172.27 41.361C172.466 39.5338 172.871 37.7925 173.521 36.0879L173.527 36.094ZM81.5719 61.5645C77.5373 58.8115 73.3004 57.2234 70.5658 52.9374C68.7631 50.1108 67.2976 47.0634 66.243 43.8811C65.9855 43.1024 64.986 38.982 66.4638 39.9998C66.9236 40.3187 67.1995 41.361 67.4264 41.8577C69.2413 45.788 70.7436 49.9698 74.1772 52.8209C74.6862 53.244 75.4036 52.7228 75.097 52.1097C73.092 48.0996 71.1299 43.9118 70.204 39.4971C69.9281 38.191 69.2291 35.2479 70.1733 33.9725C70.6577 33.3226 70.1488 33.2551 70.9643 33.9235C71.8289 34.6347 72.0925 37.3204 72.3684 38.3505C73.4231 42.2379 74.7168 45.9475 76.7586 49.3811C77.0345 49.8655 77.335 50.3438 77.6538 50.7975C78.083 51.4045 79.0886 50.8404 78.6655 50.2089C78.3651 49.7674 78.0892 49.3137 77.8133 48.8599C76.2681 46.1621 75.4097 43.0288 74.9008 39.9998C74.631 38.3934 74.4225 36.6888 74.5819 35.0578C74.7536 33.3042 75.7714 31.7836 76.4398 34.3956C77.1081 37.0076 76.8813 39.7301 77.7213 42.3114C78.4203 44.4514 79.3952 48.0751 81.0753 49.7061C81.5658 50.1844 82.32 49.5835 82.0072 48.9887C80.2352 45.6347 79.199 42.1214 79.2174 38.3137C79.2174 37.2652 79.1867 33.0037 80.4069 33.5372C81.4431 33.9909 80.7196 37.9458 80.8361 39.1659C81.2347 43.4764 82.8902 48.0874 86.0909 51.1286C88.1081 53.0417 90.7938 54.1453 92.5597 56.3282C94.5463 58.7931 96.4716 62.8828 96.6985 66.016C93.1851 66.2368 89.6472 66.4882 86.238 67.3404C85.6739 64.8878 83.7731 63.0667 81.578 61.5707L81.5719 61.5645ZM99.1388 67.1994C100.108 81.1916 105.792 94.2641 107.944 108.06C108.998 114.805 109.164 121.672 107.919 128.405C106.785 134.548 104.952 142.207 100.377 146.72C98.7832 148.295 96.8395 149.565 94.7302 150.337C92.2653 151.239 90.7141 150.815 88.4944 149.289C83.0803 145.567 77.6416 140.968 74.68 134.978C71.5468 128.65 72.1784 120.771 71.8043 113.873C71.4548 107.478 71.0808 101.089 70.7742 94.6933C70.529 89.6225 70.3573 83.7362 72.6198 78.9843C74.9927 73.9932 81.2101 73.4536 86.1338 73.3923C86.2932 74.3427 86.3852 75.2072 86.4465 75.6671C86.8512 78.5122 86.7163 81.1365 86.1031 83.9754C84.5886 91.0144 82.4058 97.8572 81.7068 105.062C81.1366 110.954 81.4002 116.853 82.228 122.702C82.3997 123.929 82.5897 125.186 82.8166 126.449C81.1795 130.097 81.2715 134.266 82.7737 137.964C82.9638 138.436 83.6995 138.264 83.5585 137.749C82.7614 134.849 82.4732 131.66 83.2642 128.736C84.0061 132.126 85.1098 135.456 87.0167 138.264C87.4827 138.945 88.5925 138.319 88.1388 137.608C84.6867 132.218 83.7363 125.069 83.1109 118.827C82.4058 111.727 82.7553 104.633 84.1901 97.6365C85.5084 91.2106 88.5312 84.3003 88.01 77.666C87.8751 75.9308 87.7157 71.7674 86.3913 69.4865C86.3913 69.4865 86.3913 69.4804 86.3913 69.4742C86.3913 69.4313 86.3913 69.3884 86.3913 69.3393C86.4036 69.1186 86.4097 68.8979 86.4036 68.6833C88.1388 68.2418 89.9108 67.9597 91.6951 67.7635C94.1661 67.4876 96.6678 67.3711 99.1388 67.2056V67.1994ZM179.763 42.2317C179.744 42.3114 179.726 42.4034 179.707 42.5015C179.413 43.5868 179.229 44.666 179.156 45.5734C179.156 45.6225 179.156 45.6777 179.156 45.7329C179.094 45.8739 179.021 45.9965 178.941 46.0762C178.696 46.7262 177.874 47.3148 177.469 45.9965C177.396 45.788 177.341 45.5734 177.304 45.3527C177.212 45.1074 177.249 44.8131 177.236 44.5556C177.212 43.8443 177.285 43.1147 177.359 42.4095C177.555 40.5823 177.96 38.841 178.61 37.1364C178.622 37.1241 178.634 37.1241 178.641 37.1119C180.1 35.3276 180.314 38.1297 180.327 38.4976C180.333 38.8165 180.308 39.1414 180.278 39.4603C180.192 40.3984 179.983 41.3181 179.763 42.2256V42.2317ZM184.466 39.3622C184.435 39.865 184.288 40.3739 184.153 40.8521C183.908 41.7412 183.552 42.5996 183.19 43.4458C182.767 44.4268 182.467 46.4502 181.725 47.1186C180.664 48.0751 180.223 46.5116 180.284 45.6409C180.333 45.3834 180.37 45.1197 180.4 44.856C180.505 44.3349 180.652 43.8198 180.787 43.317C181.289 41.5021 182.001 39.8098 182.939 38.1849C182.963 38.1665 182.994 38.1604 183.018 38.142C184.551 36.8605 184.502 38.8226 184.466 39.3499V39.3622Z" fill="#030303"/>
<path d="M88.4025 51.4907C88.4025 51.4907 88.3411 51.4539 88.3105 51.4355C88.6722 51.7115 89.0401 51.9813 89.408 52.2388C89.0892 51.969 88.7581 51.7176 88.4025 51.4907Z" fill="#030303"/>
<path d="M85.8824 72.1606C85.5452 70.7258 85.0056 69.4014 84.1042 69.2481C83.3991 69.1316 83.534 68.1444 84.1042 67.9482C84.4599 67.8317 84.8155 67.7213 85.1711 67.6171C83.7179 62.8835 77.9052 61.0012 74.0669 58.3401C71.835 56.7949 70.0201 54.5998 68.5607 52.1533C67.4448 54.2503 66.5557 56.4331 66.0407 58.8429C64.563 65.7409 66.2553 73.252 71.7492 77.9488C72.117 77.2743 72.5463 76.6427 73.0736 76.0786C76.2375 72.6756 81.4615 72.2219 85.8885 72.1606H85.8824Z" fill="#030303"/>
<path d="M71.5039 47.2295C71.461 47.2969 71.418 47.3644 71.3813 47.4318C71.6388 47.8917 71.9086 48.3393 72.1968 48.7746C71.9576 48.2596 71.7308 47.7445 71.5039 47.2295Z" fill="#030303"/>
<path d="M78.0279 36.7076C78.0401 36.8302 78.0524 36.9467 78.0708 37.0693C78.083 36.8363 78.0769 36.6034 78.0953 36.3704C78.1873 35.1747 79.4259 28.8224 81.7804 31.9556C82.1421 32.44 82.2832 33.0654 82.3138 33.7522C82.4548 33.2187 82.5714 32.765 82.6756 32.4952C84.0307 28.9205 87.354 26.6886 89.175 23.3837C89.2425 23.3531 89.3099 23.304 89.359 23.2182C90.4565 21.3542 91.9526 17.9266 92.3634 14.7505C92.6516 15.2287 92.9092 15.707 93.1054 15.9277C93.6756 16.5716 94.3255 17.1111 95.0859 17.5097C96.5513 18.2823 98.262 18.4233 99.893 18.3252C102.579 18.1596 106.889 16.498 110.353 16.59C111.181 16.7923 111.991 17.0437 112.726 17.3993C114.762 18.3804 116.258 20.2444 117.957 21.7037C118.085 21.8937 118.337 21.9121 118.533 21.8202C118.539 21.8202 118.545 21.814 118.551 21.8079C118.588 21.7895 118.619 21.765 118.649 21.7405C118.674 21.7221 118.692 21.7037 118.711 21.6791C118.717 21.6669 118.729 21.6608 118.735 21.6485C118.827 21.5197 118.864 21.3664 118.784 21.2131C117.405 14.8547 116.086 9.16464 109.887 5.87199C107.404 4.55371 104.608 3.86084 101.806 3.76887C98.8016 3.66463 94.7364 3.83631 92.2101 5.73096C92.0201 5.87199 91.8545 6.01915 91.6951 6.16018C91.8852 4.2594 91.7687 2.35248 91.3517 0.408775C91.2659 0.0163554 90.6895 -0.149202 90.4197 0.163507C88.5312 2.3586 90.1806 5.02584 89.5061 7.45394C88.5251 6.49128 87.354 5.69417 86.1951 4.99518C85.1895 4.38815 83.5953 3.29674 82.3383 3.35805C79.3768 3.49908 82.7921 6.47901 84.2391 7.58269C84.2023 7.58269 84.1594 7.58883 84.1226 7.59496C82.1728 7.77891 80.0697 8.14067 78.4448 9.30566C77.8684 9.71647 78.4203 10.6791 79.0028 10.2622C80.18 9.42216 81.6516 9.00522 83.1416 8.80288C81.8417 9.5264 80.6276 10.4584 79.5485 11.3046C76.4888 13.6959 74.2876 16.823 73.515 20.6736C72.6934 24.7633 73.9994 27.8352 75.7285 31.4529C77.6354 31.5571 77.8684 35.3954 78.0217 36.7076H78.0279ZM95.3372 14.4623C98.3724 15.3636 101.702 15.4127 104.817 15.7867C105.387 15.8542 105.982 15.9155 106.589 15.9829C105.559 16.1791 104.571 16.4121 103.695 16.59C101.033 17.1295 97.8696 17.8347 95.3679 16.3753C94.1968 15.6947 93.5836 14.0944 92.6639 13.1072C93.461 13.7081 94.3807 14.1803 95.3311 14.4623H95.3372ZM90.573 2.30955C90.7692 3.71368 90.7999 5.09941 90.6527 6.49128C90.6282 5.07489 90.2971 3.58492 90.573 2.30955ZM83.0435 5.21591C82.7369 4.86028 82.1605 4.63955 82.7553 4.58436C83.3562 4.53531 84.4353 5.29562 84.9627 5.58994C85.9192 6.12338 86.888 6.72427 87.7648 7.41714C87.2068 7.39261 86.6366 7.40488 86.097 7.43553C85.723 7.22093 85.3551 7.0002 84.9994 6.7672C84.3188 6.31346 83.5769 5.84133 83.0435 5.22204V5.21591Z" fill="#030303"/>
<path d="M120.71 24.1986C120.029 26.1791 119.342 28.1596 118.662 30.1462C118.527 30.5386 118.944 30.8881 119.312 30.7962C120.728 30.4344 122.206 30.1769 123.555 29.6066C123.959 29.435 123.984 28.6808 123.438 28.7421C122.273 28.8709 121.127 29.1958 119.992 29.5208C120.562 27.8408 121.127 26.1546 121.697 24.4745C121.905 23.8552 120.93 23.5916 120.722 24.2047L120.71 24.1986Z" fill="#030303"/>
<path d="M111.322 41.38C112.003 40.7975 111.016 39.8164 110.341 40.3989C107.098 43.1888 101.751 42.7535 99.102 39.3688C98.5747 38.6944 97.6488 39.6386 98.1639 40.307C101.285 44.3293 107.551 44.5868 111.322 41.38Z" fill="#030303"/>
<path d="M96.2263 34.0949C96.2263 34.0949 96.257 34.0704 96.2754 34.0582C97.7899 33.1139 98.9487 31.6975 99.7581 29.7906C99.9053 29.4411 99.7458 28.926 99.2798 28.9628C99.1388 28.9751 98.9978 28.9812 98.8506 28.9935C98.7525 28.9322 98.636 28.8892 98.4827 28.9015C95.233 29.1468 92.0078 29.3552 89.1076 30.9433C88.2614 31.4032 85.4777 32.5927 85.8824 33.9662C86.4526 35.8976 91.1555 35.5359 92.4677 35.3703C93.9086 35.1864 95.141 34.7571 96.2079 34.1072C96.2079 34.1072 96.2141 34.1072 96.2202 34.1072L96.2263 34.0949ZM93.1422 34.144C92.0875 34.3586 90.9593 34.4383 89.8802 34.3647C89.2425 34.3218 88.3595 34.2912 87.8077 33.9233C87.0229 33.4082 87.0842 33.9233 87.6544 33.1875C88.243 32.4272 89.9415 31.7833 90.8183 31.4154C91.8607 30.974 92.9766 30.7287 94.1109 30.5754C94.6321 31.44 95.0307 32.3597 95.3802 33.304C94.718 33.678 93.9822 33.9723 93.136 34.1379L93.1422 34.144Z" fill="#030303"/>
<path d="M117.478 24.4746C117.607 24.1558 117.276 23.7511 116.945 23.7756C116.853 23.7817 116.761 23.794 116.663 23.8001C116.565 23.7388 116.448 23.6959 116.295 23.7082C113.628 23.9412 110.979 24.1435 108.618 25.4924C107.852 25.9278 105.436 27.0376 106.037 28.27C106.883 29.993 110.856 29.4657 112.254 29.1836C114.872 28.6502 116.503 26.8966 117.472 24.4746H117.478ZM109.342 28.3252C108.814 28.2946 108.158 28.2578 107.692 27.988C107.435 27.8408 107.3 27.8347 107.257 27.8408C107.3 27.8224 107.41 27.7611 107.57 27.5588C108.054 26.9334 109.415 26.3876 110.133 26.0749C110.954 25.7132 111.831 25.5108 112.732 25.3759C113.125 26.0443 113.444 26.7433 113.714 27.4729C113.198 27.7611 112.622 27.9941 111.972 28.129C111.12 28.3129 110.212 28.3865 109.348 28.3313L109.342 28.3252Z" fill="#030303"/>
<path d="M102.493 27.547C103.265 29.5152 104.528 31.7962 104.737 33.9054C104.78 34.353 105.362 34.5799 105.62 34.1446C106 33.5008 106.871 32.9796 107.668 33.372C108.109 33.5927 108.312 34.8313 108.263 35.1992C108.146 36.1557 107.472 36.3029 106.699 36.683C106.233 36.916 106.57 37.5966 107.036 37.4924C109.133 37.0141 109.949 35.4567 108.937 33.3965C108.115 31.7349 106.497 31.7778 105.436 32.8018C104.921 30.9378 103.995 29.0799 103.271 27.3324C103.075 26.8603 102.303 27.0626 102.493 27.547Z" fill="#030303"/>
<path d="M63.0669 61.8469C63.2692 61.3318 62.3985 60.9578 62.1655 61.4667C59.7436 66.746 61.1232 73.9138 66.0529 77.3597C66.4821 77.6601 67.0033 76.9857 66.6109 76.6362C62.4169 72.8775 61.0312 67.1016 63.0607 61.853L63.0669 61.8469Z" fill="#030303"/>
<g clipPath="url(#clip0_368_54)">
<path d="M229.978 72.3034C231.431 70.0758 234.016 65.5848 231.381 65.0839C228.95 64.6231 226.614 67.9556 225.478 69.5569C223.331 72.5762 221.887 75.9668 221.063 79.5542C221.059 79.5765 221.063 79.5944 221.063 79.6168C217.908 82.9 215.205 86.9437 213.788 91.3049C213.797 91.1886 213.81 91.0723 213.819 90.9515C214.204 86.2011 213.715 81.3747 214.947 76.8211C215.051 76.7675 215.141 76.6691 215.186 76.5214C216.694 71.7979 221.317 69.5927 225.115 66.8954C227.633 65.1107 230.693 63.1604 230.308 59.7341C230.308 59.7028 230.295 59.6804 230.286 59.658C230.286 59.6491 230.286 59.6446 230.286 59.6401C229.969 57.6362 228.506 56.8132 226.569 57.4573C225.156 57.9314 223.938 58.7992 222.892 59.8549C223.268 58.6516 223.467 57.4126 223.304 56.2719C223.037 54.3754 221.131 53.2929 219.47 54.5185C217.464 55.9946 216.608 59.5104 215.938 61.7425C214.498 66.5376 215.377 71.4311 214.19 76.2531C214.154 76.4051 214.181 76.5349 214.24 76.6333C213.806 78.1452 213.557 79.6928 213.403 81.2629C213.154 80.0507 212.801 78.8832 212.352 77.8231C212.502 74.8977 213.385 72.1736 213.208 69.2125C213.104 67.4904 212.85 65.1554 211.392 63.9566C210.451 63.1828 209.382 63.308 208.662 64.2832C207.924 65.2851 207.92 66.6628 208.119 67.9913C206.625 66.5197 204.411 65.5267 202.772 66.7702C200.517 68.4789 203.524 71.9008 205.063 72.9743C205.081 72.9877 205.099 72.9877 205.113 72.9967C207.186 74.8127 209.677 76.2531 211.601 78.2123C211.619 78.2302 211.641 78.2436 211.664 78.257C212.674 81.6118 212.95 85.1634 212.801 88.6479C212.307 86.0714 211.37 83.5889 209.957 81.3076C208.726 79.3171 207.082 77.4832 205.511 75.7521C203.777 73.8421 201.405 72.6031 199.236 71.2432C198.765 70.948 198.358 71.5116 198.543 71.9276C198.829 72.5762 198.575 73.7482 198.589 74.4459C198.602 75.2914 198.702 76.1099 198.851 76.9419C199.29 79.4424 200.142 81.7281 201.568 83.8483C202.921 85.8567 204.687 87.4268 206.534 88.9834C208.549 90.6787 212.298 93.452 212.09 96.4578C211.528 98.9627 210.691 101.396 209.428 103.642C207.245 107.52 203.664 110.038 200.087 112.538C202.079 109.993 203.252 107.256 204.017 104.022C204.044 103.995 204.076 103.964 204.099 103.928C205.489 101.503 206.924 98.6765 207.562 95.9479C207.567 95.9255 207.562 95.9032 207.562 95.8808C208.092 94.5747 209.722 89.9898 206.77 90.1956C205.498 90.285 204.705 91.8014 204.198 93.2596C203.628 91.0857 202.283 88.5808 200.526 89.6722C200.454 89.717 200.395 89.7662 200.332 89.8154C200.427 89.5022 200.531 89.1891 200.631 88.876C200.757 88.7239 200.884 88.5674 201.015 88.4153C201.178 88.2274 201.092 87.9993 200.938 87.8875C200.938 87.543 200.495 87.2255 200.182 87.4581C195.37 91.0768 191.739 95.2948 190.611 101.298C190.005 104.518 190.199 107.632 190.448 110.87C190.747 114.771 190.575 118.653 190.023 122.522C189.964 122.938 190.353 123.202 190.67 123.166C190.729 123.251 190.829 123.314 190.969 123.31C191.014 123.31 191.05 123.31 191.096 123.31C191.784 124.061 192.404 125.944 192.635 126.557C193.387 128.534 193.599 130.627 194.808 132.417C196.628 135.114 200.015 136.805 203.211 135.597C203.27 135.602 203.329 135.597 203.397 135.579C204.877 135.141 206.059 134.228 207.254 133.289C207.571 133.038 207.399 132.439 207.01 132.372C202.663 131.585 202.292 126.991 199.223 124.611C197.552 123.314 195.524 122.478 193.423 122.147C196.465 120.805 199.562 121.579 202.795 122.835C205.882 124.034 208.785 124.96 212.135 124.987C216.368 125.018 222.349 123.994 223.322 118.984C223.386 118.653 223.178 118.336 222.815 118.327C217.745 118.206 213 117.378 208.038 116.47C203.854 115.705 199.956 115.772 196.044 117.414C195.981 117.41 195.913 117.414 195.84 117.441C195.501 117.58 195.148 117.741 194.795 117.915C196.153 116.654 197.647 115.522 199.177 114.426C199.562 114.185 199.951 113.952 200.35 113.737C203.985 111.747 207.639 111.174 211.601 111.617C211.632 111.626 211.669 111.626 211.705 111.63C212.203 111.689 212.71 111.76 213.222 111.85C214.091 112.176 215.001 112.744 215.612 113.044C216.413 113.438 217.219 113.84 217.975 114.31C220.167 115.679 223.01 118.863 225.862 118.461C227.461 118.237 228.307 116.806 227.75 115.33C227.361 114.296 226.478 113.446 225.478 112.784C226.546 112.628 227.56 112.181 228.226 111.384C228.307 111.335 228.371 111.255 228.407 111.143C228.466 111.036 228.479 110.928 228.457 110.83C228.733 108.405 226.057 107.372 223.916 107.421C219.863 107.52 215.589 109.143 211.841 110.593C209.102 109.904 206.362 110.208 203.741 111.129C205.507 109.779 207.173 108.325 208.567 106.598C210.061 105.064 211.7 104.151 213.647 103.449C213.715 103.597 213.846 103.704 214.05 103.682C217.772 103.226 221.19 104.594 224.844 104.966C226.442 105.127 228.977 105.489 230.132 104.013C231.064 102.823 230.39 101.459 229.326 100.622C228.325 99.835 227.135 99.4995 225.903 99.4548C226.981 98.7794 227.864 97.925 227.99 96.8649C227.999 96.8336 228.004 96.8023 228.004 96.771C228.004 96.762 228.004 96.7531 228.004 96.7441C228.004 96.7441 228.004 96.7352 228.004 96.7307C228.004 96.6904 227.999 96.6502 227.986 96.6099C227.986 96.6099 227.986 96.6099 227.986 96.6055C227.977 96.5652 227.963 96.5249 227.945 96.4892C227.248 94.2258 224.088 95.2412 222.462 95.8227C218.881 97.1064 216.418 99.7411 214.005 102.523C212.665 102.747 211.374 103.328 210.242 104.125C210.242 104.12 210.247 104.116 210.252 104.111C211.424 102.009 212.244 99.7366 212.814 97.4017C212.914 97.3435 212.991 97.2496 213.018 97.0975C213.018 97.0841 213.018 97.0751 213.022 97.0617C213.113 97.008 213.19 96.923 213.235 96.8023C213.991 94.8252 215.838 94.0827 217.745 93.5459C217.763 93.5414 217.776 93.528 217.794 93.5235C222.028 93.2507 225.871 93.8501 229.435 91.0678C233.061 88.2319 234.555 83.8036 234.963 79.3976C235.003 78.9548 234.428 78.8206 234.143 79.0621C231.798 81.0616 229.367 83.1192 226.333 83.9825C223.947 84.6624 221.634 84.8726 219.406 86.0625C218.061 86.7782 216.988 87.6593 216.101 88.6658C217.523 85.5794 219.293 82.7256 221.711 80.0865C221.76 80.0641 221.815 80.0373 221.86 79.997C222.648 79.3171 224.69 79.0174 225.672 78.749C227.75 78.1765 229.801 77.5995 231.816 76.8256C233.582 76.1502 236.86 74.9425 237 72.6836C237.195 69.5211 232.645 70.9167 229.982 72.2899L229.978 72.3034ZM203.238 68.0987C204.225 65.5222 208.151 69.0649 208.64 70.5186C208.848 71.1359 209.772 70.8854 209.627 70.2502C209.409 69.3064 209.151 68.3179 209.097 67.3517C209.052 66.5242 208.884 63.5093 211.257 65.3343C212.212 66.0679 212.221 68.5952 212.266 69.5569C212.389 72.0797 211.741 74.4817 211.524 76.9598C209.672 75.3048 207.463 73.9808 205.538 72.4241C205.529 72.4107 205.525 72.3928 205.516 72.3794C204.656 71.288 202.654 69.6106 203.238 68.0942V68.0987ZM227.411 110.745C226.519 111.894 224.386 111.988 223.159 111.617C222.503 111.42 222.268 112.377 222.883 112.615C223.793 112.968 224.672 113.482 225.423 114.1C225.79 114.404 226.161 114.726 226.41 115.133C227.574 117.034 225.731 117.548 224.115 117.275C223.069 117.101 221.751 115.889 220.905 115.28C220.026 114.65 219.18 113.965 218.256 113.393C217.147 112.708 215.359 111.537 213.692 110.977C218.093 109.501 228.09 106.621 227.415 110.74L227.411 110.745ZM200.626 91.5062C201.02 90.1374 201.767 90.5266 202.392 91.4614C203.062 92.4679 203.768 94.1453 203.569 95.3888C203.478 95.9569 204.307 96.2163 204.465 95.6303C204.773 94.4763 205.122 93.2417 205.738 92.2129C205.86 92.0116 206.131 91.4257 206.353 91.3586C207.318 91.0678 207.671 92.7139 207.567 93.2954C207.422 94.0871 207.137 94.8565 206.856 95.6124C206.847 95.6259 206.833 95.6348 206.824 95.6527C205.719 97.594 205 99.7276 204.058 101.763C203.632 99.0298 202.102 96.8917 201.151 94.1632C200.898 93.4296 200.413 92.2711 200.631 91.5062H200.626ZM200.087 94.1542C201.147 97.4643 203.302 99.9826 203.13 103.682C203.125 103.803 203.161 103.901 203.225 103.977C202.795 105.605 202.392 107.238 201.604 108.75C200.612 110.651 199.173 112.284 197.869 113.979C197.824 114.037 197.81 114.095 197.81 114.153C195.981 115.482 194.242 116.886 192.775 118.555C192.621 118.707 192.467 118.863 192.314 119.015C194.337 115.307 197.507 112.185 198.281 107.842C198.792 104.97 198.489 102.157 198.611 99.2669C198.711 96.9007 199.078 94.5568 199.639 92.2621C199.721 92.9554 199.92 93.6398 200.087 94.1587V94.1542ZM197.787 97.1914C197.43 100.663 197.968 104.138 197.362 107.587C196.837 110.566 195.134 112.977 193.504 115.419C194.609 111.85 194.428 108.092 194.614 104.308C194.849 99.4816 196.28 95.0846 198.892 91.1796C198.371 93.1523 198 95.1517 197.787 97.1914ZM191.195 104.536C191.404 101.41 192.132 98.095 193.785 95.3843C195.179 93.0941 197.122 91.1752 199.209 89.4709C196.497 92.8839 194.618 96.8425 193.998 101.19C193.631 103.753 193.663 106.33 193.572 108.911C193.459 111.993 192.852 114.811 191.77 117.7C191.716 117.839 191.77 117.964 191.861 118.049C191.73 118.286 191.598 118.523 191.476 118.769C191.603 117.128 191.657 115.486 191.616 113.831C191.535 110.722 190.996 107.654 191.2 104.541L191.195 104.536ZM196.565 133.025C194.777 131.2 194.518 128.932 193.731 126.642C193.454 125.841 193.052 124.499 192.445 123.457C196.085 124.32 196.121 129.035 198.163 131.799C199.77 133.978 202.301 134.322 204.76 133.709C204.194 134.072 203.614 134.412 203.021 134.761C203.008 134.77 202.998 134.783 202.985 134.792C200.54 135.333 198.353 134.85 196.56 133.03L196.565 133.025ZM200.671 127.912C201.781 129.898 202.817 131.71 204.665 132.73C202.292 133.016 200.11 133.128 198.643 130.739C197.842 129.433 197.475 127.935 196.85 126.553C196.248 125.22 195.438 124.124 194.374 123.421C196.972 124.088 199.376 125.6 200.671 127.917V127.912ZM205.724 122.871C201.459 121.382 197.421 119.423 193.314 121.055C198.054 118.318 204.049 120.25 209.21 121.395C213.095 122.258 218.288 122.867 221.72 120.344C219.107 125.233 209.966 124.352 205.729 122.871H205.724ZM210.722 118.067C214.218 118.85 217.785 119.176 221.357 119.32C218.772 120.711 216.26 121.31 213.203 121.055C209.83 120.773 206.602 119.637 203.279 119.056C200.06 118.488 196.47 118.47 193.554 119.901C194.374 119.261 195.383 118.774 196.203 118.331C196.248 118.309 196.275 118.273 196.307 118.242C201.106 116.345 205.769 116.958 210.722 118.067ZM220.733 97.6566C221.683 97.1288 226.36 94.9459 226.972 96.8246C226.786 98.2963 223.571 99.5398 222.385 99.9826C221.774 100.211 222.009 101.172 222.661 100.971C224.577 100.385 227.438 100.018 228.968 101.709C231.535 104.545 225.115 104.174 224.169 104.026C221.113 103.543 218.224 102.573 215.141 102.671C216.789 100.779 218.519 98.8822 220.737 97.6566H220.733ZM217.926 59.0497C218.292 58.0791 218.65 57.0547 219.257 56.2004C220.452 54.5274 222.394 54.9211 222.354 57.1218C222.317 59.1749 221.339 61.4159 220.339 63.1783C220.035 63.7106 220.846 64.1758 221.167 63.6569C222.114 62.1048 228.004 55.0016 229.534 59.7654C229.502 64.234 223.042 66.9804 219.814 69.2706C218.365 70.2994 217.052 71.449 216.011 72.7999C215.902 72.7909 215.798 72.8357 215.73 72.9564C215.875 71.1851 215.866 69.4093 215.906 67.5888C215.97 64.65 216.884 61.7783 217.921 59.0497H217.926ZM204.809 76.4365C206.335 78.1094 207.933 79.8628 209.142 81.7728C211.085 84.8458 212.203 88.4019 212.461 92.0161C211.148 88.9565 208.88 86.2056 206.879 83.6425C204.293 80.3235 201.762 77.009 200.3 73.0727C201.921 74.0434 203.555 75.0588 204.814 76.4365H204.809ZM204.108 85.4452C201.799 82.9537 200.404 80.0015 199.82 76.6825C199.662 75.7923 199.757 74.6875 199.748 73.6363C200.934 77.2237 203.189 80.3235 205.493 83.3294C207.617 86.0983 209.518 88.8044 211.139 91.7746C209.061 89.3546 205.842 87.3239 204.103 85.4497L204.108 85.4452ZM228.339 90.7413C225.07 93.0225 221.484 92.3113 217.758 92.7452C217.717 92.7363 217.677 92.7273 217.627 92.7273C216.585 92.8034 215.585 93.1254 214.72 93.6532C217.292 89.8825 223.164 89.5917 227.216 88.2856C229.933 87.4089 231.988 85.3826 233.387 82.9761C232.586 86.0312 231.042 88.8626 228.343 90.7413H228.339ZM222.82 85.7449C224.957 85.15 227.071 84.9576 229.072 83.9333C230.575 83.1639 231.925 82.153 233.224 81.084C232.233 82.9224 231.196 84.7071 229.466 86.0177C227.03 87.8651 223.974 87.7935 221.154 88.6524C218.845 89.3591 216.454 90.5042 214.815 92.2711C215.11 91.618 215.44 90.9873 215.82 90.4103C217.364 88.0753 220.158 86.4874 222.82 85.7449ZM234.723 74.2804C233.677 75.1259 232.414 75.5866 231.164 76.0562C228.801 76.9464 226.369 77.5324 223.965 78.2749C223.58 78.3912 223.141 78.4941 222.707 78.6238C222.621 78.4985 222.471 78.4225 222.313 78.4493C222.838 76.5259 223.544 74.6651 224.495 72.8893C225.609 70.8094 227.166 67.9287 229.294 66.712C229.656 66.5063 231.309 65.804 231.562 66.1619C231.712 66.3676 231.522 66.9536 231.481 67.1638C231.327 67.9287 230.947 68.6757 230.612 69.378C230.014 70.626 229.308 71.8247 228.57 72.9922C228.556 73.0146 228.552 73.0369 228.543 73.0593C228.429 73.2024 228.321 73.3456 228.208 73.4887C227.918 73.86 228.511 74.2357 228.828 73.9629C230.109 72.8625 232.364 72.12 234.084 71.8561C234.401 71.8068 235.121 71.6369 235.42 71.8069C236.869 72.6254 235.266 73.851 234.718 74.2894L234.723 74.2804Z" fill="#030303"/>
</g>
<g clipPath="url(#clip1_368_54)">
<path d="M210.424 35.7742C208.883 35.6409 206.353 35.8405 204.23 36.6262C204.948 34.9707 205.386 33.2152 205.121 31.7008C204.587 28.5363 200.955 29.0595 198.859 30.4169C195.187 32.8074 193.243 37.7778 191.762 41.7127C190.048 46.269 188.923 50.9857 187.501 55.6253C187.29 56.3157 188.046 57.135 188.698 56.5588C195.688 50.3542 204.371 48.8525 212.257 44.4366C212.457 44.3243 212.583 44.1594 212.65 43.9779C216.292 41.0068 215.138 36.197 210.427 35.7831L210.424 35.7742ZM189.688 53.7296C191.309 48.0734 192.732 42.3135 195.487 37.0715C196.245 35.6348 202.019 27.4646 203.593 31.9243C204.151 33.4915 202.97 36.0775 201.822 37.9819C201.184 38.5415 200.72 39.2252 200.548 40.0512C200.39 40.8235 201.47 41.2082 201.912 40.6127C202.273 40.1258 202.65 39.5635 203.015 38.9589C204.411 37.9564 206.935 37.5074 208.003 37.3717C211.314 36.9401 216.322 38.8442 211.903 42.8556C211.825 42.8683 211.741 42.8938 211.654 42.9474C204.354 47.0364 196.403 48.7052 189.679 53.7335L189.688 53.7296Z" fill="black"/>
</g>
<g clipPath="url(#clip2_368_54)">
<path d="M186.871 16.1899C186.086 17.034 185.041 18.6053 184.525 20.1978C183.888 19.0436 183.064 18.0088 182.058 17.4933C179.964 16.4039 178.603 18.7648 178.433 20.5947C178.144 23.8063 180.154 27.1479 181.773 29.7596C183.646 32.7837 185.885 35.5333 187.942 38.4223C188.248 38.852 189.073 38.7721 189.036 38.1344C188.622 31.2877 191.73 25.5328 192.771 18.9537C192.797 18.7871 192.759 18.6401 192.684 18.5202C192.62 15.0692 189.282 13.6139 186.878 16.1918L186.871 16.1899ZM187.838 36.3008C185.279 32.8443 182.569 29.4576 180.772 25.5202C180.281 24.4388 178.16 17.4341 181.487 18.4876C182.658 18.8555 183.626 20.6935 184.211 22.2103C184.245 22.8323 184.432 23.407 184.835 23.874C185.214 24.3086 185.934 23.8459 185.789 23.3231C185.671 22.8959 185.515 22.4257 185.33 21.9436C185.385 20.6811 186.281 19.0031 186.693 18.3166C187.96 16.185 191.371 14.0932 191.685 18.461C191.657 18.5124 191.633 18.5726 191.625 18.6477C190.662 24.7384 187.987 30.1379 187.836 36.3077L187.838 36.3008Z" fill="black"/>
</g>
<g clipPath="url(#clip3_368_54)">
<path d="M8.36682 62.6519C6.6352 60.0168 3.55495 54.7044 6.69454 54.1117C9.59137 53.5667 12.3749 57.5088 13.7289 59.403C16.2859 62.9747 18.0067 66.9855 18.9885 71.2291C18.9939 71.2555 18.9885 71.2767 18.9885 71.3032C22.7485 75.187 25.969 79.9703 27.6575 85.1293C27.6467 84.9917 27.6305 84.8542 27.6197 84.7113C27.1612 79.0919 27.7438 73.3826 26.2765 67.9961C26.1524 67.9326 26.0445 67.8162 25.9906 67.6416C24.1942 62.054 18.6864 59.4454 14.1605 56.2547C11.1612 54.1435 7.5145 51.8365 7.97303 47.7834C7.97303 47.7463 7.98921 47.7199 8 47.6934C8 47.6828 8 47.6775 8 47.6722C8.37761 45.3017 10.12 44.3281 12.4289 45.0901C14.1119 45.651 15.563 46.6775 16.8092 47.9262C16.3614 46.5029 16.1241 45.0372 16.3183 43.6879C16.6365 41.4444 18.9076 40.1639 20.8874 41.6137C23.2771 43.3598 24.2967 47.5188 25.0951 50.1591C26.8105 55.8314 25.764 61.6201 27.1773 67.3241C27.2205 67.504 27.1881 67.6575 27.118 67.7739C27.6359 69.5623 27.9326 71.3931 28.116 73.2504C28.4127 71.8164 28.8334 70.4354 29.3675 69.1813C29.1895 65.7208 28.1376 62.4984 28.3479 58.9956C28.472 56.9585 28.7741 54.1964 30.5111 52.7783C31.6332 51.8629 32.9063 52.0111 33.764 53.1646C34.6433 54.3499 34.6487 55.9796 34.4113 57.5511C36.1915 55.8102 38.8294 54.6356 40.7822 56.1066C43.4686 58.1278 39.8867 62.1757 38.0526 63.4456C38.031 63.4615 38.0094 63.4615 37.9933 63.472C35.5226 65.6203 32.5556 67.3241 30.263 69.6417C30.2414 69.6629 30.2144 69.6787 30.1875 69.6946C28.9845 73.6631 28.6554 77.8644 28.8334 81.9863C29.4214 78.9385 30.5381 76.0018 32.2212 73.3033C33.6885 70.9486 35.6467 68.7792 37.5185 66.7315C39.5846 64.4721 42.4113 63.0064 44.9953 61.3979C45.5563 61.0486 46.0418 61.7153 45.8206 62.2074C45.4808 62.9747 45.7829 64.361 45.7667 65.1864C45.7505 66.1865 45.6318 67.1548 45.4538 68.139C44.9305 71.0968 43.9164 73.8006 42.2171 76.3087C40.6042 78.6845 38.5003 80.5418 36.2994 82.3831C33.8989 84.3885 29.4322 87.6691 29.6804 91.2249C30.3493 94.188 31.3473 97.0665 32.8523 99.7227C35.4525 104.31 39.7195 107.289 43.9811 110.247C41.6076 107.236 40.2104 103.998 39.2987 100.172C39.2664 100.141 39.2286 100.104 39.2016 100.061C37.5455 97.1935 35.8355 93.8494 35.0748 90.6217C35.0695 90.5952 35.0748 90.5688 35.0748 90.5423C34.4437 88.9972 32.5017 83.5737 36.0189 83.8171C37.5347 83.9229 38.4788 85.7166 39.0829 87.4416C39.7626 84.87 41.3648 81.9069 43.4579 83.198C43.5442 83.2509 43.6143 83.3091 43.6898 83.3673C43.5765 82.9969 43.4525 82.6265 43.3338 82.2561C43.1827 82.0762 43.0317 81.891 42.8753 81.7111C42.6811 81.4889 42.7835 81.219 42.967 81.0868C42.967 80.6793 43.4956 80.3036 43.8678 80.5788C49.6022 84.8595 53.9285 89.8491 55.2717 96.9501C55.9946 100.76 55.7626 104.443 55.4659 108.273C55.1099 112.887 55.3149 117.48 55.973 122.057C56.0432 122.549 55.5792 122.862 55.2016 122.819C55.1315 122.92 55.0128 122.994 54.8456 122.989C54.7916 122.989 54.7485 122.989 54.6945 122.989C53.8746 123.877 53.1355 126.105 52.8604 126.83C51.9649 129.169 51.7114 131.645 50.2711 133.762C48.1025 136.952 44.0674 138.952 40.2589 137.524C40.1888 137.529 40.1187 137.524 40.0378 137.503C38.2738 136.984 36.8658 135.905 35.4417 134.793C35.0641 134.497 35.269 133.788 35.733 133.709C40.9117 132.777 41.354 127.343 45.0115 124.528C47.002 122.994 49.4187 122.004 51.9218 121.613C48.2967 120.025 44.6069 120.941 40.7552 122.428C37.0762 123.846 33.6183 124.941 29.6264 124.973C24.5826 125.01 17.4565 123.798 16.2967 117.872C16.2212 117.48 16.4693 117.105 16.9009 117.094C22.9427 116.951 28.5961 115.972 34.5084 114.898C39.4929 113.993 44.1376 114.073 48.7984 116.015C48.8739 116.009 48.9548 116.015 49.0411 116.046C49.4457 116.21 49.8665 116.401 50.2873 116.607C48.6689 115.115 46.8887 113.776 45.0654 112.48C44.6069 112.194 44.143 111.919 43.6682 111.665C39.3365 109.311 34.9831 108.633 30.263 109.157C30.2252 109.168 30.1821 109.168 30.1389 109.173C29.5455 109.242 28.9413 109.326 28.3318 109.432C27.296 109.818 26.2117 110.49 25.4835 110.845C24.5287 111.311 23.5684 111.787 22.6676 112.342C20.0566 113.962 16.6689 117.729 13.2704 117.253C11.3661 116.988 10.3574 115.295 11.0209 113.549C11.4848 112.327 12.5368 111.321 13.7289 110.538C12.4558 110.353 11.2475 109.824 10.4545 108.882C10.3574 108.824 10.2819 108.728 10.2387 108.596C10.1686 108.469 10.1524 108.342 10.1794 108.226C9.8503 105.358 13.0384 104.136 15.59 104.194C20.4181 104.31 25.5105 106.231 29.9771 107.945C33.2407 107.131 36.5044 107.49 39.6278 108.58C37.5239 106.982 35.5388 105.263 33.8773 103.22C32.0971 101.405 30.1443 100.326 27.8247 99.4952C27.7438 99.6698 27.5873 99.7968 27.3446 99.7703C22.9103 99.2306 18.8375 100.85 14.4842 101.289C12.5799 101.479 9.559 101.908 8.18341 100.162C7.07215 98.7544 7.87593 97.1405 9.14363 96.1511C10.3358 95.2198 11.7546 94.823 13.2218 94.77C11.938 93.9711 10.886 92.9604 10.735 91.7064C10.7242 91.6693 10.7188 91.6323 10.7188 91.5953C10.7188 91.5847 10.7188 91.5741 10.7188 91.5635C10.7188 91.5635 10.7188 91.5529 10.7188 91.5476C10.7188 91.5 10.7242 91.4524 10.7404 91.4048C10.7404 91.4048 10.7404 91.4048 10.7404 91.3995C10.7512 91.3519 10.7674 91.3042 10.7889 91.2619C11.6197 88.5845 15.385 89.7856 17.3216 90.4735C21.5887 91.9921 24.5233 95.1087 27.3985 98.3999C28.9953 98.6644 30.5327 99.3523 31.8813 100.294C31.8813 100.289 31.8759 100.284 31.8705 100.278C30.4734 97.7914 29.497 95.1034 28.8173 92.3413C28.6986 92.2726 28.6069 92.1614 28.5745 91.9815C28.5745 91.9657 28.5745 91.9551 28.5691 91.9392C28.4612 91.8757 28.3695 91.7752 28.3156 91.6323C27.4147 89.2936 25.2138 88.4152 22.9427 87.7802C22.9211 87.775 22.9049 87.7591 22.8833 87.7538C17.8395 87.431 13.2596 88.1401 9.01416 84.8489C4.69319 81.4942 2.91302 76.2558 2.42751 71.0439C2.37896 70.52 3.06406 70.3613 3.40391 70.647C6.19825 73.0122 9.09508 75.4462 12.7094 76.4675C15.5523 77.2717 18.3088 77.5204 20.9629 78.9279C22.5651 79.7745 23.8436 80.8169 24.9009 82.0074C23.207 78.3564 21.0978 74.9806 18.2171 71.8587C18.1578 71.8323 18.0931 71.8005 18.0391 71.7529C17.1005 70.9486 14.6676 70.5941 13.497 70.2766C11.0209 69.5994 8.57721 68.9168 6.17667 68.0014C4.07283 67.2024 0.167229 65.7738 0 63.1017C-0.23196 59.3607 5.18948 61.0116 8.36143 62.636L8.36682 62.6519ZM40.2266 57.6781C39.0506 54.6303 34.3736 58.821 33.791 60.5407C33.5428 61.2709 32.4423 60.9746 32.615 60.2232C32.8739 59.1067 33.1814 57.9373 33.2461 56.7944C33.3001 55.8155 33.4997 52.2492 30.673 54.4081C29.5347 55.2758 29.5239 58.2654 29.47 59.403C29.3243 62.3873 30.0958 65.2288 30.3547 68.1601C32.561 66.2023 35.1935 64.6361 37.4862 62.7948C37.497 62.7789 37.5024 62.7577 37.5131 62.7418C38.5381 61.4508 40.9225 59.4665 40.2266 57.6728V57.6781ZM11.4255 108.125C12.4882 109.485 15.029 109.596 16.4909 109.157C17.2731 108.924 17.5536 110.057 16.82 110.337C15.7357 110.755 14.6891 111.364 13.7937 112.094C13.3567 112.454 12.9144 112.835 12.6177 113.316C11.2313 115.565 13.4268 116.173 15.3527 115.851C16.5988 115.644 18.1686 114.21 19.1773 113.491C20.2239 112.745 21.2326 111.935 22.3331 111.258C23.6548 110.448 25.7856 109.062 27.7707 108.4C22.5273 106.654 10.6163 103.247 11.4201 108.12L11.4255 108.125ZM43.3392 85.3674C42.8699 83.7483 41.9798 84.2086 41.2353 85.3145C40.437 86.505 39.5954 88.4893 39.8328 89.9603C39.9407 90.6323 38.9535 90.9391 38.7647 90.246C38.3978 88.8808 37.9825 87.4204 37.2488 86.2034C37.1032 85.9653 36.7795 85.2722 36.5152 85.1928C35.3661 84.8489 34.9454 86.7961 35.0695 87.4839C35.2421 88.4205 35.5819 89.3306 35.9164 90.2248C35.9272 90.2407 35.9434 90.2513 35.9541 90.2724C37.2704 92.5689 38.1281 95.0928 39.2502 97.5004C39.7572 94.2674 41.5806 91.7381 42.7134 88.5104C43.0155 87.6427 43.5927 86.2722 43.3338 85.3674H43.3392ZM43.9811 88.4999C42.7188 92.4154 40.151 95.3944 40.356 99.7703C40.3614 99.9132 40.3183 100.03 40.2428 100.12C40.7552 102.046 41.2353 103.977 42.174 105.765C43.3554 108.014 45.0708 109.945 46.6244 111.951C46.6784 112.02 46.6945 112.088 46.6945 112.157C48.8739 113.729 50.9454 115.39 52.6932 117.364C52.8766 117.544 53.06 117.729 53.2434 117.909C50.8321 113.522 47.056 109.829 46.1335 104.691C45.5239 101.294 45.8854 97.966 45.7397 94.5478C45.621 91.7487 45.1841 88.9761 44.5152 86.2616C44.4181 87.0818 44.1807 87.8914 43.9811 88.5051V88.4999ZM46.7215 92.0926C47.1477 96.1987 46.5057 100.31 47.2286 104.39C47.8544 107.914 49.8827 110.766 51.8247 113.655C50.5084 109.432 50.7242 104.988 50.503 100.511C50.2225 94.8018 48.5179 89.6005 45.4053 84.9812C46.0256 87.3146 46.468 89.6798 46.7215 92.0926ZM54.5759 100.781C54.3277 97.0823 53.4592 93.1615 51.4902 89.955C49.8287 87.2458 47.5145 84.9759 45.0276 82.9599C48.2589 86.9971 50.4976 91.6799 51.2367 96.8231C51.6736 99.855 51.6359 102.903 51.7438 105.956C51.8786 109.602 52.6015 112.935 53.8908 116.353C53.9555 116.517 53.8908 116.665 53.7829 116.766C53.9393 117.046 54.0958 117.327 54.2414 117.618C54.0904 115.676 54.0256 113.734 54.0742 111.776C54.1713 108.099 54.8132 104.469 54.5705 100.786L54.5759 100.781ZM48.178 134.481C50.3088 132.322 50.6163 129.64 51.555 126.931C51.884 125.983 52.3641 124.396 53.087 123.163C48.7498 124.184 48.7067 129.761 46.2738 133.031C44.3587 135.608 41.3432 136.016 38.414 135.291C39.0883 135.719 39.7788 136.122 40.4855 136.534C40.5017 136.545 40.5125 136.561 40.5287 136.571C43.4417 137.212 46.0472 136.64 48.1834 134.486L48.178 134.481ZM43.2852 128.433C41.9636 130.783 40.7283 132.926 38.5273 134.132C41.354 134.471 43.9541 134.603 45.702 131.777C46.6568 130.232 47.0937 128.46 47.8382 126.825C48.5556 125.248 49.5212 123.952 50.7889 123.121C47.6925 123.909 44.8281 125.698 43.2852 128.439V128.433ZM37.265 122.47C42.3466 120.708 47.1585 118.39 52.0512 120.322C46.4032 117.083 39.261 119.369 33.1113 120.724C28.4828 121.745 22.2953 122.465 18.2063 119.48C21.319 125.264 32.2104 124.221 37.2596 122.47H37.265ZM31.3095 116.787C27.145 117.713 22.8941 118.099 18.6379 118.269C21.7181 119.914 24.7121 120.623 28.3533 120.322C32.3722 119.988 36.2185 118.644 40.178 117.956C44.0135 117.285 48.2913 117.263 51.7653 118.957C50.7889 118.2 49.586 117.623 48.6096 117.099C48.5556 117.073 48.5233 117.031 48.4855 116.993C42.7674 114.75 37.2111 115.475 31.3095 116.787ZM19.3823 92.6429C18.2495 92.0186 12.677 89.4364 11.9487 91.6588C12.1699 93.3996 16 94.8706 17.4134 95.3944C18.1416 95.6643 17.8611 96.8019 17.0843 96.5638C14.8024 95.8706 11.3931 95.4367 9.56979 97.4369C6.51113 100.792 14.1605 100.352 15.2879 100.178C18.9292 99.6063 22.3709 98.4581 26.0445 98.5745C24.0809 96.3363 22.0202 94.0928 19.3769 92.6429H19.3823ZM22.7269 46.9738C22.29 45.8256 21.8638 44.6139 21.1409 43.6032C19.7168 41.6243 17.4026 42.0899 17.4511 44.6932C17.4943 47.1219 18.6595 49.7729 19.8517 51.8577C20.2131 52.4873 19.2475 53.0376 18.8645 52.4238C17.737 50.5877 10.7188 42.1852 8.89548 47.8204C8.93324 53.1064 16.6312 56.3553 20.4774 59.0644C22.2036 60.2814 23.768 61.6413 25.0088 63.2392C25.1382 63.2286 25.2623 63.2816 25.3432 63.4244C25.1706 61.3291 25.1814 59.2284 25.1328 57.0749C25.0573 53.5985 23.9676 50.2015 22.7323 46.9738H22.7269ZM38.3547 67.541C36.5368 69.52 34.6325 71.5942 33.1922 73.8536C30.878 77.4887 29.5455 81.6953 29.238 85.9706C30.8024 82.3514 33.5051 79.0972 35.8894 76.0653C38.9697 72.1392 41.9852 68.2183 43.7276 63.562C41.7964 64.7102 39.849 65.9113 38.3493 67.541H38.3547ZM39.1908 78.1977C41.942 75.2505 43.6035 71.7582 44.2994 67.8321C44.4882 66.7791 44.3749 65.4722 44.3857 64.2287C42.9724 68.4723 40.2859 72.1392 37.5401 75.6949C35.0101 78.9702 32.7444 82.1715 30.8132 85.6849C33.2893 82.8223 37.1247 80.4201 39.1962 78.203L39.1908 78.1977ZM10.3196 84.4626C14.2144 87.1612 18.4869 86.3199 22.9265 86.8331C22.975 86.8225 23.0236 86.8119 23.0829 86.8119C24.3237 86.9019 25.5158 87.2829 26.5462 87.9072C23.4821 83.4467 16.4855 83.1027 11.6575 81.5577C8.42077 80.5206 5.97168 78.1236 4.30479 75.2769C5.25961 78.8909 7.09912 82.2403 10.3142 84.4626H10.3196ZM16.8955 78.5522C14.3493 77.8485 11.8301 77.621 9.44572 76.4093C7.65475 75.4991 6.0472 74.3033 4.49899 73.0387C5.68038 75.2134 6.91571 77.3246 8.9764 78.875C11.8786 81.0603 15.5199 80.9756 18.8806 81.9916C21.6318 82.8276 24.4801 84.1822 26.4329 86.2722C26.0823 85.4997 25.6885 84.7536 25.2353 84.071C23.3958 81.309 20.0674 79.4306 16.8955 78.5522ZM2.71342 64.9906C3.95954 65.9907 5.4646 66.5357 6.95347 67.0913C9.76939 68.1443 12.6662 68.8374 15.5307 69.7158C15.9892 69.8533 16.5125 69.975 17.0303 70.1285C17.1328 69.9803 17.3109 69.8904 17.4997 69.9221C16.8739 67.6469 16.0324 65.4457 14.8995 63.345C13.5725 60.8846 11.7168 57.477 9.18139 56.0378C8.74983 55.7944 6.78085 54.9636 6.47876 55.3869C6.30074 55.6303 6.52731 56.3235 6.57586 56.5722C6.75927 57.477 7.21241 58.3607 7.6116 59.1914C8.32367 60.6677 9.1652 62.0857 10.0445 63.4667C10.0607 63.4932 10.0661 63.5197 10.0769 63.5461C10.2117 63.7154 10.3412 63.8848 10.4761 64.0541C10.8213 64.4933 10.1146 64.9377 9.73702 64.615C8.21038 63.3133 5.52394 62.4349 3.47404 62.1228C3.09642 62.0646 2.2387 61.8635 1.88267 62.0646C0.156441 63.0329 2.06609 64.4827 2.71881 65.0012L2.71342 64.9906Z" fill="#030303"/>
</g>
<defs>
<clipPath id="clip0_368_54">
<rect width="47" height="82" fill="white" transform="translate(190 54)"/>
</clipPath>
<clipPath id="clip1_368_54">
<rect width="21" height="31" fill="white" transform="translate(197.689 27.1699) rotate(22.3687)"/>
</clipPath>
<clipPath id="clip2_368_54">
<rect width="15.6829" height="22.6531" fill="white" transform="translate(176 19.8418) rotate(-30)"/>
</clipPath>
<clipPath id="clip3_368_54">
<rect width="56" height="97" fill="white" transform="matrix(-1 0 0 1 56 41)"/>
</clipPath>
</defs>
</svg>
