<svg width="118" height="106" viewBox="0 0 118 106" fill="none" xmlns="http://www.w3.org/2000/svg">
<g clipPath="url(#clip0_10_122)">
<path fillRule="evenodd" clipRule="evenodd" d="M114.887 14.8906C113.629 15.2109 107.838 17.2101 105.405 18.1205C101.705 19.5392 101.448 19.6404 95.4633 22.0249C89.9559 24.2191 84.3977 26.5265 79.5666 28.593C77.9046 29.3204 75.3242 30.4163 73.8293 31.0642C72.3345 31.7121 70.2726 32.572 69.2574 33.0128C68.2423 33.4535 66.6359 34.1544 65.6571 34.5832C63.9927 35.3274 62.8977 35.8428 57.2626 38.4489C53.2579 40.3059 47.1844 43.1937 45.2271 44.1716C43.5313 45.0146 41.3001 46.0912 36.7239 48.3143C35.8494 48.7406 33.836 49.6246 32.2321 50.3086C30.6428 51.0119 28.6536 51.8477 27.8443 52.1801C25.9061 53.0231 25.3056 53.471 25.2004 54.2128C25.1406 54.6343 25.2236 54.904 25.5565 55.2436C26.1154 55.8216 36.982 63.2271 41.0684 65.8016C42.7729 66.8516 45.5872 68.7469 47.3526 69.9776C49.118 71.2082 50.706 72.2245 50.8928 72.251C51.1645 72.2896 51.2472 72.4389 51.253 72.8868C51.2415 73.212 51.2375 74.828 51.2117 76.4754C51.2029 78.1251 51.2028 80.4468 51.2076 81.6342C51.2687 85.478 51.2726 87.4047 51.2275 89.0665C51.0714 97.007 51.2391 98.3894 52.3598 98.5483C52.5975 98.5821 53.2374 98.4664 53.7949 98.3219C54.8225 98.0377 56.2606 96.9346 59.8939 93.6663C65.098 88.9697 68.6035 86.1133 77.4892 79.2731C83.8835 74.367 83.0063 74.6898 87.1936 75.576C88.5546 75.8722 90.4201 76.2743 91.3299 76.4549C92.2542 76.6548 93.933 77.0304 95.0417 77.2736C99.8112 78.3284 100.59 78.456 101.302 78.1959C102.303 77.8563 103.082 76.7628 103.812 74.7855C104.504 72.8371 104.678 72.2254 106.412 65.3686C107.105 62.6808 107.736 60.1905 107.817 59.8581C108.388 57.7893 108.426 57.6399 110.017 50.2124C110.319 48.8107 110.661 47.2597 110.778 46.7948C110.882 46.3107 111.16 44.9572 111.393 43.8036C111.611 42.6307 111.854 41.53 111.936 41.3181C111.999 41.1206 112.218 40.1885 112.424 39.2204C112.611 38.2666 112.955 36.8192 113.16 35.9883C113.364 35.1574 113.763 33.563 114.033 32.3973C114.302 31.2316 114.687 29.7384 114.867 29.0761C115.881 25.4707 117.803 16.4391 117.644 15.9695C117.442 15.442 116.725 14.7557 116.301 14.6955C116.094 14.6834 115.457 14.7822 114.882 14.9243L114.887 14.8906ZM114.483 21.0417C114.029 23.2646 113.437 25.8465 112.262 30.8391C111.723 33.05 111.11 35.6632 110.886 36.629C110.545 38.0596 109.266 43.7772 107.608 51.1951C107.462 51.8622 107.07 53.406 106.779 54.603C106.468 55.8144 105.739 58.6347 105.159 60.8914C104.579 63.1481 103.881 65.7492 103.609 66.6909C103.34 67.6157 102.976 68.8368 102.846 69.3859C102.714 69.9519 102.492 70.7804 102.319 71.2717C102.167 71.7317 101.909 72.5722 101.782 73.1045C101.476 74.2822 100.839 75.602 100.5 75.7947C100.294 75.9031 99.1609 75.7081 96.3782 75.0555C94.2651 74.5666 91.2422 73.8972 89.6799 73.5552C86.3005 72.8352 83.496 72.2139 80.7472 71.5662C77.865 70.8823 74.6578 70.1695 72.0767 69.683C70.8468 69.4398 69.7768 69.1677 69.6651 69.1003C69.5388 69.0136 70.0178 68.4452 71.0779 67.4433C75.1901 63.6065 76.5766 62.135 85.2747 52.465C91.3574 45.7261 95.8794 40.7092 100.706 35.3745C103.051 32.7661 104.643 30.9453 106.133 29.1101C109.21 25.3673 114.523 19.2932 114.726 19.3221C114.777 19.3293 114.667 20.1048 114.466 21.0393L114.483 21.0417ZM108.376 19.6426C108.355 19.7943 104.814 22.1643 102.83 23.3276C102.169 23.7154 101.271 24.3103 100.83 24.6089C100.389 24.9076 99.704 25.3435 99.3261 25.5651C98.9483 25.7867 97.902 26.4466 97.0206 27.0439C96.1415 27.6244 94.0031 29.0237 92.2837 30.1557C88.7674 32.4775 84.658 35.3172 80.4497 38.3663C77.188 40.7242 76.2025 41.4444 73.8367 43.1038C72.9117 43.7638 71.2603 44.9054 70.1997 45.6665C69.1391 46.4276 67.6789 47.4416 66.95 47.9401C66.2235 48.4218 64.8432 49.3611 63.8988 50.0355C62.9568 50.693 61.1334 51.9479 59.8669 52.8173C57.9079 54.1733 54.9856 56.459 53.6278 57.7283C52.8267 58.4918 52.3649 59.183 52.4094 59.602C52.4714 60.2643 51.6741 60.5124 50.5652 60.1488C49.7329 59.9104 38.6573 57.0327 36.0953 56.4114C34.5377 56.0357 30.1945 54.7835 29.6072 54.5282C29.3305 54.403 29.0949 54.232 29.0923 54.1284C29.0703 54.0393 29.6927 53.6804 30.4657 53.3601C35.1854 51.3465 39.8563 49.1885 45.9295 46.1802C49.7087 44.3256 60.9909 39.0292 66.5461 36.4978C68.5303 35.5753 70.9652 34.5276 73.4463 33.5208C75.5398 32.6826 79.5035 30.9918 80.337 30.6113C84.1357 28.8626 91.3439 25.9121 96.5027 23.978C97.564 23.5782 98.6447 23.1639 98.9257 23.0146C99.2019 22.899 100.031 22.5522 100.762 22.2776C101.509 22.0223 102.846 21.5068 103.745 21.1528C105.778 20.3748 108.247 19.4523 108.335 19.4475C108.351 19.4499 108.359 19.5197 108.349 19.5872L108.376 19.6426ZM107.206 23.6213C106.497 24.5871 101.507 30.5866 100.435 31.7932C100.149 32.0967 98.746 33.6862 97.3017 35.3216C93.5008 39.6496 89.6297 43.9849 87.6384 46.179C84.5801 49.546 83.1551 51.1669 80.9948 53.6982C75.3918 60.23 74.1239 61.598 70.409 65.1986C68.4825 67.058 67.5171 68.1249 67.3095 68.6114C66.8679 69.6495 65.1557 73.173 64.9405 73.4693C64.8534 73.5945 64.1167 75.0034 63.3367 76.5954C62.542 78.1681 61.8294 79.5289 61.7448 79.6373C61.6649 79.7119 61.1768 80.5886 60.6744 81.5664C60.1551 82.5419 59.4592 83.7846 59.1548 84.3434C58.5555 85.3935 57.1133 88.1126 55.7221 90.8389C54.3139 93.5629 53.7242 94.5455 53.5446 94.4685C53.4644 94.4227 53.4163 93.4184 53.4648 92.2214C53.58 89.2109 53.6044 84.5193 53.5238 83.0117C53.3771 80.0156 53.4594 73.9392 53.7358 66.7381C53.7869 65.6447 53.7794 64.3538 53.7663 63.836C53.711 62.8822 53.6892 62.9136 54.6511 62.4824C54.9878 62.3066 54.9756 62.2705 54.5527 61.8322C54.3145 61.5576 53.9087 61.1217 53.6389 60.8255L53.1408 60.3077L54.1454 59.4527C55.8012 58.0365 59.961 54.9632 61.6685 53.9155C66.0569 51.1843 74.8424 45.1726 83.1867 39.2188C84.596 38.1976 86.4048 36.9235 87.2475 36.3551C88.0757 35.7674 88.8046 35.2689 88.8627 35.2255C90.9111 33.7274 99.6295 28.0674 104.64 24.9773C106.803 23.6502 107.513 23.2865 107.237 23.643L107.206 23.6213ZM34.6466 58.3213C35.3454 58.5236 37.5023 59.0702 39.3899 59.5615C41.2968 60.0383 43.0873 60.4814 43.3712 60.556C46.2269 61.305 47.3477 61.5843 49.0897 62.0033C50.196 62.2634 51.198 62.5259 51.3121 62.5765C51.4068 62.6415 51.4616 63.3544 51.4124 64.1901C51.3509 64.9897 51.3204 66.6707 51.2841 67.9038C51.2648 69.1394 51.2232 70.1653 51.1821 70.2111C51.1263 70.2376 50.8131 70.004 50.4632 69.662C49.7196 68.9202 47.2889 67.2513 44.3268 65.421C43.1346 64.6672 41.4933 63.6605 40.663 63.1644C39.852 62.6539 39.1649 62.2469 39.114 62.2396C38.8593 62.2035 32.3371 57.8734 32.3539 57.7554C32.3634 57.6879 32.5842 57.7193 32.8487 57.8084C33.1132 57.8975 33.8921 58.1455 34.6079 58.3502L34.6466 58.3213ZM75.2087 72.7585C77.1496 73.2401 79.1972 73.7025 79.7745 73.7843C80.3518 73.8662 80.7837 73.9962 80.7378 74.0757C80.7088 74.1576 79.4524 75.2005 77.9877 76.3686C76.506 77.5343 74.0632 79.4924 72.5379 80.7207C71.0127 81.9491 68.415 84.0228 66.7735 85.3378C65.1321 86.6529 62.1254 89.1673 60.0896 90.9424C58.0538 92.7174 56.3012 94.2059 56.2091 94.2444C56.008 94.3191 56.7498 92.9968 57.9947 91.058C59.4015 88.8326 62.9734 82.8212 64.2805 80.444C65.2155 78.7364 67.3528 74.4133 68.1084 72.7491C68.3449 72.1807 68.6663 71.6243 68.7873 71.5039C69.0633 71.2679 69.7061 71.3762 75.211 72.7416L75.2087 72.7585Z" fill="#22232D"/>
<path fillRule="evenodd" clipRule="evenodd" d="M26.3421 62.4062C25.8744 62.529 24.1263 63.8633 19.9165 67.411C18.0863 68.9573 15.755 70.8624 14.7745 71.6692C13.7625 72.4544 12.5496 73.4346 12.0534 73.8802C11.545 74.2897 10.1166 75.4457 8.86972 76.4212C4.43179 79.8677 1.65013 82.1389 1.35026 82.5436C0.980318 83.0758 1.14416 83.7526 1.73415 84.1114C2.03524 84.3089 2.27773 84.3089 2.8182 84.162C3.79486 83.8705 17.2368 73.3598 20.3882 70.436C20.9062 69.9591 21.6807 69.2606 22.1164 68.8753C23.2614 67.8854 23.3267 67.7914 24.3746 66.7534C24.8997 66.2259 25.5 65.6575 25.6961 65.4962C26.6184 64.7327 27.3585 63.7886 27.3698 63.343C27.3831 62.7602 26.8608 62.2905 26.3567 62.4254L26.3421 62.4062Z" fill="#22232D"/>
<path fillRule="evenodd" clipRule="evenodd" d="M36.4635 68.227C36.0226 68.4052 36.1799 68.2728 32.5386 71.11C29.8317 73.2198 29.4374 73.6798 29.9066 74.2795C30.0088 74.4144 30.317 74.5613 30.5887 74.5998C30.9792 74.6552 31.5194 74.3879 32.9504 73.3353C35.6697 71.382 37.6256 69.6817 37.6949 69.1927C37.7499 68.805 37.3436 68.1282 37.021 68.0825C36.9361 68.0704 36.684 68.1379 36.4635 68.227Z" fill="#22232D"/>
<path fillRule="evenodd" clipRule="evenodd" d="M29.3703 68.0466C28.5223 68.4079 22.7138 72.8467 22.3173 73.444C21.8967 74.0895 22.0892 74.5639 22.8024 74.6651C23.2269 74.7253 23.8517 74.3496 26.5586 72.2397C28.3478 70.8596 29.9916 69.5277 30.2045 69.2484C30.6036 68.7546 30.6511 68.297 30.3135 67.9912C30.0705 67.7503 30.0341 67.7624 29.3703 68.0466Z" fill="#22232D"/>
<path fillRule="evenodd" clipRule="evenodd" d="M84.8148 81.6018C84.1555 81.7319 77.9161 86.5224 77.8563 86.9439C77.787 87.4328 78.3533 88.0806 78.9306 88.1625C79.2023 88.201 79.704 88.083 80.0238 87.9047C81.4481 87.1436 86.0811 83.054 86.1553 82.5314C86.2413 81.9245 85.5614 81.4669 84.8294 81.6211L84.8148 81.6018Z" fill="#22232D"/>
<path fillRule="evenodd" clipRule="evenodd" d="M92.2698 83.1405C91.9548 83.2851 87.9404 86.3101 84.4879 89.0365C82.5947 90.5394 80.7088 92.1122 77.6613 94.7928C77.1457 95.2529 76.2209 96.0332 75.6425 96.5703C74.1416 97.8709 74.0659 98.7716 75.4587 99.2099C76.0919 99.3857 76.1477 99.3592 77.8934 98.0418C79.6778 96.6954 81.9147 94.8457 85.4176 91.8857C86.4222 91.0307 88.3105 89.4411 89.6444 88.3404C92.3363 86.0908 93.4907 84.9131 93.572 84.3399C93.603 84.1207 93.4301 83.7523 93.2187 83.5331C92.7327 83.0514 92.6842 83.0273 92.282 83.1767L92.2698 83.1405Z" fill="#22232D"/>
</g>
<defs>
<clipPath id="clip0_10_122">
<rect width="106" height="92" fill="white" transform="translate(12.9175) rotate(8.07146)"/>
</clipPath>
</defs>
</svg>
