<svg width="73" height="79" viewBox="0 0 73 79" fill="none" xmlns="http://www.w3.org/2000/svg">
<g clipPath="url(#clip0_10_129)">
<path fillRule="evenodd" clipRule="evenodd" d="M14.6439 0.130908C13.693 0.421831 11.4401 2.48738 10.0795 4.32019C9.68454 4.87294 9.37733 5.16387 9.24567 5.09114C9.14326 5.03295 8.89456 4.8584 8.67513 4.72748C8.45569 4.56748 7.40238 4.08745 6.29056 3.65107C4.59356 2.9674 4.14006 2.83649 3.2623 2.83649C2.38454 2.82194 2.17973 2.86558 1.84326 3.18559C1.24346 3.75289 1.02402 4.59657 1.27272 5.46934C1.60919 6.74939 2.67713 9.28042 3.13064 9.9059L3.58414 10.5314L3.0136 10.8659C2.10659 11.4187 0.819214 12.5388 0.409594 13.1642C-0.0731712 13.8915 -0.146317 15.2007 0.248673 15.8116C0.819214 16.6699 1.09717 16.7426 4.19857 16.7862C6.20278 16.8153 7.10979 16.8735 7.22683 17.019C7.3146 17.1208 7.5633 17.819 7.75348 18.5754C8.49957 21.4992 9.84547 23.2592 11.323 23.2447C11.9521 23.2302 12.5958 22.6919 12.8884 21.9065C13.1809 21.1646 13.8246 18.7063 14.0733 17.4553C14.1611 16.9317 14.3366 16.5098 14.4244 16.5098C14.5122 16.5098 15.3753 16.6408 16.3555 16.8153C20.0567 17.4553 21.6805 17.019 21.6805 15.3898C21.6805 14.3134 20.0713 12.0005 17.833 9.76044L16.809 8.77131L16.926 7.31669C16.9845 6.51666 17.0431 4.96022 17.0284 3.86926C17.0284 2.10918 16.9845 1.78917 16.6773 1.14914C16.4579 0.727299 16.136 0.320008 15.8727 0.203639C15.39 -0.0581913 15.2437 -0.0581913 14.6146 0.130908H14.6439ZM15.0242 3.76744C15.0974 5.03295 15.0681 8.34947 14.9803 8.81494C14.8779 9.44043 15.0974 9.78953 16.809 11.4623C18.3743 13.0042 19.4569 14.4007 19.4569 14.8661C19.4569 15.0843 18.7693 15.0407 16.8383 14.677C14.0441 14.1825 13.8685 14.1679 13.2541 14.4588C12.6104 14.7643 12.5519 14.9098 11.9082 17.7463C11.6302 18.9681 11.323 20.1609 11.2352 20.4228C11.0451 20.8737 11.0304 20.8737 10.8695 20.5537C10.7817 20.3791 10.3867 19.2154 10.0064 17.979C8.98234 14.6188 8.6605 14.3716 5.52983 14.6334C3.73044 14.7643 2.36992 14.7207 2.36992 14.5316C2.36992 14.2697 3.18915 13.557 4.30098 12.8297C4.97392 12.3787 5.6615 11.8842 5.79316 11.6951C6.24667 11.1569 6.12963 10.5459 5.44206 9.57134C4.50579 8.2331 3.2623 5.17841 3.67192 5.17841C3.71581 5.17841 4.47653 5.48388 5.35428 5.84754C6.21741 6.21119 7.09517 6.57484 7.3146 6.63303C7.53404 6.69121 7.95829 6.93849 8.26551 7.18578C8.57272 7.43306 8.98234 7.63671 9.18715 7.63671C9.58214 7.63671 10.416 6.83667 11.7619 5.17841C12.4641 4.30565 14.6292 2.28373 14.8779 2.26919C14.9218 2.26919 14.995 2.93831 15.0535 3.75289L15.0242 3.76744Z" fill="#22232D"/>
<path fillRule="evenodd" clipRule="evenodd" d="M49.6224 1.04737C48.9933 1.25102 48.2034 1.8765 47.9108 2.45835C47.7499 2.73472 47.4865 3.24384 47.2671 3.5784C46.7843 4.37844 45.7603 7.41858 45.9066 7.65131C45.9505 7.73859 45.9212 7.86951 45.8334 7.92769C45.5994 8.0877 45.1312 10.546 44.7801 13.4116L44.5168 15.7535H43.9609C43.6683 15.7535 42.9807 15.9426 42.4248 16.1608C41.3276 16.6117 38.4749 18.5464 37.0851 19.8119C36.5877 20.2483 35.5929 21.0774 34.8615 21.6592C32.711 23.3902 32.0966 24.2484 32.0966 25.6158C32.0966 26.5467 32.2867 26.9831 33.0913 27.8413C34.5543 29.3832 38.5773 30.4451 41.9567 30.1687C42.8491 30.096 43.6098 30.0669 43.6244 30.0814C43.6537 30.1105 43.5952 31.3033 43.4927 32.7288C43.3172 35.0417 43.3318 35.5217 43.5659 37.0636C43.9463 39.6237 44.707 41.0638 45.9212 41.5874C46.7551 41.9365 47.1208 41.8493 48.5545 40.8892C50.2954 39.7401 51.5388 38.4018 54.6695 34.3871C54.9328 34.0525 55.3571 33.5143 55.635 33.1798C55.913 32.8452 56.2495 32.4234 56.3519 32.2634C56.6298 31.8852 56.82 31.9579 58.6925 33.1652C61.004 34.6635 63.2276 35.7835 64.6759 36.2199C65.9048 36.569 66.1388 36.5981 66.8118 36.4381C67.8651 36.1908 68.538 35.5362 68.8453 34.5035C69.0501 33.8052 69.0647 33.4707 68.9038 32.3361C68.5673 29.776 68.2747 28.8014 66.5338 24.4375C66.2266 23.6811 65.9779 23.0266 65.9779 22.9829C65.9779 22.9247 66.3729 22.6484 66.8703 22.372C69.7523 20.6701 71.7418 18.5755 72.5318 16.379C73.1609 14.6625 73.117 12.7134 72.4294 11.8551C71.7272 10.9678 70.5569 10.6915 68.7429 11.0115C68.2747 11.0842 67.631 11.186 67.2946 11.2297C66.9581 11.2588 65.5098 11.506 64.0615 11.7533C62.6278 12.0152 61.1064 12.2624 60.6675 12.3061C60.2579 12.3643 59.7166 12.437 59.4972 12.4952C59.029 12.5824 58.9412 12.437 57.5807 9.87687C56.4543 7.73859 54.216 4.30571 53.1188 3.0111C52.519 2.31289 51.7875 1.64376 51.3048 1.36739C50.4563 0.887366 50.31 0.858274 49.6078 1.06192L49.6224 1.04737ZM51.4657 4.23297C52.7238 5.73123 54.3477 8.36407 55.9861 11.6515C57.1565 13.9789 57.3613 14.2843 58.0489 14.6335C58.6925 14.968 60.1994 14.8371 63.5202 14.1534C66.0511 13.6298 68.1431 13.2807 69.7084 13.0625C70.6154 12.9461 70.8348 13.1788 70.7471 14.1825C70.6593 15.0989 70.2058 16.0735 69.3427 17.2227C68.5966 18.1827 68.2308 18.5027 65.8609 20.2773C65.0416 20.8737 64.237 21.5574 64.0907 21.8047C63.6372 22.4738 63.842 23.492 64.91 26.0958C65.8901 28.5541 66.5192 30.6342 66.7533 32.3797C66.9435 33.6016 66.8557 34.0962 66.4753 34.2125C65.7585 34.4453 62.5254 32.947 59.8044 31.0997C58.4 30.1687 57.5807 29.7469 56.8931 29.616C55.8106 29.4123 55.2693 29.8632 53.1188 32.6852C50.6757 35.8999 49.3152 37.5291 48.2911 38.46C46.9014 39.7401 46.7843 39.7982 46.5064 39.1146C45.9066 37.7036 45.7603 36.5981 45.8919 33.9071C45.9358 32.467 46.0529 30.9251 46.1114 30.4596C46.2723 29.3541 46.0968 28.685 45.5262 28.1032C44.9849 27.565 45.0142 27.565 41.196 27.7831C39.338 27.8704 38.9869 27.8559 37.8897 27.565C36.4707 27.1868 35.2126 26.6195 34.803 26.1685C34.4226 25.7467 34.5982 25.223 35.3735 24.6266C35.7392 24.3503 36.8072 23.4629 37.7288 22.6484C40.3182 20.4083 41.3861 19.6082 43.8292 18.11C44.5899 17.63 44.9557 17.499 45.2921 17.5427C45.5994 17.5863 45.8334 17.5281 45.9944 17.3245C46.2577 17.0336 46.5795 15.5353 46.9599 12.8297C47.2086 11.0987 47.8815 7.91314 48.1741 7.08402C48.7739 5.39666 49.4907 3.81114 49.7833 3.44748C50.1198 3.05474 50.1637 3.04019 50.4855 3.25838C50.6903 3.37475 51.1146 3.81114 51.4511 4.20388L51.4657 4.23297Z" fill="#22232D"/>
<path fillRule="evenodd" clipRule="evenodd" d="M51.2171 58.0245C50.5441 58.7081 49.8712 60.3373 49.3884 62.4901C48.8618 64.7157 49.0227 64.5266 48.0133 64.4102C46.6527 64.2793 43.5513 64.9048 42.1616 65.6176C41.357 66.0248 40.9034 66.7231 40.9034 67.5086C40.9034 68.134 40.9766 68.2649 41.7958 69.065C42.381 69.6468 43.1125 70.1559 43.9902 70.5923C44.6924 70.9414 45.3215 71.2615 45.3507 71.276C45.38 71.3051 45.1752 72.0469 44.8972 72.9197C44.0048 75.7126 44.2974 77.7636 45.6872 78.68C47.1062 79.64 49.286 78.4181 51.1147 75.6253L51.89 74.4325L53.0457 75.9308C53.6602 76.7453 54.4062 77.6036 54.6842 77.8218C56.1179 78.9854 57.888 78.5927 58.283 77.0363C58.3561 76.7453 58.4 75.2907 58.3708 73.8216L58.3269 71.1451L59.4241 70.5341C61.9549 69.1377 63.2277 67.8577 63.3886 66.5485C63.4471 65.8794 63.4325 65.8067 62.7596 65.1666C61.9257 64.3811 61.3698 64.2357 58.4586 64.0466C57.3028 63.9738 56.4105 63.8429 56.2642 63.7266C56.1471 63.6247 55.7814 62.7665 55.4596 61.821C54.7427 59.61 53.9381 58.0827 53.3383 57.719C52.5483 57.239 51.9046 57.3408 51.2463 58.0245H51.2171ZM53.2505 61.4137C53.5578 62.2138 53.9089 63.2756 54.0698 63.7702C54.4062 64.9484 54.9329 65.6176 55.7375 65.9085C56.0886 66.0248 57.2151 66.1849 58.2391 66.2285C60.5505 66.3449 60.7553 66.3885 60.887 66.5049C61.165 66.7958 58.9852 68.3668 57.2882 69.1232C56.2203 69.5886 56.0886 70.0541 56.3081 72.5706C56.5129 75.058 56.5275 76.2653 56.3519 76.2653C56.1471 76.2653 55.5181 75.5235 54.5087 74.127C53.2213 72.3379 52.6654 71.8288 51.8754 71.7269C51.2902 71.6542 51.2024 71.6833 50.6612 72.2506C50.3539 72.5851 49.8127 73.3706 49.4908 73.9961C48.4521 75.9598 47.194 77.2108 46.7113 76.7453C46.3748 76.4108 46.5357 74.8834 47.1355 73.007C47.6622 71.3924 47.706 71.116 47.5451 70.636C47.3549 70.0105 46.8283 69.5886 45.4239 69.0359C44.3559 68.6141 43.0247 67.7558 43.1417 67.5667C43.2295 67.3922 45.1313 66.9558 47.0916 66.6503L48.7447 66.3885L48.9203 66.7376C49.1105 67.1304 49.7249 67.2176 50.0028 66.8685C50.0906 66.7667 50.2369 66.3594 50.3101 65.9958C50.7343 63.9302 51.7291 60.7155 52.2119 59.8282C52.4459 59.4064 52.6654 59.7264 53.2944 61.4283L53.2505 61.4137Z" fill="#22232D"/>
</g>
<defs>
<clipPath id="clip0_10_129">
<rect width="73" height="79" fill="white"/>
</clipPath>
</defs>
</svg>
