<svg width="75" height="81" viewBox="0 0 75 81" fill="none" xmlns="http://www.w3.org/2000/svg">
<path fillRule="evenodd" clipRule="evenodd" d="M32.3112 62.8563C31.7288 62.8322 31.2829 63.0292 30.0329 63.8021C29.4212 64.1854 28.9137 64.4817 28.8885 64.4708C28.8539 64.4678 28.126 64.0387 27.2392 63.5349C25.131 62.2803 24.428 61.958 23.506 61.7389C22.3008 61.4692 21.5237 61.9428 21.5262 62.9459C21.5139 63.5465 21.7361 64.1587 22.6044 65.8906C22.9712 66.6373 23.3677 67.439 23.4695 67.6571L23.6513 68.0478L22.4496 69.0516C21.5412 69.8104 21.1691 70.0573 20.9692 70.0488C20.3695 70.0232 20.0635 70.3107 19.9582 70.9731C19.8385 71.6953 20.0708 72.0119 20.6158 71.8758C20.8127 71.823 21.562 71.8354 22.2875 71.9154C23.0052 71.9861 24.0613 72.0772 24.6437 72.1013C25.2245 72.1427 25.7533 72.1797 25.8556 72.2059C25.9311 72.2386 26.2682 72.8345 26.5784 73.5328C27.3052 75.1914 27.985 76.0437 28.635 76.0911C29.3873 76.1647 29.6746 75.7971 30.3288 73.9263C30.6488 73.0207 30.9591 72.2191 31.0253 72.1637C31.0915 72.1084 31.7482 71.9907 32.471 71.9135C33.2126 71.8205 34.1747 71.703 34.6267 71.6286C35.0786 71.5543 35.9414 71.4718 36.5287 71.444C37.8543 71.3578 38.4122 71.0833 38.4875 70.4619C38.5742 69.7194 38.2253 69.4364 35.6148 68.2343C33.8912 67.4403 32.965 66.9853 32.8943 66.9007C32.8707 66.8725 32.9441 66.4603 33.082 66.01C33.2121 65.5503 33.3222 64.836 33.3531 64.4113C33.396 63.4819 33.0226 62.9003 32.3553 62.8514L32.3112 62.8563ZM31.6827 65.2003C31.5937 65.5938 31.489 65.9684 31.4574 66.0267C31.3768 66.1419 30.2103 65.4569 30.2075 65.2997C30.2188 65.1786 31.7192 64.3401 31.782 64.4153C31.7961 64.4514 31.7544 64.8053 31.6749 65.1909L31.6827 65.2003ZM34.7973 69.8905C34.1328 69.9988 31.8875 70.2149 31.7774 70.1793C31.6342 70.1233 32.0875 68.7235 32.2957 68.5496C32.3619 68.4943 32.5004 68.5062 32.6152 68.5859C32.7142 68.6468 33.263 68.9383 33.8228 69.2047C34.933 69.7452 35.0634 69.8437 34.7973 69.8905ZM30.4133 69.0848L29.9619 70.3714L29.1039 70.402C27.6854 70.454 26.7238 70.3797 26.6628 70.1913C26.6268 70.1097 26.3854 69.6093 26.1268 69.1073L25.6533 68.1944L26.0695 67.9425C26.2917 67.8047 26.9412 67.3899 27.4993 67.0194C28.0668 66.6411 28.557 66.3433 28.5917 66.3463C28.705 66.3473 30.6198 67.5242 30.7454 67.6746C30.8161 67.7591 30.6809 68.3667 30.4117 69.1021L30.4133 69.0848ZM26.6263 65.9935C25.4266 66.7882 25.1051 66.961 25.003 66.8389C24.9559 66.7825 24.6691 66.2083 24.3698 65.5808C24.0799 64.9453 23.7462 64.2188 23.6224 63.9552C23.4282 63.5112 23.4298 63.4939 23.7019 63.5697C23.9836 63.6376 25.7432 64.5133 26.6283 65.0344C27.3579 65.4462 27.3546 65.4808 26.6089 65.992L26.6263 65.9935ZM28.5778 74.1763C28.4926 74.2474 27.9705 73.2954 27.7875 72.7302C27.6281 72.1932 27.6092 72.209 28.7364 72.1929L29.2433 72.1843L28.9263 73.1512C28.763 73.6865 28.5889 74.1511 28.5605 74.1748L28.5778 74.1763ZM24.7598 70.1056C24.8115 70.206 24.5437 70.2701 23.9692 70.2554C23.508 70.2417 23.0987 70.2326 23.0673 70.195C23.0359 70.1574 23.3087 69.9455 23.6477 69.6782L24.2658 69.2258L24.4776 69.5754C24.5983 69.7777 24.7159 70.0146 24.7425 70.1041L24.7598 70.1056Z" fill="#22232D"/>
<path fillRule="evenodd" clipRule="evenodd" d="M55.3548 16.5217C54.807 17.0899 54.6908 17.6248 53.8608 22.505C53.562 24.193 53.2632 25.6136 53.1968 25.6972C53.1138 25.764 52.3336 26.0816 51.4704 26.3991C47.9678 27.7028 43.2701 29.842 41.4773 30.9952C38.4727 32.9172 38.1739 34.8894 40.7303 36.193C41.6101 36.6275 47.5694 38.4326 50.8728 39.2348L51.487 39.3685V40.6053C51.487 41.2738 51.4372 43.0955 51.3708 44.6331C51.2546 47.3406 51.4538 50.2654 51.819 50.8671C52.151 51.4019 52.815 51.4353 53.7778 50.9841C54.3256 50.7334 54.724 50.4326 54.724 50.2821C54.724 50.1317 54.8236 50.0482 54.973 50.0983C55.3714 50.2487 58.542 46.739 60.4343 43.998C61.7125 42.1262 61.4469 42.2431 63.7045 42.8114C64.7669 43.0955 66.3771 43.5468 67.2569 43.8309C69.4647 44.5663 70.7263 44.7668 71.4235 44.466C72.8843 43.8309 73.0669 42.4938 71.9879 40.2041C71.3405 38.817 69.3153 35.1234 68.3525 33.6025L67.8379 32.7668L69.1659 30.4604C69.8963 29.1735 71.0085 27.3351 71.6061 26.349C74.5277 21.686 75.1252 20.1317 74.3119 19.2794C73.4653 18.3769 71.8385 18.7111 65.8791 20.9674C63.8539 21.7195 62.0943 22.3546 61.9781 22.3546C61.8619 22.3546 61.2311 21.5022 60.5671 20.4493C59.206 18.2766 57.8116 16.4381 57.3468 16.1874C56.716 15.8532 55.8528 15.9702 55.3714 16.505L55.3548 16.5217ZM57.3634 19.5133C57.546 19.7807 58.0938 20.6498 58.6416 21.4855C59.1728 22.3044 59.6044 23.0732 59.6044 23.1735C59.6044 23.3239 57.5958 24.1763 56.3342 24.5607C55.8196 24.6944 55.803 24.4771 56.2844 21.7028C56.799 18.7111 56.8322 18.6443 57.3634 19.4966V19.5133ZM71.3073 21.92C71.3073 22.1373 66.7921 29.9256 66.4933 30.2431C66.4269 30.3267 65.7463 29.2571 64.6009 27.2849C64.1361 26.4493 63.6049 25.5468 63.4057 25.2292L63.0737 24.6777L64.6009 24.1429C65.4641 23.842 66.7257 23.3908 67.4561 23.1401C71.4401 21.7028 71.3073 21.7362 71.3073 21.9033V21.92ZM62.5425 28.0537C63.3393 29.4242 64.2191 30.9451 64.5013 31.3963C64.7835 31.8643 65.0159 32.3657 65.0159 32.4827C65.0159 32.6833 60.8825 39.0677 60.5339 39.4186C60.5007 39.4521 59.04 39.0677 57.3136 38.5496C54.309 37.647 54.1596 37.5969 54.1596 37.1624C54.1596 36.5774 54.8236 30.9284 55.1058 29.1568L55.3216 27.7529L58.0108 26.6665C59.5048 26.0482 60.8161 25.5635 60.8991 25.5468C60.9987 25.5468 61.7457 26.6665 62.5425 28.0704V28.0537ZM52.3336 33.0509C52.068 35.1568 51.8522 36.9117 51.8024 36.9451C51.736 37.0119 49.7938 36.4604 44.5483 34.8727C43.5357 34.5551 42.5231 34.2041 42.2907 34.0872L41.8757 33.8699L42.6393 33.4186C43.9673 32.6331 49.1132 30.1763 50.9226 29.4576C52.2506 28.9061 52.6822 28.8058 52.7154 29.0064C52.7486 29.1234 52.566 30.9785 52.317 33.0677L52.3336 33.0509ZM66.8917 35.608C67.5225 36.6275 69.8133 40.9228 70.0623 41.5245C70.1951 41.842 70.2615 42.1429 70.1951 42.193C70.1453 42.2599 68.8837 41.9423 67.4229 41.5078C65.9621 41.0732 64.3851 40.6053 63.9203 40.4883C63.4555 40.388 63.0737 40.2376 63.0737 40.1707C63.0737 40.1206 63.7875 38.9841 64.6507 37.6805C65.5305 36.3769 66.2277 35.2571 66.2277 35.1735C66.2277 34.856 66.5763 35.0732 66.8917 35.5913V35.608ZM56.1018 40.6888C57.0978 41.0064 58.0606 41.2738 58.2266 41.2905C59.0234 41.3574 58.9404 41.6916 57.5958 43.5301C56.0852 45.6025 53.562 48.4103 53.3462 48.193C53.23 48.076 53.7612 40.5551 53.9272 40.271C54.0268 40.0704 54.143 40.0872 56.1018 40.6888Z" fill="#22232D"/>
<path fillRule="evenodd" clipRule="evenodd" d="M9.95363 0.467189C9.42244 1.05215 9.23984 1.68724 8.95764 3.65939C8.82484 4.62875 8.69204 5.41426 8.65884 5.43098C8.62564 5.4644 7.54665 5.8488 6.25186 6.33348C3.11448 7.43655 2.16829 7.8878 1.13909 8.6566C-0.188896 9.6761 -0.371496 10.8962 0.674296 11.7652C1.28849 12.3001 2.11849 12.6009 4.67487 13.2026C5.77046 13.47 6.94905 13.7541 7.26445 13.8377L7.82885 13.9881V16.1106C7.82885 17.7151 7.76245 18.3168 7.57985 18.5173C7.03205 19.119 7.06525 19.6872 7.66285 20.3725C8.31024 21.1246 8.84144 21.158 9.17344 20.4728C9.28964 20.2221 9.95363 19.4533 10.6674 18.768C11.3646 18.0828 12.3772 17.0633 12.9084 16.4783C13.4562 15.9101 13.9542 15.392 14.0704 15.3084C14.17 15.2583 15.083 15.4254 16.079 15.7095C18.4362 16.3948 19.9136 16.4282 20.5278 15.7931C21.2582 15.0744 21.1254 14.456 19.7476 12.1496C19.0836 11.0299 18.5192 10.0104 18.5192 9.89337C18.5192 9.77638 18.9674 8.99086 19.5152 8.17192C20.063 7.31955 20.7768 6.21649 21.0922 5.68167C21.4076 5.14685 22.0715 4.17749 22.5529 3.54239C23.6153 2.08836 23.8145 1.26942 23.2335 0.651031C22.5363 -0.0843454 21.9387 0.0326479 18.4196 1.70396C16.0956 2.80702 14.8174 3.37527 14.668 3.37527C14.6182 3.37527 14.253 2.94073 13.9044 2.40591C13.5392 1.87109 12.8918 1.13571 12.4768 0.734598C11.5472 -0.11777 10.6176 -0.234762 9.98683 0.417048L9.95363 0.467189ZM11.846 3.15799C12.178 3.59253 12.4768 4.02707 12.51 4.11064C12.5598 4.29448 10.8334 4.91287 10.6674 4.77917C10.5512 4.66217 10.9828 2.37248 11.1156 2.37248C11.1654 2.38919 11.4974 2.74017 11.8294 3.15799H11.846ZM19.4322 3.99365C18.9674 4.77916 17.241 7.30284 17.1082 7.38641C16.9256 7.48669 15.8632 5.79866 15.8632 5.43098C15.8632 5.31398 15.996 5.18028 16.1786 5.13014C16.328 5.08 17.1082 4.76245 17.8718 4.41148C19.399 3.72624 19.6148 3.6761 19.4322 3.99365ZM14.7842 7.85438L15.7304 9.44212L15.0166 10.3613C13.838 11.8822 12.925 12.8182 12.676 12.7179C12.5598 12.6845 11.8294 12.5006 11.0824 12.3335L9.72124 12.0326L9.82083 11.3808C9.87063 11.0299 10.0034 9.99365 10.103 9.09114C10.2026 8.17192 10.3188 7.40312 10.352 7.36969C10.4516 7.2527 13.34 6.28334 13.6056 6.28334C13.755 6.28334 14.2696 6.95187 14.8008 7.87109L14.7842 7.85438ZM8.27704 9.10786C8.06125 11.0466 7.96165 11.5313 7.74585 11.5313C7.64625 11.5313 6.79965 11.3307 5.88666 11.0967C4.97367 10.846 3.92787 10.5619 3.54608 10.4616C2.91528 10.2778 2.89868 10.2611 3.21408 10.0438C3.52948 9.80981 5.96966 8.74017 7.28105 8.2722C8.34344 7.87109 8.37664 7.90451 8.26044 9.12457L8.27704 9.10786ZM18.486 14.1886C18.486 14.3391 17.0418 14.0549 16.2948 13.7541C15.5976 13.4533 15.5976 13.4867 16.5604 12.3001L16.992 11.7652L17.7224 12.9352C18.1374 13.5703 18.4694 14.1552 18.4694 14.2053L18.486 14.1886ZM10.933 14.6232C11.0824 14.6566 10.9164 14.9909 10.4018 15.5758C9.98683 16.0438 9.62164 16.4616 9.55524 16.4616C9.48884 16.4616 9.50544 15.9937 9.52204 15.4087L9.58844 14.3725L10.1362 14.456C10.4516 14.5062 10.8002 14.5897 10.9164 14.6399L10.933 14.6232Z" fill="#22232D"/>
</svg>
