<svg xmlns="http://www.w3.org/2000/svg" width="11" height="11" viewBox="0 0 9 9" fill="none" >
  <g clipPath="url(#clip0_68_413)">
    <path d="M0.652869 8.4089C0.462021 8.4089 0.298795 8.25514 0.278706 8.05367C0.190815 7.20802 0.128036 6.3438 0.090369 5.48755C0.0828355 5.32053 0.0702797 5.13232 0.0552128 4.93615C0.00498957 4.2628 -0.0527671 3.49668 0.100414 2.91612C0.293773 2.1871 0.861295 2.22422 1.1325 2.24277C1.18775 2.24542 1.2455 2.25073 1.30075 2.24808C1.38864 2.24542 1.49662 2.22687 1.60962 2.20566C1.99885 2.13939 2.58395 2.036 2.99327 2.55824C3.30717 2.95588 3.32726 3.52849 3.32474 4.03217L3.29461 7.83894C3.29461 8.03511 3.1565 8.20213 2.97067 8.22863C2.20226 8.34528 1.4238 8.4036 0.652869 8.40625V8.4089ZM0.858784 3.03806C0.858784 3.03806 0.843717 3.06192 0.826139 3.12819C0.708115 3.5709 0.76336 4.29196 0.80605 4.86987C0.821117 5.07665 0.836184 5.27547 0.843717 5.45043C0.873851 6.16884 0.924074 6.89255 0.991876 7.60566C1.50917 7.59241 2.02899 7.55264 2.54377 7.48637L2.5714 4.02422C2.5714 3.76177 2.57642 3.27134 2.4157 3.06457C2.29266 2.90816 2.11436 2.92142 1.73267 2.98769C1.59958 3.01155 1.46146 3.03541 1.32335 3.04071C1.2455 3.04071 1.16515 3.04071 1.08479 3.03276C1.01197 3.02746 0.891429 3.0195 0.858784 3.03276V3.03806Z" fill="blue"/>
    <path d="M7.41807 5.12941C7.23224 5.12941 7.07153 4.98626 7.04642 4.78478C7.01879 4.5674 7.16193 4.36593 7.36785 4.33677C7.68927 4.28905 7.97304 4.03191 8.02326 3.735C8.04837 3.5945 8.0107 3.43014 7.9203 3.30025C7.87761 3.23662 7.78219 3.12528 7.64156 3.10408C7.57627 3.09347 7.4934 3.09877 7.40551 3.10408C7.20964 3.11203 6.96606 3.12528 6.73001 2.99274C6.49898 2.86549 6.12984 2.51291 6.23782 1.59303C6.27298 1.29877 6.31065 0.983309 6.19262 0.856063C6.10724 0.76328 5.89128 0.784488 5.74815 0.898479C5.56483 1.04693 5.4443 1.30142 5.32125 1.63544L5.28609 1.73618C5.16807 2.0596 5.03749 2.42278 4.78386 2.72234C4.29921 3.30025 3.25708 3.65547 2.5866 3.26578C2.40328 3.15975 2.33799 2.91851 2.43844 2.72499C2.53888 2.53147 2.7674 2.46254 2.95071 2.56858C3.25708 2.7462 3.92253 2.55003 4.22387 2.1948C4.38459 2.00393 4.48252 1.73618 4.58548 1.45253L4.62315 1.34914C4.7688 0.951498 4.95211 0.545901 5.29363 0.270202C5.6929 -0.050564 6.34078 -0.127442 6.73754 0.304664C7.10417 0.704959 7.03888 1.26961 6.99117 1.68051C6.9535 2.00128 6.99117 2.23986 7.08408 2.29288C7.13933 2.32469 7.25233 2.31939 7.37538 2.31409C7.48838 2.30879 7.61645 2.30349 7.74954 2.32469C8.05842 2.37241 8.33715 2.55533 8.53302 2.84428C8.74145 3.15179 8.82683 3.53353 8.76405 3.88876C8.65356 4.51704 8.10864 5.03927 7.46829 5.13206C7.45071 5.13206 7.43314 5.13471 7.41556 5.13471L7.41807 5.12941Z" fill="blue"/>
    <path d="M7.1567 7.10479C6.95079 7.10479 6.78254 6.92982 6.78003 6.71245C6.78003 6.49242 6.94325 6.31215 7.15168 6.3095C7.55347 6.3042 7.94521 6.04705 8.12852 5.67062C8.31184 5.29418 8.27919 4.80906 8.05068 4.46178C7.93265 4.28152 7.97283 4.03498 8.14359 3.90773C8.31435 3.78314 8.54789 3.82555 8.66842 4.00582C9.06016 4.59698 9.11039 5.39227 8.799 6.0338C8.48762 6.67533 7.84476 7.09418 7.16173 7.10479C7.16173 7.10479 7.15921 7.10479 7.1567 7.10479Z" fill="blue"/>
    <path d="M5.93387 9C5.32366 9 4.75865 8.89396 4.25139 8.68188C3.5332 8.38233 2.94308 7.86274 2.58901 7.22121C2.48354 7.03034 2.54381 6.7891 2.72461 6.67776C2.9029 6.56642 3.13393 6.63004 3.2394 6.82091C3.50809 7.30869 3.96763 7.70633 4.53013 7.94227C5.0399 8.15699 5.63002 8.23917 6.28292 8.19146C6.93331 8.14374 7.43304 7.96347 7.76451 7.65331C8.08594 7.3564 8.29436 6.79705 8.09347 6.38085C7.99805 6.18468 8.07338 5.9461 8.2567 5.84536C8.44252 5.74727 8.66853 5.82415 8.76395 6.01767C9.15067 6.81561 8.80413 7.74344 8.26172 8.24713C7.80218 8.67393 7.1543 8.92047 6.33315 8.98144C6.19754 8.99205 6.06194 8.99735 5.93136 8.99735L5.93387 9Z" fill="blue"/>
  </g>
  <defs>
    <clipPath id="clip0_68_413">
      <rect width="9" height="9" fill="white"/>
    </clipPath>
  </defs>
</svg>