<svg xmlns="http://www.w3.org/2000/svg" width="21" height="20" viewBox="0 0 21 20" fill="none">
  <mask id="path-1-outside-1_68_459" maskUnits="userSpaceOnUse" x="-2.09171" y="-3.20295" width="23.8769" height="24.7346" fill="black">
    <rect fill="white" x="-2.09171" y="-3.20295" width="23.8769" height="24.7346"/>
    <path fillRule="evenodd" clipRule="evenodd" d="M19.9812 0.590119C19.7043 0.660721 18.4295 1.10131 17.8939 1.30196C17.0795 1.61461 17.0229 1.6369 15.7055 2.16241C14.4932 2.64599 13.2697 3.15451 12.2063 3.60995C11.8404 3.77026 11.2724 4.01178 10.9434 4.15457C10.6143 4.29736 10.1604 4.48686 9.93696 4.584C9.71349 4.68114 9.3599 4.83561 9.14444 4.93009C8.77806 5.09411 8.53702 5.20771 7.29658 5.78205C6.41505 6.1913 5.07813 6.82775 4.64726 7.04326C4.27398 7.22904 3.78284 7.46631 2.7755 7.95625C2.58299 8.0502 2.1398 8.24501 1.78674 8.39577C1.43689 8.55076 0.999016 8.73496 0.820878 8.80821C0.394221 8.994 0.26204 9.09272 0.238884 9.25621C0.225727 9.34909 0.243996 9.40854 0.317277 9.48338C0.440307 9.61076 2.83232 11.2428 3.73184 11.8102C4.10703 12.0416 4.72654 12.4593 5.11515 12.7305C5.50376 13.0018 5.85332 13.2257 5.89443 13.2316C5.95423 13.2401 5.97245 13.273 5.97371 13.3717C5.97119 13.4434 5.97031 13.7995 5.96464 14.1626C5.9627 14.5261 5.96267 15.0378 5.96373 15.2995C5.97719 16.1466 5.97805 16.5712 5.96811 16.9375C5.93375 18.6875 5.97067 18.9921 6.21735 19.0271C6.26968 19.0346 6.41054 19.0091 6.53325 18.9772C6.75945 18.9146 7.07603 18.6715 7.8758 17.9512C9.02135 16.9162 9.79301 16.2866 11.749 14.7792C13.1565 13.6979 12.9634 13.769 13.8852 13.9643C14.1847 14.0296 14.5954 14.1183 14.7957 14.1581C14.9991 14.2021 15.3687 14.2849 15.6127 14.3385C16.6626 14.5709 16.834 14.5991 16.9909 14.5417C17.2112 14.4669 17.3826 14.2259 17.5434 13.7901C17.6957 13.3607 17.7339 13.2259 18.1157 11.7148C18.2682 11.1224 18.407 10.5736 18.425 10.5003C18.5506 10.0444 18.559 10.0115 18.9091 8.37456C18.9757 8.06565 19.0508 7.72382 19.0768 7.62138C19.0995 7.51469 19.1608 7.21639 19.2121 6.96215C19.2602 6.70366 19.3136 6.46109 19.3316 6.41438C19.3454 6.37086 19.3936 6.16544 19.4391 5.95207C19.4803 5.74188 19.556 5.42288 19.601 5.23976C19.646 5.05664 19.7339 4.70526 19.7931 4.44836C19.8524 4.19146 19.9371 3.86237 19.9769 3.71641C20.2 2.92183 20.623 0.931391 20.5881 0.82789C20.5436 0.711651 20.3858 0.560383 20.2923 0.547117C20.247 0.544464 20.1066 0.56623 19.9802 0.59755L19.9812 0.590119ZM19.8922 1.94573C19.7923 2.43564 19.6621 3.00464 19.4033 4.10496C19.2847 4.59222 19.1498 5.16812 19.1006 5.38096C19.0254 5.69624 18.744 6.95632 18.379 8.59113C18.3467 8.73816 18.2604 9.07839 18.1963 9.34219C18.128 9.60918 17.9675 10.2307 17.8399 10.7281C17.7122 11.2254 17.5586 11.7987 17.4987 12.0062C17.4393 12.21 17.3593 12.4791 17.3307 12.6001C17.3016 12.7249 17.2528 12.9075 17.2146 13.0157C17.1812 13.1171 17.1245 13.3024 17.0964 13.4197C17.0291 13.6792 16.8888 13.9701 16.8142 14.0126C16.7688 14.0364 16.5195 13.9935 15.9069 13.8496C15.4418 13.7419 14.7764 13.5944 14.4325 13.519C13.6886 13.3603 13.0712 13.2234 12.4662 13.0806C11.8317 12.9299 11.1257 12.7728 10.5575 12.6656C10.2868 12.612 10.0513 12.5521 10.0267 12.5372C9.99891 12.5181 10.1043 12.3928 10.3377 12.172C11.2429 11.3264 11.5481 11.0021 13.4628 8.871C14.8017 7.38584 15.7971 6.2802 16.8597 5.10449C17.3758 4.52964 17.7262 4.12836 18.0542 3.7239C18.7315 2.89905 19.901 1.56039 19.9458 1.56675C19.9571 1.56835 19.9328 1.73926 19.8884 1.9452L19.8922 1.94573ZM18.548 1.63739C18.5432 1.67083 17.7639 2.19314 17.3272 2.44952C17.1817 2.53498 16.9839 2.66609 16.8869 2.7319C16.7899 2.79772 16.639 2.8938 16.5558 2.94263C16.4727 2.99147 16.2424 3.13691 16.0483 3.26855C15.8548 3.39647 15.3841 3.70487 15.0056 3.95435C14.2316 4.46604 13.327 5.09185 12.4007 5.76385C11.6827 6.2835 11.4658 6.44221 10.945 6.80794C10.7414 6.95337 10.3778 7.20497 10.1444 7.37271C9.91091 7.54044 9.58948 7.76391 9.42903 7.87378C9.26911 7.97994 8.96527 8.18696 8.75739 8.33558C8.55004 8.48049 8.14866 8.75704 7.86987 8.94866C7.43864 9.2475 6.79537 9.75123 6.49648 10.031C6.32014 10.1992 6.21849 10.3516 6.22828 10.4439C6.24192 10.5899 6.06642 10.6446 5.82231 10.5644C5.63912 10.5119 3.20108 9.87766 2.63712 9.74074C2.29426 9.65794 1.33821 9.38197 1.20892 9.32571C1.14802 9.29811 1.09616 9.26043 1.09558 9.2376C1.09074 9.21796 1.22776 9.13887 1.3979 9.06827C2.43683 8.62451 3.46501 8.1489 4.80189 7.48592C5.63377 7.0772 8.11728 5.90994 9.34013 5.35205C9.77689 5.14875 10.3129 4.91785 10.859 4.69597C11.3199 4.51124 12.1924 4.13861 12.3758 4.05474C13.212 3.66937 14.7988 3.01912 15.9343 2.59287C16.168 2.50475 16.4058 2.41345 16.4677 2.38054C16.5285 2.35506 16.7109 2.27862 16.872 2.21811C17.0363 2.16184 17.3307 2.04825 17.5286 1.97022C17.9761 1.79876 18.5196 1.59546 18.5388 1.5944C18.5426 1.59493 18.5442 1.61032 18.5421 1.62518L18.548 1.63739ZM18.2903 2.51424C18.1344 2.72709 17.0358 4.04929 16.7999 4.31522C16.737 4.3821 16.4282 4.73243 16.1102 5.09283C15.2736 6.04667 14.4214 7.0021 13.9831 7.48565C13.3099 8.2277 12.9962 8.58492 12.5206 9.14279C11.2873 10.5823 11.0082 10.8838 10.1904 11.6773C9.76637 12.0871 9.55386 12.3222 9.50817 12.4295C9.41095 12.6582 9.03406 13.4348 8.98669 13.5001C8.96753 13.5277 8.80535 13.8382 8.63365 14.189C8.45873 14.5356 8.30187 14.8355 8.28323 14.8594C8.26565 14.8759 8.15822 15.0691 8.04762 15.2846C7.93329 15.4995 7.78011 15.7734 7.71311 15.8966C7.58119 16.128 7.26373 16.7272 6.95748 17.3281C6.6475 17.9284 6.51769 18.145 6.47816 18.128C6.46052 18.1179 6.44993 17.8966 6.46061 17.6328C6.48595 16.9693 6.49134 15.9353 6.47358 15.6031C6.44129 14.9428 6.4594 13.6036 6.52024 12.0166C6.5315 11.7756 6.52986 11.4911 6.52696 11.377C6.51479 11.1668 6.51 11.1737 6.72172 11.0787C6.79584 11.04 6.79316 11.032 6.70008 10.9354C6.64765 10.8749 6.55831 10.7788 6.49893 10.7135L6.38927 10.5994L6.61041 10.411C6.97489 10.0989 7.89058 9.42158 8.26643 9.19068C9.23244 8.58875 11.1664 7.26387 13.0031 5.95173C13.3134 5.72667 13.7115 5.44587 13.897 5.3206C14.0793 5.19109 14.2398 5.08121 14.2526 5.07166C14.7035 4.7415 16.6226 3.49411 17.7257 2.81309C18.2017 2.52062 18.358 2.44046 18.2973 2.51902L18.2903 2.51424ZM2.31823 10.1617C2.47205 10.2062 2.94683 10.3267 3.36234 10.435C3.78211 10.5401 4.17625 10.6377 4.23874 10.6542C4.86734 10.8192 5.11408 10.8808 5.49753 10.9731C5.74105 11.0304 5.96162 11.0883 5.98673 11.0994C6.00758 11.1138 6.01964 11.2709 6.0088 11.4551C5.99528 11.6313 5.98856 12.0018 5.98057 12.2735C5.97631 12.5458 5.96716 12.7719 5.95811 12.782C5.94584 12.7878 5.87688 12.7364 5.79986 12.661C5.63619 12.4975 5.10112 12.1297 4.44908 11.7263C4.18666 11.5602 3.82536 11.3383 3.64259 11.229C3.46407 11.1165 3.31283 11.0268 3.30162 11.0252C3.24555 11.0172 1.80986 10.0629 1.81354 10.0369C1.81565 10.0221 1.86424 10.029 1.92246 10.0486C1.98068 10.0682 2.15214 10.1229 2.3097 10.168L2.31823 10.1617ZM11.247 13.3434C11.6742 13.4496 12.1249 13.5515 12.252 13.5695C12.3791 13.5875 12.4742 13.6162 12.4641 13.6337C12.4577 13.6518 12.1811 13.8816 11.8587 14.139C11.5325 14.3959 10.9948 14.8275 10.6591 15.0982C10.3233 15.3689 9.75151 15.8259 9.39019 16.1157C9.02886 16.4055 8.36701 16.9597 7.91889 17.3509C7.47076 17.7421 7.08496 18.0701 7.06469 18.0786C7.02042 18.0951 7.1837 17.8037 7.45774 17.3764C7.76742 16.8859 8.55368 15.5611 8.8414 15.0372C9.04722 14.6609 9.5177 13.7081 9.68403 13.3413C9.73609 13.2161 9.80684 13.0935 9.83347 13.0669C9.89422 13.0149 10.0357 13.0388 11.2475 13.3397L11.247 13.3434Z"/>
  </mask>
  <path fillRule="evenodd" clipRule="evenodd" d="M19.9812 0.590119C19.7043 0.660721 18.4295 1.10131 17.8939 1.30196C17.0795 1.61461 17.0229 1.6369 15.7055 2.16241C14.4932 2.64599 13.2697 3.15451 12.2063 3.60995C11.8404 3.77026 11.2724 4.01178 10.9434 4.15457C10.6143 4.29736 10.1604 4.48686 9.93696 4.584C9.71349 4.68114 9.3599 4.83561 9.14444 4.93009C8.77806 5.09411 8.53702 5.20771 7.29658 5.78205C6.41505 6.1913 5.07813 6.82775 4.64726 7.04326C4.27398 7.22904 3.78284 7.46631 2.7755 7.95625C2.58299 8.0502 2.1398 8.24501 1.78674 8.39577C1.43689 8.55076 0.999016 8.73496 0.820878 8.80821C0.394221 8.994 0.26204 9.09272 0.238884 9.25621C0.225727 9.34909 0.243996 9.40854 0.317277 9.48338C0.440307 9.61076 2.83232 11.2428 3.73184 11.8102C4.10703 12.0416 4.72654 12.4593 5.11515 12.7305C5.50376 13.0018 5.85332 13.2257 5.89443 13.2316C5.95423 13.2401 5.97245 13.273 5.97371 13.3717C5.97119 13.4434 5.97031 13.7995 5.96464 14.1626C5.9627 14.5261 5.96267 15.0378 5.96373 15.2995C5.97719 16.1466 5.97805 16.5712 5.96811 16.9375C5.93375 18.6875 5.97067 18.9921 6.21735 19.0271C6.26968 19.0346 6.41054 19.0091 6.53325 18.9772C6.75945 18.9146 7.07603 18.6715 7.8758 17.9512C9.02135 16.9162 9.79301 16.2866 11.749 14.7792C13.1565 13.6979 12.9634 13.769 13.8852 13.9643C14.1847 14.0296 14.5954 14.1183 14.7957 14.1581C14.9991 14.2021 15.3687 14.2849 15.6127 14.3385C16.6626 14.5709 16.834 14.5991 16.9909 14.5417C17.2112 14.4669 17.3826 14.2259 17.5434 13.7901C17.6957 13.3607 17.7339 13.2259 18.1157 11.7148C18.2682 11.1224 18.407 10.5736 18.425 10.5003C18.5506 10.0444 18.559 10.0115 18.9091 8.37456C18.9757 8.06565 19.0508 7.72382 19.0768 7.62138C19.0995 7.51469 19.1608 7.21639 19.2121 6.96215C19.2602 6.70366 19.3136 6.46109 19.3316 6.41438C19.3454 6.37086 19.3936 6.16544 19.4391 5.95207C19.4803 5.74188 19.556 5.42288 19.601 5.23976C19.646 5.05664 19.7339 4.70526 19.7931 4.44836C19.8524 4.19146 19.9371 3.86237 19.9769 3.71641C20.2 2.92183 20.623 0.931391 20.5881 0.82789C20.5436 0.711651 20.3858 0.560383 20.2923 0.547117C20.247 0.544464 20.1066 0.56623 19.9802 0.59755L19.9812 0.590119ZM19.8922 1.94573C19.7923 2.43564 19.6621 3.00464 19.4033 4.10496C19.2847 4.59222 19.1498 5.16812 19.1006 5.38096C19.0254 5.69624 18.744 6.95632 18.379 8.59113C18.3467 8.73816 18.2604 9.07839 18.1963 9.34219C18.128 9.60918 17.9675 10.2307 17.8399 10.7281C17.7122 11.2254 17.5586 11.7987 17.4987 12.0062C17.4393 12.21 17.3593 12.4791 17.3307 12.6001C17.3016 12.7249 17.2528 12.9075 17.2146 13.0157C17.1812 13.1171 17.1245 13.3024 17.0964 13.4197C17.0291 13.6792 16.8888 13.9701 16.8142 14.0126C16.7688 14.0364 16.5195 13.9935 15.9069 13.8496C15.4418 13.7419 14.7764 13.5944 14.4325 13.519C13.6886 13.3603 13.0712 13.2234 12.4662 13.0806C11.8317 12.9299 11.1257 12.7728 10.5575 12.6656C10.2868 12.612 10.0513 12.5521 10.0267 12.5372C9.99891 12.5181 10.1043 12.3928 10.3377 12.172C11.2429 11.3264 11.5481 11.0021 13.4628 8.871C14.8017 7.38584 15.7971 6.2802 16.8597 5.10449C17.3758 4.52964 17.7262 4.12836 18.0542 3.7239C18.7315 2.89905 19.901 1.56039 19.9458 1.56675C19.9571 1.56835 19.9328 1.73926 19.8884 1.9452L19.8922 1.94573ZM18.548 1.63739C18.5432 1.67083 17.7639 2.19314 17.3272 2.44952C17.1817 2.53498 16.9839 2.66609 16.8869 2.7319C16.7899 2.79772 16.639 2.8938 16.5558 2.94263C16.4727 2.99147 16.2424 3.13691 16.0483 3.26855C15.8548 3.39647 15.3841 3.70487 15.0056 3.95435C14.2316 4.46604 13.327 5.09185 12.4007 5.76385C11.6827 6.2835 11.4658 6.44221 10.945 6.80794C10.7414 6.95337 10.3778 7.20497 10.1444 7.37271C9.91091 7.54044 9.58948 7.76391 9.42903 7.87378C9.26911 7.97994 8.96527 8.18696 8.75739 8.33558C8.55004 8.48049 8.14866 8.75704 7.86987 8.94866C7.43864 9.2475 6.79537 9.75123 6.49648 10.031C6.32014 10.1992 6.21849 10.3516 6.22828 10.4439C6.24192 10.5899 6.06642 10.6446 5.82231 10.5644C5.63912 10.5119 3.20108 9.87766 2.63712 9.74074C2.29426 9.65794 1.33821 9.38197 1.20892 9.32571C1.14802 9.29811 1.09616 9.26043 1.09558 9.2376C1.09074 9.21796 1.22776 9.13887 1.3979 9.06827C2.43683 8.62451 3.46501 8.1489 4.80189 7.48592C5.63377 7.0772 8.11728 5.90994 9.34013 5.35205C9.77689 5.14875 10.3129 4.91785 10.859 4.69597C11.3199 4.51124 12.1924 4.13861 12.3758 4.05474C13.212 3.66937 14.7988 3.01912 15.9343 2.59287C16.168 2.50475 16.4058 2.41345 16.4677 2.38054C16.5285 2.35506 16.7109 2.27862 16.872 2.21811C17.0363 2.16184 17.3307 2.04825 17.5286 1.97022C17.9761 1.79876 18.5196 1.59546 18.5388 1.5944C18.5426 1.59493 18.5442 1.61032 18.5421 1.62518L18.548 1.63739ZM18.2903 2.51424C18.1344 2.72709 17.0358 4.04929 16.7999 4.31522C16.737 4.3821 16.4282 4.73243 16.1102 5.09283C15.2736 6.04667 14.4214 7.0021 13.9831 7.48565C13.3099 8.2277 12.9962 8.58492 12.5206 9.14279C11.2873 10.5823 11.0082 10.8838 10.1904 11.6773C9.76637 12.0871 9.55386 12.3222 9.50817 12.4295C9.41095 12.6582 9.03406 13.4348 8.98669 13.5001C8.96753 13.5277 8.80535 13.8382 8.63365 14.189C8.45873 14.5356 8.30187 14.8355 8.28323 14.8594C8.26565 14.8759 8.15822 15.0691 8.04762 15.2846C7.93329 15.4995 7.78011 15.7734 7.71311 15.8966C7.58119 16.128 7.26373 16.7272 6.95748 17.3281C6.6475 17.9284 6.51769 18.145 6.47816 18.128C6.46052 18.1179 6.44993 17.8966 6.46061 17.6328C6.48595 16.9693 6.49134 15.9353 6.47358 15.6031C6.44129 14.9428 6.4594 13.6036 6.52024 12.0166C6.5315 11.7756 6.52986 11.4911 6.52696 11.377C6.51479 11.1668 6.51 11.1737 6.72172 11.0787C6.79584 11.04 6.79316 11.032 6.70008 10.9354C6.64765 10.8749 6.55831 10.7788 6.49893 10.7135L6.38927 10.5994L6.61041 10.411C6.97489 10.0989 7.89058 9.42158 8.26643 9.19068C9.23244 8.58875 11.1664 7.26387 13.0031 5.95173C13.3134 5.72667 13.7115 5.44587 13.897 5.3206C14.0793 5.19109 14.2398 5.08121 14.2526 5.07166C14.7035 4.7415 16.6226 3.49411 17.7257 2.81309C18.2017 2.52062 18.358 2.44046 18.2973 2.51902L18.2903 2.51424ZM2.31823 10.1617C2.47205 10.2062 2.94683 10.3267 3.36234 10.435C3.78211 10.5401 4.17625 10.6377 4.23874 10.6542C4.86734 10.8192 5.11408 10.8808 5.49753 10.9731C5.74105 11.0304 5.96162 11.0883 5.98673 11.0994C6.00758 11.1138 6.01964 11.2709 6.0088 11.4551C5.99528 11.6313 5.98856 12.0018 5.98057 12.2735C5.97631 12.5458 5.96716 12.7719 5.95811 12.782C5.94584 12.7878 5.87688 12.7364 5.79986 12.661C5.63619 12.4975 5.10112 12.1297 4.44908 11.7263C4.18666 11.5602 3.82536 11.3383 3.64259 11.229C3.46407 11.1165 3.31283 11.0268 3.30162 11.0252C3.24555 11.0172 1.80986 10.0629 1.81354 10.0369C1.81565 10.0221 1.86424 10.029 1.92246 10.0486C1.98068 10.0682 2.15214 10.1229 2.3097 10.168L2.31823 10.1617ZM11.247 13.3434C11.6742 13.4496 12.1249 13.5515 12.252 13.5695C12.3791 13.5875 12.4742 13.6162 12.4641 13.6337C12.4577 13.6518 12.1811 13.8816 11.8587 14.139C11.5325 14.3959 10.9948 14.8275 10.6591 15.0982C10.3233 15.3689 9.75151 15.8259 9.39019 16.1157C9.02886 16.4055 8.36701 16.9597 7.91889 17.3509C7.47076 17.7421 7.08496 18.0701 7.06469 18.0786C7.02042 18.0951 7.1837 17.8037 7.45774 17.3764C7.76742 16.8859 8.55368 15.5611 8.8414 15.0372C9.04722 14.6609 9.5177 13.7081 9.68403 13.3413C9.73609 13.2161 9.80684 13.0935 9.83347 13.0669C9.89422 13.0149 10.0357 13.0388 11.2475 13.3397L11.247 13.3434Z" fill="#22232D"/>
  <path fillRule="evenodd" clipRule="evenodd" d="M19.9812 0.590119C19.7043 0.660721 18.4295 1.10131 17.8939 1.30196C17.0795 1.61461 17.0229 1.6369 15.7055 2.16241C14.4932 2.64599 13.2697 3.15451 12.2063 3.60995C11.8404 3.77026 11.2724 4.01178 10.9434 4.15457C10.6143 4.29736 10.1604 4.48686 9.93696 4.584C9.71349 4.68114 9.3599 4.83561 9.14444 4.93009C8.77806 5.09411 8.53702 5.20771 7.29658 5.78205C6.41505 6.1913 5.07813 6.82775 4.64726 7.04326C4.27398 7.22904 3.78284 7.46631 2.7755 7.95625C2.58299 8.0502 2.1398 8.24501 1.78674 8.39577C1.43689 8.55076 0.999016 8.73496 0.820878 8.80821C0.394221 8.994 0.26204 9.09272 0.238884 9.25621C0.225727 9.34909 0.243996 9.40854 0.317277 9.48338C0.440307 9.61076 2.83232 11.2428 3.73184 11.8102C4.10703 12.0416 4.72654 12.4593 5.11515 12.7305C5.50376 13.0018 5.85332 13.2257 5.89443 13.2316C5.95423 13.2401 5.97245 13.273 5.97371 13.3717C5.97119 13.4434 5.97031 13.7995 5.96464 14.1626C5.9627 14.5261 5.96267 15.0378 5.96373 15.2995C5.97719 16.1466 5.97805 16.5712 5.96811 16.9375C5.93375 18.6875 5.97067 18.9921 6.21735 19.0271C6.26968 19.0346 6.41054 19.0091 6.53325 18.9772C6.75945 18.9146 7.07603 18.6715 7.8758 17.9512C9.02135 16.9162 9.79301 16.2866 11.749 14.7792C13.1565 13.6979 12.9634 13.769 13.8852 13.9643C14.1847 14.0296 14.5954 14.1183 14.7957 14.1581C14.9991 14.2021 15.3687 14.2849 15.6127 14.3385C16.6626 14.5709 16.834 14.5991 16.9909 14.5417C17.2112 14.4669 17.3826 14.2259 17.5434 13.7901C17.6957 13.3607 17.7339 13.2259 18.1157 11.7148C18.2682 11.1224 18.407 10.5736 18.425 10.5003C18.5506 10.0444 18.559 10.0115 18.9091 8.37456C18.9757 8.06565 19.0508 7.72382 19.0768 7.62138C19.0995 7.51469 19.1608 7.21639 19.2121 6.96215C19.2602 6.70366 19.3136 6.46109 19.3316 6.41438C19.3454 6.37086 19.3936 6.16544 19.4391 5.95207C19.4803 5.74188 19.556 5.42288 19.601 5.23976C19.646 5.05664 19.7339 4.70526 19.7931 4.44836C19.8524 4.19146 19.9371 3.86237 19.9769 3.71641C20.2 2.92183 20.623 0.931391 20.5881 0.82789C20.5436 0.711651 20.3858 0.560383 20.2923 0.547117C20.247 0.544464 20.1066 0.56623 19.9802 0.59755L19.9812 0.590119ZM19.8922 1.94573C19.7923 2.43564 19.6621 3.00464 19.4033 4.10496C19.2847 4.59222 19.1498 5.16812 19.1006 5.38096C19.0254 5.69624 18.744 6.95632 18.379 8.59113C18.3467 8.73816 18.2604 9.07839 18.1963 9.34219C18.128 9.60918 17.9675 10.2307 17.8399 10.7281C17.7122 11.2254 17.5586 11.7987 17.4987 12.0062C17.4393 12.21 17.3593 12.4791 17.3307 12.6001C17.3016 12.7249 17.2528 12.9075 17.2146 13.0157C17.1812 13.1171 17.1245 13.3024 17.0964 13.4197C17.0291 13.6792 16.8888 13.9701 16.8142 14.0126C16.7688 14.0364 16.5195 13.9935 15.9069 13.8496C15.4418 13.7419 14.7764 13.5944 14.4325 13.519C13.6886 13.3603 13.0712 13.2234 12.4662 13.0806C11.8317 12.9299 11.1257 12.7728 10.5575 12.6656C10.2868 12.612 10.0513 12.5521 10.0267 12.5372C9.99891 12.5181 10.1043 12.3928 10.3377 12.172C11.2429 11.3264 11.5481 11.0021 13.4628 8.871C14.8017 7.38584 15.7971 6.2802 16.8597 5.10449C17.3758 4.52964 17.7262 4.12836 18.0542 3.7239C18.7315 2.89905 19.901 1.56039 19.9458 1.56675C19.9571 1.56835 19.9328 1.73926 19.8884 1.9452L19.8922 1.94573ZM18.548 1.63739C18.5432 1.67083 17.7639 2.19314 17.3272 2.44952C17.1817 2.53498 16.9839 2.66609 16.8869 2.7319C16.7899 2.79772 16.639 2.8938 16.5558 2.94263C16.4727 2.99147 16.2424 3.13691 16.0483 3.26855C15.8548 3.39647 15.3841 3.70487 15.0056 3.95435C14.2316 4.46604 13.327 5.09185 12.4007 5.76385C11.6827 6.2835 11.4658 6.44221 10.945 6.80794C10.7414 6.95337 10.3778 7.20497 10.1444 7.37271C9.91091 7.54044 9.58948 7.76391 9.42903 7.87378C9.26911 7.97994 8.96527 8.18696 8.75739 8.33558C8.55004 8.48049 8.14866 8.75704 7.86987 8.94866C7.43864 9.2475 6.79537 9.75123 6.49648 10.031C6.32014 10.1992 6.21849 10.3516 6.22828 10.4439C6.24192 10.5899 6.06642 10.6446 5.82231 10.5644C5.63912 10.5119 3.20108 9.87766 2.63712 9.74074C2.29426 9.65794 1.33821 9.38197 1.20892 9.32571C1.14802 9.29811 1.09616 9.26043 1.09558 9.2376C1.09074 9.21796 1.22776 9.13887 1.3979 9.06827C2.43683 8.62451 3.46501 8.1489 4.80189 7.48592C5.63377 7.0772 8.11728 5.90994 9.34013 5.35205C9.77689 5.14875 10.3129 4.91785 10.859 4.69597C11.3199 4.51124 12.1924 4.13861 12.3758 4.05474C13.212 3.66937 14.7988 3.01912 15.9343 2.59287C16.168 2.50475 16.4058 2.41345 16.4677 2.38054C16.5285 2.35506 16.7109 2.27862 16.872 2.21811C17.0363 2.16184 17.3307 2.04825 17.5286 1.97022C17.9761 1.79876 18.5196 1.59546 18.5388 1.5944C18.5426 1.59493 18.5442 1.61032 18.5421 1.62518L18.548 1.63739ZM18.2903 2.51424C18.1344 2.72709 17.0358 4.04929 16.7999 4.31522C16.737 4.3821 16.4282 4.73243 16.1102 5.09283C15.2736 6.04667 14.4214 7.0021 13.9831 7.48565C13.3099 8.2277 12.9962 8.58492 12.5206 9.14279C11.2873 10.5823 11.0082 10.8838 10.1904 11.6773C9.76637 12.0871 9.55386 12.3222 9.50817 12.4295C9.41095 12.6582 9.03406 13.4348 8.98669 13.5001C8.96753 13.5277 8.80535 13.8382 8.63365 14.189C8.45873 14.5356 8.30187 14.8355 8.28323 14.8594C8.26565 14.8759 8.15822 15.0691 8.04762 15.2846C7.93329 15.4995 7.78011 15.7734 7.71311 15.8966C7.58119 16.128 7.26373 16.7272 6.95748 17.3281C6.6475 17.9284 6.51769 18.145 6.47816 18.128C6.46052 18.1179 6.44993 17.8966 6.46061 17.6328C6.48595 16.9693 6.49134 15.9353 6.47358 15.6031C6.44129 14.9428 6.4594 13.6036 6.52024 12.0166C6.5315 11.7756 6.52986 11.4911 6.52696 11.377C6.51479 11.1668 6.51 11.1737 6.72172 11.0787C6.79584 11.04 6.79316 11.032 6.70008 10.9354C6.64765 10.8749 6.55831 10.7788 6.49893 10.7135L6.38927 10.5994L6.61041 10.411C6.97489 10.0989 7.89058 9.42158 8.26643 9.19068C9.23244 8.58875 11.1664 7.26387 13.0031 5.95173C13.3134 5.72667 13.7115 5.44587 13.897 5.3206C14.0793 5.19109 14.2398 5.08121 14.2526 5.07166C14.7035 4.7415 16.6226 3.49411 17.7257 2.81309C18.2017 2.52062 18.358 2.44046 18.2973 2.51902L18.2903 2.51424ZM2.31823 10.1617C2.47205 10.2062 2.94683 10.3267 3.36234 10.435C3.78211 10.5401 4.17625 10.6377 4.23874 10.6542C4.86734 10.8192 5.11408 10.8808 5.49753 10.9731C5.74105 11.0304 5.96162 11.0883 5.98673 11.0994C6.00758 11.1138 6.01964 11.2709 6.0088 11.4551C5.99528 11.6313 5.98856 12.0018 5.98057 12.2735C5.97631 12.5458 5.96716 12.7719 5.95811 12.782C5.94584 12.7878 5.87688 12.7364 5.79986 12.661C5.63619 12.4975 5.10112 12.1297 4.44908 11.7263C4.18666 11.5602 3.82536 11.3383 3.64259 11.229C3.46407 11.1165 3.31283 11.0268 3.30162 11.0252C3.24555 11.0172 1.80986 10.0629 1.81354 10.0369C1.81565 10.0221 1.86424 10.029 1.92246 10.0486C1.98068 10.0682 2.15214 10.1229 2.3097 10.168L2.31823 10.1617ZM11.247 13.3434C11.6742 13.4496 12.1249 13.5515 12.252 13.5695C12.3791 13.5875 12.4742 13.6162 12.4641 13.6337C12.4577 13.6518 12.1811 13.8816 11.8587 14.139C11.5325 14.3959 10.9948 14.8275 10.6591 15.0982C10.3233 15.3689 9.75151 15.8259 9.39019 16.1157C9.02886 16.4055 8.36701 16.9597 7.91889 17.3509C7.47076 17.7421 7.08496 18.0701 7.06469 18.0786C7.02042 18.0951 7.1837 17.8037 7.45774 17.3764C7.76742 16.8859 8.55368 15.5611 8.8414 15.0372C9.04722 14.6609 9.5177 13.7081 9.68403 13.3413C9.73609 13.2161 9.80684 13.0935 9.83347 13.0669C9.89422 13.0149 10.0357 13.0388 11.2475 13.3397L11.247 13.3434Z" stroke="black" stroke-width="0.4" mask="url(#path-1-outside-1_68_459)"/>
</svg>