<svg xmlns="http://www.w3.org/2000/svg" width="13" height="13" viewBox="0 0 11 10" fill="none">
  <path d="M6.27235 1.07381C6.27053 1.07374 6.2687 1.07364 6.26686 1.07353L6.26683 1.07353C4.98531 0.993472 3.71574 1.39743 2.79962 2.37377C2.02196 3.20383 1.65891 4.26764 1.53617 5.39434M6.27235 1.07381L3.91505 7.1744C3.66007 7.12292 3.39638 7.08378 3.25834 7.35253L3.21388 7.32965C3.21388 7.32965 3.21388 7.32966 3.21387 7.32966C3.11744 7.51728 3.03192 7.70964 2.94728 7.90002C2.90835 7.98758 2.86961 8.07473 2.83007 8.16081C2.70392 8.43548 2.56841 8.70238 2.38903 8.95021L2.42952 8.97955L2.38911 8.9501C2.3858 8.95465 2.38241 8.95931 2.37895 8.96407C2.31583 9.05093 2.2279 9.17192 2.12964 9.25524C2.07797 9.29906 2.02727 9.32903 1.97961 9.33987C1.93438 9.35016 1.88975 9.34387 1.84402 9.31022C1.73957 9.23339 1.67052 9.07822 1.6231 8.89672C1.58499 8.75083 1.56303 8.59748 1.54492 8.47102C1.54078 8.44209 1.53684 8.41457 1.53295 8.38886C1.38594 7.41314 1.42912 6.38036 1.53617 5.39434M6.27235 1.07381C7.448 1.17214 8.59506 1.66263 9.34244 2.61149L9.34245 2.6115C9.97949 3.41957 10.226 4.50579 9.91107 5.52338C9.59165 6.55406 8.81081 7.11391 7.88935 7.37351C6.96633 7.63355 5.90612 7.59063 5.04243 7.41614C5.04242 7.41614 5.04241 7.41614 5.0424 7.41614L5.03253 7.46516M1.53617 5.39434L1.48647 5.3889L1.53617 5.39434Z" fill="#222221" stroke="black" stroke-width="0.1"/>
</svg>