<svg xmlns="http://www.w3.org/2000/svg" width="12" height="12" viewBox="0 0 9 8" fill="none">
  <g clipPath="url(#clip0_68_456)">
    <path d="M0.116016 2.97238V7.82276C0.116016 7.89586 0.145091 7.95405 0.190844 7.99328C0.23555 8.03161 0.293462 8.04964 0.349528 8.04973C0.405594 8.04982 0.463574 8.03197 0.508349 7.99363C0.554182 7.95439 0.583201 7.89608 0.583201 7.82276V2.97238C0.583201 2.89927 0.554126 2.84109 0.508372 2.80186C0.463667 2.76353 0.405755 2.7455 0.349689 2.74541C0.293622 2.74532 0.235643 2.76317 0.190868 2.80151C0.145035 2.84075 0.116016 2.89906 0.116016 2.97238Z" fill="#222221" stroke="black" stroke-width="0.1"/>
    <path d="M7.5536 4.01122C7.58644 4.04027 7.6573 4.09222 7.74444 4.1561C7.75991 4.16744 7.7759 4.17916 7.79228 4.1912C7.90259 4.27225 8.03416 4.37005 8.15776 4.4707C8.28181 4.57172 8.39573 4.67394 8.47183 4.7637C8.51002 4.80874 8.53666 4.84831 8.55088 4.88114C8.56442 4.91241 8.56386 4.93063 8.56005 4.94089C8.39643 5.20963 8.08529 5.38623 7.7351 5.51048C7.43047 5.61856 7.10435 5.68439 6.83462 5.73884C6.794 5.74704 6.75466 5.75498 6.71686 5.76277L6.71684 5.76277C5.72482 5.96764 4.70168 6.0349 3.6899 6.01485C2.86658 5.99828 1.96983 5.95777 1.20717 5.63211L1.20715 5.6321C0.850934 5.48013 0.662727 5.16996 0.559815 4.79825C0.459376 4.43547 0.442483 4.02232 0.427537 3.65677C0.427121 3.6466 0.426707 3.63646 0.426292 3.62636L0.42629 3.62632C0.403796 3.0906 0.421844 2.54768 0.507039 2.02078L0.507041 2.02077C0.508936 2.00902 0.510843 1.99715 0.51277 1.98515C0.539723 1.81731 0.570433 1.62608 0.624082 1.44623C0.681704 1.25305 0.76395 1.07979 0.890108 0.965257L0.890178 0.965193C1.13263 0.74424 1.48891 0.625989 1.86874 0.558937C2.19011 0.502203 2.52204 0.483042 2.8074 0.466569C2.85872 0.463606 2.90854 0.46073 2.95652 0.457738L2.95654 0.457737C3.97303 0.394103 5.00543 0.444771 6.012 0.601533L6.01206 0.601542C6.7876 0.721424 7.69311 0.86709 8.33906 1.33881L8.33921 1.33892C8.34551 1.34349 8.35247 1.34846 8.35995 1.3538C8.39776 1.38083 8.44874 1.41727 8.49457 1.45816C8.52189 1.48253 8.54579 1.50713 8.56311 1.53065C8.58088 1.55481 8.58864 1.5737 8.58993 1.5871L8.58996 1.58736C8.59284 1.61559 8.58225 1.65071 8.55515 1.69284C8.52841 1.73439 8.48899 1.77749 8.44352 1.81978C8.37793 1.88079 8.30579 1.93498 8.24786 1.97849C8.22448 1.99606 8.20341 2.01188 8.18603 2.02571L8.18584 2.02586C8.10301 2.09241 8.00986 2.15879 7.91229 2.22832L7.90929 2.23046C7.81108 2.30044 7.70875 2.37345 7.61093 2.45137C7.41584 2.60679 7.23372 2.78551 7.13329 3.00822L7.13328 3.00825C7.03748 3.22112 7.07837 3.41653 7.17504 3.58513C7.27044 3.75153 7.4218 3.89516 7.5536 4.01122ZM7.5536 4.01122L7.5867 3.9738L7.55368 4.0113C7.55366 4.01127 7.55363 4.01125 7.5536 4.01122ZM8.94624 5.2167C8.94912 5.21244 8.9519 5.20803 8.95459 5.20348C8.95846 5.19727 8.96229 5.19102 8.96607 5.18473C8.96609 5.1847 8.96611 5.18467 8.96613 5.18464L8.96503 5.18398C8.96589 5.1822 8.96674 5.1804 8.96758 5.17858L8.96762 5.17849C8.98155 5.14805 8.9925 5.11799 9.00074 5.08836C9.00485 5.0564 9.00178 5.02514 8.99255 4.99581C8.98712 4.97852 8.97965 4.96221 8.97053 4.94705L8.94624 5.2167ZM8.94624 5.2167C8.70657 5.59098 8.29698 5.82419 7.85929 5.98036C7.4302 6.13345 6.96642 6.21508 6.59426 6.28058C6.57562 6.28386 6.55722 6.2871 6.53906 6.29031L6.53901 6.29032C5.29543 6.50868 4.00746 6.56805 2.75095 6.44815L2.75094 6.44815C2.71894 6.44509 2.68623 6.44202 2.65288 6.43888C2.32671 6.40826 1.93999 6.37196 1.57048 6.2847C1.16355 6.18861 0.770119 6.02919 0.49813 5.74078C0.352672 5.58723 0.256808 5.3876 0.189388 5.17993C0.121899 4.97204 0.0818728 4.7527 0.0501808 4.55779L0.0501772 4.55777C-0.0442478 3.97539 -0.0669206 3.38045 -0.037399 2.79326L0.0125379 2.79577M8.94624 5.2167L6.84851 0.269137C6.84849 0.269133 6.84847 0.269128 6.84845 0.269123C5.75266 0.0256906 4.61548 -0.0679998 3.49707 -0.0478339L3.49701 -0.0478326C2.6464 -0.0313208 1.63385 -0.00127192 0.845203 0.424142M8.64354 2.26425C8.6435 2.26429 8.64346 2.26432 8.64342 2.26436L8.61033 2.22688L8.64354 2.26425ZM8.64354 2.26425C8.7744 2.14869 8.91334 2.00717 8.99005 1.84577C9.06838 1.68096 9.08171 1.49493 8.96003 1.30031L8.96002 1.30029C8.74885 0.962855 8.38312 0.742207 7.99307 0.587837C7.61487 0.438152 7.20666 0.348125 6.88034 0.276159L8.64354 2.26425ZM0.0125379 2.79577L-0.0374022 2.79332C-0.018234 2.40203 0.00670295 1.9169 0.122942 1.47812C0.239128 1.03954 0.449005 0.637712 0.845203 0.424142M0.0125379 2.79577C0.0509512 2.01162 0.11196 0.876197 0.868928 0.468154M0.0125379 2.79577C-0.0168369 3.38004 0.00575913 3.97141 0.0995327 4.54976C0.162802 4.93888 0.257705 5.41434 0.534506 5.70647C1.03451 6.23667 1.97132 6.32465 2.65776 6.38912L3.49798 0.00215797C2.64498 0.0187162 1.6451 0.0494673 0.868928 0.468154M0.845203 0.424142L0.868928 0.468154M0.845203 0.424142L0.868928 0.468154" fill="#222221" stroke="black" stroke-width="0.1"/>
  </g>
  <defs>
    <clipPath id="clip0_68_456">
      <rect width="9" height="8" fill="white"/>
    </clipPath>
  </defs>
</svg>