<svg xmlns="http://www.w3.org/2000/svg" width="20" height="19" viewBox="0 0 20 19" fill="none">
  <g clipPath="url(#clip0_15_682)">
    <path d="M11.0338 10.0644C11.005 10.767 10.3862 12.5799 9.44109 11.5189C8.81265 10.8115 8.92059 9.73176 9.11967 8.88857C9.36674 7.84394 9.79849 6.8204 10.3358 5.88586H9.66177C10.391 7.13894 10.9954 8.60985 11.0314 10.062C11.0434 10.5515 11.823 10.5539 11.811 10.062C11.7702 8.474 11.1321 6.87193 10.3334 5.50173C10.1895 5.2558 9.80329 5.25346 9.65937 5.50173C8.75508 7.0757 7.74764 9.31017 8.34971 11.1277C8.60876 11.91 9.31157 12.7696 10.2566 12.5775C11.3792 12.3504 11.7702 11.0223 11.8086 10.0644C11.8278 9.57484 11.0482 9.57484 11.029 10.0644H11.0338Z" fill="#EAA881"/>
    <path d="M18.7192 1.42444C17.3328 0.0776724 15.2747 -0.36969 13.4446 0.330631C11.1778 1.19959 10.3191 3.4973 9.62591 5.59358H10.3767C9.77702 3.7807 9.07181 1.74064 7.3184 0.696016C5.95356 -0.119073 4.21693 -0.22213 2.76095 0.412608C-0.868219 1.99126 -0.266156 6.63117 0.90199 9.6011C1.66716 11.5475 2.87608 13.3744 4.17856 15.0139C5.35869 16.4989 6.80988 18.0846 8.65685 18.7638C10.252 19.3494 11.7679 18.7591 13.0608 17.7965C14.8118 16.4919 16.1814 14.6954 17.34 12.8872C18.5489 11.0064 19.5156 9.03194 19.861 6.81855C20.1512 4.96352 20.0793 2.87895 18.7192 1.41976C18.381 1.05672 17.8293 1.59542 18.1675 1.95847C20.2999 4.23978 18.9903 8.41125 17.6878 10.7863C16.7043 12.5804 15.541 14.316 14.1186 15.8103C13.1088 16.8737 11.7343 18.1595 10.1608 18.2579C8.54411 18.3563 7.08093 17.04 6.04711 15.986C4.67028 14.5806 3.54051 12.9434 2.56906 11.25C1.75831 9.83532 1.16584 8.32928 0.904389 6.72252C0.66932 5.27972 0.635739 3.5418 1.54483 2.29574C2.55227 0.92321 4.48798 0.445399 6.09028 0.970054C8.22749 1.67037 8.99506 3.88845 9.62591 5.79735C9.74584 6.15805 10.2591 6.15805 10.3767 5.79735C10.9739 3.98916 11.6768 1.89054 13.6125 1.08248C15.1812 0.429004 16.9658 0.796731 18.1675 1.96315C18.5249 2.3098 19.0742 1.77109 18.7192 1.42444Z" fill="#EAA881"/>
  </g>
  <defs>
    <clipPath id="clip0_15_682">
      <rect width="20" height="19" fill="white"/>
    </clipPath>
  </defs>
</svg>