<svg xmlns="http://www.w3.org/2000/svg" width="23" height="21" viewBox="0 0 23 21" fill="none">
  <path d="M2.78799 2.56275C1.55164 3.64641 0.986044 5.54855 0.616772 7.16256C0.109608 9.37067 -0.0773645 11.6986 0.0278078 13.9705C0.11662 15.8446 0.359685 17.9507 1.31558 19.5596C2.0401 20.7809 3.29048 21.6428 4.35857 20.3755C5.46872 19.0547 6.1278 17.1603 6.67469 15.4927C6.5181 15.5896 6.36385 15.6865 6.20726 15.7808C8.45795 16.3061 10.7554 16.6732 13.0481 16.8976C14.7356 17.0634 16.458 17.1603 18.1455 16.9486C19.3257 16.8007 20.6977 16.5254 21.5133 15.4876C22.544 14.1745 22.8151 12.1958 22.939 10.5334C23.0862 8.54199 22.9834 6.39252 22.3687 4.49294C21.2539 1.03798 17.5238 0.334243 14.5556 0.0843643C12.354 -0.10177 10.1173 0.0231696 7.94143 0.446433C6.19324 0.785554 4.30481 1.31081 2.86278 2.49901C2.47715 2.81518 2.85577 3.53677 3.24608 3.2155C4.41232 2.25423 5.87071 1.77487 7.28002 1.43575C9.05159 1.00739 10.8746 0.828901 12.6859 0.83655C14.4551 0.84165 16.25 1.01503 17.9562 1.54539C19.1972 1.93041 20.5995 2.5347 21.2679 3.81979C22.0766 5.37261 22.2285 7.37164 22.2285 9.12079C22.2285 10.8699 22.0766 12.9251 21.2329 14.4855C20.6018 15.6559 19.3701 15.9568 18.2133 16.1148C16.6964 16.3214 15.1446 16.2525 13.6254 16.1276C11.2064 15.9262 8.78047 15.5411 6.40592 14.9878C6.19324 14.9394 6.01094 15.0567 5.93849 15.2785C5.52014 16.556 5.01297 17.8359 4.35389 18.9884C4.08746 19.4551 3.6247 20.3857 3.02405 20.1894C2.50753 20.0211 2.10554 19.4219 1.85079 18.94C1.0585 17.4484 0.852825 15.5794 0.780373 13.8889C0.693898 11.8797 0.838803 9.84493 1.23846 7.8816C1.57033 6.24464 2.06581 4.25326 3.32087 3.1543C3.70182 2.82028 3.16194 2.23638 2.78332 2.56785L2.78799 2.56275Z" fill="#EAA881"/>
</svg>