<svg width="72" height="63" viewBox="0 0 72 63" fill="none" xmlns="http://www.w3.org/2000/svg">
<path d="M41.6686 20.7122C41.5872 22.4547 39.3182 21.1846 31.6593 23.1555C25.8079 24.6612 23.293 28.2338 22.6704 30.0542C22.746 29.809 17.7742 21.3433 21.0306 13.9284C24.287 6.51344 34.242 5.23181 38.2263 7.16397C38.8885 5.44865 41.3472 2.65305 44.2512 2.78857C47.1553 2.9241 49.978 4.80204 50.9228 9.5027C51.8675 14.2034 55.9332 14.3931 58.2564 14.5015C56.9321 17.9321 52.8123 18.904 47.6393 17.4985C48.0032 22.172 46.6519 26.1834 44.1931 28.979C43.0586 28.344 42.0596 24.805 41.6686 20.7122Z" fill="black"/>
<path d="M22.5949 30.2994C22.616 30.2218 22.6411 30.1399 22.6704 30.0542M22.6704 30.0542C23.293 28.2338 25.8079 24.6612 31.6593 23.1555C39.3182 21.1846 41.5872 22.4547 41.6686 20.7122C42.0596 24.805 43.0586 28.344 44.1931 28.979C46.6519 26.1834 48.0032 22.172 47.6393 17.4985C52.8123 18.904 56.9321 17.9321 58.2564 14.5015C55.9332 14.3931 51.8675 14.2034 50.9228 9.5027C49.978 4.80204 47.1553 2.9241 44.2512 2.78857C41.3472 2.65305 38.8885 5.44865 38.2263 7.16397C34.242 5.23181 24.287 6.51344 21.0306 13.9284C17.7742 21.3433 22.746 29.809 22.6704 30.0542Z" stroke="black" stroke-linecap="round" stroke-linejoin="round"/>
<path d="M46.3689 26.1699C47.5486 25.8369 49.8862 25.6356 49.7995 27.4942C49.6911 29.8174 46.3263 31.9886 44.8143 30.7539M44.8143 30.7539C45.0054 33.314 43.7948 35.0895 41.8154 36.4347C39.4108 38.0687 35.3181 38.4598 28.3755 37.5537C24.2959 37.0213 23.2026 34.409 22.9561 32.0621M44.8143 30.7539C44.7732 30.2042 44.6675 29.6182 44.4909 28.9926C43.6918 26.1614 44.6639 16.9712 45.2499 12.7301L26.3117 19.4132L22.9198 29.7322C22.8886 30.4003 22.8671 31.2139 22.9561 32.0621M21.9208 26.1931C20.9528 26.1479 19.0005 26.4061 18.9355 27.8C18.8542 29.5424 20.1698 32.5142 22.9561 32.0621M15.6907 47.439C24.4208 47.4584 45.0013 47.992 57.4816 49.9714C59.1969 50.6335 55.6037 52.7941 50.4035 51.9693C56.2116 52.2404 57.954 52.3217 59.0614 53.5375C59.9473 54.5102 53.5683 54.8333 50.268 54.8734C57.2377 55.1986 58.953 55.8607 58.8988 57.0223M58.8988 57.0223C58.8446 58.184 51.7936 59.6011 48.2816 60.0193C44.7697 60.4375 16.8097 60.8788 5.8828 58.0406C3.03298 56.7435 -0.815824 51.9073 3.07559 43.3578C6.967 34.8084 12.4653 29.2443 20.9219 22.6541M58.8988 57.0223C60.6412 57.1037 73.0007 54.188 67.7348 42.3009C63.522 32.7911 52.6184 25.2974 47.6931 22.7393" stroke="black" stroke-linecap="round" stroke-linejoin="round"/>
<path d="M37.2774 33.8948C37.1019 33.4986 36.2862 32.6844 34.4276 32.5977C32.569 32.5109 32.0321 34.0381 31.9959 34.8125M32.3483 27.262C32.1186 28.0274 29.9167 29.4768 28.2284 28.2339M39.8988 27.6144C39.669 28.3797 37.4942 29.2484 35.8331 27.4246" stroke="black" stroke-linecap="round"/>
<path d="M43.612 35.3545L44.3748 37.7184L45.1376 40.0823L38.8301 38.0417" stroke="black" stroke-linecap="round" stroke-linejoin="round"/>
<path d="M24.0041 35.8851L23.427 38.3011L22.8498 40.717L28.9801 38.1934" stroke="black" stroke-linecap="round" stroke-linejoin="round"/>
</svg>
