<svg width="52" height="54" viewBox="0 0 52 54" fill="none" xmlns="http://www.w3.org/2000/svg">
<path d="M23.9979 10.1733C23.8852 16.7149 19.184 25 12.8697 25C6.85772 25 1.75973 17.8557 1.07751 11.5211M23.9979 10.1733C24.0533 6.9606 23.002 4.16843 20.4917 2.98463C18.1005 1.48698 11.6143 -0.609733 4.79941 2.98463C1.72018 4.60869 0.691302 7.93518 1.07751 11.5211M23.9979 10.1733C21.9325 10.1732 17.4429 9.4543 16.0081 6.57889C9.73125 11.9704 3.18416 12.869 1.07751 11.5211" stroke="black" stroke-linecap="round" stroke-linejoin="round"/>
<path d="M49.9979 10.1733C49.8852 16.7149 45.184 25 38.8697 25C32.8577 25 27.7597 17.8557 27.0775 11.5211M49.9979 10.1733C50.0533 6.9606 49.002 4.16843 46.4917 2.98463C44.1005 1.48698 37.6143 -0.609733 30.7994 2.98463C27.7202 4.60869 26.6913 7.93518 27.0775 11.5211M49.9979 10.1733C47.9325 10.1732 43.4429 9.4543 42.0081 6.57889C35.7312 11.9704 29.1842 12.869 27.0775 11.5211" stroke="black" stroke-linecap="round" stroke-linejoin="round"/>
<path d="M50.9979 37.5555C50.8852 44.3697 46.184 53 39.8697 53C33.8577 53 28.7597 45.558 28.0775 38.9595M50.9979 37.5555C51.0533 34.209 50.002 31.3004 47.4917 30.0673C45.1005 28.5073 38.6143 26.3232 31.7994 30.0673C28.7202 31.7591 27.6913 35.2241 28.0775 38.9595M50.9979 37.5555C48.9325 37.5554 44.4429 36.8066 43.0081 33.8113C36.7312 39.4275 30.1842 40.3636 28.0775 38.9595" stroke="black" stroke-linecap="round" stroke-linejoin="round"/>
<path d="M25.9979 37.5555C25.8852 44.3697 21.184 53 14.8697 53C8.85772 53 3.75973 45.558 3.07751 38.9595M25.9979 37.5555C26.0533 34.209 25.002 31.3004 22.4917 30.0673C20.1005 28.5073 13.6143 26.3232 6.79941 30.0673C3.72018 31.7591 2.6913 35.2241 3.07751 38.9595M25.9979 37.5555C23.9325 37.5554 19.4429 36.8066 18.0081 33.8113C11.7312 39.4275 5.18416 40.3636 3.07751 38.9595" stroke="black" stroke-linecap="round" stroke-linejoin="round"/>
</svg>
