<svg width="48" height="61" viewBox="0 0 48 61" fill="none" xmlns="http://www.w3.org/2000/svg">
<path d="M2.97801 38.4355C-0.662352 41.5 1.76456 44.5645 2.97801 45.7903C1.76456 48.8549 3.58474 51.3065 6.61837 51.9194C7.2251 56.8226 10.8655 56.8226 12.0789 56.8226C12.6856 58.6613 13.8991 60.5 18.1462 60.5C21.5439 60.5 22.7978 57.2312 23 55.5968V19.4355C22.5955 18.6183 21.3012 16.8613 19.3596 16.371C16.9327 15.7581 15.1126 17.5968 14.5058 18.2097C12.6856 17.5968 9.65201 18.2097 9.04528 21.8871C6.61837 21.8871 2.97801 22.4227 4.19146 28.8968M7.83183 42.7258C7.62958 41.0914 6.49703 37.8226 3.58474 37.8226C1.76455 37.2097 0.551101 34.7581 1.15783 32.3065C1.60084 30.5164 2.69077 29.3799 4.19146 28.8968M10.2587 33.5323C10.2587 31.0807 8.43856 28.6291 6.01165 28.6291C5.35677 28.6291 4.74607 28.7183 4.19146 28.8968M18.1462 23.1129C17.7417 23.9301 16.4474 25.6871 14.5058 26.1774C12.5643 26.6677 10.8655 25.1559 10.2587 24.3387M15.7193 31.0806C16.7305 31.0807 18.7529 31.571 18.7529 33.5323C18.7529 35.4935 16.7305 35.9838 15.7193 35.9838M18.7529 40.2742C18.1462 40.2742 16.8114 40.7646 16.326 42.7258C15.8406 44.6871 17.7417 45.1774 18.7529 45.1774M12.0789 45.1774C10.8655 44.5645 8.43855 44.4419 8.43855 48.8548M12.6856 3.5L16.326 5.95161L14.5058 7.79032L18.1462 10.2419" stroke="black" stroke-linecap="round" stroke-linejoin="round"/>
<path d="M45.022 38.4355C48.6624 41.5 46.2354 44.5645 45.022 45.7903C46.2354 48.8548 44.4153 51.3065 41.3816 51.9194C40.7749 56.8226 37.1345 56.8226 35.9211 56.8226C35.3144 58.6613 34.1009 60.5 29.8538 60.5C26.4561 60.5 25.2022 57.2312 25 55.5968V19.4355C25.4045 18.6183 26.6988 16.8613 28.6404 16.371C31.0673 15.7581 32.8874 17.5968 33.4942 18.2097C35.3144 17.5968 38.348 18.2097 38.9547 21.8871C41.3816 21.8871 45.022 22.4227 43.8085 28.8968M40.1682 42.7258C40.3704 41.0914 41.503 37.8226 44.4153 37.8226C46.2354 37.2097 47.4489 34.7581 46.8422 32.3065C46.3992 30.5164 45.3092 29.3799 43.8085 28.8968M37.7413 33.5323C37.7413 31.0807 39.5614 28.6291 41.9884 28.6291C42.6432 28.6291 43.2539 28.7183 43.8085 28.8968M29.8538 23.1129C30.2583 23.9301 31.5527 25.6871 33.4942 26.1774C35.4357 26.6677 37.1345 25.1559 37.7413 24.3387M32.2807 31.0806C31.2695 31.0807 29.2471 31.571 29.2471 33.5323C29.2471 35.4935 31.2695 35.9838 32.2807 35.9838M29.2471 40.2742C29.8538 40.2742 31.1886 40.7646 31.674 42.7258C32.1594 44.6871 30.2583 45.1774 29.2471 45.1774M35.9211 45.1774C37.1345 44.5645 39.5614 44.4419 39.5614 48.8548M35.3144 3.5L31.674 5.95161L33.4942 7.79032L29.8538 10.2419M25 1L22.5 4.5L26 5.95161L24 13" stroke="black" stroke-linecap="round" stroke-linejoin="round"/>
</svg>
