<svg width="59" height="50" viewBox="0 0 59 50" fill="none" xmlns="http://www.w3.org/2000/svg">
<path d="M16.4115 15.6982C15.6504 14.9372 13.3292 14.4427 12.4159 16.2693C11.5026 18.0958 9.94246 17.9815 8.99113 17.9815M6.70795 37.3887C8.42033 37.579 12.1876 37.2746 13.5575 34.5347" stroke="black" stroke-linecap="round" stroke-linejoin="round"/>
<path d="M57.3029 25.1479C56.1598 27.8841 53.7782 32.9387 52.7303 35.1239C50.1749 40.5964 50.5224 46.9051 51.0156 49.3753H34.44C35.0116 42.5347 29.8674 43.3897 27.5811 43.6748C25.2948 43.9598 23.2943 42.8197 22.1512 40.2544C21.2367 38.2022 21.7701 34.0788 22.1512 32.2736C20.627 32.1786 17.3499 31.7606 16.4354 30.8485C15.2923 29.7084 15.8639 28.8533 17.5786 26.5731C19.2933 24.2928 20.4364 22.8677 20.7222 18.5922C21.008 13.1767 29.2958 -2.50006 45.0141 2.34539C59.8078 6.9058 58.7319 21.7275 57.3029 25.1479Z" stroke="black" stroke-linecap="round" stroke-linejoin="round"/>
<path d="M32.3938 2.56994C14.1283 -4.27958 6.16732 13.1765 5.88153 18.592C5.59575 22.8674 4.4526 24.2926 2.73788 26.5728C1.02316 28.8531 0.451586 29.7082 1.59473 30.8483C2.50925 31.7604 5.78627 32.1784 7.31047 32.2734C6.92942 34.0786 6.39595 38.202 7.31047 40.2542C8.45362 42.8195 10.4541 43.9596 12.7404 43.6745C15.0267 43.3895 20.1709 42.5344 19.5993 49.3751C26.9154 49.3751 33.6981 49.3751 36.1749 49.3751M26.6858 18.592C27.3281 19.1495 29.3689 20.2646 32.3938 20.2646M22.1195 35.6761C23.6416 35.2917 27.0283 35.096 28.3982 37.3885" stroke="black" stroke-linecap="round" stroke-linejoin="round"/>
<circle cx="28.3982" cy="24.2602" r="1.14159" fill="black"/>
<circle cx="10.1327" cy="24.2602" r="1.14159" fill="black"/>
</svg>
