<svg xmlns="http://www.w3.org/2000/svg" width="19" height="19" viewBox="0 0 19 19" fill="none">
  <g clipPath="url(#clip0_61_1334)">
    <path d="M7.05868 17.4717C8.61137 16.6103 10.0282 15.4914 11.3842 14.3515C13.0727 12.9283 14.6816 11.3904 16.1102 9.70741C17.2156 8.40594 18.3772 6.9336 18.862 5.26697C19.41 3.38734 18.2695 1.54984 16.684 0.564375C15.1406 -0.392999 13.5997 -0.0114536 12.1102 0.817178C10.3584 1.79094 8.81043 3.16028 7.3842 4.55538C4.75657 7.12086 1.94158 10.1451 0.742518 13.6867C0.37952 14.7564 0.0633609 15.8941 0.00715484 17.027C-0.027974 17.7152 0.0493094 18.4853 0.749544 18.8036C1.59966 19.1899 2.75189 18.923 3.61371 18.7287C4.80341 18.4595 5.98139 18.0476 7.05868 17.4717C7.49193 17.24 7.10786 16.5846 6.6746 16.814C5.80107 17.2798 4.85961 17.6169 3.90411 17.872C3.1102 18.085 2.09849 18.3753 1.27413 18.174C0.00247109 17.8626 1.21559 14.6675 1.47788 13.8904C2.52706 10.7935 4.91582 8.17187 7.1547 5.86387C8.46149 4.51559 9.85727 3.21646 11.4076 2.15141C12.4896 1.40939 13.9392 0.45904 15.3186 0.789088C17.1406 1.22447 18.6746 3.2703 18.1125 5.12185C17.6535 6.63164 16.5786 7.98226 15.5739 9.16669C14.2062 10.7795 12.6723 12.2542 11.0657 13.6259C9.69568 14.7939 8.2554 15.9362 6.67694 16.8116C6.24837 17.0504 6.63245 17.7058 7.06102 17.4694L7.05868 17.4717Z" fill="#F5F5F5"/>
    <path d="M0.466039 15.8913L3.05855 18.4779C3.40515 18.8243 3.94379 18.2859 3.59719 17.9395L1.00468 15.3529C0.658077 15.0065 0.119435 15.5449 0.466039 15.8913Z" fill="#F5F5F5"/>
    <path d="M1.8993 12.8298C2.2178 12.2985 2.88525 11.5073 3.59719 11.8935C4.44263 12.3523 3.62998 13.1107 3.3185 13.6023C3.08197 13.9768 3.6089 14.3536 3.91569 14.0634C4.04216 13.9464 4.17096 13.8317 4.31851 13.7427C4.74239 13.4852 4.7705 13.4712 5.15925 13.8715C5.54099 14.26 5.55504 14.1828 5.3185 14.5339C5.18033 14.7399 5.02108 14.9225 4.85012 15.098C4.55972 15.3953 4.94614 15.9547 5.31148 15.6949C5.74005 15.3906 6.64169 14.9178 7.10071 15.4093C7.57612 15.9196 6.99298 16.554 6.59251 16.8723C6.20843 17.1766 6.75176 17.7126 7.13115 17.4107C7.83607 16.8512 8.37003 15.8822 7.77752 15.0512C7.09134 14.0868 5.74942 14.459 4.92975 15.0395C5.08431 15.2385 5.23654 15.4374 5.3911 15.6364C6.02811 14.9833 6.81733 13.9042 5.94848 13.1084C5.1452 12.371 4.05855 12.8883 3.37939 13.5274C3.57846 13.6818 3.77752 13.834 3.97658 13.9885C4.2904 13.4922 4.74239 13.1411 4.74239 12.5091C4.74239 11.9801 4.44028 11.4979 3.98127 11.2404C2.87354 10.6225 1.79626 11.533 1.24356 12.4506C0.990636 12.8719 1.64872 13.2535 1.90164 12.8345L1.8993 12.8298Z" fill="#F5F5F5"/>
    <path d="M12.5387 4.12931C9.34662 7.08336 6.21078 10.124 3.42858 13.4737C3.11711 13.8482 3.65341 14.3889 3.96723 14.012C6.74943 10.6624 9.88526 7.62173 13.0773 4.66769C13.438 4.3353 12.8993 3.79692 12.5387 4.12931Z" fill="#F5F5F5"/>
    <path d="M14.6042 6.31538C11.562 9.45201 8.30443 12.3967 4.85946 15.0886C4.47305 15.3905 5.01637 15.9242 5.39811 15.627C8.84307 12.9351 12.0983 9.99038 15.1428 6.85376C15.4848 6.50264 14.9461 5.96427 14.6042 6.31538Z" fill="#F5F5F5"/>
    <path d="M16.9883 8.03352C14.9696 6.01812 12.9508 4.00507 10.9321 1.98967C10.5855 1.64323 10.0469 2.18161 10.3935 2.52804C12.4122 4.54344 14.4309 6.55884 16.4497 8.5719C16.7963 8.91833 17.3349 8.37996 16.9883 8.03352Z" fill="#F5F5F5"/>
  </g>
  <defs>
    <clipPath id="clip0_61_1334">
      <rect width="19" height="19" fill="white"/>
    </clipPath>
  </defs>
</svg>