<svg xmlns="http://www.w3.org/2000/svg" width="51" height="49" viewBox="0 0 51 49" fill="none">
  <g clipPath="url(#clip0_12_25)">
    <path fillRule="evenodd" clipRule="evenodd" d="M0.71442 23.1297C0.737244 15.6169 5.64004 -0.0790645 26.0546 0.735871C46.0858 1.53726 51.9404 19.4771 49.9204 29.4212C47.9734 39.0017 39.2292 49.3905 23.1468 48.2008C7.0666 47.0134 0.6779 34.1347 0.71442 23.1297Z" fill="white"/>
    <path d="M25.6048 49.0001C24.7785 49.0001 23.9431 48.9685 23.0963 48.9053C7.0892 47.7224 -0.0367388 35.1056 -0.000218955 23.1276C0.0157585 18.2087 1.91707 11.1677 7.20333 6.16295C11.8322 1.779 18.1844 -0.284296 26.0841 0.0317456C34.2006 0.356817 40.8724 3.52401 45.378 9.1947C50.5387 15.6894 51.7302 24.1028 50.6209 29.5613C49.5207 34.9747 46.5626 39.8869 42.2921 43.3949C37.8001 47.0836 32.0711 49.0001 25.6048 49.0001ZM1.42634 23.1321C1.38982 34.4577 8.10947 46.3838 23.199 47.4989C24.0253 47.5599 24.8356 47.5892 25.6253 47.5892C39.3317 47.5892 47.3227 38.6204 49.2194 29.2814C50.2625 24.1412 49.1327 16.2063 44.2527 10.0638C40.0164 4.73174 33.7122 1.74966 26.027 1.44265C18.5336 1.14015 12.5307 3.07477 8.18936 7.18332C3.22722 11.8811 1.44232 18.5021 1.42634 23.1321Z" fill="#1B1529"/>
    <path d="M12.6427 22.7776C12.3688 22.7776 12.1063 22.6196 11.9899 22.3554C11.8324 21.9988 11.9945 21.5811 12.3551 21.4254L20.0836 18.0663L13.9392 11.7771C13.6653 11.4972 13.6721 11.0502 13.9574 10.7793C14.2405 10.5084 14.6924 10.5152 14.9663 10.7973L21.8229 17.8157C21.985 17.9828 22.0557 18.2153 22.0101 18.4433C21.9644 18.669 21.8115 18.8609 21.5969 18.9535L12.9303 22.7211C12.8367 22.7618 12.7386 22.7798 12.6427 22.7798V22.7776Z" fill="#1B1529"/>
    <path d="M40.181 25.2065C40.0486 25.2065 39.9162 25.1704 39.7975 25.0936L31.4642 19.8067C31.2633 19.6803 31.14 19.4613 31.1355 19.2266C31.1309 18.9918 31.245 18.7683 31.439 18.6351L39.0375 13.3843C39.3593 13.1608 39.8044 13.2398 40.0303 13.5581C40.2563 13.8764 40.1764 14.3166 39.8546 14.5401L33.1304 19.1882L40.569 23.9062C40.9 24.1162 40.9981 24.5541 40.7836 24.8814C40.6466 25.0914 40.4184 25.2065 40.1833 25.2065H40.181Z" fill="#1B1529"/>
    <path fillRule="evenodd" clipRule="evenodd" d="M11.3052 26.0982C14.9458 25.7483 37.3986 27.2856 39.9938 27.5136C42.589 27.7416 43.7554 33.4484 40.3408 34.8571C36.9262 36.2657 12.3757 34.0512 10.9149 33.8322C7.98416 33.3897 7.45918 26.4707 11.3052 26.0982Z" fill="white"/>
    <mask id="mask0_12_25" style="mask-type:luminance" maskUnits="userSpaceOnUse" x="8" y="26" width="35" height="10">
      <path d="M11.3052 26.0982C14.9458 25.7483 37.3986 27.2856 39.9938 27.5136C42.589 27.7416 43.7554 33.4484 40.3408 34.8571C36.9262 36.2657 12.3757 34.0512 10.9149 33.8322C7.98416 33.3897 7.45918 26.4707 11.3052 26.0982Z" fill="white"/>
    </mask>
    <g mask="url(#mask0_12_25)">
      <path d="M42.4475 32.3107C42.4361 32.3107 42.4247 32.3107 42.411 32.3107L8.52054 30.6402C8.12795 30.6199 7.82438 30.2903 7.84264 29.8997C7.86318 29.5115 8.18958 29.2112 8.5913 29.2293L42.4817 30.8998C42.8743 30.9201 43.1779 31.2497 43.1596 31.6402C43.1414 32.0172 42.8264 32.3107 42.4475 32.3107Z" fill="#1B1529"/>
      <path d="M12.7774 35.0783C12.7774 35.0783 12.7591 35.0783 12.75 35.0783C12.3574 35.0625 12.0493 34.7351 12.0652 34.3446L12.3985 25.8973C12.4145 25.509 12.7431 25.2087 13.1403 25.22C13.5329 25.2358 13.841 25.5632 13.8251 25.9537L13.4918 34.401C13.4758 34.7803 13.1608 35.0783 12.7797 35.0783H12.7774Z" fill="#1B1529"/>
      <path d="M17.7304 35.3244C17.7304 35.3244 17.7076 35.3244 17.6984 35.3244C17.3059 35.3063 17 34.9768 17.0183 34.5885L17.404 26.1457C17.4223 25.7574 17.7555 25.4549 18.1481 25.4729C18.5407 25.491 18.8465 25.8206 18.8283 26.2089L18.4425 34.6517C18.4243 35.0309 18.1093 35.3244 17.7304 35.3244Z" fill="#1B1529"/>
      <path d="M22.8637 35.2206C22.8523 35.2206 22.8409 35.2206 22.8272 35.2206C22.4346 35.2003 22.131 34.8707 22.1493 34.4802L22.551 26.534C22.5716 26.1457 22.898 25.8432 23.2997 25.8635C23.6923 25.8838 23.9958 26.2134 23.9776 26.604L23.5759 34.5501C23.5576 34.9271 23.2426 35.2206 22.8637 35.2206Z" fill="#1B1529"/>
      <path d="M28.4033 35.8504C28.3851 35.8504 28.3645 35.8504 28.3463 35.8504C27.9537 35.8188 27.6592 35.4802 27.6912 35.0919L28.3577 26.8026C28.3896 26.4143 28.732 26.1231 29.1246 26.1547C29.5172 26.1863 29.8116 26.5249 29.7797 26.9132L29.1132 35.2025C29.0835 35.5727 28.7708 35.8527 28.4033 35.8527V35.8504Z" fill="#1B1529"/>
      <path d="M33.5663 36.1055C33.5549 36.1055 33.5412 36.1055 33.5298 36.1055C33.1372 36.0852 32.8336 35.7534 32.8542 35.3651L33.2924 26.9245C33.313 26.5362 33.6508 26.2428 34.0411 26.2563C34.4337 26.2766 34.7372 26.6085 34.7167 26.9968L34.2785 35.4373C34.2579 35.8143 33.9429 36.1078 33.5663 36.1078V36.1055Z" fill="#1B1529"/>
      <path d="M38.5148 35.9926C38.5034 35.9926 38.4919 35.9926 38.4782 35.9926C38.0857 35.9723 37.7821 35.6427 37.8003 35.2521L38.1998 27.3059C38.2203 26.9177 38.5467 26.6152 38.9484 26.6355C39.341 26.6558 39.6446 26.9854 39.6263 27.3759L39.2269 35.3221C39.2086 35.6991 38.8937 35.9926 38.5148 35.9926Z" fill="#1B1529"/>
    </g>
    <path d="M34.776 36.0197C26.1437 36.0197 11.6019 34.6472 10.8076 34.5276C8.8127 34.2273 7.79927 31.8164 7.85862 29.7012C7.92481 27.2767 9.25094 25.5859 11.2367 25.394C15.0234 25.0305 37.9784 26.6265 40.0577 26.8071C41.5596 26.9381 42.7808 28.3919 43.098 30.4235C43.4609 32.7397 42.4863 34.7353 40.6169 35.5073C39.7176 35.8775 37.5516 36.0197 34.7783 36.0197H34.776ZM11.3737 26.7981C9.88776 26.9426 9.31941 28.4122 9.28289 29.7373C9.24181 31.2362 9.8946 32.9609 11.0222 33.1302C12.7066 33.3831 36.9558 35.4847 40.0646 34.2025C41.5756 33.5794 41.8814 31.8931 41.6852 30.638C41.4774 29.3039 40.7379 28.2835 39.9276 28.2113C37.1042 27.9652 14.8682 26.4572 11.3714 26.7958L11.3737 26.7981Z" fill="#1B1529"/>
  </g>
  <defs>
    <clipPath id="clip0_12_25">
      <rect width="51" height="49" fill="white"/>
    </clipPath>
  </defs>
</svg>