<svg xmlns="http://www.w3.org/2000/svg" width="51" height="49" viewBox="0 0 48 47" fill="none">
  <g clipPath="url(#clip0_3_675)">
    <path fillRule="evenodd" clipRule="evenodd" d="M1.01392 26.5618C-0.298836 19.4963 1.41522 3.86778 20.3104 1.00266C38.8513 -1.80843 47.4194 14.0145 47.3319 23.7226C47.2465 33.0764 41.0627 44.3986 26.078 46.1423C11.0955 47.886 2.9393 36.916 1.01392 26.5618Z" fill="white"/>
    <path d="M22.9914 47.0001C9.99615 47.0001 2.30318 37.1343 0.360722 26.6893C-0.501643 22.0589 -0.00642335 15.1036 3.9596 9.45759C7.43254 4.5117 12.9013 1.44131 20.2122 0.332864C27.7259 -0.805836 34.4177 0.985401 39.562 5.51211C45.4577 10.7 48.0469 18.3987 47.9978 23.7248C47.9487 29.0078 46.1066 34.1525 42.8066 38.2125C38.8939 43.0244 33.1349 45.9975 26.1548 46.81C25.0683 46.9375 24.0117 46.998 22.9914 46.998V47.0001ZM1.67135 26.4387C3.65222 37.091 11.9386 47.1082 26.0033 45.4703C40.1554 43.8239 46.5784 33.3573 46.6659 23.714C46.7107 18.6968 44.2624 11.4368 38.689 6.53197C33.8457 2.27319 27.5274 0.59215 20.4107 1.67035C13.4712 2.72262 8.30131 5.60502 5.0461 10.2398C1.32341 15.54 0.862345 22.0827 1.67135 26.4387Z" fill="#1B1529"/>
    <path d="M11.3836 17.3766C10.692 17.3766 10.0837 17.2102 9.84889 16.7435C9.68239 16.4107 9.81047 16.0045 10.1392 15.8338C10.4124 15.6912 10.739 15.7604 10.9354 15.9808C11.3836 16.1234 13.1148 15.9764 14.2738 15.0603C15.0828 14.4207 15.3774 13.5953 15.1704 12.5366C15.0999 12.1714 15.3347 11.8149 15.6955 11.7436C16.0583 11.6723 16.4084 11.91 16.4789 12.2751C16.8972 14.4229 15.7723 16.1904 13.467 16.9985C12.8864 17.2016 12.0902 17.3766 11.3815 17.3766H11.3836Z" fill="#1B1529"/>
    <path d="M12.7498 26.8923C11.7188 26.8923 10.9375 26.5445 10.8863 26.5207C10.5512 26.3673 10.4017 25.9675 10.5533 25.6283C10.7048 25.2891 11.0976 25.1378 11.4327 25.2891C11.4648 25.3042 12.848 25.8962 14.0796 25.2134C15.1447 24.6236 15.8513 23.2537 16.1757 21.1448C16.2334 20.7753 16.577 20.5247 16.9378 20.5809C17.3028 20.6392 17.5504 20.9849 17.4949 21.3522C17.1 23.9084 16.1608 25.6089 14.705 26.4062C14.0326 26.7735 13.3496 26.8923 12.7498 26.8923Z" fill="#1B1529"/>
    <path d="M32.3173 24.496C31.8733 24.496 31.4443 24.4291 31.0281 24.2929C28.6245 23.5129 27.6768 20.7602 27.6384 20.6435C27.521 20.2913 27.7067 19.9067 28.0567 19.7878C28.4047 19.669 28.7846 19.857 28.902 20.2092C28.9127 20.2373 29.6833 22.4434 31.4422 23.0095C32.5778 23.3746 33.9311 22.9922 35.468 21.8729C35.7668 21.6547 36.183 21.7238 36.3986 22.0263C36.6142 22.3288 36.5459 22.7502 36.2471 22.9684C34.8532 23.984 33.5362 24.4939 32.3173 24.4939V24.496Z" fill="#1B1529"/>
    <path d="M31.6663 15.1703C31.0515 15.1703 30.4282 15.0731 29.8626 14.87C28.236 14.2844 27.2328 12.9383 27.0386 11.0822C27.0001 10.7106 27.2648 10.3778 27.632 10.339C27.997 10.3001 28.3278 10.568 28.3663 10.9396C28.5093 12.2879 29.1624 13.1825 30.313 13.5973C31.6812 14.09 33.2117 13.701 33.7091 13.2041C33.9716 12.9405 34.3943 12.9448 34.6526 13.2084C34.9108 13.4742 34.9087 13.902 34.6483 14.1634C34.0015 14.8116 32.8531 15.1703 31.6706 15.1703H31.6663Z" fill="#1B1529"/>
    <path fillRule="evenodd" clipRule="evenodd" d="M6.76444 26.8966C6.82207 26.0647 7.80184 24.7143 8.90541 24.9779C10.009 25.2415 9.82968 26.2916 11.1595 26.216C12.4893 26.1425 13.6655 25.8206 13.9964 27.56C14.3272 29.3015 12.1457 29.5867 11.1595 29.4225C10.1733 29.2583 9.93 28.1304 8.79014 28.5474C7.65028 28.9666 6.66411 28.3594 6.76444 26.8945V26.8966Z" fill="white"/>
    <path d="M11.6868 30.1398C11.4498 30.1398 11.2342 30.1225 11.0507 30.0923C10.4743 29.9972 10.0965 29.6882 9.79126 29.4397C9.41771 29.1329 9.32592 29.0724 9.01854 29.1869C8.23516 29.4743 7.46458 29.3944 6.90319 28.9644C6.32259 28.5214 6.03655 27.7695 6.10059 26.8512C6.15182 26.1057 6.65985 25.2328 7.33864 24.7272C7.87442 24.3275 8.4849 24.1849 9.06124 24.3231C9.7507 24.4895 10.1008 24.8849 10.3569 25.1745C10.6152 25.4683 10.7027 25.5677 11.1254 25.544C11.2748 25.5353 11.4199 25.5245 11.5629 25.5137C12.6985 25.4251 14.2504 25.3041 14.6538 27.4367C14.8288 28.3507 14.4788 28.9449 14.1543 29.282C13.5289 29.9324 12.4958 30.142 11.6868 30.142V30.1398ZM9.25975 27.7825C9.88945 27.7825 10.3185 28.1347 10.6301 28.3875C10.8842 28.5949 11.0485 28.7224 11.2662 28.7591C11.8042 28.8477 12.801 28.7505 13.1959 28.3378C13.3005 28.2297 13.4093 28.059 13.341 27.6895C13.1681 26.7756 12.8736 26.7648 11.6633 26.8598C11.5096 26.8728 11.3538 26.8836 11.1958 26.8922C10.1413 26.9527 9.68453 26.445 9.35794 26.0733C9.15516 25.8443 9.03349 25.7038 8.75172 25.6369C8.55748 25.5893 8.34829 25.6498 8.12843 25.814C7.7378 26.1057 7.45177 26.633 7.43043 26.9441C7.40054 27.3914 7.4966 27.7263 7.70578 27.884C7.90003 28.0331 8.21168 28.0439 8.56388 27.9143C8.82003 27.8214 9.05056 27.7803 9.25975 27.7803V27.7825Z" fill="#1B1529"/>
    <path fillRule="evenodd" clipRule="evenodd" d="M33.0132 26.2161C32.1124 25.3713 32.9812 23.6492 34.1723 23.4029C35.3634 23.1587 34.5714 21.9681 35.8565 21.6138C37.1415 21.2594 38.9644 21.67 38.6954 23.0787C38.4265 24.4854 36.5459 23.0787 36.4968 24.3449C36.4499 25.6111 35.2332 28.299 33.0111 26.2161H33.0132Z" fill="white"/>
    <path d="M34.5544 27.6594C34.0079 27.6594 33.3313 27.4346 32.5607 26.713C32.027 26.2117 31.8456 25.4749 32.0633 24.6905C32.3301 23.7268 33.1434 22.9274 34.0399 22.7416C34.2363 22.7005 34.2385 22.6983 34.3366 22.3699C34.4626 21.9486 34.6739 21.242 35.6814 20.9633C36.6377 20.6997 38.0294 20.7559 38.8278 21.5078C39.291 21.9442 39.4788 22.5471 39.3529 23.2083C39.1053 24.4982 37.9441 24.4572 37.4488 24.4399C37.3635 24.4377 37.2503 24.4334 37.1628 24.4356C37.103 25.436 36.5054 27.009 35.3207 27.5059C35.1072 27.5945 34.8511 27.6615 34.5544 27.6615V27.6594ZM33.4679 25.7212C34.0036 26.2246 34.4562 26.404 34.8105 26.2549C35.3975 26.0086 35.8095 24.9433 35.833 24.3189C35.8821 23.0311 37.0561 23.0721 37.4958 23.0873C37.6516 23.0938 37.9398 23.1024 38.0102 23.0592C38.0102 23.0592 38.0273 23.0224 38.0422 22.949C38.0892 22.6962 38.0124 22.5817 37.9206 22.4974C37.579 22.1776 36.7316 22.0739 36.0336 22.2662C35.7369 22.3483 35.7134 22.4282 35.6131 22.761C35.4893 23.1737 35.2823 23.8651 34.3046 24.0661C33.8905 24.1503 33.4785 24.576 33.3462 25.0557C33.2907 25.2566 33.2672 25.5354 33.4657 25.7212H33.4679Z" fill="#1B1529"/>
    <path d="M17.7831 34.8396C17.7276 34.8396 17.6721 34.8331 17.6166 34.818C17.2601 34.725 17.0445 34.3577 17.1363 33.9969C17.1491 33.9472 18.4853 28.9408 24.3938 28.7917C24.4664 28.7917 24.539 28.7896 24.6094 28.7896C29.822 28.7896 31.6962 33.6015 31.7154 33.6512C31.8477 33.999 31.6748 34.3901 31.329 34.5241C30.9854 34.6559 30.599 34.483 30.4688 34.133C30.4048 33.9666 28.8487 30.019 24.4258 30.1422C19.5142 30.2675 18.4363 34.2929 18.4277 34.334C18.3509 34.6386 18.0798 34.8417 17.7809 34.8417L17.7831 34.8396Z" fill="#1B1529"/>
  </g>
  <defs>
    <clipPath id="clip0_3_675">
      <rect width="48" height="47" fill="white"/>
    </clipPath>
  </defs>
</svg>