<svg xmlns="http://www.w3.org/2000/svg" width="51" height="49" viewBox="0 0 48 47" fill="none">
  <g clipPath="url(#clip0_3_583)">
    <path fillRule="evenodd" clipRule="evenodd" d="M0.73003 24.1284C0.158423 16.9434 3.49601 1.54462 22.6416 0.706344C41.4276 -0.116774 48.3211 16.573 47.2229 26.2403C46.1632 35.5567 38.8136 46.1836 23.6885 46.3222C8.56126 46.4608 1.57138 34.6556 0.73003 24.1284Z" fill="white"/>
    <path d="M23.4253 47.0003C8.54641 47.0003 0.972082 35.572 0.0643619 24.1826C-0.310287 19.4779 0.907857 12.594 5.45074 7.38887C9.43058 2.8314 15.2045 0.353386 22.6118 0.0306369C30.2225 -0.300776 36.7114 2.19674 41.3721 7.26107C46.7113 13.0619 48.4904 21.0136 47.8867 26.3184C47.2872 31.5799 44.913 36.5121 41.1987 40.2074C36.7949 44.5873 30.7406 46.9375 23.6929 47.0003C23.603 47.0003 23.5131 47.0003 23.4253 47.0003ZM1.39811 24.0743C2.25659 34.8398 9.40275 45.6465 23.4296 45.6465C23.5131 45.6465 23.5966 45.6465 23.6822 45.6465C37.9681 45.5144 45.4654 35.7669 46.5593 26.1646C47.1267 21.1674 45.4418 13.6684 40.3937 8.18383C36.0071 3.41841 29.88 1.0682 22.6696 1.38228C15.639 1.68987 10.1842 4.01409 6.45266 8.28564C2.18809 13.1724 1.04487 19.6468 1.39811 24.0743Z" fill="#1B1529"/>
    <path fillRule="evenodd" clipRule="evenodd" d="M12.0294 21.8646C11.9524 20.5498 12.3998 17.7295 14.9731 17.5757C17.495 17.4241 18.422 20.4805 18.2743 22.2524C18.133 23.9592 17.1439 25.9044 15.1144 25.9304C13.0827 25.9564 12.145 23.7946 12.0316 21.8668L12.0294 21.8646Z" fill="#1B1529"/>
    <path fillRule="evenodd" clipRule="evenodd" d="M29.912 21.0067C29.8349 19.6919 30.2823 16.8716 32.8556 16.7178C35.3775 16.5662 36.3045 19.6226 36.1568 21.3944C36.0155 23.1013 35.0264 25.0465 32.9969 25.0725C30.9653 25.0985 30.0276 22.9367 29.9141 21.0089L29.912 21.0067Z" fill="#1B1529"/>
    <path d="M24.9216 36.1523C18.2529 36.1523 17.6278 29.7818 17.6213 29.7168C17.5892 29.3443 17.8611 29.015 18.2293 28.9825C18.5976 28.9522 18.9208 29.2251 18.9529 29.5977C18.9744 29.8338 19.531 35.0909 25.4205 34.7833C27.2038 34.6902 28.5803 34.1032 29.5138 33.0353C31.0958 31.2244 30.9267 28.5839 30.9246 28.558C30.8989 28.1854 31.1751 27.8605 31.5411 27.8323C31.9115 27.802 32.2305 28.0836 32.2583 28.454C32.269 28.584 32.4788 31.6728 30.5242 33.9191C29.3446 35.2772 27.6491 36.0223 25.4868 36.1328C25.292 36.1436 25.1036 36.148 24.9195 36.148L24.9216 36.1523Z" fill="#1B1529"/>
  </g>
  <defs>
    <clipPath id="clip0_3_583">
      <rect width="48" height="47" fill="white"/>
    </clipPath>
  </defs>
</svg>