<svg width="176" height="159" viewBox="0 0 176 159" fill="none" xmlns="http://www.w3.org/2000/svg">
<path fillRule="evenodd" clipRule="evenodd" d="M2.18422 30.6625C1.74873 33.6625 3.59222 36.1637 7.95515 38.4755C11.094 40.1434 14.7486 41.1505 19.0641 41.5399C21.9082 41.7877 22.3195 41.8044 24.4408 41.6054C26.9012 41.3684 28.4765 40.8655 29.2399 40.0853C30.2199 39.0529 30.4395 37.8369 29.9369 36.141C29.7793 35.642 28.9331 33.4491 28.0332 31.2946C27.1265 29.1531 26.01 26.4519 25.5248 25.2978C24.2548 22.2495 22.9651 19.5903 21.9641 17.9152C20.0643 14.8185 17.1868 13.0052 14.7178 13.3541C10.5583 13.9457 9.42481 18.9753 12.1362 24.746L12.7771 26.1151L10.9252 26.0896C7.84556 26.0341 4.77449 27.0484 3.20721 28.6541C2.49133 29.376 2.3056 29.761 2.1705 30.6886L2.18422 30.6625ZM5.54042 30.0646C6.28041 29.4885 7.94431 28.8491 9.02839 28.737C10.4649 28.5938 12.3494 28.6531 13.0824 28.8889C14.0534 29.1834 14.9762 29.1861 15.2598 28.9025C15.9968 28.1085 15.9113 27.664 14.5064 24.7445C13.4159 22.4731 12.9413 20.692 12.9953 19.056C13.0616 16.694 13.8442 15.5577 15.31 15.6464C16.7094 15.7334 18.3033 16.8882 19.5669 18.7347C20.9084 20.6888 21.9336 22.8926 24.7383 29.8276C25.3243 31.301 26.0954 33.2213 26.4655 34.1151C27.3711 36.3226 27.7265 37.6913 27.5208 38.0824C26.8761 39.3079 20.0882 39.4654 15.1933 38.3884C9.90191 37.2026 5.43867 34.5384 4.83387 32.2062C4.54667 31.123 4.67975 30.7104 5.52726 30.0576L5.54042 30.0646Z" fill="#22232D"/>
<g clipPath="url(#clip0_56_30)">
<path fillRule="evenodd" clipRule="evenodd" d="M152.16 43.1899C151.93 43.2999 151.52 43.6199 151.24 43.9299C150.39 44.8799 150 46.3499 150 48.6599C150 50.9699 150.47 52.6999 151.31 53.4899C151.71 53.8699 151.85 53.9399 152.22 53.9399C152.99 53.9399 153.97 53.3799 155.8 51.8999C157.82 50.2599 158.62 49.2999 158.86 48.1899C159.03 47.4299 158.88 46.9299 158.32 46.4199C157.95 46.0799 157.84 46.0399 157.34 46.0399C157 46.0399 156.55 46.1499 156.16 46.2999C155.81 46.4499 155.51 46.5599 155.48 46.5599C155.45 46.5599 155.42 46.2199 155.41 45.8099C155.38 44.7499 155.15 44.1099 154.59 43.6299C153.83 42.9999 152.96 42.8199 152.16 43.1899ZM153.44 44.9299C153.73 45.1799 153.73 45.1899 153.79 46.7499C153.82 47.5999 153.88 48.3699 153.93 48.4399C154.09 48.6799 154.56 48.5899 155.53 48.1099C156.64 47.5699 157.32 47.4499 157.32 47.7799C157.32 48.1499 156.87 48.8299 156.19 49.4799C155.58 50.0499 155.33 50.2699 154.37 51.0299C153.75 51.5099 152.6 52.2599 152.46 52.2599C152.28 52.2599 152.14 52.0099 151.87 51.1299C151.56 50.1399 151.54 47.4899 151.83 46.4599C152.08 45.5899 152.37 45.0699 152.71 44.8499C153.08 44.6299 153.09 44.6299 153.44 44.9199V44.9299Z" fill="#22232D"/>
</g>
<g clipPath="url(#clip1_56_30)">
<path fillRule="evenodd" clipRule="evenodd" d="M157.531 74.1988C155.144 75.0435 154.012 77.3789 154 81.5031C153.988 84.4721 154.664 87.5652 156.055 90.9069C156.978 93.1056 157.125 93.4162 158.097 94.9069C159.229 96.6336 160.214 97.6025 161.087 97.8634C162.232 98.1864 163.216 97.8758 164.274 96.8448C164.582 96.5342 165.874 95.0559 167.116 93.5528C168.347 92.0497 169.909 90.1739 170.574 89.3665C172.333 87.2423 173.798 85.2547 174.647 83.8634C176.197 81.2547 176.418 78.4224 175.2 76.733C173.145 73.8882 168.987 75.0062 165.775 79.2547L165.012 80.2609L164.311 78.882C163.154 76.5839 161.21 74.7081 159.414 74.1739C158.602 73.9255 158.245 73.9379 157.507 74.1988H157.531ZM159.279 76.4472C159.992 76.7702 161.112 77.7516 161.616 78.5093C162.281 79.5156 162.97 80.9317 163.081 81.5652C163.24 82.3975 163.597 83.0808 163.917 83.1802C164.791 83.4162 165.086 83.1802 166.698 81.0062C167.953 79.3168 169.085 78.2733 170.315 77.677C172.087 76.8075 173.232 76.9441 173.736 78.0621C174.216 79.1305 173.982 80.7578 173.108 82.41C172.186 84.1615 170.955 85.7764 166.919 90.5466C166.058 91.5528 164.938 92.8696 164.422 93.4907C163.142 95.0187 162.268 95.8137 161.899 95.8137C160.743 95.8137 157.987 90.8572 156.879 86.8199C155.698 82.4472 155.932 78.1118 157.421 76.7578C158.11 76.1243 158.466 76.0621 159.279 76.4348V76.4472Z" fill="#22232D"/>
</g>
<path fillRule="evenodd" clipRule="evenodd" d="M47.2959 37.2176C47.2316 37.4678 47.2107 38.3653 47.2435 39.2239C47.3527 41.9275 46.9489 44.5109 46.1311 46.3423C45.0371 48.7642 42.708 51.4704 40.1556 53.3035C38.5693 54.4363 37.5734 54.9376 36.4431 55.163C35.9759 55.264 35.4686 55.4451 35.2968 55.5696C35.0177 55.772 34.9532 55.7508 34.628 55.3926L34.2814 54.9821L34.1556 55.5993C34.0726 56.0497 34.1589 56.598 34.4738 57.6424C35.5717 61.2583 35.6246 64.2233 34.5949 66.395C33.828 68.0029 32.3712 70.0599 31.1099 71.2795C30.3156 72.0589 29.9724 72.8506 30.1715 73.4868C30.2549 73.7149 30.6017 74.3289 30.9887 74.8628C32.2385 76.587 33.6659 79.0309 34.2119 80.3489C36.3662 85.6256 36.1121 91.4432 33.5848 94.8022C32.9302 95.6839 32.7454 96.3778 32.9741 97.0774C33.1866 97.6869 33.1947 97.6981 34.6882 98.516C37.3797 99.9926 38.4894 101.004 40.0698 103.388C41.5858 105.683 42.3418 107.9 42.5423 110.708C42.6317 111.915 42.4937 114.391 42.2635 115.61C42.1137 116.397 42.1273 116.642 42.3611 116.964C42.5143 117.176 42.7991 117.411 43.0005 117.485C43.2019 117.56 44.3351 117.587 45.5435 117.559C48.5911 117.471 50.8389 117.861 52.4292 118.745C53.9657 119.599 54.8066 120.33 56.0025 121.822C57.2736 123.395 57.9673 124.691 58.6319 126.805C59.544 129.691 59.9684 129.892 62.1131 128.558C65.5595 126.4 68.0401 125.62 71.0692 125.732C73.9478 125.817 76.7815 127.106 79.0574 129.342C80.0139 130.278 80.151 130.467 81.745 133.095C82.1912 133.824 82.2907 133.939 82.6666 134.005C83.1742 134.096 83.7727 133.679 84.8219 132.528C85.9757 131.251 88.7725 129.393 90.3484 128.879C93.4492 127.87 95.941 127.761 99.4538 128.472C101.138 128.83 102.239 129.355 103.829 130.578C104.482 131.072 105.151 131.52 105.32 131.55C105.852 131.674 106.322 131.418 106.48 130.914C106.544 130.663 106.727 130.327 106.885 130.162C107.046 129.977 107.314 129.444 107.496 128.972C108.349 126.759 109.226 125.597 110.909 124.394C113.523 122.534 116.471 121.924 120.497 122.417C122.011 122.609 122.755 122.46 123.104 121.902C123.249 121.695 123.283 120.974 123.207 119.807C123.142 118.837 123.112 117.552 123.109 116.96C123.116 116.361 123.116 115.75 123.097 115.611C123.032 115.047 123.613 112.709 124.032 111.93C125.027 110.005 126.709 108.463 128.857 107.517C130.502 106.782 131.625 106.546 133.308 106.564C135.011 106.586 135.757 106.214 135.998 105.259C136.052 105.017 135.869 104.131 135.583 103.15C134.73 100.189 134.516 97.4759 134.936 94.6434C135.516 90.8123 137.161 88.1781 140.226 86.1939C141.404 85.4247 141.739 84.9611 141.688 84.167C141.672 83.7377 141.301 83.226 139.323 80.9266C136.625 77.7917 135.536 71.0473 137.066 66.7649C137.259 66.2178 137.758 65.2115 138.168 64.5577C139.469 62.5117 139.184 61.5986 137.019 60.7582C133.788 59.486 131.265 57.0218 130.38 54.2867C129.438 51.3382 129.033 47.797 129.37 45.2792C129.664 43.1317 129.516 42.7469 128.35 42.4718C127.894 42.3616 127.518 42.3625 127.445 42.466C127.384 42.5616 127.333 42.5816 127.335 42.4948C127.327 42.4159 126.841 42.3101 126.277 42.2776C122.408 42.0451 120.071 41.397 117.433 39.8136C115.639 38.7387 114.626 37.7931 113.416 36.1245C111.925 34.0665 111.567 32.9854 111.38 29.9481C111.344 29.1762 111.218 28.5045 111.145 28.4722C111.064 28.4288 111.046 28.3576 111.099 28.3187C111.292 28.1786 110.774 27.5534 110.366 27.4421C109.965 27.3419 107.017 27.8836 106.674 28.1327C106.577 28.2027 106.309 28.2615 106.091 28.2326C105.879 28.2336 104.845 28.3211 103.787 28.4431C100.337 28.8568 97.7914 28.5302 95.621 27.3884C93.7085 26.3991 92.8619 25.3668 92.0576 23.0822C91.385 21.1602 90.7375 20.5605 89.943 21.1363C89.7605 21.2686 89.1756 21.9302 88.6336 22.6284C87.2841 24.3362 86.4172 25.0833 85.126 25.629C83.3542 26.3702 81.4237 26.5987 79.423 26.3011C78.1393 26.1116 76.2029 25.496 75.3057 25.0264C74.5804 24.6358 73.1995 23.4987 72.4229 22.6532C71.5711 21.7266 71.5013 21.6754 70.967 21.842C70.7039 21.9309 70.4408 21.952 70.4004 21.8963C70.3601 21.8407 70.1534 21.8718 69.9386 21.9596C69.4957 22.1618 69.3187 22.4598 68.6727 24.2346C67.4423 27.6207 65.5643 30.0679 62.3757 32.379C58.4008 35.2771 54.1321 36.5725 49.1616 36.3574C47.8968 36.3069 47.4727 36.5125 47.2825 37.2443L47.2959 37.2176ZM50.1081 38.3184C52.0684 38.4247 53.6257 38.314 54.7963 38.0085C55.1748 37.9208 55.846 37.7397 56.2837 37.6431C59.3766 36.8945 64.3932 33.7843 66.7518 31.1415C67.8252 29.9563 69.0807 28.2318 69.0618 28.0249C69.0456 27.9348 69.1234 27.7936 69.22 27.7236C69.467 27.5446 70.2662 25.9812 70.3652 25.4852C70.3999 25.2394 70.4777 25.0304 70.5421 24.9837C70.6065 24.937 70.7325 24.5912 70.8531 24.2153C70.9656 23.8283 71.0889 23.5014 71.1319 23.4703C71.1748 23.4391 71.4194 23.7539 71.7096 24.1544C72.782 25.6339 74.5228 26.8834 76.3787 27.5235C77.5739 27.9298 79.2551 28.3062 79.4162 28.1895C79.502 28.1273 79.588 28.1328 79.5853 28.2196C79.6044 28.5621 82.6251 28.3918 84.2172 27.9675C86.3704 27.391 87.6507 26.5139 89.2927 24.5093C89.7837 23.8989 90.2077 23.4219 90.2453 23.4286C90.2829 23.4353 90.4953 23.9091 90.7051 24.4697C91.2243 25.8411 92.7051 27.7712 93.7689 28.4933C95.8052 29.8341 98.5607 30.5857 101.474 30.561C102.755 30.5659 106.925 29.97 108.592 29.559C109.051 29.4469 109.446 29.3814 109.486 29.437C109.51 29.4704 109.521 29.8696 109.514 30.3334C109.474 31.5667 109.98 33.9146 110.532 35.0592C111.486 37.0313 113.478 39.4398 115.226 40.7004C116.347 41.5004 118.02 42.4084 119.444 42.9716C120.921 43.5638 124.71 44.2957 126.356 44.3073C126.896 44.3064 127.371 44.3521 127.42 44.4189C127.468 44.4856 127.415 45.1351 127.337 45.8869C127.161 47.5417 127.229 48.8329 127.688 51.6568C128.146 54.4807 128.63 55.8943 129.684 57.5062C131.135 59.712 132.943 61.2351 135.374 62.3069C136.744 62.909 136.798 62.938 136.594 63.0858C136.258 63.3459 135.526 64.7759 135.097 66.0369C134.54 67.6627 134.19 70.1394 134.296 71.98C134.434 74.8149 135.202 77.9747 136.205 79.8779C136.68 80.7378 138.503 83.1839 139.137 83.8103L139.534 84.2008L138.429 85.0023C136.528 86.3796 135.35 87.7594 134.417 89.6575C133.385 91.7803 132.916 94.0033 132.857 97.0839C132.815 99.8287 132.985 101.148 133.704 103.291L134.158 104.709L133.718 104.757C133.471 104.8 133.192 104.799 133.111 104.756C132.765 104.616 130.869 104.735 129.999 104.958C126.557 105.858 123.382 108.414 122.122 111.329C121.463 112.859 121.041 116.864 121.257 119.49C121.293 119.855 121.328 120.219 121.333 120.317C121.33 120.404 120.541 120.399 119.585 120.278C116.666 119.933 115.039 120.128 112.405 121.104C109.103 122.31 106.712 124.704 105.57 127.942L105.158 129.089L104.346 128.489C102.597 127.229 101.112 126.626 98.7273 126.25C95.2872 125.706 92.0544 126.013 89.3511 127.141C88.3874 127.551 87.7136 127.955 86.1489 129.072C85.0565 129.847 83.9212 130.721 83.6502 131.002L83.1269 131.5L82.78 130.818C82.132 129.472 80.114 127.253 78.443 126.054C75.5712 124.013 71.0702 123.135 67.647 123.97C65.8616 124.399 62.4578 125.916 61.2231 126.811C61.0299 126.951 60.8447 127.034 60.8043 126.979C60.7721 126.934 60.5595 126.257 60.32 125.497C60.0752 124.707 59.6099 123.568 59.2738 122.947C58.1931 120.981 56.0111 118.558 54.2085 117.336C52.2905 116.046 49.0382 115.4 45.2333 115.527L44.2935 115.564L44.3601 114.616C44.5998 111.694 44.4908 109.261 44.0548 107.575C42.9349 103.229 40.2096 99.4686 36.5079 97.1631C35.9062 96.7847 35.3528 96.4053 35.3044 96.3386C35.2479 96.2607 35.4598 95.7848 35.7817 95.28C37.4126 92.7404 38.0946 88.53 37.5176 84.7741C37.3962 83.9967 37.2696 83.3928 37.2374 83.4161C37.2052 83.4394 37.1514 83.2748 37.154 83.0524C37.1079 82.3562 36.0479 79.2897 35.4699 78.1985C35.1634 77.6401 34.3005 76.2463 33.5452 75.1139L32.1664 73.076L32.6065 72.6213C35.1986 69.8262 36.6767 67.6179 37.0704 65.9243C37.547 63.848 37.5775 61.1789 37.1465 59.0479C36.9498 58.0536 36.7455 57.6587 36.1678 57.1781L35.8481 56.9177L36.8658 56.808C38.6781 56.5972 39.2956 56.3194 41.6387 54.6041C43.4557 53.2701 43.8636 52.9066 44.8054 51.8337C46.5334 49.8346 47.4427 48.3101 48.1235 46.2896C48.7855 44.3335 48.8896 43.3927 48.8391 40.1374C48.8171 39.2032 48.8514 38.4147 48.9051 38.3758C48.9588 38.3369 49.4905 38.3249 50.0947 38.3451L50.1081 38.3184Z" fill="#22232D"/>
<path fillRule="evenodd" clipRule="evenodd" d="M56.2517 46.3878C56.0344 46.6981 56.0991 47.1263 56.4297 47.5823C57.0748 48.4723 61.0807 51.9657 61.6366 52.1227C61.7656 52.165 62.0904 52.0483 62.3266 51.8771C62.7023 51.6048 62.7479 51.4869 62.6805 51.0776C62.5484 50.308 62.1481 49.8685 59.4775 47.63C57.4544 45.9234 56.7507 45.6529 56.2625 46.3801L56.2517 46.3878Z" fill="#22232D"/>
<path fillRule="evenodd" clipRule="evenodd" d="M73.9403 35.4334C73.7876 35.9683 74.076 37.6766 74.8165 40.822C75.4519 43.4835 75.6374 43.8751 76.2632 44.0154C77.1333 44.1992 77.5116 43.6366 77.2879 42.4243C76.978 40.6636 75.815 36.0768 75.4923 35.4283C75.245 34.9289 74.7024 34.6095 74.5307 34.8697C74.469 34.9653 74.3777 34.9975 74.3374 34.9419C74.2003 34.7528 74.0608 34.9218 73.9403 35.4334Z" fill="#22232D"/>
<path fillRule="evenodd" clipRule="evenodd" d="M46.8356 60.3734C46.7636 61.1552 47.3466 61.5301 50.0136 62.4307C51.9071 63.0775 52.3851 63.1043 52.6989 62.5884C53.0074 62.1103 52.5559 61.4873 51.5244 60.9454C50.7803 60.5515 48.8089 59.8424 48.0435 59.6675C47.4151 59.5461 46.8783 59.8673 46.8437 60.3845L46.8356 60.3734Z" fill="#22232D"/>
<path fillRule="evenodd" clipRule="evenodd" d="M89.8562 36.3349C89.752 37.0722 89.6133 38.5302 89.5441 39.5644C89.419 41.2671 89.4326 41.5118 89.7228 41.8444C89.9701 42.1403 90.142 42.2193 90.4883 42.1549C90.8615 42.105 90.9394 42.0316 91.1217 41.5601C91.4353 40.7728 91.9052 36.4957 91.773 35.6582C91.6571 34.9786 91.6195 34.9041 91.2407 34.7205C90.9507 34.5914 90.7278 34.6002 90.4245 34.7691C90.0675 34.977 90.0058 35.1405 89.8455 36.3427L89.8562 36.3349Z" fill="#22232D"/>
<path fillRule="evenodd" clipRule="evenodd" d="M42.9416 72.1719C42.9176 72.4099 42.9956 72.6079 43.1756 72.7659C43.5867 73.1297 47.1905 73.5379 48.4847 73.3804C49.1023 73.3061 49.3652 72.9458 49.1795 72.3508C49.0342 71.8113 48.779 71.7078 47.1596 71.4393C44.4661 70.9991 43.0162 71.2355 42.9228 72.1686L42.9416 72.1719Z" fill="#22232D"/>
<path fillRule="evenodd" clipRule="evenodd" d="M66.1668 56.6105C64.2345 58.2147 62.0155 60.7564 60.7038 62.8779C56.5541 69.6017 55.4883 78.2983 57.883 85.8272C58.9781 89.2585 60.0939 91.4531 62.2225 94.3899C64.98 98.1943 67.8844 100.755 72.0211 102.983C77.517 105.957 83.256 106.938 89.6435 105.991C93.5314 105.412 98.7446 103.093 101.694 100.633C103.836 98.8429 106.371 96.0378 107.509 94.1953C108.343 92.861 109.703 90.1278 110.129 88.9535C111.405 85.4496 112.006 81.3993 111.808 77.4879C111.666 74.8754 110.762 70.7802 109.796 68.4766C107.112 62.1076 102.657 57.0905 96.876 53.8823C86.9264 48.4018 74.7791 49.4689 66.1668 56.6105ZM71.2762 55.5712C73.692 54.2274 76.6827 53.1796 79.3166 52.7467C80.6778 52.5236 83.4328 52.3254 83.9725 52.3923C84.1901 52.4213 84.668 52.4482 85.0601 52.4694C86.298 52.5054 88.7795 52.9466 89.835 53.3184C90.3937 53.5243 90.9953 53.6991 91.1483 53.707C91.6424 53.756 93.7187 54.6097 95.1987 55.3865C98.8035 57.2872 101.42 59.4967 104 62.8529C106.005 65.4382 107.371 68.0455 108.367 71.2265C108.776 72.559 109.247 74.5421 109.231 74.859C109.228 74.8779 108.584 75.0056 107.792 75.1555C103.998 75.8183 100.587 78.1382 99.1197 81.0849C98.2857 82.7584 97.6353 86.0635 97.7788 87.843C98.063 91.4208 98.7599 93.5797 100.48 96.1338C101.483 97.6299 101.496 97.6711 101.276 97.9323C100.866 98.4505 96.7643 101.152 95.5778 101.706C92.4612 103.168 89.1723 103.94 85.7863 104.035C80.5233 104.185 75.0981 102.619 70.8053 99.7242C69.3654 98.7317 67.9092 97.5813 67.9306 97.4301C67.9386 97.3733 68.2659 96.8986 68.6603 96.3582C69.052 95.8367 69.5509 95.0339 69.7386 94.5925C70.1971 93.5305 70.6095 91.8402 70.4188 91.7578C70.3356 91.7333 70.3489 91.571 70.4589 91.4064C70.9525 90.6414 70.5957 87.0991 69.8076 84.9724C68.9333 82.5688 66.6516 79.5564 64.5319 77.9876C63.1538 76.9673 61.1795 76.0058 59.9898 75.7652L58.9209 75.5558L59.0679 74.3803C59.5512 70.28 61.0416 66.2812 63.3488 62.98C65.4521 59.9623 68.4362 57.1884 71.2735 55.5901L71.2762 55.5712ZM59.255 77.2819C60.0849 77.5458 62.0888 78.6385 63.0748 79.3662C67.1556 82.3981 69.159 86.9018 68.4262 91.4035C68.2283 92.6668 68.038 93.2629 67.4989 94.2815C66.461 96.2385 66.5362 96.184 65.9343 95.6022C65.6737 95.333 64.7465 94.1215 63.8945 92.9235C62.5668 91.0691 62.2146 90.4929 61.5182 89.0124C60.0097 85.7111 59.1294 82.3277 58.9339 79.0079C58.885 78.0592 58.871 77.2718 58.9032 77.2484C58.9354 77.2251 59.1073 77.2363 59.2631 77.293L59.255 77.2819ZM105.863 77.3514C107.285 76.6256 109.173 76.0891 109.374 76.3672C109.527 76.5785 109.639 78.5849 109.575 80.124C109.393 85.0919 107.724 89.9503 104.858 93.9276C103.981 95.1573 103.249 96.0446 102.991 96.2313C102.765 96.3947 102.373 95.8308 101.572 94.2735C100.381 91.9298 99.7777 89.652 99.7036 87.1774C99.657 85.5993 99.7505 84.9376 100.289 83.3763C101.243 80.5807 102.722 78.983 105.871 77.3625L105.863 77.3514Z" fill="#22232D"/>
<path fillRule="evenodd" clipRule="evenodd" d="M68.8625 64.4642C68.6104 64.8845 68.7665 65.484 69.2017 65.7455C69.5858 65.9592 70.7189 65.8506 72.1606 65.3995C73.3553 65.0596 73.7391 64.7983 73.7764 64.3301C73.8777 63.2047 72.108 62.9094 70.0596 63.6983C69.112 64.0628 69.1012 64.0706 68.8625 64.4642Z" fill="#22232D"/>
<path fillRule="evenodd" clipRule="evenodd" d="M71.0922 70.0935C70.9071 70.3804 70.8993 70.7763 71.0287 71.497C71.2335 72.6381 71.5937 73.2255 72.1657 73.3368C73.4064 73.5575 73.789 71.3967 72.7275 70.1129C72.3648 69.6802 72.2331 69.589 71.8196 69.6511C71.4008 69.6832 71.2961 69.7421 71.1003 70.1046L71.0922 70.0935Z" fill="#22232D"/>
<path fillRule="evenodd" clipRule="evenodd" d="M92.2791 62.4743C92.2469 62.5655 92.2659 62.8402 92.3224 63.0538C92.4193 63.3908 92.5322 63.4787 92.9404 63.59C93.2197 63.6591 94.0873 63.9974 94.8501 64.3269C96.1125 64.8711 96.7624 64.977 97.1274 64.7124C97.3743 64.5334 97.3497 63.8217 97.0756 63.4434C96.6966 62.9206 95.332 62.2129 94.1423 61.9044C93.3124 61.7084 93.1191 61.7128 92.7648 61.9696C92.5394 62.133 92.3247 62.3565 92.271 62.4632L92.2791 62.4743Z" fill="#22232D"/>
<path fillRule="evenodd" clipRule="evenodd" d="M77.746 73.8736C77.781 74.0349 77.7327 74.1716 77.6629 74.1883C77.4052 74.2394 77.6903 75.0168 78.2547 75.7955C79.4077 77.3863 81.2798 78.0486 83.7473 77.7024C85.3797 77.4694 87.8246 75.307 87.6601 74.2215C87.5522 73.4853 86.8164 73.4416 86.3094 74.1655C85.8613 74.8126 84.3637 75.8642 83.7193 75.9919C83.4293 76.0663 82.7849 76.0583 82.3122 75.9937C81.3106 75.8543 80.5423 75.3592 79.873 74.4359C79.6231 74.0911 79.2899 73.7217 79.1233 73.6049C78.4464 73.1454 77.6919 73.3019 77.7648 73.8769L77.746 73.8736Z" fill="#22232D"/>
<path fillRule="evenodd" clipRule="evenodd" d="M91.6337 69.3561C91.4844 71.0253 91.4792 71.1988 91.713 71.5214C92.2613 72.2779 93.3083 71.9601 93.646 70.9348C93.847 70.3989 93.685 69.0231 93.4028 68.6337C92.9191 67.9663 91.711 68.4686 91.623 69.3639L91.6337 69.3561Z" fill="#22232D"/>
<path fillRule="evenodd" clipRule="evenodd" d="M102.732 40.6786C101.579 42.7702 101.201 43.672 101.204 44.2636C101.215 44.7307 101.556 45.2469 101.895 45.3071C102.421 45.4007 102.872 44.8025 104.121 42.3695C105.677 39.3416 105.856 38.4142 104.916 38.247C104.325 38.1323 103.829 38.7127 102.732 40.6786Z" fill="#22232D"/>
<path fillRule="evenodd" clipRule="evenodd" d="M44.733 89.284C44.6983 89.5297 44.7898 89.8367 44.9671 90.0814C45.5074 90.8267 46.7372 90.7838 49.7279 89.8717C51.379 89.3706 51.8514 89.0961 51.9183 88.6234C52.0653 87.5836 50.5776 87.4741 47.5814 88.2884C46.9317 88.4539 46.1289 88.6116 45.7825 88.6081C45.0494 88.6134 44.8159 88.7657 44.7411 89.2951L44.733 89.284Z" fill="#22232D"/>
<path fillRule="evenodd" clipRule="evenodd" d="M115.309 52.7894C112.723 55.4789 112.548 55.7579 113.032 56.4254C113.443 56.9927 113.972 56.8639 114.78 56.0578C115.15 55.6876 115.979 54.866 116.626 54.2445C118.086 52.847 118.974 51.813 119.146 51.3493C119.328 50.8778 118.917 50.3105 118.396 50.3148C117.856 50.3157 117.172 50.8627 115.317 52.8005L115.309 52.7894Z" fill="#22232D"/>
<path fillRule="evenodd" clipRule="evenodd" d="M54.4218 102.403C53.6783 103.026 53.5174 103.279 53.5686 103.598C53.6468 104.067 54.1652 104.353 54.6861 104.213C55.2821 104.087 58.221 101.838 58.4892 101.304C58.8861 100.541 58.2896 99.9893 57.4171 100.299C56.9473 100.487 55.5275 101.465 54.4298 102.414L54.4218 102.403Z" fill="#22232D"/>
<path fillRule="evenodd" clipRule="evenodd" d="M118.035 68.8852C117.965 69.0376 117.973 69.3201 118.03 69.5336C118.156 70.0019 118.707 70.2645 119.174 70.0956C119.356 70.0312 120.173 69.8468 120.997 69.6736C122.984 69.2516 125.134 68.5583 125.66 68.177C126.24 67.7568 126.21 67.2185 125.592 67.0215C125.042 66.8267 123.227 67.0563 121.033 67.5772C119.13 68.0237 118.217 68.4137 118.045 68.8774L118.035 68.8852Z" fill="#22232D"/>
<path fillRule="evenodd" clipRule="evenodd" d="M66.3308 110.858C65.4382 113.151 65.0604 114.459 65.1814 114.762C65.4665 115.472 66.3929 115.53 66.892 114.863C67.552 114.011 68.4895 110.379 68.1669 109.934C67.9896 109.689 67.1516 109.482 66.9369 109.638C66.8403 109.708 66.5506 110.257 66.3228 110.846L66.3308 110.858Z" fill="#22232D"/>
<path fillRule="evenodd" clipRule="evenodd" d="M121.028 84.3116C120.789 85.0444 121.206 85.3026 123.591 85.8138C124.786 86.0845 125.809 86.2761 125.841 86.2527C125.873 86.2294 126.311 86.2685 126.832 86.332C127.842 86.4825 128.381 86.3459 128.478 85.9366C128.553 85.6108 128.241 85.158 127.827 84.9488C127.314 84.6929 125.115 84.0983 123.409 83.7563C121.693 83.4221 121.285 83.5143 121.02 84.3005L121.028 84.3116Z" fill="#22232D"/>
<path fillRule="evenodd" clipRule="evenodd" d="M82.3499 113.483C82.2533 113.621 82.2431 114.375 82.2866 115.158C82.3408 115.933 82.4465 117.434 82.5089 118.492C82.6364 120.453 82.7494 120.812 83.2838 120.917C83.8451 121.036 84.2154 120.598 84.3356 119.679C84.5682 118.035 84.2089 114.647 83.698 113.626C83.4614 113.186 83.3755 113.113 83.0291 113.109C82.7337 113.109 82.51 113.237 82.358 113.494L82.3499 113.483Z" fill="#22232D"/>
<path fillRule="evenodd" clipRule="evenodd" d="M115.506 95.8305C115.461 96.4911 115.671 96.7804 116.842 97.6282C117.463 98.0777 118.177 98.5439 118.4 98.6708C118.642 98.801 119.359 99.2483 119.972 99.6866C121.165 100.519 121.726 100.638 122.099 100.113C122.313 99.822 122.2 99.0557 121.886 98.6218C121.458 98.0323 118.89 96.2965 117.252 95.4819C116.325 95.0167 115.552 95.1699 115.509 95.8116L115.506 95.8305Z" fill="#22232D"/>
<path fillRule="evenodd" clipRule="evenodd" d="M97.1926 111.548C97.0774 111.954 97.5482 113.327 98.3548 114.846C98.7258 115.561 99.2259 116.522 99.4678 116.992C100.218 118.433 100.543 118.859 101.005 118.932C101.513 119.022 102.036 118.524 101.979 117.971C101.93 117.362 100.282 113.958 99.121 112.085C98.5807 111.204 98.449 111.045 98.1294 110.988C97.6997 110.892 97.3105 111.123 97.1819 111.556L97.1926 111.548Z" fill="#22232D"/>
<path fillRule="evenodd" clipRule="evenodd" d="M109.653 105.333C109.597 105.73 109.651 105.827 110.541 106.896C111.04 107.518 111.82 108.412 112.263 108.888C112.688 109.361 113.23 110.02 113.48 110.364C114.061 111.165 114.59 111.308 115.076 110.803C115.747 110.079 115.448 109.329 113.798 107.436C112.446 105.888 111.162 104.749 110.62 104.633C110.144 104.519 109.736 104.815 109.651 105.352L109.653 105.333Z" fill="#22232D"/>
<defs>
<clipPath id="clip0_56_30">
<rect width="8.92" height="10.95" fill="white" transform="translate(150 43)"/>
</clipPath>
<clipPath id="clip1_56_30">
<rect width="22" height="24" fill="white" transform="translate(154 74)"/>
</clipPath>
</defs>
</svg>
