<svg xmlns="http://www.w3.org/2000/svg" width="51" height="49" viewBox="0 0 48 47" fill="none">
  <g clipPath="url(#clip0_12_43)">
    <path fillRule="evenodd" clipRule="evenodd" d="M0.73003 24.1281C0.158423 16.9432 3.49601 1.54438 22.6416 0.7061C41.4276 -0.117018 48.3211 16.5728 47.2229 26.2401C46.1632 35.5565 38.8136 46.1833 23.6885 46.322C8.5634 46.4606 1.57138 34.6554 0.732171 24.1281H0.73003Z" fill="white"/>
    <path d="M23.4251 46.9999C8.54623 46.9999 0.971903 35.5716 0.0641826 24.1822C-0.310466 19.4775 0.907677 12.5936 5.45056 7.38848C9.4304 2.83101 15.2043 0.355158 22.6116 0.0302434C30.2223 -0.303336 36.7113 2.19634 41.3719 7.26068C46.7112 13.0615 48.4902 21.0132 47.8865 26.318C47.2871 31.5816 44.9129 36.5117 41.1985 40.207C36.7948 44.5869 30.7404 46.9371 23.6927 46.9999C23.6028 46.9999 23.5129 46.9999 23.4251 46.9999ZM1.39793 24.0739C2.25641 34.8394 9.40257 45.6461 23.4294 45.6461C23.5129 45.6461 23.5964 45.6461 23.682 45.6461C37.9679 45.514 45.4652 35.7665 46.5592 26.1642C47.1265 21.167 45.4416 13.668 40.3935 8.18344C36.0069 3.41802 29.8798 1.06997 22.6694 1.38189C15.6389 1.68947 10.184 4.0137 6.45248 8.28524C2.18791 13.1741 1.04469 19.6464 1.39793 24.0739Z" fill="#1B1529"/>
    <path d="M18.9658 36.6937C17.966 36.6937 17.2231 35.7276 16.6066 34.9283C16.1827 34.3759 15.701 33.7499 15.3049 33.6503C14.6819 33.4922 14.2174 34.0619 13.5259 35.0193C13.1191 35.5825 12.6995 36.163 12.1622 36.4879C11.8453 36.6807 11.4343 36.5745 11.2437 36.2539C11.0532 35.9334 11.1581 35.5175 11.475 35.3247C11.779 35.1427 12.1172 34.6727 12.4426 34.22C13.1363 33.2604 14.0868 31.9477 15.6261 32.3355C16.4696 32.5478 17.0733 33.334 17.6599 34.0943C18.2679 34.885 18.726 35.4352 19.0835 35.3139C19.5973 35.1406 20.0212 34.5882 20.4687 34.0012C21.0917 33.1889 21.796 32.2662 22.9949 32.0236C24.5384 31.7138 25.277 32.8987 25.7651 33.685C26.0285 34.1073 26.2768 34.5102 26.5615 34.651C26.8719 34.5059 27.5934 33.9795 28.135 33.5832C29.2012 32.8034 30.3016 31.9976 31.0744 31.8026C32.1855 31.521 33.1618 32.5543 34.0245 33.4662C34.4056 33.8691 35.0457 34.5471 35.2919 34.5644C36.1525 34.4972 36.7241 33.3687 37.1416 32.5434C37.2679 32.2965 37.3857 32.0626 37.5034 31.8719C37.7004 31.5557 38.1114 31.4582 38.4261 31.6575C38.7387 31.8568 38.835 32.2727 38.6381 32.5911C38.5503 32.7319 38.4454 32.942 38.3341 33.1629C37.8031 34.2113 37.0025 35.7926 35.3861 35.9182C34.5448 35.9832 33.8233 35.2164 33.0569 34.4063C32.5709 33.8907 31.7574 33.0308 31.3977 33.1196C30.8753 33.2517 29.7428 34.0792 28.9165 34.6835C27.4885 35.7276 26.8869 36.1456 26.341 36.007C25.489 35.7926 25.033 35.0561 24.6305 34.4084C24.0953 33.5485 23.8405 33.2366 23.2539 33.3535C22.5453 33.4965 22.0486 34.1463 21.5241 34.8308C20.9739 35.55 20.4044 36.2951 19.5031 36.5984C19.3126 36.6633 19.1328 36.6915 18.9594 36.6915L18.9658 36.6937Z" fill="#1B1529"/>
    <path d="M33.8597 29.1861C33.1553 29.1861 32.4489 29.0951 31.7488 28.9088C28.8694 28.1442 26.5979 25.9326 25.8208 23.1383C25.0843 20.4892 25.7523 17.7079 27.6555 15.5115C29.4024 13.4927 31.8259 12.3772 33.8212 12.6696C35.7693 12.9534 38.3362 14.3028 39.6807 16.6769C40.6398 18.3729 40.7532 20.2466 40.0082 22.0943C39.1861 24.1283 37.3792 25.5687 35.172 25.9521C33.1682 26.2987 31.2478 25.6857 30.0383 24.3124C28.7067 22.7983 28.2507 20.8055 28.848 19.1137C29.3446 17.7101 30.5071 16.7332 31.9608 16.4993C33.6948 16.2242 35.2063 16.705 36.0027 17.7902C36.6877 18.7238 36.7413 19.9737 36.1504 21.217C35.6237 22.3239 34.5276 22.9781 33.348 22.8871C32.4703 22.8178 31.7724 22.3369 31.5668 21.6567C31.4598 21.2993 31.6589 20.9203 32.0121 20.812C32.3654 20.7037 32.74 20.9051 32.8471 21.2625C32.8706 21.3427 33.074 21.5073 33.4486 21.5354C33.9432 21.5744 34.5961 21.3556 34.943 20.6278C35.3176 19.8415 35.3133 19.1202 34.928 18.596C34.4334 17.9224 33.4015 17.6386 32.1684 17.8357C31.1922 17.9917 30.4429 18.622 30.1089 19.5686C29.6765 20.7946 30.0318 22.2654 31.038 23.4113C31.9372 24.4337 33.3973 24.8842 34.9451 24.6156C36.6942 24.3124 38.1221 23.1773 38.7687 21.5809C39.3617 20.1145 39.276 18.6892 38.5182 17.3484C37.5634 15.6631 35.5531 14.2898 33.6306 14.0082C32.0935 13.7851 30.0961 14.7469 28.6617 16.4039C27.0625 18.2495 26.4973 20.5715 27.1096 22.7701C27.7497 25.0683 29.7043 26.9637 32.0892 27.5983C34.7032 28.2937 37.3536 27.4597 39.5501 25.2525C41.1643 23.6279 41.9564 21.8582 41.9029 19.991C41.798 16.4278 38.6659 13.588 38.6338 13.5599C38.3576 13.3129 38.3298 12.884 38.5738 12.6046C38.8179 12.323 39.2396 12.297 39.518 12.544C39.6657 12.6739 43.1146 15.7866 43.2409 19.9412C43.3094 22.2004 42.3867 24.3102 40.4942 26.212C38.561 28.155 36.2253 29.1861 33.8618 29.1861H33.8597Z" fill="#1B1529"/>
    <path d="M13.9262 29.1924C12.312 29.1924 10.837 28.7354 9.83293 27.8646C8.18661 26.4372 7.18255 24.1454 7.27675 22.0205C7.33884 20.6428 7.86977 18.6695 10.0599 17.0948C12.0872 15.637 14.7226 15.2558 16.7778 16.1222C18.3043 16.7677 19.2869 17.9915 19.5438 19.5706C19.8735 21.6111 19.0686 23.736 17.4907 24.9794C16.2491 25.9584 14.7333 26.2032 13.4317 25.6335C11.8196 24.9274 10.8006 23.7035 10.7 22.3541C10.6143 21.193 11.2309 20.11 12.3891 19.38C13.4188 18.7302 14.6948 18.7735 15.6411 19.4883C16.3454 20.0212 16.6815 20.8075 16.4931 21.4919C16.3946 21.8515 16.0264 22.0638 15.6689 21.9642C15.3135 21.8645 15.1037 21.4919 15.2022 21.1302C15.2236 21.0479 15.1401 20.801 14.8382 20.5735C14.44 20.2724 13.7742 20.1035 13.0956 20.5302C12.3634 20.9916 11.9845 21.6046 12.0337 22.2544C12.0958 23.0905 12.8151 23.8898 13.9605 24.3902C14.819 24.7649 15.8038 24.5916 16.6644 23.9115C17.8611 22.9671 18.4734 21.349 18.2208 19.7894C18.0431 18.689 17.3473 17.8291 16.2619 17.372C14.6241 16.681 12.494 17.0038 10.8348 18.1973C9.44971 19.1937 8.68115 20.5367 8.61264 22.0811C8.53557 23.8032 9.35552 25.6682 10.7021 26.8335C11.8817 27.8559 14.0782 28.1245 16.1656 27.5029C18.4927 26.8097 20.1989 25.157 20.8455 22.9671C21.5519 20.5735 21.0124 18.0024 19.4368 16.2587C17.7862 14.4326 15.245 13.7633 12.2756 14.3763C5.39708 15.7929 6.25985 22.2544 6.30052 22.5295C6.35404 22.8999 6.10356 23.2443 5.73748 23.2985C5.37354 23.3548 5.03314 23.1014 4.97748 22.731C4.96463 22.6508 3.86852 14.7251 12.0102 13.0485C15.4591 12.338 18.4477 13.1525 20.4259 15.3446C22.3184 17.437 22.9692 20.5064 22.13 23.3548C21.3507 25.9931 19.3147 27.9772 16.5445 28.8025C15.6667 29.0646 14.7783 29.1903 13.9262 29.1903V29.1924Z" fill="#1B1529"/>
  </g>
  <defs>
    <clipPath id="clip0_12_43">
      <rect width="48" height="47" fill="white"/>
    </clipPath>
  </defs>
</svg>