<svg width="25" height="25" viewBox="0 0 16 14" fill="none" xmlns="http://www.w3.org/2000/svg">
<g id="Vector">
<mask id="path-1-outside-1_67_276" maskUnits="userSpaceOnUse" x="-1.12429" y="-2.1305" width="17.0979" height="17.9476" fill="black">
<rect fill="white" x="-1.12429" y="-2.1305" width="17.0979" height="17.9476"/>
<path fillRule="evenodd" clipRule="evenodd" d="M14.5501 0.844131C14.3581 0.893034 13.474 1.19821 13.1026 1.33719C12.5378 1.55376 12.4986 1.5692 11.585 1.9332C10.7443 2.26815 9.8958 2.62039 9.15831 2.93585C8.9046 3.04689 8.5107 3.21418 8.2825 3.31309C8.0543 3.41199 7.73955 3.54325 7.58459 3.61054C7.42962 3.67782 7.18441 3.78481 7.03499 3.85026C6.78091 3.96387 6.61375 4.04255 5.75353 4.44038C5.14221 4.72385 4.21507 5.16469 3.91628 5.31397C3.65741 5.44265 3.31682 5.607 2.61824 5.94637C2.48474 6.01144 2.1774 6.14638 1.93256 6.2508C1.68994 6.35816 1.38629 6.48575 1.26275 6.53648C0.966871 6.66517 0.875206 6.73356 0.859148 6.84679C0.850024 6.91113 0.862693 6.95231 0.913512 7.00415C0.99883 7.09238 2.65765 8.22285 3.28145 8.61585C3.54163 8.77614 3.97125 9.06547 4.24075 9.25333C4.51025 9.44119 4.75265 9.59634 4.78117 9.60038C4.82264 9.60626 4.83527 9.62905 4.83615 9.69744C4.8344 9.74707 4.83379 9.99376 4.82985 10.2452C4.82851 10.4971 4.82849 10.8515 4.82923 11.0327C4.83856 11.6195 4.83915 11.9136 4.83226 12.1673C4.80844 13.3795 4.83403 13.5905 5.0051 13.6147C5.04139 13.6199 5.13908 13.6022 5.22418 13.5802C5.38104 13.5368 5.60059 13.3684 6.15521 12.8695C6.94963 12.1525 7.48476 11.7165 8.84119 10.6723C9.8173 9.92339 9.6834 9.97266 10.3226 10.1079C10.5304 10.1532 10.8151 10.2145 10.954 10.2421C11.0951 10.2726 11.3514 10.33 11.5206 10.3671C12.2487 10.5281 12.3676 10.5476 12.4763 10.5079C12.6291 10.456 12.748 10.2891 12.8595 9.98728C12.9652 9.68984 12.9916 9.59646 13.2564 8.54975C13.3622 8.13945 13.4584 7.7593 13.4709 7.70856C13.558 7.39275 13.5638 7.36995 13.8066 6.23611C13.8528 6.02214 13.9049 5.78537 13.9229 5.71441C13.9387 5.64051 13.9812 5.43389 14.0167 5.25779C14.0501 5.07874 14.0871 4.91072 14.0996 4.87837C14.1092 4.84822 14.1426 4.70594 14.1741 4.55814C14.2027 4.41255 14.2552 4.1916 14.2864 4.06475C14.3176 3.93791 14.3786 3.69453 14.4197 3.51658C14.4608 3.33864 14.5195 3.1107 14.5471 3.00959C14.7018 2.45921 14.9952 1.08052 14.971 1.00883C14.9401 0.928311 14.8307 0.823534 14.7659 0.814344C14.7344 0.812507 14.6371 0.827584 14.5494 0.849278L14.5501 0.844131ZM14.4883 1.78311C14.4191 2.12245 14.3288 2.51658 14.1493 3.27872C14.0671 3.61623 13.9735 4.01513 13.9394 4.16256C13.8873 4.38095 13.6921 5.25375 13.439 6.38612C13.4166 6.48796 13.3567 6.72363 13.3123 6.90635C13.2649 7.09128 13.1536 7.5218 13.0651 7.86629C12.9766 8.21079 12.8701 8.60785 12.8285 8.7516C12.7873 8.89278 12.7318 9.07918 12.712 9.16301C12.6918 9.24941 12.658 9.37588 12.6315 9.45088C12.6083 9.5211 12.569 9.64941 12.5495 9.73066C12.5029 9.91045 12.4056 10.1119 12.3538 10.1413C12.3224 10.1579 12.1494 10.1281 11.7247 10.0285C11.4021 9.95386 10.9406 9.85167 10.7021 9.79947C10.1863 9.68956 9.75815 9.59472 9.33854 9.49583C8.89856 9.39143 8.40897 9.28262 8.01496 9.20837C7.8272 9.17124 7.66387 9.1297 7.64682 9.11941C7.62755 9.10617 7.70066 9.0194 7.86249 8.86646C8.49023 8.28077 8.70189 8.05613 10.0297 6.57998C10.9582 5.55126 11.6485 4.78543 12.3854 3.97106C12.7433 3.57288 12.9863 3.29493 13.2137 3.01478C13.6834 2.44343 14.4945 1.5162 14.5256 1.52061C14.5333 1.52171 14.5166 1.64009 14.4857 1.78274L14.4883 1.78311ZM13.5562 1.56953C13.5529 1.5927 13.0124 1.95448 12.7096 2.13206C12.6087 2.19126 12.4715 2.28207 12.4042 2.32766C12.337 2.37325 12.2323 2.4398 12.1747 2.47363C12.117 2.50745 11.9573 2.60819 11.8227 2.69937C11.6885 2.78798 11.3621 3.0016 11.0996 3.1744C10.5628 3.52883 9.93553 3.96231 9.29311 4.42777C8.79522 4.78772 8.64478 4.89765 8.28363 5.15097C8.14243 5.25171 7.89032 5.42599 7.72842 5.54217C7.56652 5.65835 7.34362 5.81314 7.23235 5.88924C7.12145 5.96278 6.91074 6.10617 6.76658 6.20911C6.62278 6.30949 6.34443 6.50104 6.1511 6.63377C5.85205 6.84076 5.40595 7.18968 5.19868 7.38343C5.07638 7.49998 5.0059 7.6055 5.01269 7.66947C5.02215 7.77058 4.90044 7.80845 4.73115 7.75294C4.60411 7.71654 2.91338 7.27725 2.52228 7.18241C2.28451 7.12506 1.62151 6.9339 1.53185 6.89494C1.48961 6.87582 1.45365 6.84972 1.45325 6.83391C1.44989 6.8203 1.54492 6.76552 1.6629 6.71662C2.38338 6.40924 3.09641 6.07981 4.02351 5.62059C4.60041 5.33748 6.32267 4.52896 7.1707 4.14254C7.47359 4.00172 7.84529 3.84178 8.22403 3.68809C8.5436 3.56014 9.14869 3.30203 9.27591 3.24394C9.8558 2.97701 10.9562 2.5266 11.7437 2.23136C11.9057 2.17032 12.0706 2.10708 12.1135 2.08429C12.1557 2.06664 12.2822 2.01369 12.3939 1.97178C12.5078 1.9328 12.712 1.85412 12.8492 1.80007C13.1596 1.68131 13.5365 1.54049 13.5498 1.53975C13.5524 1.54012 13.5535 1.55078 13.5521 1.56108L13.5562 1.56953ZM13.3775 2.1769C13.2693 2.32433 12.5075 3.24017 12.3439 3.42437C12.3003 3.47069 12.0861 3.71335 11.8656 3.96299C11.2854 4.62367 10.6945 5.28546 10.3905 5.6204C9.92364 6.13439 9.70611 6.38182 9.37633 6.76823C8.52102 7.76533 8.32747 7.97416 7.76037 8.52381C7.46629 8.80764 7.31892 8.97052 7.28723 9.04478C7.21981 9.20324 6.95845 9.74112 6.92559 9.78635C6.9123 9.80546 6.79984 10.0205 6.68076 10.2636C6.55946 10.5036 6.45068 10.7114 6.43776 10.7279C6.42556 10.7393 6.35106 10.8731 6.27437 11.0224C6.19508 11.1713 6.08885 11.361 6.04238 11.4463C5.95091 11.6066 5.73075 12.0217 5.51838 12.4379C5.30341 12.8537 5.21339 13.0037 5.18597 12.9919C5.17374 12.985 5.1664 12.8316 5.1738 12.6489C5.19138 12.1894 5.19511 11.4732 5.1828 11.243C5.1604 10.7857 5.17296 9.85809 5.21516 8.75881C5.22296 8.5919 5.22182 8.39484 5.21981 8.3158C5.21137 8.17021 5.20805 8.17499 5.35488 8.10917C5.40628 8.08233 5.40442 8.07682 5.33987 8.00991C5.30351 7.968 5.24155 7.90145 5.20037 7.85623L5.12433 7.77719L5.27769 7.64667C5.53045 7.43048 6.16546 6.96134 6.42611 6.80141C7.09602 6.38447 8.43715 5.46678 9.71093 4.55791C9.92606 4.40202 10.2022 4.20752 10.3308 4.12075C10.4572 4.03104 10.5685 3.95494 10.5774 3.94832C10.8901 3.71963 12.221 2.85561 12.9859 2.3839C13.3161 2.18131 13.4244 2.12579 13.3823 2.18021L13.3775 2.1769ZM2.30114 7.47396C2.40781 7.50484 2.73706 7.58829 3.02521 7.66328C3.31631 7.73607 3.58964 7.80371 3.63297 7.8151C4.0689 7.92943 4.24001 7.97207 4.50592 8.03603C4.6748 8.07574 4.82776 8.1158 4.84518 8.12352C4.85963 8.13345 4.868 8.24228 4.86048 8.36985C4.85111 8.49191 4.84644 8.74853 4.8409 8.93677C4.83795 9.12537 4.83161 9.28199 4.82533 9.28898C4.81682 9.29302 4.769 9.25736 4.71559 9.20516C4.60208 9.09192 4.23102 8.83715 3.77884 8.55775C3.59686 8.44268 3.34631 8.28901 3.21955 8.21328C3.09576 8.13534 2.99087 8.07321 2.9831 8.07211C2.94422 8.06659 1.94859 7.40559 1.95115 7.38757C1.95261 7.37728 1.9863 7.38206 2.02668 7.39566C2.06705 7.40926 2.18596 7.44713 2.29522 7.47837L2.30114 7.47396ZM8.49306 9.67784C8.78935 9.75136 9.10192 9.82194 9.19005 9.83444C9.27817 9.84694 9.3441 9.86679 9.3371 9.87892C9.33268 9.89142 9.14088 10.0506 8.91729 10.2289C8.6911 10.4069 8.3182 10.7058 8.08537 10.8933C7.85254 11.0808 7.45598 11.3974 7.20541 11.5981C6.95484 11.7989 6.49586 12.1827 6.18509 12.4537C5.87432 12.7246 5.60678 12.9519 5.59272 12.9577C5.56202 12.9691 5.67526 12.7673 5.8653 12.4713C6.08005 12.1316 6.62531 11.2139 6.82484 10.8511C6.96757 10.5904 7.29384 9.93045 7.40919 9.6764C7.44529 9.58964 7.49435 9.50471 7.51282 9.48633C7.55495 9.45029 7.65308 9.46684 8.49343 9.67527L8.49306 9.67784Z"/>
</mask>
<path fillRule="evenodd" clipRule="evenodd" d="M14.5501 0.844131C14.3581 0.893034 13.474 1.19821 13.1026 1.33719C12.5378 1.55376 12.4986 1.5692 11.585 1.9332C10.7443 2.26815 9.8958 2.62039 9.15831 2.93585C8.9046 3.04689 8.5107 3.21418 8.2825 3.31309C8.0543 3.41199 7.73955 3.54325 7.58459 3.61054C7.42962 3.67782 7.18441 3.78481 7.03499 3.85026C6.78091 3.96387 6.61375 4.04255 5.75353 4.44038C5.14221 4.72385 4.21507 5.16469 3.91628 5.31397C3.65741 5.44265 3.31682 5.607 2.61824 5.94637C2.48474 6.01144 2.1774 6.14638 1.93256 6.2508C1.68994 6.35816 1.38629 6.48575 1.26275 6.53648C0.966871 6.66517 0.875206 6.73356 0.859148 6.84679C0.850024 6.91113 0.862693 6.95231 0.913512 7.00415C0.99883 7.09238 2.65765 8.22285 3.28145 8.61585C3.54163 8.77614 3.97125 9.06547 4.24075 9.25333C4.51025 9.44119 4.75265 9.59634 4.78117 9.60038C4.82264 9.60626 4.83527 9.62905 4.83615 9.69744C4.8344 9.74707 4.83379 9.99376 4.82985 10.2452C4.82851 10.4971 4.82849 10.8515 4.82923 11.0327C4.83856 11.6195 4.83915 11.9136 4.83226 12.1673C4.80844 13.3795 4.83403 13.5905 5.0051 13.6147C5.04139 13.6199 5.13908 13.6022 5.22418 13.5802C5.38104 13.5368 5.60059 13.3684 6.15521 12.8695C6.94963 12.1525 7.48476 11.7165 8.84119 10.6723C9.8173 9.92339 9.6834 9.97266 10.3226 10.1079C10.5304 10.1532 10.8151 10.2145 10.954 10.2421C11.0951 10.2726 11.3514 10.33 11.5206 10.3671C12.2487 10.5281 12.3676 10.5476 12.4763 10.5079C12.6291 10.456 12.748 10.2891 12.8595 9.98728C12.9652 9.68984 12.9916 9.59646 13.2564 8.54975C13.3622 8.13945 13.4584 7.7593 13.4709 7.70856C13.558 7.39275 13.5638 7.36995 13.8066 6.23611C13.8528 6.02214 13.9049 5.78537 13.9229 5.71441C13.9387 5.64051 13.9812 5.43389 14.0167 5.25779C14.0501 5.07874 14.0871 4.91072 14.0996 4.87837C14.1092 4.84822 14.1426 4.70594 14.1741 4.55814C14.2027 4.41255 14.2552 4.1916 14.2864 4.06475C14.3176 3.93791 14.3786 3.69453 14.4197 3.51658C14.4608 3.33864 14.5195 3.1107 14.5471 3.00959C14.7018 2.45921 14.9952 1.08052 14.971 1.00883C14.9401 0.928311 14.8307 0.823534 14.7659 0.814344C14.7344 0.812507 14.6371 0.827584 14.5494 0.849278L14.5501 0.844131ZM14.4883 1.78311C14.4191 2.12245 14.3288 2.51658 14.1493 3.27872C14.0671 3.61623 13.9735 4.01513 13.9394 4.16256C13.8873 4.38095 13.6921 5.25375 13.439 6.38612C13.4166 6.48796 13.3567 6.72363 13.3123 6.90635C13.2649 7.09128 13.1536 7.5218 13.0651 7.86629C12.9766 8.21079 12.8701 8.60785 12.8285 8.7516C12.7873 8.89278 12.7318 9.07918 12.712 9.16301C12.6918 9.24941 12.658 9.37588 12.6315 9.45088C12.6083 9.5211 12.569 9.64941 12.5495 9.73066C12.5029 9.91045 12.4056 10.1119 12.3538 10.1413C12.3224 10.1579 12.1494 10.1281 11.7247 10.0285C11.4021 9.95386 10.9406 9.85167 10.7021 9.79947C10.1863 9.68956 9.75815 9.59472 9.33854 9.49583C8.89856 9.39143 8.40897 9.28262 8.01496 9.20837C7.8272 9.17124 7.66387 9.1297 7.64682 9.11941C7.62755 9.10617 7.70066 9.0194 7.86249 8.86646C8.49023 8.28077 8.70189 8.05613 10.0297 6.57998C10.9582 5.55126 11.6485 4.78543 12.3854 3.97106C12.7433 3.57288 12.9863 3.29493 13.2137 3.01478C13.6834 2.44343 14.4945 1.5162 14.5256 1.52061C14.5333 1.52171 14.5166 1.64009 14.4857 1.78274L14.4883 1.78311ZM13.5562 1.56953C13.5529 1.5927 13.0124 1.95448 12.7096 2.13206C12.6087 2.19126 12.4715 2.28207 12.4042 2.32766C12.337 2.37325 12.2323 2.4398 12.1747 2.47363C12.117 2.50745 11.9573 2.60819 11.8227 2.69937C11.6885 2.78798 11.3621 3.0016 11.0996 3.1744C10.5628 3.52883 9.93553 3.96231 9.29311 4.42777C8.79522 4.78772 8.64478 4.89765 8.28363 5.15097C8.14243 5.25171 7.89032 5.42599 7.72842 5.54217C7.56652 5.65835 7.34362 5.81314 7.23235 5.88924C7.12145 5.96278 6.91074 6.10617 6.76658 6.20911C6.62278 6.30949 6.34443 6.50104 6.1511 6.63377C5.85205 6.84076 5.40595 7.18968 5.19868 7.38343C5.07638 7.49998 5.0059 7.6055 5.01269 7.66947C5.02215 7.77058 4.90044 7.80845 4.73115 7.75294C4.60411 7.71654 2.91338 7.27725 2.52228 7.18241C2.28451 7.12506 1.62151 6.9339 1.53185 6.89494C1.48961 6.87582 1.45365 6.84972 1.45325 6.83391C1.44989 6.8203 1.54492 6.76552 1.6629 6.71662C2.38338 6.40924 3.09641 6.07981 4.02351 5.62059C4.60041 5.33748 6.32267 4.52896 7.1707 4.14254C7.47359 4.00172 7.84529 3.84178 8.22403 3.68809C8.5436 3.56014 9.14869 3.30203 9.27591 3.24394C9.8558 2.97701 10.9562 2.5266 11.7437 2.23136C11.9057 2.17032 12.0706 2.10708 12.1135 2.08429C12.1557 2.06664 12.2822 2.01369 12.3939 1.97178C12.5078 1.9328 12.712 1.85412 12.8492 1.80007C13.1596 1.68131 13.5365 1.54049 13.5498 1.53975C13.5524 1.54012 13.5535 1.55078 13.5521 1.56108L13.5562 1.56953ZM13.3775 2.1769C13.2693 2.32433 12.5075 3.24017 12.3439 3.42437C12.3003 3.47069 12.0861 3.71335 11.8656 3.96299C11.2854 4.62367 10.6945 5.28546 10.3905 5.6204C9.92364 6.13439 9.70611 6.38182 9.37633 6.76823C8.52102 7.76533 8.32747 7.97416 7.76037 8.52381C7.46629 8.80764 7.31892 8.97052 7.28723 9.04478C7.21981 9.20324 6.95845 9.74112 6.92559 9.78635C6.9123 9.80546 6.79984 10.0205 6.68076 10.2636C6.55946 10.5036 6.45068 10.7114 6.43776 10.7279C6.42556 10.7393 6.35106 10.8731 6.27437 11.0224C6.19508 11.1713 6.08885 11.361 6.04238 11.4463C5.95091 11.6066 5.73075 12.0217 5.51838 12.4379C5.30341 12.8537 5.21339 13.0037 5.18597 12.9919C5.17374 12.985 5.1664 12.8316 5.1738 12.6489C5.19138 12.1894 5.19511 11.4732 5.1828 11.243C5.1604 10.7857 5.17296 9.85809 5.21516 8.75881C5.22296 8.5919 5.22182 8.39484 5.21981 8.3158C5.21137 8.17021 5.20805 8.17499 5.35488 8.10917C5.40628 8.08233 5.40442 8.07682 5.33987 8.00991C5.30351 7.968 5.24155 7.90145 5.20037 7.85623L5.12433 7.77719L5.27769 7.64667C5.53045 7.43048 6.16546 6.96134 6.42611 6.80141C7.09602 6.38447 8.43715 5.46678 9.71093 4.55791C9.92606 4.40202 10.2022 4.20752 10.3308 4.12075C10.4572 4.03104 10.5685 3.95494 10.5774 3.94832C10.8901 3.71963 12.221 2.85561 12.9859 2.3839C13.3161 2.18131 13.4244 2.12579 13.3823 2.18021L13.3775 2.1769ZM2.30114 7.47396C2.40781 7.50484 2.73706 7.58829 3.02521 7.66328C3.31631 7.73607 3.58964 7.80371 3.63297 7.8151C4.0689 7.92943 4.24001 7.97207 4.50592 8.03603C4.6748 8.07574 4.82776 8.1158 4.84518 8.12352C4.85963 8.13345 4.868 8.24228 4.86048 8.36985C4.85111 8.49191 4.84644 8.74853 4.8409 8.93677C4.83795 9.12537 4.83161 9.28199 4.82533 9.28898C4.81682 9.29302 4.769 9.25736 4.71559 9.20516C4.60208 9.09192 4.23102 8.83715 3.77884 8.55775C3.59686 8.44268 3.34631 8.28901 3.21955 8.21328C3.09576 8.13534 2.99087 8.07321 2.9831 8.07211C2.94422 8.06659 1.94859 7.40559 1.95115 7.38757C1.95261 7.37728 1.9863 7.38206 2.02668 7.39566C2.06705 7.40926 2.18596 7.44713 2.29522 7.47837L2.30114 7.47396ZM8.49306 9.67784C8.78935 9.75136 9.10192 9.82194 9.19005 9.83444C9.27817 9.84694 9.3441 9.86679 9.3371 9.87892C9.33268 9.89142 9.14088 10.0506 8.91729 10.2289C8.6911 10.4069 8.3182 10.7058 8.08537 10.8933C7.85254 11.0808 7.45598 11.3974 7.20541 11.5981C6.95484 11.7989 6.49586 12.1827 6.18509 12.4537C5.87432 12.7246 5.60678 12.9519 5.59272 12.9577C5.56202 12.9691 5.67526 12.7673 5.8653 12.4713C6.08005 12.1316 6.62531 11.2139 6.82484 10.8511C6.96757 10.5904 7.29384 9.93045 7.40919 9.6764C7.44529 9.58964 7.49435 9.50471 7.51282 9.48633C7.55495 9.45029 7.65308 9.46684 8.49343 9.67527L8.49306 9.67784Z" fill="white"/>
<path fillRule="evenodd" clipRule="evenodd" d="M14.5501 0.844131C14.3581 0.893034 13.474 1.19821 13.1026 1.33719C12.5378 1.55376 12.4986 1.5692 11.585 1.9332C10.7443 2.26815 9.8958 2.62039 9.15831 2.93585C8.9046 3.04689 8.5107 3.21418 8.2825 3.31309C8.0543 3.41199 7.73955 3.54325 7.58459 3.61054C7.42962 3.67782 7.18441 3.78481 7.03499 3.85026C6.78091 3.96387 6.61375 4.04255 5.75353 4.44038C5.14221 4.72385 4.21507 5.16469 3.91628 5.31397C3.65741 5.44265 3.31682 5.607 2.61824 5.94637C2.48474 6.01144 2.1774 6.14638 1.93256 6.2508C1.68994 6.35816 1.38629 6.48575 1.26275 6.53648C0.966871 6.66517 0.875206 6.73356 0.859148 6.84679C0.850024 6.91113 0.862693 6.95231 0.913512 7.00415C0.99883 7.09238 2.65765 8.22285 3.28145 8.61585C3.54163 8.77614 3.97125 9.06547 4.24075 9.25333C4.51025 9.44119 4.75265 9.59634 4.78117 9.60038C4.82264 9.60626 4.83527 9.62905 4.83615 9.69744C4.8344 9.74707 4.83379 9.99376 4.82985 10.2452C4.82851 10.4971 4.82849 10.8515 4.82923 11.0327C4.83856 11.6195 4.83915 11.9136 4.83226 12.1673C4.80844 13.3795 4.83403 13.5905 5.0051 13.6147C5.04139 13.6199 5.13908 13.6022 5.22418 13.5802C5.38104 13.5368 5.60059 13.3684 6.15521 12.8695C6.94963 12.1525 7.48476 11.7165 8.84119 10.6723C9.8173 9.92339 9.6834 9.97266 10.3226 10.1079C10.5304 10.1532 10.8151 10.2145 10.954 10.2421C11.0951 10.2726 11.3514 10.33 11.5206 10.3671C12.2487 10.5281 12.3676 10.5476 12.4763 10.5079C12.6291 10.456 12.748 10.2891 12.8595 9.98728C12.9652 9.68984 12.9916 9.59646 13.2564 8.54975C13.3622 8.13945 13.4584 7.7593 13.4709 7.70856C13.558 7.39275 13.5638 7.36995 13.8066 6.23611C13.8528 6.02214 13.9049 5.78537 13.9229 5.71441C13.9387 5.64051 13.9812 5.43389 14.0167 5.25779C14.0501 5.07874 14.0871 4.91072 14.0996 4.87837C14.1092 4.84822 14.1426 4.70594 14.1741 4.55814C14.2027 4.41255 14.2552 4.1916 14.2864 4.06475C14.3176 3.93791 14.3786 3.69453 14.4197 3.51658C14.4608 3.33864 14.5195 3.1107 14.5471 3.00959C14.7018 2.45921 14.9952 1.08052 14.971 1.00883C14.9401 0.928311 14.8307 0.823534 14.7659 0.814344C14.7344 0.812507 14.6371 0.827584 14.5494 0.849278L14.5501 0.844131ZM14.4883 1.78311C14.4191 2.12245 14.3288 2.51658 14.1493 3.27872C14.0671 3.61623 13.9735 4.01513 13.9394 4.16256C13.8873 4.38095 13.6921 5.25375 13.439 6.38612C13.4166 6.48796 13.3567 6.72363 13.3123 6.90635C13.2649 7.09128 13.1536 7.5218 13.0651 7.86629C12.9766 8.21079 12.8701 8.60785 12.8285 8.7516C12.7873 8.89278 12.7318 9.07918 12.712 9.16301C12.6918 9.24941 12.658 9.37588 12.6315 9.45088C12.6083 9.5211 12.569 9.64941 12.5495 9.73066C12.5029 9.91045 12.4056 10.1119 12.3538 10.1413C12.3224 10.1579 12.1494 10.1281 11.7247 10.0285C11.4021 9.95386 10.9406 9.85167 10.7021 9.79947C10.1863 9.68956 9.75815 9.59472 9.33854 9.49583C8.89856 9.39143 8.40897 9.28262 8.01496 9.20837C7.8272 9.17124 7.66387 9.1297 7.64682 9.11941C7.62755 9.10617 7.70066 9.0194 7.86249 8.86646C8.49023 8.28077 8.70189 8.05613 10.0297 6.57998C10.9582 5.55126 11.6485 4.78543 12.3854 3.97106C12.7433 3.57288 12.9863 3.29493 13.2137 3.01478C13.6834 2.44343 14.4945 1.5162 14.5256 1.52061C14.5333 1.52171 14.5166 1.64009 14.4857 1.78274L14.4883 1.78311ZM13.5562 1.56953C13.5529 1.5927 13.0124 1.95448 12.7096 2.13206C12.6087 2.19126 12.4715 2.28207 12.4042 2.32766C12.337 2.37325 12.2323 2.4398 12.1747 2.47363C12.117 2.50745 11.9573 2.60819 11.8227 2.69937C11.6885 2.78798 11.3621 3.0016 11.0996 3.1744C10.5628 3.52883 9.93553 3.96231 9.29311 4.42777C8.79522 4.78772 8.64478 4.89765 8.28363 5.15097C8.14243 5.25171 7.89032 5.42599 7.72842 5.54217C7.56652 5.65835 7.34362 5.81314 7.23235 5.88924C7.12145 5.96278 6.91074 6.10617 6.76658 6.20911C6.62278 6.30949 6.34443 6.50104 6.1511 6.63377C5.85205 6.84076 5.40595 7.18968 5.19868 7.38343C5.07638 7.49998 5.0059 7.6055 5.01269 7.66947C5.02215 7.77058 4.90044 7.80845 4.73115 7.75294C4.60411 7.71654 2.91338 7.27725 2.52228 7.18241C2.28451 7.12506 1.62151 6.9339 1.53185 6.89494C1.48961 6.87582 1.45365 6.84972 1.45325 6.83391C1.44989 6.8203 1.54492 6.76552 1.6629 6.71662C2.38338 6.40924 3.09641 6.07981 4.02351 5.62059C4.60041 5.33748 6.32267 4.52896 7.1707 4.14254C7.47359 4.00172 7.84529 3.84178 8.22403 3.68809C8.5436 3.56014 9.14869 3.30203 9.27591 3.24394C9.8558 2.97701 10.9562 2.5266 11.7437 2.23136C11.9057 2.17032 12.0706 2.10708 12.1135 2.08429C12.1557 2.06664 12.2822 2.01369 12.3939 1.97178C12.5078 1.9328 12.712 1.85412 12.8492 1.80007C13.1596 1.68131 13.5365 1.54049 13.5498 1.53975C13.5524 1.54012 13.5535 1.55078 13.5521 1.56108L13.5562 1.56953ZM13.3775 2.1769C13.2693 2.32433 12.5075 3.24017 12.3439 3.42437C12.3003 3.47069 12.0861 3.71335 11.8656 3.96299C11.2854 4.62367 10.6945 5.28546 10.3905 5.6204C9.92364 6.13439 9.70611 6.38182 9.37633 6.76823C8.52102 7.76533 8.32747 7.97416 7.76037 8.52381C7.46629 8.80764 7.31892 8.97052 7.28723 9.04478C7.21981 9.20324 6.95845 9.74112 6.92559 9.78635C6.9123 9.80546 6.79984 10.0205 6.68076 10.2636C6.55946 10.5036 6.45068 10.7114 6.43776 10.7279C6.42556 10.7393 6.35106 10.8731 6.27437 11.0224C6.19508 11.1713 6.08885 11.361 6.04238 11.4463C5.95091 11.6066 5.73075 12.0217 5.51838 12.4379C5.30341 12.8537 5.21339 13.0037 5.18597 12.9919C5.17374 12.985 5.1664 12.8316 5.1738 12.6489C5.19138 12.1894 5.19511 11.4732 5.1828 11.243C5.1604 10.7857 5.17296 9.85809 5.21516 8.75881C5.22296 8.5919 5.22182 8.39484 5.21981 8.3158C5.21137 8.17021 5.20805 8.17499 5.35488 8.10917C5.40628 8.08233 5.40442 8.07682 5.33987 8.00991C5.30351 7.968 5.24155 7.90145 5.20037 7.85623L5.12433 7.77719L5.27769 7.64667C5.53045 7.43048 6.16546 6.96134 6.42611 6.80141C7.09602 6.38447 8.43715 5.46678 9.71093 4.55791C9.92606 4.40202 10.2022 4.20752 10.3308 4.12075C10.4572 4.03104 10.5685 3.95494 10.5774 3.94832C10.8901 3.71963 12.221 2.85561 12.9859 2.3839C13.3161 2.18131 13.4244 2.12579 13.3823 2.18021L13.3775 2.1769ZM2.30114 7.47396C2.40781 7.50484 2.73706 7.58829 3.02521 7.66328C3.31631 7.73607 3.58964 7.80371 3.63297 7.8151C4.0689 7.92943 4.24001 7.97207 4.50592 8.03603C4.6748 8.07574 4.82776 8.1158 4.84518 8.12352C4.85963 8.13345 4.868 8.24228 4.86048 8.36985C4.85111 8.49191 4.84644 8.74853 4.8409 8.93677C4.83795 9.12537 4.83161 9.28199 4.82533 9.28898C4.81682 9.29302 4.769 9.25736 4.71559 9.20516C4.60208 9.09192 4.23102 8.83715 3.77884 8.55775C3.59686 8.44268 3.34631 8.28901 3.21955 8.21328C3.09576 8.13534 2.99087 8.07321 2.9831 8.07211C2.94422 8.06659 1.94859 7.40559 1.95115 7.38757C1.95261 7.37728 1.9863 7.38206 2.02668 7.39566C2.06705 7.40926 2.18596 7.44713 2.29522 7.47837L2.30114 7.47396ZM8.49306 9.67784C8.78935 9.75136 9.10192 9.82194 9.19005 9.83444C9.27817 9.84694 9.3441 9.86679 9.3371 9.87892C9.33268 9.89142 9.14088 10.0506 8.91729 10.2289C8.6911 10.4069 8.3182 10.7058 8.08537 10.8933C7.85254 11.0808 7.45598 11.3974 7.20541 11.5981C6.95484 11.7989 6.49586 12.1827 6.18509 12.4537C5.87432 12.7246 5.60678 12.9519 5.59272 12.9577C5.56202 12.9691 5.67526 12.7673 5.8653 12.4713C6.08005 12.1316 6.62531 11.2139 6.82484 10.8511C6.96757 10.5904 7.29384 9.93045 7.40919 9.6764C7.44529 9.58964 7.49435 9.50471 7.51282 9.48633C7.55495 9.45029 7.65308 9.46684 8.49343 9.67527L8.49306 9.67784Z" stroke="white" stroke-width="0.4" mask="url(#path-1-outside-1_67_276)"/>
</g>
</svg>
