<svg width="69" height="65" viewBox="0 0 69 65" fill="none" xmlns="http://www.w3.org/2000/svg">
<g clipPath="url(#clip0_28_678)">
<path fillRule="evenodd" clipRule="evenodd" d="M24.805 2.74565C23.8606 2.29091 22.5662 2.46086 21.221 3.21812C20.4237 3.66245 19.326 4.54708 18.8745 5.10815L18.4669 5.61474L17.9567 5.72467C17.3153 5.86371 17.1349 5.94291 16.6436 6.31932C16.0252 6.80894 15.7339 7.10402 15.4366 7.61857C14.9823 8.38382 14.2613 10.451 14.2057 11.1781C14.1887 11.3888 14.1536 11.4323 13.9294 11.566C13.4361 11.878 12.7735 12.5564 12.4444 13.0992C11.818 14.1119 11.5825 15.1518 11.3731 17.7653C11.3243 18.417 11.2612 20.2688 11.2747 20.4861C11.2811 20.5451 11.298 20.7471 11.303 20.9306C11.3133 21.1184 11.3539 21.4472 11.3926 21.6668C11.4454 21.9247 11.4214 22.3002 11.3152 22.7891C11.1624 23.5366 11.1721 23.9483 11.3852 25.4121C11.488 26.132 11.785 27.3132 11.9758 27.7898C12.1861 28.3091 12.4511 28.8274 13.191 30.1497C14.8195 33.0665 14.7826 33.0009 14.7335 33.3742C14.6451 34.1197 14.8597 35.459 15.2197 36.35C15.4365 36.8834 16.3459 38.4857 16.8494 39.2318C17.2387 39.7964 17.9503 40.6741 18.388 41.134C18.5284 41.2829 18.7298 41.4898 18.8212 41.5993C19.3275 42.1412 21.2814 43.884 21.3416 43.8427C21.3843 43.8232 21.4115 43.8451 21.4342 43.9172C21.4967 44.2188 25.6232 46.8751 26.9864 47.4785C27.6135 47.7587 29.0747 48.0729 29.7408 48.0705L30.3271 48.0667L30.4433 48.3127C30.7048 48.8911 32.9784 50.7385 34.0972 51.2887C36.1232 52.2729 38.0888 52.6071 39.5389 52.2214C40.094 52.0668 40.8551 51.701 41.3682 51.3421L41.7698 51.055L42.2362 51.3675C43.8928 52.4762 46.3229 53.4265 47.9014 53.5838C48.7212 53.6691 50.0931 53.5256 50.6845 53.2925C51.2661 53.0605 51.9245 52.666 52.2814 52.334C52.5201 52.1043 52.6633 52.049 53.2522 51.9305C54.4409 51.7024 55.8102 51.3056 56.4379 50.994C57.6232 50.4131 58.7934 49.3715 59.549 48.2205C59.7881 47.8565 60.5651 46.8574 61.3573 45.9064C63.0029 43.9281 63.3298 43.4104 63.5839 42.3585C63.8269 41.3874 63.8635 40.8066 63.7549 39.8486C63.5567 38.1097 63.0497 37.4684 61.9259 37.5154C61.322 37.541 60.358 37.8691 60.1422 38.1262C60.0008 38.2907 59.9919 38.3464 60.0867 38.4405C60.1716 38.5358 60.3998 38.531 61.0082 38.4552C61.455 38.4018 61.9202 38.3813 62.0435 38.4177C62.3926 38.5192 62.5632 38.809 62.6728 39.4536C62.8928 40.7973 62.7131 42.1693 62.1776 43.1025C61.9065 43.5843 60.9757 44.9084 60.977 44.8287C60.9749 44.809 60.9824 44.4651 61.0043 44.0699C61.058 42.4529 60.6604 40.2035 60.0766 38.8991C59.6317 37.9129 58.8236 37.5678 57.5584 37.8241C56.8089 37.9748 55.739 38.2895 55.3214 38.474C55.1038 38.5771 55.0678 38.5661 54.9602 38.3987C54.7775 38.135 54.302 37.9229 53.8206 37.8855C53.4843 37.8573 51.3552 37.8043 50.3441 37.7894C50.1498 37.7856 50.1073 37.7604 50.0618 37.6161C49.7987 36.839 48.2498 35.8529 46.175 35.1526C45.767 35.0127 45.3502 34.8838 45.2454 34.8802C45.1395 34.8668 45.0391 34.8578 45.0228 34.8447C45.0064 34.8315 45.0069 34.6524 45.0239 34.4417C45.0798 33.5804 44.841 32.3382 44.4093 31.2909C43.5732 29.263 40.5616 25.8345 37.8963 23.8604C35.2637 21.9125 33.6688 21.0061 32.2666 20.6854C31.6238 20.5362 31.3837 20.5224 30.5044 20.6226C29.6251 20.7227 29.4952 20.7169 29.5916 20.597C29.7362 20.4173 29.717 20.2851 29.4438 19.1858C29.0065 17.443 28.6824 16.6078 28.1267 15.7927C27.7538 15.2414 27.6404 15.1591 27.0143 14.9335C26.7307 14.8399 26.4809 14.7376 26.4591 14.7201C26.4373 14.7026 26.4487 14.5323 26.4875 14.3391C26.7311 13.1441 26.6798 11.9811 26.3623 11.5281C26.1806 11.2743 25.6097 10.8239 25.2957 10.6788C25.2335 10.6557 25.2724 10.4178 25.4276 9.96836C25.551 9.592 25.6386 9.11507 25.6315 8.91195C25.627 8.59419 25.5858 8.48924 25.3745 8.28336C25.1568 8.06327 25.1362 8.01079 25.225 7.86691C25.2853 7.78082 25.3949 7.27666 25.4717 6.7462C25.5486 6.21574 25.6662 5.55654 25.7226 5.29682C25.778 5.02727 25.8142 4.58077 25.8084 4.29795C25.7921 3.50407 25.5127 3.08179 24.805 2.74565ZM24.8422 4.23843C24.853 4.29196 24.7987 4.93932 24.7148 5.67942C24.6395 6.40861 24.5784 7.17607 24.5898 7.37374C24.6023 7.58124 24.6008 7.75049 24.5855 7.74717C24.5506 7.74598 23.6802 7.37771 22.7031 6.94144C21.5689 6.43266 20.7368 6.09508 20.3363 5.97929C20.1367 5.92631 19.9501 5.85699 19.9229 5.83507C19.8194 5.75179 21.1732 4.66042 21.7747 4.33673C21.9639 4.24664 22.1498 4.12705 22.1947 4.08241C22.2451 4.04215 22.3774 3.97811 22.4922 3.93585C22.6015 3.8892 22.76 3.83724 22.8266 3.81013C23.0967 3.68642 23.9104 3.62321 24.2028 3.70593C24.5094 3.78215 24.7992 4.02429 24.8422 4.23843ZM24.6575 9.69866C24.5766 10.1003 24.5003 10.4516 24.4882 10.4778C24.4707 10.4996 24.3004 10.4882 24.1127 10.4538C23.5627 10.3343 22.5965 10.2748 21.7534 10.2964C19.3488 10.3628 16.9471 10.5481 16.1167 10.7325C15.7671 10.8101 15.4601 10.8682 15.4383 10.8507C15.4165 10.8332 15.4915 10.5615 15.6071 10.2506C15.7172 9.93536 15.8251 9.60044 15.8407 9.51422C15.8606 9.42256 15.8893 9.31999 15.9101 9.28293C15.9364 9.25025 16.0825 8.94601 16.2451 8.61016C16.546 7.99079 16.6994 7.80014 17.3221 7.30508C18.178 6.62068 18.9249 6.58458 20.6104 7.13315C22.0581 7.59805 24.3343 8.55012 24.6098 8.79877C24.7917 8.96307 24.796 9.0024 24.6531 9.7041L24.6575 9.69866ZM25.7387 12.3366C25.8122 12.6021 25.7619 14.527 25.6874 14.6196C25.6655 14.6469 25.4798 14.6769 25.2723 14.6894C24.724 14.7239 23.9865 14.8933 22.9001 15.2396C21.6127 15.6574 21.0453 15.8829 21.034 16.0085C21.0208 16.0696 21.0109 16.0707 20.9903 16.0182C20.8907 15.7405 14.478 19.115 13.0062 20.2191C12.5466 20.5672 12.4209 20.6007 12.4707 20.3716C12.4906 20.2799 12.491 20.1456 12.4923 20.0659C12.4849 19.9971 12.5004 19.5429 12.529 19.0723C12.7246 15.9631 12.9057 14.8345 13.3198 13.9742C13.6296 13.3439 13.7972 13.1467 14.3541 12.7334C15.2393 12.0906 15.9126 11.8785 17.7301 11.6718C19.8481 11.4376 23.2981 11.1984 23.3962 11.2773C23.4125 11.2904 23.6243 11.3172 23.8557 11.3419C24.5926 11.3964 24.969 11.5198 25.3329 11.8036C25.5933 12.0042 25.6858 12.1235 25.743 12.3311L25.7387 12.3366ZM59.1635 39.3759C59.6957 40.7554 60.0367 42.5734 60.0016 43.8104C59.9762 44.6784 59.7431 45.6037 59.3476 46.4521C59.0861 47.0225 58.9359 47.2426 58.1908 48.1687C57.4456 49.0947 57.2803 49.2667 56.8098 49.6061C56.1402 50.0814 55.4448 50.4102 54.4568 50.7012C53.4635 50.9877 53.3499 50.995 53.4762 50.7377C54.3207 49.0301 54.6891 47.7471 55.0033 45.5051C55.2855 43.4258 55.4123 41.0599 55.2957 39.8443C55.281 39.6171 55.274 39.414 55.2959 39.3868C55.3835 39.2778 57.7567 38.7375 58.1258 38.7473C58.4501 38.7569 58.7906 38.8245 58.9158 38.9253C58.9812 38.9779 59.0876 39.1802 59.1635 39.3759ZM27.7017 17.0571C27.8829 17.4452 28.0943 17.9743 28.1678 18.2399C28.2457 18.5 28.4231 19.0825 28.5572 19.5404C28.8342 20.4453 28.97 20.6892 29.2167 20.7172C29.4285 20.744 29.4099 20.7559 28.7418 21.062C27.666 21.5514 26.2134 22.4197 24.4487 23.6202C23.9488 23.9627 22.1136 25.3847 20.9655 26.3096C18.6157 28.2149 17.8341 28.8962 16.5509 30.1341C16.4118 30.2735 16.2618 30.4041 16.2324 30.4073C16.1372 30.4474 15.3395 31.4388 15.325 31.5348C15.3027 31.6964 15.2669 31.6406 14.7359 30.5941C14.459 30.0572 14.1266 29.4218 14.0072 29.1911C13.0459 27.3856 12.629 26.1527 12.4209 24.4596C12.2382 23.0472 12.4601 22.2027 13.2179 21.4394C13.8092 20.8383 16.3414 19.2863 18.5744 18.1395C18.9703 17.9375 19.4088 17.716 19.54 17.6421C20.2552 17.2664 21.5441 16.7241 22.4207 16.4153C24.5871 15.6637 25.6696 15.5117 26.6656 15.8465C27.079 15.9907 27.3348 16.2862 27.6918 17.0582L27.7017 17.0571ZM40.4864 27.2996C43.501 30.4792 44.5017 32.6036 44.0987 34.9447C43.9932 35.5777 43.5383 36.5668 42.9538 37.4605C41.696 39.3471 38.7214 42.0958 35.069 44.7388C31.9473 47.0012 30.1954 47.5389 28.1598 46.8791C27.2073 46.5793 25.5841 45.6411 23.5179 44.1939C21.3613 42.6919 18.5618 39.8918 17.5129 38.1953C17.1032 37.5335 16.3687 36.2156 16.2125 35.8745C16.0139 35.4186 15.8067 34.5609 15.7689 34.0279C15.6976 33.0013 16.2194 31.8955 17.229 30.8862C18.2299 29.8877 18.6284 29.5263 19.1811 29.0737C19.493 28.831 19.8947 28.4991 20.0916 28.3435C20.2886 28.188 20.7954 27.7701 21.2353 27.4241C21.6698 27.0737 22.3385 26.5439 22.7095 26.2501C23.9352 25.2621 26.5665 23.4308 27.2621 23.0571C27.3845 22.9941 27.7028 22.8105 27.9828 22.6409C29.0329 22.0051 29.9183 21.6855 30.898 21.5944C31.6997 21.5126 32.3371 21.6127 33.1333 21.9392C33.7004 22.1712 33.9316 22.2855 35.0413 22.9361C36.5043 23.7723 39.1626 25.9113 40.4821 27.3051L40.4864 27.2996ZM54.2653 39.6972C54.3004 40.0216 54.3294 40.5655 54.3361 40.9029C54.3384 41.2458 54.3374 41.6039 54.3481 41.7022C54.3564 42.6064 53.9685 45.7763 53.703 46.9985C53.36 48.5622 52.7201 50.1383 52.1196 50.8845C51.2386 51.9794 50.3702 52.4563 49.1568 52.5479C48.1149 52.6159 47.2145 52.4747 45.925 52.0473C45.0272 51.7467 43.6554 51.1095 42.8629 50.6333L42.5326 50.4304L43.7994 48.8561C44.4908 47.9857 45.0804 47.2306 45.11 47.1827C45.1342 47.1303 45.3886 46.7696 45.6506 46.3882C45.9181 46.0111 46.224 45.5752 46.326 45.415C46.4291 45.2646 46.7043 44.8668 46.9367 44.5333C48.226 42.708 49.9219 39.5855 50.1046 38.7005L50.1467 38.4921L50.9161 38.6176C51.3407 38.6811 52.071 38.7661 52.5415 38.7948C53.642 38.8547 53.976 38.908 54.1013 39.0088C54.1612 39.0571 54.2335 39.3575 54.2642 39.6874L54.2653 39.6972ZM49.2484 37.9577C49.4326 38.4649 48.7074 40.08 47.2299 42.418C46.9239 42.8987 46.6233 43.3837 46.5608 43.4949C46.4971 43.5963 46.2559 43.9407 46.0258 44.249C45.7956 44.5574 45.1565 45.4521 44.5799 46.2355C41.4951 50.493 39.9797 51.562 37.4615 51.2677C36.585 51.1637 35.036 50.5904 34.0375 50.0023C33.5393 49.7181 31.3701 48.0085 31.3584 47.9004C31.3552 47.8709 31.6154 47.7482 31.9357 47.629C32.7544 47.3365 32.9293 47.2529 33.4347 46.9595C34.1554 46.5434 34.7528 46.1356 34.7574 46.0406C34.763 46.0002 34.7947 45.9719 34.8165 45.9895C34.8928 46.0508 35.1564 45.8681 36.3667 44.9663C38.0004 43.7502 39.6215 42.3713 41.1455 40.9234C41.2353 40.8341 41.646 40.4018 42.0655 39.9585C43.359 38.5853 44.2813 37.1826 44.703 35.9335C44.7966 35.6499 44.8912 35.4208 44.8966 35.4252C44.9065 35.4242 45.1322 35.534 45.3939 35.6548C45.6567 35.7855 46.1114 35.9899 46.4026 36.1076C48.0964 36.8243 49.0762 37.4692 49.2572 37.9468L49.2484 37.9577Z" fill="#22232D"/>
<path fillRule="evenodd" clipRule="evenodd" d="M17.45 12.5775C16.4309 12.7176 15.4152 13.1657 15.2383 13.5528C15.0856 13.8876 15.4286 14.2085 15.7349 14.0063C15.8137 13.953 16.1634 13.8306 16.5241 13.717C17.8629 13.3135 18.3091 13.0713 18.2761 12.7665C18.2516 12.5404 18.0934 12.5029 17.4511 12.5873L17.45 12.5775Z" fill="#22232D"/>
<path fillRule="evenodd" clipRule="evenodd" d="M14.4084 15.0298C14.1662 14.9516 14.0426 15.0495 13.8394 15.4693C13.5505 16.0625 13.6287 16.6011 14.0149 16.7234C14.1338 16.7652 14.39 16.5137 14.3751 16.3761C14.3763 16.3411 14.4458 16.1098 14.5382 15.8611C14.7274 15.3583 14.6855 15.1092 14.4183 15.0287L14.4084 15.0298Z" fill="#22232D"/>
<path fillRule="evenodd" clipRule="evenodd" d="M39.7063 38.5629C39.5872 38.5658 39.4014 38.6406 39.2865 38.7277C39.1716 38.8147 38.8488 39.0485 38.5764 39.2421C38.3039 39.4357 37.7021 39.8937 37.2326 40.2429C36.773 40.591 36.0345 41.1185 35.5936 41.4099C35.1626 41.7002 34.7742 41.971 34.7435 42.0091C34.7128 42.0473 34.6961 42.1684 34.7187 42.2853C34.7443 42.4765 34.7552 42.4852 35.0248 42.5406C35.4308 42.616 36.0114 42.3294 37.2587 41.4485C38.6581 40.4566 39.0926 40.1062 39.6325 39.5356C40.0115 39.1316 40.0718 39.0455 40.0581 38.8729C40.0467 38.6305 39.965 38.5647 39.7063 38.5629Z" fill="#22232D"/>
<path fillRule="evenodd" clipRule="evenodd" d="M33.179 43.4069C33.0491 43.4011 32.7933 43.5183 32.4224 43.7673C32.1171 43.9794 31.7387 44.2043 31.5922 44.2749C31.0893 44.4984 30.9727 44.7995 31.2777 45.0449C31.5174 45.2378 31.9555 45.1506 32.6063 44.7768C33.3795 44.34 33.5689 44.1604 33.5677 43.8274C33.5761 43.538 33.464 43.4209 33.1834 43.4015L33.179 43.4069Z" fill="#22232D"/>
<path fillRule="evenodd" clipRule="evenodd" d="M28.5259 44.7508C27.4754 44.3722 26.6095 43.9985 25.8713 43.611C25.1539 43.2311 24.8637 43.1681 24.6393 43.3465C24.4281 43.5086 24.4479 43.8297 24.6954 43.957C24.7903 44.0065 24.8622 44.0733 24.8566 44.1136C24.8302 44.1911 26.4873 45.1207 27.05 45.3581C27.5245 45.5604 29.0946 45.9623 29.3425 45.9554C29.7335 45.9379 29.7949 45.4489 29.4354 45.1596C29.3428 45.0851 28.9305 44.9059 28.5313 44.7552L28.5259 44.7508Z" fill="#22232D"/>
<path fillRule="evenodd" clipRule="evenodd" d="M52.0152 47.9469C51.9266 48.0012 51.7054 48.2539 51.5004 48.5198C50.9645 49.2193 50.2848 49.7852 49.7087 50.0216C49.1325 50.258 49.0077 50.3908 49.1293 50.6412C49.2552 50.8862 49.6382 50.979 50.0742 50.8721C50.4567 50.776 51.1742 50.3304 51.5739 49.9341C51.9276 49.5725 52.4335 48.6873 52.4727 48.3599C52.4997 48.0586 52.2296 47.8143 52.0163 47.9567L52.0152 47.9469Z" fill="#22232D"/>
<path fillRule="evenodd" clipRule="evenodd" d="M47.1828 50.484C46.9244 50.3478 46.1363 50.2342 45.8741 50.2924C45.791 50.3064 45.6849 50.3825 45.6344 50.4676C45.4907 50.7019 45.7828 50.919 46.5857 51.1702C47.4399 51.4358 47.5142 51.4327 47.6196 51.2124C47.6636 51.1132 47.6988 51.0248 47.7065 51.0041C47.6883 50.8818 47.3932 50.5905 47.1882 50.4884L47.1828 50.484Z" fill="#22232D"/>
</g>
<defs>
<clipPath id="clip0_28_678">
<rect width="59.9053" height="34.3015" fill="white" transform="translate(21.5039) rotate(38.8224)"/>
</clipPath>
</defs>
</svg>
