<svg width="43" height="38" viewBox="0 0 43 38" fill="none" xmlns="http://www.w3.org/2000/svg">
<g clipPath="url(#clip0_28_687)">
<path fillRule="evenodd" clipRule="evenodd" d="M30.4841 0.0990097C29.8618 0.254718 29.3527 0.601524 28.992 1.11112C28.6597 1.5924 28.7233 2.4488 29.1405 3.00793C29.19 3.08579 29.2749 3.12117 29.3102 3.09994C29.3527 3.07871 29.4092 3.14241 29.4305 3.24857C29.4729 3.41136 29.3315 3.67323 28.5324 4.88351C28.0091 5.68329 27.4505 6.52553 27.302 6.7591C26.5525 7.9623 25.11 10.6872 24.8412 11.4162C24.7564 11.6568 24.6645 11.8479 24.6362 11.8479C24.6008 11.8479 24.3958 11.5931 24.1765 11.2817C23.1866 9.87327 22.1966 8.5002 21.7511 7.91276C20.5561 6.33444 20.5349 6.3132 19.8419 5.53466L19.552 5.20909L19.6934 5.0463C19.7783 4.95429 19.9409 4.73488 20.0682 4.55086C20.2662 4.24652 20.2874 4.16867 20.2874 3.51045C20.2874 2.63989 20.153 2.30724 19.5308 1.68441C19.0853 1.23851 18.6257 1.01203 17.961 0.927097C17.2043 0.82801 16.0871 1.25267 15.5497 1.85427C15.0406 2.42756 14.7931 2.9867 14.7931 3.57415C14.786 5.11 15.8325 6.11503 17.4518 6.11503H17.8266L17.7771 6.53969C17.7559 6.78033 17.7205 7.20499 17.6852 7.49517C17.664 7.77828 17.6003 8.37988 17.5438 8.83993C17.4943 9.28582 17.4236 9.87327 17.3953 10.1422C17.367 10.4112 17.3387 10.7226 17.3175 10.85C17.3033 10.9703 17.2751 11.2393 17.2538 11.4445C17.1195 12.7256 17.0205 13.3484 16.971 13.3484C16.9356 13.3484 16.4265 13.0724 15.8467 12.7468C15.2668 12.4142 14.6375 12.0532 14.4536 11.947C14.2698 11.8409 13.7819 11.5578 13.3718 11.3242C12.9616 11.0765 12.1414 10.6447 11.5474 10.3546C10.9534 10.0644 10.4584 9.82373 10.4443 9.80957C10.4372 9.80249 10.5221 9.63263 10.6281 9.43445C10.918 8.91071 10.9605 7.99061 10.7271 7.50225C10.5221 7.07051 10.0624 6.67416 9.58866 6.51845C9.09367 6.35567 8.28048 6.40521 7.85621 6.62462C7.21273 6.95019 6.71068 7.76412 6.71068 8.45774C6.71775 9.27167 7.60165 10.3262 8.42191 10.4961C8.55626 10.5173 8.6694 10.581 8.68354 10.6235C8.69769 10.666 8.72597 11.0906 8.76133 11.5648C8.79668 12.308 8.93811 14.3039 9.06539 15.7053C9.09367 16.0592 9.26338 17.3614 9.34116 17.864C9.35531 17.963 9.29167 17.956 8.33705 17.7578C6.98645 17.4818 6.26519 17.3898 5.36008 17.4039H4.49032V16.8377C4.49032 16.5121 4.44789 16.1582 4.38425 16.0167C4.21454 15.6274 3.79027 15.1886 3.35893 14.948C2.56695 14.5233 1.59112 14.7498 0.799149 15.5425C0.15567 16.1865 -0.0847513 16.9297 0.0849576 17.7507C0.261738 18.593 0.983001 19.3078 1.78912 19.4281C2.12146 19.4777 3.2175 19.2512 3.79027 19.0035L4.03069 18.9044L4.85802 19.7183C5.31058 20.1713 6.03891 20.8861 6.4844 21.3179C7.77136 22.5777 8.83204 23.8304 10.4584 26.0174C11.5191 27.433 12.1414 28.3601 12.7141 29.3369C12.9545 29.7474 13.2374 30.2286 13.3505 30.4197C13.6051 30.8515 14.8567 33.3994 15.189 34.1851C15.3305 34.5106 15.5992 35.1689 15.776 35.636C16.0871 36.4499 16.1861 36.6693 16.4902 37.2426C16.6881 37.6248 17.1124 37.7734 18.3357 37.9221C19.2691 38.0282 19.5732 38.0353 20.648 37.9575C21.3269 37.915 22.2249 37.823 22.6562 37.7664C23.0876 37.7097 23.6109 37.639 23.8088 37.6177C24.0139 37.5894 24.3533 37.5328 24.5513 37.4974C24.7564 37.462 25.4777 37.3205 26.1494 37.1931C28.2142 36.8038 30.873 36.0536 32.3297 35.4378C33.355 35.0061 33.9702 34.6947 35.3844 33.8807C35.837 33.6188 35.9925 33.5693 36.2188 33.5976C36.6572 33.6542 36.6784 33.541 36.537 31.9981C36.4451 30.9718 36.4239 30.0588 36.4451 27.8859C36.4663 26.3501 36.4946 24.8496 36.5299 24.5665C36.5512 24.2763 36.5865 23.8092 36.6148 23.5261C36.8199 20.9427 37.8664 15.684 38.623 13.3909C39.1251 11.8904 39.5281 10.7651 39.9666 9.73879C40.2211 9.12304 40.4474 8.5639 40.4757 8.48605C40.504 8.40111 40.603 8.35865 40.7656 8.35157C41.7273 8.33742 42.4132 7.93399 42.8233 7.13421C43.0779 6.62462 43.0991 5.73991 42.8657 5.22324C42.5688 4.5721 41.8828 4.02712 41.2252 3.92095C40.504 3.80063 39.3938 4.21821 38.7644 4.84812C38.3543 5.25155 37.9866 5.97347 37.9866 6.36275C37.9866 6.75202 38.227 7.34654 38.5028 7.68627L38.7291 7.9623L37.9937 8.42235C37.1664 8.93902 35.5188 10.2059 34.3308 11.2393C33.8924 11.6215 33.4964 11.9329 33.461 11.9329C33.4186 11.9329 33.362 11.8055 33.3408 11.6498C33.0226 9.77418 32.2094 6.10795 31.8559 5.01799C31.7498 4.67826 31.665 4.35269 31.665 4.29607C31.665 4.23945 31.8064 4.11913 31.969 4.02712C32.3792 3.82186 32.8671 3.30519 33.1075 2.82391C33.4752 2.10199 33.3055 1.22436 32.7044 0.594447C32.1812 0.0494661 31.4175 -0.11332 30.5053 0.113165L30.4841 0.0990097ZM31.6932 1.40838C31.863 1.50747 31.9478 1.62779 31.9832 1.81181C32.0751 2.29309 31.87 2.67528 31.3892 2.93716C31.1275 3.07871 31.1205 3.07871 30.9791 2.923C30.8942 2.83099 30.7174 2.74606 30.5831 2.71775C30.1446 2.62574 30.1022 2.6045 30.0174 2.41341C29.7911 1.9392 30.0527 1.45792 30.5901 1.37299C30.7386 1.35176 30.8942 1.32345 30.9296 1.30929C31.1346 1.24559 31.474 1.28806 31.6862 1.42253L31.6932 1.40838ZM18.562 2.39925C18.9651 2.71067 19.1489 3.12825 19.1136 3.63077C19.0782 4.01296 19.057 4.05543 18.5479 4.56502C18.0387 5.07461 18.0105 5.09584 17.664 5.08169C16.9356 5.05338 16.5184 4.86228 16.2568 4.47301C15.7052 3.63784 16.0022 2.76729 16.9993 2.29309C17.4589 2.07368 18.2014 2.1303 18.562 2.40633V2.39925ZM30.5406 4.5084C30.7598 5.21616 31.177 6.87234 31.4175 8.04015C31.5447 8.63468 31.7286 9.484 31.8276 9.94405C31.9266 10.3899 32.1104 11.2463 32.2377 11.8409L32.464 12.9167L31.9549 13.4829C31.0993 14.4454 29.9749 15.9247 29.5507 16.6749C29.4517 16.8377 29.2466 17.2057 29.091 17.4747C28.9355 17.7436 28.7728 17.9701 28.7163 17.9701C28.6243 17.9701 28.3273 17.5879 28.0304 17.1137C27.4434 16.1653 27.1818 15.7477 26.2979 14.403L25.3009 12.8813L25.4494 12.6123C25.5342 12.4637 25.6898 12.1027 25.7959 11.8196C26.0504 11.1614 27.2101 8.83285 27.8748 7.6438C28.7163 6.13626 30.1871 3.99881 30.3426 4.04835C30.378 4.0625 30.4699 4.27483 30.5406 4.51547V4.5084ZM41.402 5.25155C41.897 5.66913 41.9748 6.30612 41.5788 6.76617C41.3101 7.09175 40.9919 7.1696 40.1716 7.1059C39.3584 7.04928 39.2382 6.96435 39.1816 6.43352C39.1463 6.10087 39.1534 6.08672 39.5564 5.69745C40.214 5.06046 40.9636 4.88351 41.402 5.25155ZM19.9055 7.50225C21.2632 9.19381 23.9573 13.0016 25.7959 15.8256C26.2767 16.5617 26.807 17.3685 26.9697 17.6162C27.9879 19.1379 28.3698 19.4918 28.9072 19.421C29.282 19.3715 29.4446 19.2158 29.8901 18.4585C31.6579 15.4717 33.2631 13.5607 35.6602 11.6498C37.3502 10.305 38.5382 9.44861 38.7079 9.44861C38.7503 9.44861 38.6796 9.69633 38.5523 9.98651C37.9018 11.4941 36.9401 14.5304 36.5865 16.1936C36.1127 18.3665 35.9642 19.1309 35.844 19.8811C35.8228 20.0226 35.7945 20.1925 35.7804 20.2562C35.7521 20.3553 35.5895 21.5019 35.4834 22.3087C35.3632 23.1934 35.2996 24.4533 35.2501 26.1873C35.2288 27.256 35.2006 28.1903 35.1864 28.2823C35.1652 28.3672 35.0591 28.4734 34.946 28.53C34.8258 28.5795 34.5217 28.7494 34.253 28.898C33.3125 29.4289 31.8135 30.1012 30.675 30.4905C30.4487 30.5684 30.2012 30.6604 30.1164 30.6958C29.8477 30.8232 27.7617 31.4531 26.8424 31.6937C26.2201 31.8565 24.3392 32.2953 23.7169 32.4369C23.1866 32.5501 22.4229 32.6634 21.4824 32.7483C20.7965 32.812 15.8962 32.8049 15.783 32.7412C15.7335 32.7129 15.578 32.4298 15.4365 32.1184C14.6941 30.4693 13.7607 28.7494 12.9758 27.5604C10.6493 24.0498 8.83911 21.8628 6.04598 19.1804C5.43786 18.6 5.26108 18.3877 5.38836 18.3877C5.40957 18.3877 5.90456 18.4514 6.4844 18.5363C7.50972 18.685 8.77547 18.9539 9.56037 19.1875C11.3282 19.7183 13.0182 20.3199 13.994 20.7729C16.476 21.9265 16.4689 21.9265 16.9003 21.7071C17.3246 21.4877 17.4448 20.9994 17.6074 18.9115C17.664 18.1046 17.763 17.2128 17.869 16.4484C17.9044 16.1795 17.961 15.7477 17.9822 15.4788C18.0034 15.2098 18.0387 14.8843 18.067 14.7498C18.1165 14.4384 18.1448 14.219 18.2862 12.9804C18.4277 11.6922 18.4206 11.7559 18.7317 8.99564C18.8731 7.74997 18.9934 6.66001 18.9934 6.57508C18.9934 6.44768 19.0429 6.47599 19.2762 6.73078C19.4247 6.90065 19.7146 7.24745 19.9197 7.4881L19.9055 7.50225ZM9.26338 7.63673C9.60987 7.79951 9.77251 8.19586 9.65937 8.64176C9.61694 8.8187 9.5533 8.98148 9.53209 9.00979C9.51087 9.0381 9.39066 9.17258 9.27045 9.33537C9.07246 9.60432 9.0371 9.61847 8.74011 9.59016C8.16735 9.52646 7.71479 9.02395 7.72186 8.47897C7.736 7.74997 8.55626 7.30408 9.26338 7.63673ZM11.314 11.5294C12.0353 11.8975 12.9051 12.3646 13.2515 12.5699C13.6051 12.7822 14.5385 13.313 15.3375 13.766L16.7871 14.5799V14.948C16.7801 15.3089 16.7518 15.5566 16.6033 16.8023C16.5114 17.5313 16.3982 18.8407 16.3417 19.6334C16.278 20.6526 16.3558 20.6101 15.4365 20.1925C14.9911 20.0014 14.4183 19.7395 14.1496 19.6121C13.8809 19.4847 13.5132 19.329 13.3293 19.2653C12.1626 18.8407 11.4342 18.593 10.9817 18.4656C10.6988 18.3806 10.4231 18.2886 10.3806 18.2462C10.3311 18.2037 10.2887 17.9206 10.2816 17.5313C10.2746 17.1845 10.2604 16.8731 10.2463 16.8448C10.1544 16.7032 9.87858 10.8712 9.96343 10.8712C9.99172 10.8712 10.6069 11.1685 11.3211 11.5294H11.314ZM2.7508 16.0521C3.20336 16.2856 3.33064 16.8094 3.04779 17.2482C2.86394 17.5313 2.86394 17.7153 3.04779 17.956C3.13265 18.0621 3.19629 18.1612 3.19629 18.1966C3.19629 18.2603 2.60938 18.3594 2.24168 18.3452C1.85276 18.3311 1.69012 18.2462 1.4497 17.9347C1.25171 17.6658 1.18099 17.1562 1.31535 16.8306C1.40727 16.5971 1.8669 16.1866 2.17803 16.045C2.47502 15.9176 2.4821 15.9176 2.74373 16.0521H2.7508ZM35.2996 29.9314C35.2996 30.0871 35.3491 30.6462 35.4198 31.1841C35.4834 31.715 35.547 32.2245 35.5541 32.3236C35.5612 32.4652 35.4268 32.5643 34.7056 32.9465C32.7893 33.9586 32.0256 34.3337 31.3538 34.5956C30.1871 35.0344 29.289 35.3175 27.9314 35.6714C27.0545 35.8979 26.5242 36.004 24.6927 36.365C24.2402 36.4499 22.3168 36.6976 21.1501 36.818C20.0258 36.9312 17.4872 36.8604 17.0063 36.6976C16.9569 36.6835 16.9074 36.549 16.9074 36.4074C16.9074 36.1243 16.476 34.5673 16.2427 34.0294C16.1366 33.7887 16.1224 33.6755 16.1861 33.6542C16.2356 33.6401 16.5821 33.6542 16.9427 33.6825C17.6852 33.7462 21.143 33.7746 21.5814 33.7109C21.7299 33.6896 22.0269 33.6613 22.232 33.6472C24.7847 33.4207 30.4275 31.8707 33.0721 30.6816C33.3408 30.5542 33.6873 30.4056 33.857 30.3419C34.1894 30.2074 34.9389 29.8181 35.0521 29.7261C35.2076 29.5775 35.3137 29.6695 35.3137 29.9314H35.2996Z" fill="#22232D"/>
</g>
<defs>
<clipPath id="clip0_28_687">
<rect width="43" height="38" fill="white"/>
</clipPath>
</defs>
</svg>
