<svg width="41" height="39" viewBox="0 0 41 39" fill="none" xmlns="http://www.w3.org/2000/svg">
<g clipPath="url(#clip0_28_690)">
<path fillRule="evenodd" clipRule="evenodd" d="M33.3044 5.81301C32.4801 5.29389 30.984 5.46645 29.7686 6.21447C28.3893 7.06302 27.3801 8.34512 26.6026 10.2839C26.1993 11.2593 26.0862 11.8816 26.1101 12.9262L26.1208 13.5087L23.8973 15.5247C19.3949 19.6304 16.2441 22.1618 13.8765 23.5777C13.579 23.7528 13.628 23.6716 14.2068 22.8094C14.7899 21.983 15.9091 20.0287 17.1288 17.6993C17.4457 17.1001 17.5707 16.9539 17.8433 16.8265C18.0202 16.7412 18.4623 16.4428 18.8046 16.1506C20.7138 14.5212 21.8254 12.0342 21.3646 10.4161C21.1029 9.50873 20.0083 8.54976 19.222 8.53725C18.1179 8.50672 16.9005 9.72981 16.4481 11.3255C16.1825 12.2621 16.0456 13.9039 16.1032 15.4193C16.145 16.1461 16.098 16.8304 16.0229 16.9735C15.9478 17.1165 15.6657 17.6333 15.4001 18.123C14.0117 20.7015 13.4825 21.6527 13.1464 22.1369C12.6753 22.8018 11.6217 24.0166 10.8499 24.8068C10.5195 25.1282 10.1824 25.5343 10.0845 25.6967C9.87982 26.0423 8.39441 26.7974 5.92248 27.8291C4.6675 28.3612 4.34285 28.5199 4.23394 28.7312C4.06844 29.0302 4.13632 29.2484 4.42438 29.4627C4.58576 29.5747 4.84825 29.5742 5.42017 29.4279C8.16902 28.7514 11.7759 27.0008 15.5059 24.501C15.9632 24.1895 16.4791 23.8544 16.6507 23.7474C16.8082 23.6392 17.1707 23.5402 17.4343 23.5256C18.1535 23.4902 18.7134 23.4068 20.979 23.0113C22.7552 22.7049 23.0763 22.6806 23.2549 22.8437C23.413 22.998 23.6038 23.006 24.1682 22.8662C24.9636 22.6737 25.7555 22.6157 27.4509 22.615C29.2666 22.6166 30.2564 22.2977 31.3799 21.3651C32.7164 20.2507 33.0568 18.8164 32.1956 17.7766C31.8018 17.2844 31.5992 17.1549 30.9196 16.9593C29.2046 16.4904 26.6654 17.5664 24.65 19.6415C24.1794 20.1221 23.6738 20.685 23.5161 20.8853C23.2399 21.2394 23.203 21.2578 22.2135 21.3924C21.6547 21.4617 20.7704 21.6117 20.2571 21.7343C19.7514 21.8503 19.2838 21.934 19.2198 21.936C19.1634 21.9315 19.7068 21.4283 20.4141 20.8246C23.875 17.8708 27.066 14.8318 27.4036 14.1492C27.5714 13.8219 27.6463 13.7711 28.3574 13.4798C30.8868 12.4384 33.1874 10.8824 33.9546 9.70179C34.86 8.29798 34.5793 6.64438 33.3086 5.84882L33.3044 5.81301ZM33.0081 7.9459C33.0446 8.11193 32.9517 8.48052 32.8448 8.7558C32.6453 9.21527 32.5214 9.34734 31.4641 10.2497C30.5297 11.0341 30.131 11.3218 29.4676 11.6382C29.0105 11.8574 28.4024 12.1924 28.1059 12.3534C27.8084 12.5285 27.5381 12.6277 27.5056 12.5896C27.3953 12.4603 27.6501 11.4803 27.989 10.6914C28.6822 9.10062 28.8334 8.89268 29.8831 7.9968C30.7502 7.25673 30.9001 7.15508 31.4058 7.03901C32.3315 6.81427 32.9089 7.13654 33.0081 7.9459ZM31.0792 19.4262C30.8384 19.9604 30.0474 20.6355 29.3743 20.8944C28.8402 21.1005 28.0949 21.1976 26.0749 21.3571C24.6256 21.4766 24.6321 21.4843 25.8374 20.324C26.9025 19.323 27.8625 18.7534 29.0379 18.4207C30.1329 18.1172 30.6382 18.1855 31.0049 18.6613C31.2223 18.9622 31.2373 19.0414 31.0804 19.4121L31.0792 19.4262ZM20.193 10.9689C20.2303 11.3052 20.0753 12.2789 19.9601 12.3904C19.9297 12.4164 19.787 12.6959 19.6432 12.9896C19.2313 13.8933 17.7612 15.6213 17.5859 15.4159C17.56 15.3855 17.5975 14.5515 17.6614 13.5635C17.7913 11.6515 17.9846 11.0001 18.6228 10.2845C18.8957 9.97265 18.9924 9.91645 19.2603 9.93762C19.655 9.96882 20.13 10.51 20.1919 10.983L20.193 10.9689Z" fill="#22232D"/>
</g>
<defs>
<clipPath id="clip0_28_690">
<rect width="18.11" height="37.47" fill="white" transform="translate(28.5007) rotate(49.5195)"/>
</clipPath>
</defs>
</svg>
