<svg width="13" height="13" viewBox="0 0 13 13" fill="none" xmlns="http://www.w3.org/2000/svg">
<g clipPath="url(#clip0_28_692)">
<path fillRule="evenodd" clipRule="evenodd" d="M1.56956 0.0342772C1.29659 0.123695 1.03727 0.364436 0.989506 0.612055C0.887143 1.06602 1.13964 1.65068 2.42258 3.86549C2.72966 4.39512 2.95486 4.85597 2.92074 4.89036C2.70237 5.07608 1.09187 6.26602 0.907616 6.37608C0.627826 6.54116 0.197904 7.05703 0.0682457 7.37343C-0.0750614 7.7311 0.0409491 8.06126 0.348036 8.19195C0.661946 8.32264 1.36483 8.32264 2.36116 8.18507C2.7979 8.13004 3.48714 8.05438 3.90342 8.03375L4.6609 7.9856L5.24777 9.20994C5.56851 9.88401 5.97796 10.7576 6.16903 11.1565C6.56483 12.0163 7.0084 12.7385 7.24725 12.8898C7.6021 13.1237 8.07979 12.9861 8.27769 12.6009C8.35276 12.4703 8.77586 10.3173 9.05565 8.69407C9.11024 8.32952 9.17848 7.97184 9.19895 7.8893C9.21943 7.75174 9.29449 7.7311 9.81995 7.68983C10.8982 7.60042 12.0924 7.42846 12.3381 7.32528C12.6315 7.19459 12.8703 6.94698 12.9795 6.64433C13.0409 6.45174 13.0341 6.36232 12.9045 6.09407C12.727 5.72264 12.1879 5.30994 10.7753 4.47079L9.84042 3.91364V3.48031C9.84725 3.23957 9.86772 2.66867 9.88137 2.2147C9.90867 1.28613 9.84042 1.04539 9.44462 0.811526C8.96011 0.529515 8.35958 0.790891 6.81733 1.91893C6.53754 2.13216 6.51706 2.13216 6.31234 2.02899C2.7979 0.164965 2.10184 -0.123924 1.56956 0.0342772ZM2.89344 1.29989C3.35066 1.4856 4.15591 1.90518 5.15224 2.46232L5.65722 2.74433L5.40473 2.93692C4.55171 3.62475 3.74646 4.2438 3.73281 4.21629C3.71916 4.20253 3.57586 3.93428 3.40525 3.61788C3.07769 2.99883 2.87979 2.76497 2.78426 2.84063C2.75014 2.86814 2.76378 2.84063 2.80473 2.7856C2.86615 2.69618 2.84567 2.59301 2.66825 2.27661C2.4021 1.78137 2.0336 1.06602 2.0336 1.01788C2.0336 0.969727 2.36798 1.0729 2.89344 1.29989ZM8.99423 2.29036C8.98741 2.66179 8.96693 3.05385 8.93964 3.16391L8.89869 3.3565L8.16851 2.97819C7.75906 2.76497 7.43832 2.56549 7.45197 2.5311C7.47927 2.44168 8.79633 1.61629 8.91916 1.61629C8.99423 1.61629 9.0147 1.76761 9.00788 2.28348L8.99423 2.29036ZM8.33911 4.14063C8.58478 4.27819 8.78268 4.43639 8.78268 4.4983C8.78268 4.73904 8.47559 6.67184 8.42783 6.71311C8.38688 6.76126 6.34646 6.87131 5.47297 6.87819H5.15224L4.66772 5.97026C4.40158 5.46814 4.18321 5.02793 4.17638 4.98666C4.17638 4.93851 4.70184 4.50518 5.33649 4.02369L6.50342 3.15015L7.19266 3.52158C7.57481 3.72105 8.08662 4.00994 8.33229 4.1475L8.33911 4.14063ZM10.284 5.28243C10.5911 5.46126 10.8982 5.60571 10.9596 5.60571C11.0346 5.60571 11.0824 5.63322 11.0824 5.68137C11.0824 5.71576 11.2667 5.86708 11.4919 6.0184C11.7171 6.16973 11.9081 6.32793 11.9218 6.38295C11.9627 6.50676 11.3213 6.62369 10.3113 6.67184L9.42415 6.71311V6.54116C9.42415 6.34856 9.56746 5.18613 9.6084 5.04168C9.64252 4.91788 9.65617 4.91787 10.2772 5.28243H10.284ZM3.85565 6.47925C3.99213 6.75438 4.10814 6.99512 4.10814 7.01576C4.10814 7.02952 3.842 7.06391 3.52126 7.0983C3.19371 7.11893 2.54541 7.19459 2.06772 7.24962C1.60368 7.31153 1.20788 7.3528 1.19423 7.33904C1.13964 7.27713 1.8357 6.66497 2.57271 6.12846L3.35748 5.56444L3.48032 5.76391C3.55538 5.88084 3.72599 6.20412 3.86247 6.47925H3.85565ZM8.17533 8.12317C8.07979 8.81788 7.52704 11.5486 7.47927 11.5486C7.4588 11.5486 7.21313 11.0671 6.94016 10.4755C6.6672 9.89089 6.27139 9.07237 6.07349 8.65967C5.86195 8.24698 5.69134 7.89618 5.69134 7.88243C5.69134 7.86179 6.16903 7.84116 7.69764 7.79301L8.22993 7.77925L8.18216 8.12317H8.17533Z" fill="#22232D"/>
</g>
<defs>
<clipPath id="clip0_28_692">
<rect width="13" height="13" fill="white"/>
</clipPath>
</defs>
</svg>
