<svg xmlns="http://www.w3.org/2000/svg" width="37" height="53" viewBox="0 0 37 53" fill="none">
  <g clipPath="url(#clip0_17_436)">
    <path d="M20.9108 16.6931C21.246 19.1584 21.6478 21.6141 22.0028 24.077C22.2789 25.9904 22.73 27.8576 23.5015 29.6349C23.8836 30.5151 24.3421 31.3757 24.8795 32.1708C25.7225 33.4205 26.8416 34.3249 28.4439 34.4781C28.8531 34.517 29.2574 34.6264 29.706 34.7139C29.8145 36.3332 29.9131 37.9135 30.024 39.4914C30.1275 40.9405 30.2384 42.3871 30.3543 43.8337C30.48 45.4311 30.586 47.0309 30.7561 48.6234C30.8621 49.6178 30.9927 49.5741 29.9007 49.7321C29.0602 49.8537 28.2615 50.0944 27.522 50.5125C27.0043 50.8043 26.6321 51.2176 26.4497 51.7865C26.25 52.4017 26.4546 52.8028 27.1054 52.8977C27.6871 52.9827 28.2886 53.0289 28.8728 52.9876C29.9969 52.9098 31.116 52.7664 32.2351 52.6375C33.6747 52.4722 35.0428 52.0807 36.2999 51.3538C36.6327 51.1617 37.0173 50.9818 36.9975 50.5369C36.9754 50.0433 36.5267 49.8998 36.1496 49.822C35.4988 49.6859 34.8308 49.63 34.1702 49.557C33.931 49.5303 33.687 49.5522 33.4035 49.5522C32.7232 44.3954 32.4964 39.2799 32.1562 34.0866C32.2129 34.0356 32.2967 33.9578 32.3781 33.88C32.4767 33.79 32.5728 33.7001 32.6714 33.6077C34.0346 32.3288 34.9023 30.802 35.1192 28.9371C35.2671 27.6777 35.3386 26.4232 35.2104 25.1565C35.0551 23.6199 34.9565 22.076 34.7544 20.5443C34.5103 18.6941 34.2071 16.8511 33.8891 15.0131C33.6328 13.5275 33.3148 12.0542 33.0239 10.5735C32.8538 9.70796 32.2869 9.24115 31.4414 9.08798C31.01 9.01018 30.5712 8.96398 30.1349 8.94453C28.4069 8.86916 26.6962 9.03206 25.0003 9.34084C23.7776 9.56208 22.5722 9.84412 21.426 10.345C20.6692 10.6781 20.3019 11.1838 20.4005 12.0274C20.5854 13.581 20.6963 15.1419 20.9059 16.6907L20.9108 16.6931ZM32.3115 47.6947C32.3707 48.2928 32.4668 48.8884 32.526 49.4865C32.5383 49.6227 32.4619 49.7661 32.4397 49.9071C32.42 50.0457 32.3584 50.2573 32.42 50.3083C32.5285 50.3958 32.733 50.4396 32.876 50.408C33.8645 50.1989 34.8431 50.2743 35.8168 50.4858C35.8686 50.498 35.9129 50.5344 36.0066 50.583C35.8858 50.673 35.7921 50.7605 35.6837 50.8189C34.7864 51.2979 33.8374 51.6431 32.8243 51.7695C31.4611 51.9397 30.0955 52.0929 28.7274 52.229C28.2221 52.2801 27.7069 52.2679 27.1596 52.1221C27.2656 51.6091 27.5861 51.3197 27.9977 51.0985C28.7299 50.7046 29.5285 50.5247 30.3444 50.4104C30.6846 50.3618 31.0199 50.2889 31.3576 50.2281C31.6263 50.1795 31.7544 50.019 31.7495 49.7564C31.7495 49.6251 31.7372 49.4914 31.7199 49.3625C31.4438 47.364 31.2787 45.3582 31.1628 43.3426C31.0075 40.6536 30.7857 37.9694 30.5983 35.2829C30.586 35.0981 30.5983 34.9109 30.5983 34.692C30.8202 34.6458 31.0346 34.5997 31.2959 34.5437C31.3329 34.748 31.3798 34.906 31.3896 35.0689C31.4833 36.7611 31.5548 38.4557 31.6682 40.1479C31.7692 41.6504 31.9122 43.1506 32.0428 44.6531C32.1291 45.667 32.2154 46.6784 32.3165 47.6898L32.3115 47.6947ZM33.9828 21.2129C34.1529 23.0874 34.4586 24.9547 34.3994 26.8414C34.3698 27.7798 34.3033 28.7281 34.1135 29.6447C33.7881 31.2226 32.8218 32.4334 31.5794 33.4375C31.0125 33.897 30.3321 33.8654 29.6666 33.8071C29.0799 33.7536 28.4907 33.6539 27.9189 33.5153C27.5935 33.4375 27.2755 33.2746 26.9945 33.0922C26.2993 32.64 25.7644 32.0298 25.3257 31.332C24.2263 29.5766 23.578 27.6534 23.1614 25.65C22.9198 24.4927 22.7818 23.3135 22.5821 22.059C22.9518 22.059 23.1983 22.0517 23.4424 22.059C24.1696 22.0833 24.84 21.9058 25.4538 21.5168C25.725 21.3442 26.0134 21.191 26.2895 21.0233C27.2632 20.43 28.3256 20.3279 29.4373 20.4568C29.95 20.5151 30.4628 20.554 30.978 20.5856C31.7199 20.6342 32.4175 20.4811 33.0782 20.1431C33.2852 20.0361 33.5317 20.0021 33.8152 19.917C33.8793 20.3984 33.9508 20.8044 33.9877 21.2129H33.9828ZM22.2641 10.9139C23.4843 10.4568 24.7587 10.2112 26.0405 10.024C27.4012 9.82467 28.7718 9.71769 30.1497 9.77361C30.623 9.79306 31.0963 9.81251 31.5942 10.0216C30.0141 11.2227 22.8951 12.0931 21.4285 11.3126C21.7366 11.1643 21.9905 11.0184 22.2616 10.9163L22.2641 10.9139ZM32.208 10.7923C32.8193 13.5105 33.2137 16.2749 33.6919 19.0174C33.4331 19.0904 33.1891 19.105 33.0116 19.2192C32.0428 19.8441 30.9829 19.759 29.9081 19.6763C29.1686 19.6204 28.4217 19.6009 27.6822 19.6423C27.0487 19.6763 26.462 19.934 25.9173 20.2598C25.688 20.396 25.439 20.5054 25.2271 20.6634C24.4136 21.2688 23.4991 21.2712 22.5081 21.1594C21.9979 18.2297 21.4753 15.3121 21.3126 12.3362C25.0668 12.6814 28.6732 12.2511 32.208 10.7899V10.7923Z" fill="black"/>
    <path d="M28.3354 31.0694C27.1769 30.6634 26.3683 29.8999 25.8359 28.8058C25.0989 27.296 24.522 24.9012 24.5097 22.9659C24.4555 22.9026 24.3643 22.7252 24.2213 22.6571C23.9995 22.5525 23.7924 22.6814 23.7209 22.8978C23.6445 23.1239 23.5853 23.3792 23.6051 23.6126C23.6519 24.1353 23.7234 24.6605 23.8343 25.1759C24.1523 26.6493 24.4752 28.1178 25.2147 29.4672C25.7965 30.5248 26.637 31.2736 27.7364 31.7502C27.9386 31.8377 28.1777 31.8839 28.3971 31.879C28.5154 31.879 28.7101 31.7429 28.7298 31.6407C28.757 31.5046 28.6657 31.332 28.5869 31.1958C28.5474 31.1277 28.4266 31.0986 28.3379 31.0694H28.3354Z" fill="black"/>
    <path d="M32.7331 23.4863C32.4915 23.4863 32.2302 23.7829 32.2179 24.0747C32.2055 24.3324 32.3732 24.5148 32.6221 24.5172C32.8908 24.5172 33.1077 24.2984 33.1275 24.0091C33.1472 23.7197 32.9722 23.4863 32.7331 23.4863Z" fill="black"/>
    <path d="M30.3839 22.4797C30.1472 22.4991 29.9377 22.7034 29.9352 22.9125C29.9352 23.1313 30.1596 23.3379 30.3888 23.3234C30.6328 23.3088 30.8498 23.0608 30.8276 22.8225C30.8079 22.6134 30.6107 22.4602 30.3863 22.4797H30.3839Z" fill="black"/>
    <path d="M29.9451 32.0664C29.7134 32.0858 29.5384 32.2852 29.5384 32.5259C29.5384 32.7666 29.738 32.966 29.9648 32.9562C30.1867 32.9441 30.3641 32.7374 30.3617 32.4894C30.3567 32.2268 30.1817 32.0469 29.9451 32.0664Z" fill="black"/>
    <path d="M31.8111 22.1882C31.5597 22.1809 31.3551 22.3584 31.3502 22.5942C31.3428 22.8276 31.535 23.0148 31.7865 23.0246C32.0428 23.0319 32.24 22.8617 32.245 22.6234C32.2499 22.3827 32.065 22.1979 31.8111 22.1906V22.1882Z" fill="black"/>
    <path d="M32.521 21.7651C32.7577 21.7651 32.95 21.5584 32.9352 21.3226C32.9204 21.094 32.7478 20.9506 32.5087 20.97C32.2943 20.987 32.1118 21.1742 32.1118 21.376C32.1118 21.5827 32.3066 21.7675 32.521 21.7651Z" fill="black"/>
    <path d="M4.85637 6.05117C4.47923 8.50922 4.16617 10.9794 3.8112 13.4399C3.53512 15.3533 3.43652 17.2716 3.67316 19.1899C3.79148 20.1382 3.98622 21.0937 4.27709 22.0054C4.73312 23.4374 5.54905 24.6142 7.04531 25.205C7.42739 25.3557 7.78482 25.5721 8.19155 25.7788C7.83412 27.364 7.48162 28.9079 7.14145 30.4517C6.82839 31.8692 6.52766 33.2915 6.22693 34.7114C5.89415 36.2796 5.54412 37.8429 5.25324 39.4208C5.0733 40.4055 5.21134 40.4006 4.11933 40.2499C3.27876 40.1332 2.44312 40.1453 1.61487 40.3423C1.03312 40.4784 0.559839 40.7751 0.224595 41.2686C-0.140228 41.8035 -0.0588823 42.246 0.540118 42.5159C1.07503 42.759 1.63952 42.9681 2.2114 43.0897C3.31327 43.3255 4.42746 43.4957 5.53919 43.6805C6.96643 43.9187 8.39122 43.9212 9.80614 43.5711C10.1784 43.4787 10.5999 43.413 10.7083 42.9803C10.8267 42.4989 10.4372 42.2387 10.097 42.0588C9.51034 41.75 8.88669 41.5117 8.27043 41.2589C8.04858 41.1665 7.80701 41.1203 7.53585 41.0425C8.34438 35.9052 9.57936 30.9283 10.7256 25.8493C10.7946 25.8152 10.8957 25.7642 10.9967 25.7131C11.1151 25.6523 11.2359 25.594 11.3542 25.5332C13.0255 24.6823 14.29 23.4544 15.0295 21.7234C15.5275 20.5563 15.9539 19.3699 16.1905 18.1202C16.4765 16.6006 16.8216 15.0908 17.0607 13.5663C17.3516 11.7234 17.5833 9.87075 17.8002 8.0181C17.9752 6.52042 18.0886 5.01787 18.2291 3.51776C18.3105 2.64005 17.8988 2.03466 17.1322 1.65294C16.7402 1.45844 16.3311 1.29311 15.9169 1.15453C14.2802 0.605053 12.5916 0.291414 10.8735 0.118792C9.63852 -0.00520475 8.39861 -0.0684187 7.15871 0.09691C6.33785 0.206319 5.83992 0.592896 5.69695 1.42926C5.43319 2.97071 5.09795 4.50243 4.85884 6.04631L4.85637 6.05117ZM7.00834 38.9613C6.89495 39.5521 6.81853 40.1502 6.70514 40.741C6.68049 40.8747 6.56463 40.9914 6.50301 41.1227C6.44385 41.2492 6.32553 41.4364 6.3699 41.502C6.44878 41.6163 6.63366 41.7135 6.77909 41.7257C7.78975 41.7962 8.70428 42.139 9.58182 42.6131C9.62866 42.6374 9.6607 42.6861 9.73466 42.759C9.59168 42.8125 9.47829 42.8708 9.35997 42.8976C8.36164 43.1091 7.35344 43.1796 6.34278 43.0216C4.98456 42.8076 3.63126 42.5791 2.27796 42.3311C1.77756 42.2387 1.28702 42.088 0.801411 41.7962C1.04791 41.3343 1.43739 41.1422 1.89588 41.0449C2.7118 40.8699 3.52773 40.9161 4.34611 41.0328C4.68629 41.0814 5.02893 41.1033 5.37156 41.1373C5.64272 41.1665 5.81034 41.0449 5.88182 40.7921C5.91633 40.6656 5.94345 40.5344 5.96317 40.4055C6.26637 38.4118 6.67556 36.4376 7.13406 34.4731C7.74785 31.8497 8.29755 29.2093 8.87683 26.5787C8.91627 26.3988 8.98036 26.2213 9.04198 26.0122C9.26877 26.0292 9.48815 26.0438 9.75191 26.0632C9.72972 26.2699 9.72972 26.4352 9.69275 26.5933C9.30328 28.2441 8.89162 29.8901 8.5194 31.5458C8.18909 33.0168 7.90314 34.4974 7.59994 35.9732C7.39535 36.9701 7.19075 37.9669 7.00094 38.9662L7.00834 38.9613ZM16.124 13.9991C15.7542 15.8445 15.5201 17.7239 14.926 19.5182C14.6302 20.4105 14.2974 21.3027 13.8562 22.1318C13.0969 23.559 11.825 24.4513 10.346 25.0737C9.67303 25.3582 9.02473 25.1418 8.40601 24.8986C7.85631 24.6847 7.3214 24.427 6.81114 24.1352C6.52026 23.9699 6.26144 23.7268 6.04205 23.4739C5.50221 22.8491 5.16204 22.1148 4.94019 21.3222C4.38062 19.3334 4.30667 17.3081 4.47183 15.2707C4.56797 14.0915 4.7701 12.922 4.93526 11.6651C5.29022 11.7672 5.52933 11.828 5.76104 11.9033C6.45371 12.127 7.14638 12.144 7.84645 11.9374C8.15704 11.845 8.47503 11.7793 8.78809 11.6942C9.89242 11.3927 10.9401 11.5897 11.9704 12.0176C12.4437 12.2145 12.9293 12.3944 13.4125 12.5671C14.1101 12.8175 14.8225 12.8637 15.5546 12.7227C15.7838 12.6789 16.0303 12.7105 16.3261 12.7081C16.2522 13.1895 16.2029 13.5979 16.124 13.9991ZM7.79715 0.877359C9.09868 0.775244 10.3904 0.891946 11.6771 1.06457C13.0403 1.24935 14.3862 1.52409 15.6926 1.95686C16.1413 2.10517 16.5923 2.25591 17.0089 2.59143C15.1503 3.30866 8.07076 2.18054 6.88262 1.02567C7.22033 0.969748 7.50627 0.89924 7.79468 0.874927L7.79715 0.877359ZM17.3787 3.5056C17.1938 6.28458 16.7896 9.04654 16.4691 11.8134C16.2004 11.8134 15.9613 11.7599 15.7592 11.8207C14.6524 12.1537 13.659 11.7793 12.6483 11.4049C11.9556 11.1472 11.2432 10.9235 10.521 10.7582C9.90228 10.6172 9.26877 10.6998 8.65004 10.8652C8.39122 10.9332 8.12253 10.9673 7.87356 11.0621C6.92206 11.4195 6.03959 11.1691 5.1226 10.7874C5.46523 7.83575 5.79062 4.88901 6.47836 1.98603C9.98609 3.35243 13.5678 3.93594 17.3762 3.50803L17.3787 3.5056Z" fill="black"/>
    <path d="M7.9078 21.9012C6.90947 21.1913 6.35237 20.2358 6.15024 19.0371C5.87169 17.3838 5.99494 14.9258 6.53232 13.0634C6.49781 12.988 6.46083 12.7911 6.34251 12.6866C6.1601 12.5237 5.92346 12.5917 5.79281 12.7789C5.65477 12.9759 5.52659 13.202 5.47975 13.433C5.37622 13.9484 5.29734 14.4736 5.2579 14.9963C5.14451 16.4988 5.03852 17.9965 5.36636 19.4966C5.62273 20.6734 6.21926 21.624 7.13872 22.385C7.3088 22.526 7.52326 22.6355 7.73525 22.6914C7.85111 22.723 8.07542 22.6476 8.12226 22.5552C8.18635 22.4312 8.14691 22.2416 8.10994 22.0884C8.09268 22.013 7.98422 21.9523 7.9078 21.8988V21.9012Z" fill="black"/>
    <path d="M14.2799 15.8353C14.0457 15.7696 13.7154 15.9812 13.6193 16.2559C13.5354 16.499 13.6439 16.7227 13.8806 16.7908C14.1369 16.8662 14.4081 16.7154 14.5091 16.4431C14.6102 16.1684 14.5091 15.8985 14.2799 15.8329V15.8353Z" fill="black"/>
    <path d="M12.3079 14.2205C12.0762 14.1743 11.8149 14.3104 11.7557 14.5122C11.6916 14.7213 11.8518 14.9815 12.0737 15.0325C12.3128 15.086 12.5889 14.9085 12.6357 14.6727C12.6752 14.466 12.5297 14.2667 12.3079 14.2205Z" fill="black"/>
    <path d="M9.16742 23.3038C8.94064 23.2601 8.71386 23.4011 8.6473 23.6321C8.58075 23.863 8.71386 24.111 8.93324 24.1621C9.15017 24.2131 9.37941 24.0624 9.44597 23.8241C9.51745 23.5713 9.39913 23.3476 9.16496 23.3038H9.16742Z" fill="black"/>
    <path d="M13.7622 14.3352C13.5207 14.2598 13.2766 14.3741 13.2051 14.5977C13.1336 14.8214 13.2618 15.0524 13.5009 15.1302C13.745 15.208 13.9816 15.0986 14.0556 14.8725C14.1295 14.6439 14.0038 14.413 13.7622 14.3376V14.3352Z" fill="black"/>
    <path d="M14.5634 14.126C14.7901 14.1892 15.0342 14.0457 15.0884 13.8148C15.1402 13.5935 15.0145 13.4063 14.7803 13.3577C14.5683 13.3139 14.3415 13.4428 14.2824 13.6373C14.2257 13.8342 14.3588 14.0676 14.5634 14.1235V14.126Z" fill="black"/>
  </g>
  <defs>
    <clipPath id="clip0_17_436">
      <rect width="37" height="53" fill="white"/>
    </clipPath>
  </defs>
</svg>