<svg width="67" height="54" viewBox="0 0 67 54" fill="none" xmlns="http://www.w3.org/2000/svg">
<mask id="path-1-outside-1_314_45" maskUnits="userSpaceOnUse" x="-1.01887" y="-1.21399" width="43.2183" height="54.2584" fill="black">
<rect fill="white" x="-1.01887" y="-1.21399" width="43.2183" height="54.2584"/>
<path d="M35.1646 36.2444C36.1684 29.8518 36.7037 23.3798 37.9702 17.0418C37.9867 16.959 37.9832 16.8837 37.9711 16.8146C38.0672 16.7591 38.1676 16.7005 38.261 16.6401C38.8497 16.2644 39.6343 15.4808 39.405 14.6276C39.2794 14.1632 38.935 13.8325 38.8341 13.3368C38.741 12.8761 38.7378 12.3915 38.6176 11.9367C38.3954 11.0852 37.7099 10.6106 37.0031 10.317C36.5319 10.1212 35.9459 9.85246 35.3868 9.80105C35.3512 9.62709 35.3106 9.46018 35.2656 9.29637C34.9525 8.19565 34.4466 6.98663 33.5573 6.34733C32.4003 5.51148 30.9364 5.25129 29.5979 5.02946C28.2163 4.80142 26.7421 4.66697 25.3415 4.75695C23.9593 4.84721 22.583 4.9637 21.2012 5.10781C21.1749 5.10978 21.1451 5.1109 21.1196 5.10892C19.7123 5.17663 18.3175 5.40447 16.9255 5.63711C15.744 5.83342 14.5708 6.00689 13.4018 6.28891C12.272 6.55965 10.9615 6.79118 10.2112 7.88495C9.88785 8.35742 9.80717 8.89223 9.7053 9.45918C9.67542 9.60917 9.64044 9.7662 9.59761 9.92549C9.13965 9.92315 8.62315 10.1218 8.23882 10.2695C7.60231 10.5138 6.85197 10.9955 6.60963 11.748C6.50318 12.0781 6.55318 12.4209 6.54084 12.7612C6.52214 13.2447 6.48548 13.5957 6.32133 14.0485C6.08375 14.7028 5.76227 15.3329 6.04929 16.0262C6.36136 16.7793 7.19385 17.3512 7.8304 17.719C7.88018 17.7474 7.92722 17.7711 7.977 17.7996C7.94188 18.9037 8.27845 20.0348 8.36253 21.1344C8.46335 22.4282 8.51085 23.7299 8.61953 25.0215C8.86378 27.8592 9.33744 30.6403 9.76522 33.4475C10.1676 36.0668 10.6669 38.6638 11.2751 41.2331C11.5697 42.4824 11.8356 43.7455 12.3294 44.9227C12.8231 46.0998 13.5273 46.9263 14.4851 47.6482C16.5063 49.1752 19.1861 49.4748 21.5632 49.7721C23.9368 50.0686 26.4705 50.0064 28.7678 49.201C29.8173 48.8324 30.7648 48.3443 31.6106 47.5505C32.4753 46.7364 33.0809 45.5707 33.4749 44.3915C34.3585 41.7375 34.7326 39.0068 35.1654 36.2405L35.1646 36.2444ZM10.5882 8.86868C10.6413 8.6953 10.7131 8.53884 10.7994 8.4024C12.398 9.10018 14.2062 9.33957 15.9082 9.53693C17.874 9.76451 19.892 9.93429 21.8697 9.9538C22.8919 9.96328 23.9211 10.0117 24.9418 9.9174C25.9519 9.82058 26.9561 9.66034 27.9623 9.50883C28.8426 9.37675 29.7042 9.15332 30.5669 8.90537C31.3677 8.6715 32.3626 8.40976 33.0291 7.82937C33.1676 7.70957 33.0752 7.46822 32.8983 7.52091C32.052 7.76041 31.2586 8.12425 30.3916 8.30087C29.4591 8.49074 28.5223 8.60927 27.584 8.77291C25.6617 9.10583 23.7761 9.19939 21.838 9.25968C19.9629 9.31856 18.0429 9.25085 16.1707 9.12845C14.4118 9.01256 12.542 8.87832 10.8352 8.35307C11.4163 7.49581 12.6308 7.28259 13.5115 7.0555C14.6182 6.77094 15.7287 6.57829 16.8502 6.36759C18.1638 6.12028 19.4755 5.86423 20.8064 5.75337C22.194 5.63548 23.5895 5.62698 24.983 5.60974C26.4581 5.59138 27.9115 5.66296 29.3779 5.83688C29.6021 5.86173 29.8291 5.89137 30.0569 5.91707C30.1769 5.94584 30.2968 5.97462 30.4203 6.00425C31.4447 6.26239 32.6801 6.53805 33.4559 7.39413C33.8231 7.79652 34.0219 8.39425 34.2252 8.91445C34.6547 10.0059 34.9726 11.5089 33.8673 12.195C33.37 12.5016 32.8123 12.7401 32.2805 12.9599C31.2176 13.3956 30.0464 13.5406 28.9257 13.6729C26.5785 13.9493 24.2557 14.0662 21.8977 13.9886C19.4228 13.9036 17.0026 13.6373 14.5593 13.2083C13.3737 12.9984 12.1795 12.7202 11.0659 12.2049C10.4905 11.9386 10.0512 11.5272 10.2033 10.7821C10.3276 10.1585 10.4138 9.4844 10.5929 8.88222L10.5882 8.86868ZM7.74962 11.4259C8.02069 11.1973 8.31996 11.0127 8.63136 10.8599C8.81962 10.7686 9.15691 10.5973 9.45653 10.5037C9.40188 10.7594 9.36292 11.0106 9.37219 11.261C9.42403 12.5223 10.8355 12.712 11.6669 13.0108C13.0088 13.4939 14.3802 13.7733 15.7688 14.0402C17.1108 14.3001 18.4606 14.5578 19.82 14.6564C22.4885 14.8457 25.2401 14.9889 27.9073 14.6651C29.2142 14.5072 30.5741 14.3991 31.8533 14.0278C32.8301 13.7452 34.0643 13.2844 34.8383 12.5354C35.3703 12.0179 35.5209 11.2807 35.4774 10.5341C35.9498 10.6309 36.4586 10.8605 36.8087 11.0147C37.1481 11.1665 37.5793 11.3774 37.8046 11.7127C38.0345 12.0615 38.0472 12.536 38.0533 12.951C38.0552 13.0342 38.0543 13.1125 38.0563 13.1957C37.7464 13.3406 37.5428 13.6391 37.2588 13.8398C36.8014 14.1685 36.1782 14.3829 35.6688 14.5833C34.7786 14.9321 33.8789 15.254 32.9961 15.6212C32.016 16.0312 30.9773 16.2163 29.9554 16.4467C28.8436 16.7011 27.7598 16.9456 26.6203 16.9494C25.5256 16.9515 24.4512 16.9998 23.3558 16.9314C22.2489 16.8644 21.1425 16.814 20.0352 16.7676C17.8725 16.6747 15.6871 16.4358 13.5728 15.9328C12.412 15.6543 11.2511 15.413 10.1017 15.096C9.13495 14.8268 8.1805 14.2918 7.17715 14.2621C7.23683 14.111 7.28671 13.9534 7.32523 13.7972C7.5292 12.9404 6.97841 12.068 7.74609 11.4251L7.74962 11.4259ZM7.70926 16.991C7.38395 16.7682 6.75683 16.3531 6.61121 15.9335C6.45266 15.4861 6.7583 15.121 6.95259 14.7582C6.99459 14.6773 7.03659 14.5964 7.07585 14.5107C8.93471 15.3123 10.8054 15.943 12.7629 16.4167C13.81 16.672 14.8657 16.9956 15.9428 17.0637C17.0241 17.1288 18.1091 17.1202 19.1865 17.1678C20.3008 17.2159 21.4269 17.2048 22.5412 17.2157C23.6959 17.228 24.8428 17.2798 26.0011 17.2185C27.0919 17.1618 28.1553 17.1315 29.2423 16.9456C30.3328 16.7606 31.4127 16.5358 32.4946 16.3197C33.5267 16.1124 34.5593 15.81 35.5581 15.4541C36.1072 15.2591 36.6668 15.0667 37.2006 14.8184C37.4532 14.7011 37.6885 14.5591 37.9089 14.3804C37.9976 14.3065 38.0992 14.1862 38.1981 14.0982C38.2999 14.3294 38.466 14.5347 38.531 14.7653C38.7626 15.6066 37.2802 16.1815 36.7774 16.4042C35.3742 17.027 33.9991 17.6566 32.5207 18.0257C30.9882 18.4066 29.3801 18.6288 27.8222 18.7844C24.6767 19.0968 21.4802 19.2936 18.3259 19.2235C16.6987 19.1888 15.0606 19.2094 13.4492 18.9469C11.881 18.6906 10.3195 18.2706 8.85226 17.6002C8.46576 17.4247 8.0675 17.2341 7.70926 16.991ZM33.6863 40.7326C33.1078 43.1165 32.3886 46.0209 30.34 47.3408C29.3174 48.0012 28.1837 48.4033 27.0308 48.6603C25.87 48.9194 24.6899 48.8679 23.5155 48.8799C22.2745 48.8923 21.0478 48.7221 19.8218 48.5107C18.639 48.3056 17.4099 48.0728 16.2817 47.6119C15.2837 47.2029 14.1714 46.4026 13.5524 45.427C12.8915 44.3834 12.5645 43.0933 12.2672 41.8764C11.6671 39.433 11.1238 36.9827 10.6876 34.4959C10.1635 31.5042 9.69191 28.5086 9.37209 25.4749C9.22973 24.1298 9.16971 22.7796 9.01166 21.439C8.93439 20.7877 8.83085 20.1384 8.72652 19.493C8.64719 19.0191 8.50278 18.5378 8.44345 18.0563C9.06984 18.3637 9.72097 18.6026 10.3737 18.8336C12.2205 19.4917 14.053 19.7576 15.98 19.9014C19.8518 20.1933 23.7603 20.0225 27.628 19.6849C29.471 19.5273 31.3818 19.2702 33.181 18.7755C34.1433 18.5101 35.0751 18.1753 35.9917 17.75C36.3294 17.5953 36.6733 17.4462 37.0137 17.2963C36.7833 18.4527 36.5517 19.6337 36.4084 20.7986C36.3252 21.4569 36.3002 22.1209 36.2022 22.7797C36.1042 23.4386 35.9638 24.0873 35.88 24.7496C35.5523 27.3963 35.2959 30.056 34.9674 32.7067C34.7941 34.096 34.5628 35.4797 34.3499 36.8637C34.1527 38.1687 33.9963 39.4546 33.6847 40.7405L33.6863 40.7326Z"/>
</mask>
<path d="M35.1646 36.2444C36.1684 29.8518 36.7037 23.3798 37.9702 17.0418C37.9867 16.959 37.9832 16.8837 37.9711 16.8146C38.0672 16.7591 38.1676 16.7005 38.261 16.6401C38.8497 16.2644 39.6343 15.4808 39.405 14.6276C39.2794 14.1632 38.935 13.8325 38.8341 13.3368C38.741 12.8761 38.7378 12.3915 38.6176 11.9367C38.3954 11.0852 37.7099 10.6106 37.0031 10.317C36.5319 10.1212 35.9459 9.85246 35.3868 9.80105C35.3512 9.62709 35.3106 9.46018 35.2656 9.29637C34.9525 8.19565 34.4466 6.98663 33.5573 6.34733C32.4003 5.51148 30.9364 5.25129 29.5979 5.02946C28.2163 4.80142 26.7421 4.66697 25.3415 4.75695C23.9593 4.84721 22.583 4.9637 21.2012 5.10781C21.1749 5.10978 21.1451 5.1109 21.1196 5.10892C19.7123 5.17663 18.3175 5.40447 16.9255 5.63711C15.744 5.83342 14.5708 6.00689 13.4018 6.28891C12.272 6.55965 10.9615 6.79118 10.2112 7.88495C9.88785 8.35742 9.80717 8.89223 9.7053 9.45918C9.67542 9.60917 9.64044 9.7662 9.59761 9.92549C9.13965 9.92315 8.62315 10.1218 8.23882 10.2695C7.60231 10.5138 6.85197 10.9955 6.60963 11.748C6.50318 12.0781 6.55318 12.4209 6.54084 12.7612C6.52214 13.2447 6.48548 13.5957 6.32133 14.0485C6.08375 14.7028 5.76227 15.3329 6.04929 16.0262C6.36136 16.7793 7.19385 17.3512 7.8304 17.719C7.88018 17.7474 7.92722 17.7711 7.977 17.7996C7.94188 18.9037 8.27845 20.0348 8.36253 21.1344C8.46335 22.4282 8.51085 23.7299 8.61953 25.0215C8.86378 27.8592 9.33744 30.6403 9.76522 33.4475C10.1676 36.0668 10.6669 38.6638 11.2751 41.2331C11.5697 42.4824 11.8356 43.7455 12.3294 44.9227C12.8231 46.0998 13.5273 46.9263 14.4851 47.6482C16.5063 49.1752 19.1861 49.4748 21.5632 49.7721C23.9368 50.0686 26.4705 50.0064 28.7678 49.201C29.8173 48.8324 30.7648 48.3443 31.6106 47.5505C32.4753 46.7364 33.0809 45.5707 33.4749 44.3915C34.3585 41.7375 34.7326 39.0068 35.1654 36.2405L35.1646 36.2444ZM10.5882 8.86868C10.6413 8.6953 10.7131 8.53884 10.7994 8.4024C12.398 9.10018 14.2062 9.33957 15.9082 9.53693C17.874 9.76451 19.892 9.93429 21.8697 9.9538C22.8919 9.96328 23.9211 10.0117 24.9418 9.9174C25.9519 9.82058 26.9561 9.66034 27.9623 9.50883C28.8426 9.37675 29.7042 9.15332 30.5669 8.90537C31.3677 8.6715 32.3626 8.40976 33.0291 7.82937C33.1676 7.70957 33.0752 7.46822 32.8983 7.52091C32.052 7.76041 31.2586 8.12425 30.3916 8.30087C29.4591 8.49074 28.5223 8.60927 27.584 8.77291C25.6617 9.10583 23.7761 9.19939 21.838 9.25968C19.9629 9.31856 18.0429 9.25085 16.1707 9.12845C14.4118 9.01256 12.542 8.87832 10.8352 8.35307C11.4163 7.49581 12.6308 7.28259 13.5115 7.0555C14.6182 6.77094 15.7287 6.57829 16.8502 6.36759C18.1638 6.12028 19.4755 5.86423 20.8064 5.75337C22.194 5.63548 23.5895 5.62698 24.983 5.60974C26.4581 5.59138 27.9115 5.66296 29.3779 5.83688C29.6021 5.86173 29.8291 5.89137 30.0569 5.91707C30.1769 5.94584 30.2968 5.97462 30.4203 6.00425C31.4447 6.26239 32.6801 6.53805 33.4559 7.39413C33.8231 7.79652 34.0219 8.39425 34.2252 8.91445C34.6547 10.0059 34.9726 11.5089 33.8673 12.195C33.37 12.5016 32.8123 12.7401 32.2805 12.9599C31.2176 13.3956 30.0464 13.5406 28.9257 13.6729C26.5785 13.9493 24.2557 14.0662 21.8977 13.9886C19.4228 13.9036 17.0026 13.6373 14.5593 13.2083C13.3737 12.9984 12.1795 12.7202 11.0659 12.2049C10.4905 11.9386 10.0512 11.5272 10.2033 10.7821C10.3276 10.1585 10.4138 9.4844 10.5929 8.88222L10.5882 8.86868ZM7.74962 11.4259C8.02069 11.1973 8.31996 11.0127 8.63136 10.8599C8.81962 10.7686 9.15691 10.5973 9.45653 10.5037C9.40188 10.7594 9.36292 11.0106 9.37219 11.261C9.42403 12.5223 10.8355 12.712 11.6669 13.0108C13.0088 13.4939 14.3802 13.7733 15.7688 14.0402C17.1108 14.3001 18.4606 14.5578 19.82 14.6564C22.4885 14.8457 25.2401 14.9889 27.9073 14.6651C29.2142 14.5072 30.5741 14.3991 31.8533 14.0278C32.8301 13.7452 34.0643 13.2844 34.8383 12.5354C35.3703 12.0179 35.5209 11.2807 35.4774 10.5341C35.9498 10.6309 36.4586 10.8605 36.8087 11.0147C37.1481 11.1665 37.5793 11.3774 37.8046 11.7127C38.0345 12.0615 38.0472 12.536 38.0533 12.951C38.0552 13.0342 38.0543 13.1125 38.0563 13.1957C37.7464 13.3406 37.5428 13.6391 37.2588 13.8398C36.8014 14.1685 36.1782 14.3829 35.6688 14.5833C34.7786 14.9321 33.8789 15.254 32.9961 15.6212C32.016 16.0312 30.9773 16.2163 29.9554 16.4467C28.8436 16.7011 27.7598 16.9456 26.6203 16.9494C25.5256 16.9515 24.4512 16.9998 23.3558 16.9314C22.2489 16.8644 21.1425 16.814 20.0352 16.7676C17.8725 16.6747 15.6871 16.4358 13.5728 15.9328C12.412 15.6543 11.2511 15.413 10.1017 15.096C9.13495 14.8268 8.1805 14.2918 7.17715 14.2621C7.23683 14.111 7.28671 13.9534 7.32523 13.7972C7.5292 12.9404 6.97841 12.068 7.74609 11.4251L7.74962 11.4259ZM7.70926 16.991C7.38395 16.7682 6.75683 16.3531 6.61121 15.9335C6.45266 15.4861 6.7583 15.121 6.95259 14.7582C6.99459 14.6773 7.03659 14.5964 7.07585 14.5107C8.93471 15.3123 10.8054 15.943 12.7629 16.4167C13.81 16.672 14.8657 16.9956 15.9428 17.0637C17.0241 17.1288 18.1091 17.1202 19.1865 17.1678C20.3008 17.2159 21.4269 17.2048 22.5412 17.2157C23.6959 17.228 24.8428 17.2798 26.0011 17.2185C27.0919 17.1618 28.1553 17.1315 29.2423 16.9456C30.3328 16.7606 31.4127 16.5358 32.4946 16.3197C33.5267 16.1124 34.5593 15.81 35.5581 15.4541C36.1072 15.2591 36.6668 15.0667 37.2006 14.8184C37.4532 14.7011 37.6885 14.5591 37.9089 14.3804C37.9976 14.3065 38.0992 14.1862 38.1981 14.0982C38.2999 14.3294 38.466 14.5347 38.531 14.7653C38.7626 15.6066 37.2802 16.1815 36.7774 16.4042C35.3742 17.027 33.9991 17.6566 32.5207 18.0257C30.9882 18.4066 29.3801 18.6288 27.8222 18.7844C24.6767 19.0968 21.4802 19.2936 18.3259 19.2235C16.6987 19.1888 15.0606 19.2094 13.4492 18.9469C11.881 18.6906 10.3195 18.2706 8.85226 17.6002C8.46576 17.4247 8.0675 17.2341 7.70926 16.991ZM33.6863 40.7326C33.1078 43.1165 32.3886 46.0209 30.34 47.3408C29.3174 48.0012 28.1837 48.4033 27.0308 48.6603C25.87 48.9194 24.6899 48.8679 23.5155 48.8799C22.2745 48.8923 21.0478 48.7221 19.8218 48.5107C18.639 48.3056 17.4099 48.0728 16.2817 47.6119C15.2837 47.2029 14.1714 46.4026 13.5524 45.427C12.8915 44.3834 12.5645 43.0933 12.2672 41.8764C11.6671 39.433 11.1238 36.9827 10.6876 34.4959C10.1635 31.5042 9.69191 28.5086 9.37209 25.4749C9.22973 24.1298 9.16971 22.7796 9.01166 21.439C8.93439 20.7877 8.83085 20.1384 8.72652 19.493C8.64719 19.0191 8.50278 18.5378 8.44345 18.0563C9.06984 18.3637 9.72097 18.6026 10.3737 18.8336C12.2205 19.4917 14.053 19.7576 15.98 19.9014C19.8518 20.1933 23.7603 20.0225 27.628 19.6849C29.471 19.5273 31.3818 19.2702 33.181 18.7755C34.1433 18.5101 35.0751 18.1753 35.9917 17.75C36.3294 17.5953 36.6733 17.4462 37.0137 17.2963C36.7833 18.4527 36.5517 19.6337 36.4084 20.7986C36.3252 21.4569 36.3002 22.1209 36.2022 22.7797C36.1042 23.4386 35.9638 24.0873 35.88 24.7496C35.5523 27.3963 35.2959 30.056 34.9674 32.7067C34.7941 34.096 34.5628 35.4797 34.3499 36.8637C34.1527 38.1687 33.9963 39.4546 33.6847 40.7405L33.6863 40.7326Z" fill="black"/>
<path d="M35.1646 36.2444C36.1684 29.8518 36.7037 23.3798 37.9702 17.0418C37.9867 16.959 37.9832 16.8837 37.9711 16.8146C38.0672 16.7591 38.1676 16.7005 38.261 16.6401C38.8497 16.2644 39.6343 15.4808 39.405 14.6276C39.2794 14.1632 38.935 13.8325 38.8341 13.3368C38.741 12.8761 38.7378 12.3915 38.6176 11.9367C38.3954 11.0852 37.7099 10.6106 37.0031 10.317C36.5319 10.1212 35.9459 9.85246 35.3868 9.80105C35.3512 9.62709 35.3106 9.46018 35.2656 9.29637C34.9525 8.19565 34.4466 6.98663 33.5573 6.34733C32.4003 5.51148 30.9364 5.25129 29.5979 5.02946C28.2163 4.80142 26.7421 4.66697 25.3415 4.75695C23.9593 4.84721 22.583 4.9637 21.2012 5.10781C21.1749 5.10978 21.1451 5.1109 21.1196 5.10892C19.7123 5.17663 18.3175 5.40447 16.9255 5.63711C15.744 5.83342 14.5708 6.00689 13.4018 6.28891C12.272 6.55965 10.9615 6.79118 10.2112 7.88495C9.88785 8.35742 9.80717 8.89223 9.7053 9.45918C9.67542 9.60917 9.64044 9.7662 9.59761 9.92549C9.13965 9.92315 8.62315 10.1218 8.23882 10.2695C7.60231 10.5138 6.85197 10.9955 6.60963 11.748C6.50318 12.0781 6.55318 12.4209 6.54084 12.7612C6.52214 13.2447 6.48548 13.5957 6.32133 14.0485C6.08375 14.7028 5.76227 15.3329 6.04929 16.0262C6.36136 16.7793 7.19385 17.3512 7.8304 17.719C7.88018 17.7474 7.92722 17.7711 7.977 17.7996C7.94188 18.9037 8.27845 20.0348 8.36253 21.1344C8.46335 22.4282 8.51085 23.7299 8.61953 25.0215C8.86378 27.8592 9.33744 30.6403 9.76522 33.4475C10.1676 36.0668 10.6669 38.6638 11.2751 41.2331C11.5697 42.4824 11.8356 43.7455 12.3294 44.9227C12.8231 46.0998 13.5273 46.9263 14.4851 47.6482C16.5063 49.1752 19.1861 49.4748 21.5632 49.7721C23.9368 50.0686 26.4705 50.0064 28.7678 49.201C29.8173 48.8324 30.7648 48.3443 31.6106 47.5505C32.4753 46.7364 33.0809 45.5707 33.4749 44.3915C34.3585 41.7375 34.7326 39.0068 35.1654 36.2405L35.1646 36.2444ZM10.5882 8.86868C10.6413 8.6953 10.7131 8.53884 10.7994 8.4024C12.398 9.10018 14.2062 9.33957 15.9082 9.53693C17.874 9.76451 19.892 9.93429 21.8697 9.9538C22.8919 9.96328 23.9211 10.0117 24.9418 9.9174C25.9519 9.82058 26.9561 9.66034 27.9623 9.50883C28.8426 9.37675 29.7042 9.15332 30.5669 8.90537C31.3677 8.6715 32.3626 8.40976 33.0291 7.82937C33.1676 7.70957 33.0752 7.46822 32.8983 7.52091C32.052 7.76041 31.2586 8.12425 30.3916 8.30087C29.4591 8.49074 28.5223 8.60927 27.584 8.77291C25.6617 9.10583 23.7761 9.19939 21.838 9.25968C19.9629 9.31856 18.0429 9.25085 16.1707 9.12845C14.4118 9.01256 12.542 8.87832 10.8352 8.35307C11.4163 7.49581 12.6308 7.28259 13.5115 7.0555C14.6182 6.77094 15.7287 6.57829 16.8502 6.36759C18.1638 6.12028 19.4755 5.86423 20.8064 5.75337C22.194 5.63548 23.5895 5.62698 24.983 5.60974C26.4581 5.59138 27.9115 5.66296 29.3779 5.83688C29.6021 5.86173 29.8291 5.89137 30.0569 5.91707C30.1769 5.94584 30.2968 5.97462 30.4203 6.00425C31.4447 6.26239 32.6801 6.53805 33.4559 7.39413C33.8231 7.79652 34.0219 8.39425 34.2252 8.91445C34.6547 10.0059 34.9726 11.5089 33.8673 12.195C33.37 12.5016 32.8123 12.7401 32.2805 12.9599C31.2176 13.3956 30.0464 13.5406 28.9257 13.6729C26.5785 13.9493 24.2557 14.0662 21.8977 13.9886C19.4228 13.9036 17.0026 13.6373 14.5593 13.2083C13.3737 12.9984 12.1795 12.7202 11.0659 12.2049C10.4905 11.9386 10.0512 11.5272 10.2033 10.7821C10.3276 10.1585 10.4138 9.4844 10.5929 8.88222L10.5882 8.86868ZM7.74962 11.4259C8.02069 11.1973 8.31996 11.0127 8.63136 10.8599C8.81962 10.7686 9.15691 10.5973 9.45653 10.5037C9.40188 10.7594 9.36292 11.0106 9.37219 11.261C9.42403 12.5223 10.8355 12.712 11.6669 13.0108C13.0088 13.4939 14.3802 13.7733 15.7688 14.0402C17.1108 14.3001 18.4606 14.5578 19.82 14.6564C22.4885 14.8457 25.2401 14.9889 27.9073 14.6651C29.2142 14.5072 30.5741 14.3991 31.8533 14.0278C32.8301 13.7452 34.0643 13.2844 34.8383 12.5354C35.3703 12.0179 35.5209 11.2807 35.4774 10.5341C35.9498 10.6309 36.4586 10.8605 36.8087 11.0147C37.1481 11.1665 37.5793 11.3774 37.8046 11.7127C38.0345 12.0615 38.0472 12.536 38.0533 12.951C38.0552 13.0342 38.0543 13.1125 38.0563 13.1957C37.7464 13.3406 37.5428 13.6391 37.2588 13.8398C36.8014 14.1685 36.1782 14.3829 35.6688 14.5833C34.7786 14.9321 33.8789 15.254 32.9961 15.6212C32.016 16.0312 30.9773 16.2163 29.9554 16.4467C28.8436 16.7011 27.7598 16.9456 26.6203 16.9494C25.5256 16.9515 24.4512 16.9998 23.3558 16.9314C22.2489 16.8644 21.1425 16.814 20.0352 16.7676C17.8725 16.6747 15.6871 16.4358 13.5728 15.9328C12.412 15.6543 11.2511 15.413 10.1017 15.096C9.13495 14.8268 8.1805 14.2918 7.17715 14.2621C7.23683 14.111 7.28671 13.9534 7.32523 13.7972C7.5292 12.9404 6.97841 12.068 7.74609 11.4251L7.74962 11.4259ZM7.70926 16.991C7.38395 16.7682 6.75683 16.3531 6.61121 15.9335C6.45266 15.4861 6.7583 15.121 6.95259 14.7582C6.99459 14.6773 7.03659 14.5964 7.07585 14.5107C8.93471 15.3123 10.8054 15.943 12.7629 16.4167C13.81 16.672 14.8657 16.9956 15.9428 17.0637C17.0241 17.1288 18.1091 17.1202 19.1865 17.1678C20.3008 17.2159 21.4269 17.2048 22.5412 17.2157C23.6959 17.228 24.8428 17.2798 26.0011 17.2185C27.0919 17.1618 28.1553 17.1315 29.2423 16.9456C30.3328 16.7606 31.4127 16.5358 32.4946 16.3197C33.5267 16.1124 34.5593 15.81 35.5581 15.4541C36.1072 15.2591 36.6668 15.0667 37.2006 14.8184C37.4532 14.7011 37.6885 14.5591 37.9089 14.3804C37.9976 14.3065 38.0992 14.1862 38.1981 14.0982C38.2999 14.3294 38.466 14.5347 38.531 14.7653C38.7626 15.6066 37.2802 16.1815 36.7774 16.4042C35.3742 17.027 33.9991 17.6566 32.5207 18.0257C30.9882 18.4066 29.3801 18.6288 27.8222 18.7844C24.6767 19.0968 21.4802 19.2936 18.3259 19.2235C16.6987 19.1888 15.0606 19.2094 13.4492 18.9469C11.881 18.6906 10.3195 18.2706 8.85226 17.6002C8.46576 17.4247 8.0675 17.2341 7.70926 16.991ZM33.6863 40.7326C33.1078 43.1165 32.3886 46.0209 30.34 47.3408C29.3174 48.0012 28.1837 48.4033 27.0308 48.6603C25.87 48.9194 24.6899 48.8679 23.5155 48.8799C22.2745 48.8923 21.0478 48.7221 19.8218 48.5107C18.639 48.3056 17.4099 48.0728 16.2817 47.6119C15.2837 47.2029 14.1714 46.4026 13.5524 45.427C12.8915 44.3834 12.5645 43.0933 12.2672 41.8764C11.6671 39.433 11.1238 36.9827 10.6876 34.4959C10.1635 31.5042 9.69191 28.5086 9.37209 25.4749C9.22973 24.1298 9.16971 22.7796 9.01166 21.439C8.93439 20.7877 8.83085 20.1384 8.72652 19.493C8.64719 19.0191 8.50278 18.5378 8.44345 18.0563C9.06984 18.3637 9.72097 18.6026 10.3737 18.8336C12.2205 19.4917 14.053 19.7576 15.98 19.9014C19.8518 20.1933 23.7603 20.0225 27.628 19.6849C29.471 19.5273 31.3818 19.2702 33.181 18.7755C34.1433 18.5101 35.0751 18.1753 35.9917 17.75C36.3294 17.5953 36.6733 17.4462 37.0137 17.2963C36.7833 18.4527 36.5517 19.6337 36.4084 20.7986C36.3252 21.4569 36.3002 22.1209 36.2022 22.7797C36.1042 23.4386 35.9638 24.0873 35.88 24.7496C35.5523 27.3963 35.2959 30.056 34.9674 32.7067C34.7941 34.096 34.5628 35.4797 34.3499 36.8637C34.1527 38.1687 33.9963 39.4546 33.6847 40.7405L33.6863 40.7326Z" stroke="black" stroke-width="0.4" mask="url(#path-1-outside-1_314_45)"/>
<path d="M18.7468 31.6673C18.6895 31.9552 18.6934 32.229 18.6973 32.4977C18.6974 32.5031 18.6974 32.5085 18.6975 32.5139C18.5848 33.2066 18.5477 33.924 18.552 34.641L18.552 34.6411C18.5646 36.4328 19.3613 38.1966 20.6019 39.2373C21.9534 40.3717 23.6815 40.6613 25.2717 39.9054L25.2718 39.9053C26.8162 39.1679 27.9208 37.5532 28.5051 35.7148C29.0896 33.8755 29.1592 31.7944 28.6151 30.1049L28.6151 30.1048C28.098 28.504 26.8181 27.2807 25.4469 26.7599C23.9761 26.2004 22.1078 26.803 20.915 27.906M18.7468 31.6673C18.8463 31.1502 19.0301 30.6207 19.267 30.1654L19.2672 30.1651C19.7045 29.3319 20.2477 28.5228 20.915 27.906M18.7468 31.6673C18.7468 31.6672 18.7468 31.6671 18.7469 31.667L18.8441 31.6903L18.7467 31.6677C18.7468 31.6676 18.7468 31.6674 18.7468 31.6673ZM20.915 27.906L20.9831 27.9816L20.915 27.906ZM27.934 34.1316C27.6717 35.706 26.9607 37.3168 25.8725 38.3455L25.8695 38.3448L25.8322 38.3793C24.7017 39.4244 23.1466 39.6212 21.8769 38.9717C21.2258 38.6376 20.6388 38.1023 20.1832 37.4381C20.1769 37.4172 20.1681 37.3972 20.1576 37.378L20.1581 37.3778L20.1523 37.3693C20.1266 37.3313 20.1025 37.2967 20.0792 37.2634C20.0461 37.2159 20.0149 37.1711 19.9837 37.1233C19.7205 36.6816 19.5176 36.1905 19.3871 35.6768C19.3169 35.0806 19.3132 34.4748 19.3368 33.8685L19.3368 33.8681C19.3441 33.6622 19.3432 33.4485 19.3423 33.2351C19.342 33.1584 19.3417 33.0817 19.3418 33.0054C19.342 32.7169 19.3476 32.4315 19.3779 32.1583C19.555 31.3588 19.8534 30.6077 20.2747 29.9888C21.0199 28.8957 21.9224 28.1996 22.962 27.7362C23.2828 27.6272 23.614 27.5644 23.9477 27.5536C24.6692 27.5322 25.2904 27.7203 25.9245 28.108L25.9246 28.1081C26.4788 28.4461 26.8622 28.945 27.278 29.5156L27.2782 29.5158C27.7074 30.1025 27.9364 30.8778 28.0249 31.7005C28.1133 32.5221 28.0607 33.3825 27.934 34.1314L27.934 34.1316Z" fill="black"/>
<path d="M18.7468 31.6673C18.6895 31.9552 18.6934 32.229 18.6973 32.4977C18.6974 32.5031 18.6974 32.5085 18.6975 32.5139C18.5848 33.2066 18.5477 33.924 18.552 34.641L18.552 34.6411C18.5646 36.4328 19.3613 38.1966 20.6019 39.2373C21.9534 40.3717 23.6815 40.6613 25.2717 39.9054L25.2718 39.9053C26.8162 39.1679 27.9208 37.5532 28.5051 35.7148C29.0896 33.8755 29.1592 31.7944 28.6151 30.1049L28.6151 30.1048C28.098 28.504 26.8181 27.2807 25.4469 26.7599C23.9761 26.2004 22.1078 26.803 20.915 27.906M18.7468 31.6673C18.8463 31.1502 19.0301 30.6207 19.267 30.1654L19.2672 30.1651C19.7045 29.3319 20.2477 28.5228 20.915 27.906M18.7468 31.6673C18.7468 31.6672 18.7468 31.6671 18.7469 31.667L18.8441 31.6903L18.7467 31.6677C18.7468 31.6676 18.7468 31.6674 18.7468 31.6673ZM20.915 27.906L20.9831 27.9816L20.915 27.906ZM27.934 34.1316C27.6717 35.706 26.9607 37.3168 25.8725 38.3455L25.8695 38.3448L25.8322 38.3793C24.7017 39.4244 23.1466 39.6212 21.8769 38.9717C21.2258 38.6376 20.6388 38.1023 20.1832 37.4381C20.1769 37.4172 20.1681 37.3972 20.1576 37.378L20.1581 37.3778L20.1523 37.3693C20.1266 37.3313 20.1025 37.2967 20.0792 37.2634C20.0461 37.2159 20.0149 37.1711 19.9837 37.1233C19.7205 36.6816 19.5176 36.1905 19.3871 35.6768C19.3169 35.0806 19.3132 34.4748 19.3368 33.8685L19.3368 33.8681C19.3441 33.6622 19.3432 33.4485 19.3423 33.2351C19.342 33.1584 19.3417 33.0817 19.3418 33.0054C19.342 32.7169 19.3476 32.4315 19.3779 32.1583C19.555 31.3588 19.8534 30.6077 20.2747 29.9888C21.0199 28.8957 21.9224 28.1996 22.962 27.7362C23.2828 27.6272 23.614 27.5644 23.9477 27.5536C24.6692 27.5322 25.2904 27.7203 25.9245 28.108L25.9246 28.1081C26.4788 28.4461 26.8622 28.945 27.278 29.5156L27.2782 29.5158C27.7074 30.1025 27.9364 30.8778 28.0249 31.7005C28.1133 32.5221 28.0607 33.3825 27.934 34.1314L27.934 34.1316Z" fill="black" fill-opacity="0.2"/>
<path d="M18.7468 31.6673C18.6895 31.9552 18.6934 32.229 18.6973 32.4977C18.6974 32.5031 18.6974 32.5085 18.6975 32.5139C18.5848 33.2066 18.5477 33.924 18.552 34.641L18.552 34.6411C18.5646 36.4328 19.3613 38.1966 20.6019 39.2373C21.9534 40.3717 23.6815 40.6613 25.2717 39.9054L25.2718 39.9053C26.8162 39.1679 27.9208 37.5532 28.5051 35.7148C29.0896 33.8755 29.1592 31.7944 28.6151 30.1049L28.6151 30.1048C28.098 28.504 26.8181 27.2807 25.4469 26.7599C23.9761 26.2004 22.1078 26.803 20.915 27.906M18.7468 31.6673C18.8463 31.1502 19.0301 30.6207 19.267 30.1654L19.2672 30.1651C19.7045 29.3319 20.2477 28.5228 20.915 27.906M18.7468 31.6673C18.7468 31.6672 18.7468 31.6671 18.7469 31.667L18.8441 31.6903L18.7467 31.6677C18.7468 31.6676 18.7468 31.6674 18.7468 31.6673ZM20.915 27.906L20.9831 27.9816L20.915 27.906ZM27.934 34.1316C27.6717 35.706 26.9607 37.3168 25.8725 38.3455L25.8695 38.3448L25.8322 38.3793C24.7017 39.4244 23.1466 39.6212 21.8769 38.9717C21.2258 38.6376 20.6388 38.1023 20.1832 37.4381C20.1769 37.4172 20.1681 37.3972 20.1576 37.378L20.1581 37.3778L20.1523 37.3693C20.1266 37.3313 20.1025 37.2967 20.0792 37.2634C20.0461 37.2159 20.0149 37.1711 19.9837 37.1233C19.7205 36.6816 19.5176 36.1905 19.3871 35.6768C19.3169 35.0806 19.3132 34.4748 19.3368 33.8685L19.3368 33.8681C19.3441 33.6622 19.3432 33.4485 19.3423 33.2351C19.342 33.1584 19.3417 33.0817 19.3418 33.0054C19.342 32.7169 19.3476 32.4315 19.3779 32.1583C19.555 31.3588 19.8534 30.6077 20.2747 29.9888C21.0199 28.8957 21.9224 28.1996 22.962 27.7362C23.2828 27.6272 23.614 27.5644 23.9477 27.5536C24.6692 27.5322 25.2904 27.7203 25.9245 28.108L25.9246 28.1081C26.4788 28.4461 26.8622 28.945 27.278 29.5156L27.2782 29.5158C27.7074 30.1025 27.9364 30.8778 28.0249 31.7005C28.1133 32.5221 28.0607 33.3825 27.934 34.1314L27.934 34.1316Z" stroke="black" stroke-width="0.2"/>
<path d="M23.5006 35.0665L23.5026 35.0675C23.9847 34.421 24.3255 33.6843 24.3283 32.7727C24.3318 32.067 24.2163 31.2113 23.9696 30.4296C23.7239 29.6511 23.3426 28.9293 22.8033 28.5106C22.7649 28.4801 22.7183 28.4708 22.6766 28.4853C22.6399 28.4981 22.6165 28.5258 22.6032 28.5502C22.5803 28.5925 22.5627 28.6807 22.6284 28.7503L22.6952 28.682M23.5006 35.0665L23.5669 31.2477L23.6627 31.235M23.5006 35.0665C23.3565 35.2588 23.1994 35.4313 23.0433 35.5988C23.0207 35.623 22.9981 35.6472 22.9756 35.6712C22.8408 35.8153 22.7082 35.9571 22.5829 36.1092L22.5828 36.1093C22.3072 36.4422 22.1708 36.7844 22.143 37.1429C22.1151 37.5026 22.1959 37.8872 22.368 38.3061L22.2785 38.3391M23.5006 35.0665L22.2785 38.3391M22.6952 28.682C23.271 29.3045 23.4625 30.2483 23.641 31.1284C23.6482 31.1641 23.6554 31.1996 23.6627 31.235M22.6952 28.682L22.6276 28.7494C22.9114 29.0562 23.1004 29.4496 23.2416 29.8851C23.3721 30.2878 23.4595 30.7186 23.5455 31.1421C23.5526 31.1774 23.5598 31.2126 23.5669 31.2477M22.6952 28.682C22.6563 28.6408 22.7011 28.5515 22.7488 28.5901L22.9235 34.4311M23.6627 31.235C23.9133 32.4677 23.6206 33.5508 22.9235 34.4311M23.6627 31.235L23.5669 31.2477M22.9235 34.4311L22.8459 34.3622C22.8459 34.3622 22.8458 34.3622 22.8458 34.3622M22.9235 34.4311L23.5669 31.2477M22.9235 34.4311L22.8458 34.3622M22.9235 34.4311C22.8062 34.5791 22.679 34.7228 22.5507 34.8677C22.169 35.2989 21.777 35.7417 21.6034 36.3443C21.3806 37.1214 21.6479 37.8962 22.0221 38.5379M23.5669 31.2477C23.811 32.4479 23.5271 33.5018 22.8458 34.3622M22.8458 34.3622C22.731 34.507 22.6063 34.648 22.4786 34.7923L22.4754 34.7959C22.3492 34.9385 22.2201 35.0843 22.0981 35.2371C21.8519 35.5456 21.6302 35.8878 21.5094 36.3073L21.5094 36.3074C21.2752 37.1239 21.5585 37.9315 21.9396 38.585M21.9396 38.585C21.9395 38.585 21.9395 38.5849 21.9395 38.5849L22.0221 38.5379M21.9396 38.585C21.9817 38.6576 22.042 38.7085 22.114 38.7235C22.1837 38.7379 22.2466 38.715 22.2925 38.6779C22.383 38.6046 22.4312 38.4574 22.3678 38.3055L22.2785 38.3391M21.9396 38.585C21.9396 38.585 21.9396 38.5851 21.9396 38.5851L22.0221 38.5379M22.0221 38.5379C22.1413 38.7435 22.3672 38.5516 22.2785 38.3391" fill="black" stroke="black" stroke-width="0.2"/>
<path d="M22.8087 37.3743C22.7425 37.0397 22.7098 36.7666 22.7313 36.5004C22.7528 36.233 22.8285 35.979 22.9701 35.68C23.2645 35.0509 23.6073 34.4837 24.0159 33.9494C24.5718 33.2217 24.8479 32.5079 24.7791 31.5037L24.7791 31.5037C24.7144 30.5517 24.514 29.6019 23.774 29.1261L23.82 29.0406M22.8087 37.3743L23.82 29.0406M22.8087 37.3743C22.8153 37.409 22.835 37.4444 22.8697 37.4667C22.9022 37.4877 22.936 37.4897 22.9613 37.4843C23.0096 37.4741 23.0582 37.4289 23.0543 37.3567M22.8087 37.3743L22.9565 37.3529M23.82 29.0406L23.776 29.1273C23.6839 29.0708 23.6735 28.9677 23.6922 28.9044C23.7105 28.8426 23.7741 28.7651 23.8786 28.7933M23.82 29.0406C23.7484 28.9966 23.7868 28.8713 23.8625 28.8921M23.8786 28.7933C23.8789 28.7934 23.8793 28.7935 23.8796 28.7936L23.8625 28.8921M23.8786 28.7933C23.8784 28.7933 23.8782 28.7932 23.878 28.7932L23.8625 28.8921M23.8786 28.7933C24.1833 28.872 24.4513 29.1163 24.6729 29.3923C24.8966 29.671 25.085 29.9974 25.2277 30.2638L25.2278 30.2639C25.5591 30.8839 25.6508 31.5445 25.6043 32.2263M23.8625 28.8921C24.4054 29.0319 24.8597 29.778 25.1432 30.3074C25.4767 30.9315 25.5601 31.6019 25.4993 32.3039L25.6043 32.2263M25.6043 32.2263C25.5989 32.3042 25.5918 32.3824 25.583 32.4608C25.5829 32.4622 25.5827 32.4636 25.5826 32.465L25.4939 32.4462L25.5512 32.5258L25.5465 32.5294L25.4692 32.5865C25.3197 33.4583 24.7684 34.0884 24.2199 34.7151C23.612 35.4098 23.0077 36.1004 22.9578 37.1117C22.9695 37.187 22.9838 37.2664 23.0006 37.3508L23.001 37.353L23.001 37.353C23.0009 37.3523 23.0007 37.3515 23.0006 37.3508C22.9969 37.3336 22.9854 37.3109 22.9619 37.2958C22.9595 37.2943 22.9572 37.2929 22.9549 37.2917C22.9552 37.312 22.9557 37.3324 22.9565 37.3529M25.6043 32.2263L25.6156 32.2179L25.5873 32.4618C25.4738 33.4412 24.8734 34.1268 24.2987 34.783C24.2591 34.8282 24.2197 34.8733 24.1805 34.9183C23.5653 35.6252 23.0163 36.3222 23.0543 37.3567M23.0543 37.3567C23.0543 37.356 23.0542 37.3553 23.0542 37.3546L22.9954 37.3536L22.9805 37.3533L22.9565 37.3529M23.0543 37.3567C23.0543 37.3571 23.0543 37.3575 23.0544 37.3579L22.9871 37.3544L22.9761 37.3539L22.9565 37.3529" fill="black" stroke="black" stroke-width="0.2"/>
<g clipPath="url(#clip0_314_45)">
<path d="M60.6436 36.1235C60.2332 33.321 59.1527 30.6401 57.7996 28.1679C56.4133 25.636 54.7204 23.2204 52.5122 21.338C49.2926 18.5946 43.5684 16.5801 40.6919 20.5927C40.6623 20.6036 40.631 20.6182 40.6013 20.6364C39.4411 21.3491 38.3434 22.0635 37.5141 23.1778C36.6938 24.2812 36.2585 25.6695 35.9471 26.9945C35.3139 29.6827 35.8756 32.616 36.7544 35.1844C38.3436 39.8286 41.5434 44.5246 45.864 46.9964C47.0039 47.649 48.2658 48.1257 49.5773 48.2764C51.096 48.4508 52.5596 48.097 54.0123 47.6827C54.029 47.6781 54.0425 47.6706 54.0579 47.6654C55.878 47.8595 58.0218 45.7982 58.9876 44.5671C60.7922 42.2685 61.0533 38.9243 60.6431 36.1248L60.6436 36.1235ZM49.8903 47.3743C48.7846 47.2747 47.7298 46.9217 46.7437 46.4214C44.6976 45.3806 42.9807 43.7197 41.5548 41.9447C38.6296 38.3015 36.2371 33.2792 36.6404 28.4907C36.7592 27.0733 37.1919 25.4779 37.9148 24.2447C38.407 23.4043 39.08 22.7838 39.8286 22.2441C39.4878 23.2285 39.4382 24.2636 39.8311 25.2904C40.3851 26.7346 41.4364 27.9217 41.5807 29.5206C41.7095 30.9392 40.9361 32.2701 41.0964 33.6904C41.26 35.1445 42.4361 35.9877 43.6171 36.6505C43.6528 36.6701 43.6868 36.6832 43.7202 36.6945C44.3481 37.0433 44.9999 37.398 45.4717 37.9509C46.0099 38.5822 46.2012 39.314 46.3055 40.1191C46.4644 41.3329 46.8204 42.5013 47.8236 43.2884C48.2344 43.6093 48.7073 43.8361 49.2081 43.9733C49.8536 44.1502 50.4708 44.087 51.1247 44.1512C51.4711 44.1858 51.7378 44.2422 51.8632 44.5884C51.9567 44.8475 51.9259 45.1948 51.9675 45.4656C52.0503 46.0114 52.2772 46.5084 52.6498 46.9189C52.6957 46.9694 52.7438 47.0149 52.7907 47.0599C51.8402 47.2987 50.872 47.4652 49.8892 47.3768L49.8903 47.3743ZM58.8852 43.0832C58.273 44.246 57.1899 45.2976 56.1032 46.0138C55.603 46.3431 55.003 46.6961 54.389 46.7313C53.577 46.7761 53.0141 46.0961 52.8889 45.3468C52.7149 44.306 52.6964 43.4478 51.4482 43.2521C50.8397 43.1572 50.2248 43.2597 49.6175 43.1241C49.0022 42.9866 48.4311 42.6767 48.0187 42.1947C47.0909 41.1103 47.3887 39.6486 46.8381 38.4133C46.2813 37.1651 45.2231 36.4929 44.0748 35.8602C44.048 35.837 44.0188 35.8157 43.9844 35.7966C42.8566 35.1638 41.8823 34.3641 42.0208 32.9521C42.1235 31.9029 42.5345 30.9088 42.5249 29.844C42.5132 28.6533 42.0624 27.5488 41.4969 26.5205C40.9003 25.4377 40.2659 24.3814 40.536 23.0947C40.7897 21.8878 41.5806 20.6468 42.5962 19.946C43.474 19.3408 44.5827 19.1651 45.6296 19.2338C47.8232 19.3784 49.8858 20.4115 51.5772 21.7673C53.6113 23.3973 55.1975 25.5261 56.5122 27.7613C57.8513 30.0391 58.968 32.5252 59.5233 35.1188C59.789 36.3576 59.9413 37.6421 59.8784 38.9113C59.8118 40.2819 59.531 41.8553 58.8857 43.082L58.8852 43.0832Z" fill="black"/>
<path d="M54.7086 37.3217C54.356 37.1536 54.0226 36.9922 53.7024 36.8203C53.7677 36.4848 53.8119 36.1197 53.8496 35.7871C53.8966 35.3776 53.8079 34.997 53.6099 34.6388C53.1193 33.7514 52.1198 33.341 51.8161 32.3288C51.5334 31.3843 51.2317 30.7392 50.4717 30.0839C49.7443 29.4558 48.8474 28.9598 48.5565 27.9795C48.5519 27.9628 48.545 27.9481 48.538 27.9333C48.5962 27.5389 48.7394 27.1484 49.0122 26.7602C49.2248 26.4581 48.784 26.1009 48.5617 26.4017C46.9991 28.505 48.0802 31.3289 49.2115 33.3504C49.8056 34.4116 50.5279 35.3994 51.3758 36.2717C52.2083 37.1286 53.3435 38.0985 54.6185 37.9629C54.9601 37.9263 54.9977 37.4598 54.7086 37.3217ZM50.1372 33.0908C49.624 32.2186 49.2145 31.2789 48.9069 30.3136C48.8102 30.0104 48.7184 29.7094 48.6473 29.4114C48.8514 29.6558 49.0834 29.8828 49.3156 30.1025C49.6769 30.4465 50.0794 30.7624 50.4012 31.1439C50.7574 31.5651 50.8725 32.0144 51.0234 32.5348C51.3088 33.5246 52.0242 33.9608 52.6505 34.709C53.0832 35.2262 53.0163 35.6169 52.9083 36.221C52.9019 36.2566 52.8966 36.2896 52.8921 36.3244C52.541 36.0805 52.2083 35.8002 51.8875 35.4544C51.2212 34.7347 50.6342 33.9355 50.1377 33.0896L50.1372 33.0908Z" fill="black"/>
<path d="M45.0749 22.0993C43.6696 21.938 43.6599 23.4506 43.6604 24.4335C43.661 25.3164 43.7281 26.7661 45.0336 26.5523C46.0363 26.3874 46.2689 25.2229 46.2864 24.3389C46.5439 23.4087 46.1512 22.2231 45.0761 22.0998L45.0749 22.0993ZM45.0367 25.6298C44.4297 25.6209 44.5925 24.8298 44.5932 24.4255C44.5921 24.0014 44.4178 22.8237 45.1941 23.1343C45.5414 23.2737 45.648 23.7017 45.7237 24.0885C45.73 24.5796 45.7352 25.641 45.0384 25.6291L45.0367 25.6298Z" fill="black"/>
<path d="M56.6233 39.5993C56.0122 38.9737 54.9191 38.7206 54.2686 39.4331C53.9624 39.7687 53.8303 40.2744 54.0026 40.7068C54.2084 41.2257 54.7679 41.4733 55.2196 41.7292C55.9845 42.163 57.3856 43.0154 57.8778 41.7072C58.2225 40.7893 57.3537 40.0346 56.622 39.5988L56.6233 39.5993ZM57.0563 41.289C56.7273 41.7091 56.0314 41.1136 55.7001 40.9266C55.3299 40.7171 54.4517 40.3115 55.1707 39.9342C55.4752 39.7744 55.8262 39.8741 56.1521 39.9808C56.5514 40.2012 57.486 40.7398 57.0563 41.289Z" fill="black"/>
<path d="M46.5729 32.0463C46.5132 31.9797 46.4518 31.9137 46.3881 31.8498C46.0477 31.5015 45.576 30.9589 45.0442 30.9733C44.5293 30.986 43.9985 31.5038 43.7716 31.9322C43.4403 32.5573 43.7255 33.0762 44.1482 33.5581C44.9067 34.4232 46.0365 35.454 47.0633 34.3931C47.8244 33.6072 47.3214 32.6423 46.5729 32.0463ZM46.3317 33.8882C45.8113 34.0927 45.1216 33.2556 44.8346 32.9198C44.6161 32.6648 44.4659 32.3182 44.7409 32.0178C45.1239 31.5986 45.4518 32.0034 45.725 32.22C46.1366 32.5457 46.4496 32.872 46.7035 33.3025C46.7534 33.54 46.6682 33.7567 46.3312 33.8894L46.3317 33.8882Z" fill="black"/>
<path d="M55.74 32.3894C55.2739 32.2361 54.6471 32.5453 54.3223 32.873C53.8702 33.3303 53.9845 33.8675 54.22 34.3961C54.4519 34.9158 54.7739 35.5549 55.249 35.89C55.7059 36.2129 56.2363 36.0538 56.6667 35.7712C57.379 35.3028 57.1778 34.4049 56.7457 33.7453C56.7211 33.6892 56.6954 33.6326 56.6685 33.5785C56.4725 33.1742 56.2011 32.5405 55.74 32.3894ZM56.1826 35.0615C55.6867 35.4045 55.2468 34.3915 55.0919 34.0458C54.9788 33.7946 54.8765 33.4185 55.2056 33.2529C55.544 33.0825 55.7338 33.4327 55.8855 33.6519C56.1347 34.0142 56.3088 34.3459 56.417 34.7393C56.3866 34.8587 56.3162 34.9684 56.1831 35.0602L56.1826 35.0615Z" fill="black"/>
<path d="M49.4948 23.231C49.0462 23.6353 49.1289 24.1502 49.2759 24.6763C49.4175 25.184 49.6264 25.8336 50.0247 26.2007C50.4128 26.5575 50.9062 26.5092 51.3631 26.3158C52.1483 25.9829 52.1101 25.0678 51.7886 24.3554C51.759 24.2457 51.7284 24.1385 51.6937 24.034C51.5532 23.6062 51.3858 23.0317 50.9236 22.8624C50.4855 22.7019 49.8285 22.9306 49.4965 23.2303L49.4948 23.231ZM50.9581 24.1511C51.1475 24.5467 51.2596 24.9035 51.3043 25.308C51.2517 25.4312 51.1444 25.5208 50.954 25.5439C50.6182 25.5875 50.5362 25.3392 50.4136 25.0691C50.3025 24.8202 50.1794 24.5411 50.133 24.2712C50.0915 24.0314 50.2012 23.5677 50.5649 23.617C50.7852 23.6477 50.8736 23.9738 50.9586 24.1498L50.9581 24.1511Z" fill="black"/>
<path d="M51.8954 38.8044C51.8072 38.3299 51.7449 37.6707 51.2817 37.4039C50.8737 37.1695 50.201 37.3179 49.8355 37.5724C49.6176 37.7251 49.4945 37.9138 49.4309 38.1249C49.2624 38.0413 49.0714 38.0039 48.8545 38.0305C48.6237 38.0586 48.5386 38.4371 48.7875 38.5109C48.9816 38.5688 49.1045 38.8036 49.2275 38.9973C49.3056 39.1204 49.3875 39.2554 49.452 39.3932C49.6177 40.4157 50.0214 41.5722 51.2771 41.2136C52.1334 40.9685 52.1762 40.0217 51.9572 39.2206C51.9421 39.0803 51.9211 38.9404 51.8954 38.8044ZM50.9209 40.4069C50.4472 40.3608 50.3778 39.2881 50.333 38.9218C50.2965 38.6253 50.2637 38.217 50.6553 38.1252C51.0212 38.0386 51.0451 38.4504 51.1202 38.6943C51.2828 39.2182 51.363 39.6909 51.3447 40.2156C51.2697 40.3498 51.1377 40.4288 50.9204 40.4082L50.9209 40.4069Z" fill="black"/>
<path d="M53.5687 29.7663C54.5741 30.0423 56.0651 30.3299 56.2893 28.9544C56.4455 28.0001 55.5511 27.567 54.69 27.4688C54.5337 27.4256 54.376 27.3892 54.2191 27.3576C53.7322 27.2601 53.1122 27.0853 52.7161 27.4871C52.3982 27.8089 52.2923 28.4184 52.3991 28.8494C52.5442 29.435 53.0377 29.6206 53.5674 29.7657L53.5687 29.7663ZM53.2494 28.1059C53.3782 27.9314 53.8391 28.0487 54.0126 28.0653C54.5167 28.1157 54.9519 28.2175 55.3933 28.4117C55.4561 28.5018 55.4837 28.6092 55.4515 28.7397C55.305 29.3377 53.9836 28.9591 53.6193 28.8081C53.3964 28.7145 53.0047 28.4385 53.2487 28.1042L53.2494 28.1059Z" fill="black"/>
<path d="M47.5275 23.0649C47.7521 22.9033 47.9473 22.766 48.0522 22.4959C48.1492 22.2446 48.128 21.9604 48.0274 21.7145C47.7904 21.1309 47.2057 20.9975 46.784 20.5955C46.5529 20.3733 46.1571 20.7502 46.3761 20.9907C46.6468 21.2887 47.0222 21.5445 47.2056 21.9096C47.29 22.0765 47.2751 22.1423 47.185 22.2848C47.0654 22.4721 47.001 22.6196 47.0127 22.8468C47.0259 23.0981 47.3419 23.2005 47.5269 23.0662L47.5275 23.0649Z" fill="black"/>
<path d="M45.4316 29.0157C45.4046 29.2822 45.2804 29.5146 45.3046 29.7882C45.3179 29.9395 45.4634 30.0252 45.601 30.0192C46.1195 29.9947 46.3329 29.3708 46.2606 28.9311C46.1979 28.5483 45.8878 28.0776 45.5107 27.9461C45.2603 27.8584 45.0052 28.1364 45.1781 28.3676C45.3465 28.5925 45.4617 28.7181 45.4316 29.0157Z" fill="black"/>
<path d="M46.5188 27.4042C46.5667 27.5776 46.562 27.7433 46.6592 27.901C46.7484 28.0464 46.9845 28.0368 47.0808 27.9073C47.263 27.6629 47.2506 27.2825 47.1084 27.0203C46.9636 26.754 46.7022 26.613 46.3998 26.637C46.0655 26.6635 46.0679 27.1809 46.3971 27.2213C46.4051 27.2233 46.4094 27.2236 46.4149 27.2245C46.4186 27.2261 46.4199 27.2266 46.4225 27.2307C46.408 27.2098 46.446 27.2583 46.444 27.256C46.4884 27.3103 46.4982 27.3321 46.5169 27.4019L46.5188 27.4042Z" fill="black"/>
<path d="M47.7363 34.839C47.4804 34.9122 47.5356 35.3506 47.8001 35.3605C47.8026 35.3616 47.8038 35.3621 47.8068 35.3619C47.8235 35.4088 47.863 35.4506 47.8838 35.4948C47.9234 35.5808 47.9612 35.6779 47.989 35.7677C48.0077 35.8272 48.0219 35.8936 48.0213 35.9536C48.0208 36.0785 48.0263 36.2618 48.0313 36.3257C48.0496 36.5615 48.3105 36.6831 48.515 36.61C49.0405 36.4209 49.0059 35.7692 48.7966 35.3444C48.6974 35.1432 48.5358 34.9404 48.3256 34.8448C48.1483 34.7647 47.9167 34.788 47.7345 34.8397L47.7363 34.839Z" fill="black"/>
<path d="M55.6354 30.8896C55.8353 31.0029 55.9682 31.3141 56.0404 31.52C56.1315 31.778 56.1164 32.0334 56.3085 32.2508C56.3858 32.3381 56.5196 32.3997 56.6348 32.3429C57.1192 32.1024 57.0658 31.5118 56.8366 31.0992C56.5966 30.6672 56.2346 30.4936 55.773 30.3952C55.4647 30.3298 55.4037 30.7584 55.6367 30.8902L55.6354 30.8896Z" fill="black"/>
<path d="M56.5993 43.1652C56.4859 42.9285 56.299 42.8502 56.0893 42.7328C55.8369 42.5913 55.6237 42.9431 55.7624 43.1479C55.7737 43.166 55.7821 43.174 55.7885 43.1796C55.7881 43.1839 55.7876 43.1851 55.788 43.1912C55.7898 43.2523 55.8023 43.3091 55.8215 43.3673C55.856 43.4688 55.9029 43.555 55.907 43.6657C55.9092 43.7225 55.9024 43.7799 55.8795 43.8334C55.8556 43.8894 55.7752 44.0537 55.7357 44.081C55.5446 44.2157 55.627 44.5421 55.8603 44.5666C56.0778 44.5903 56.267 44.5872 56.4391 44.4282C56.6038 44.2763 56.6944 44.0193 56.7141 43.8011C56.7327 43.5855 56.6933 43.3612 56.6005 43.1657L56.5993 43.1652Z" fill="black"/>
<path d="M56.3099 37.2264C56.67 37.5007 56.7267 37.9942 56.6983 38.4116C56.6838 38.6349 56.9789 38.8035 57.1293 38.5956C57.5763 37.9713 57.2533 37.1627 56.6832 36.7576C56.371 36.5361 56.003 36.9925 56.3104 37.2252L56.3099 37.2264Z" fill="black"/>
<path d="M58.7945 36.3451C58.8719 37.9978 58.6766 39.5532 58.3756 41.1739C58.3374 41.3768 58.6371 41.4488 58.7171 41.2682C59.4017 39.7361 59.4925 37.9301 59.1141 36.3049C59.0677 36.1041 58.7844 36.1348 58.7945 36.3451Z" fill="black"/>
<path d="M58.5949 35.3919C58.5949 35.3919 58.5959 35.3997 58.5974 35.4033C58.5974 35.4033 58.5974 35.4033 58.5963 35.4058C58.5928 35.4381 58.591 35.4697 58.5923 35.5012C58.5881 35.5626 58.6086 35.6214 58.66 35.6625C58.7236 35.7131 58.8256 35.7184 58.8903 35.6666C58.8926 35.6646 58.8949 35.6626 58.8972 35.6607C58.9796 35.612 59.0292 35.5199 59.0304 35.4174C59.0303 35.3041 58.9866 35.2207 58.9063 35.1438C58.844 35.0834 58.7294 35.0904 58.6628 35.1399C58.592 35.1921 58.5714 35.2819 58.5938 35.3635C58.5931 35.372 58.5942 35.3799 58.5936 35.3914L58.5949 35.3919ZM58.5952 35.3465C58.5962 35.3234 58.5959 35.3276 58.597 35.3561C58.598 35.3536 58.5954 35.3495 58.5952 35.3465Z" fill="black"/>
<path d="M46.4998 36.6769C46.3394 36.6158 46.1973 36.8317 46.3408 36.9429C46.8136 37.311 47.059 37.782 47.2335 38.3434C47.3827 38.8263 47.5787 39.3306 47.6179 39.8373C47.633 40.0291 47.9264 40.0263 47.9509 39.8381C48.089 38.7746 47.5848 37.0899 46.4998 36.6769Z" fill="black"/>
<path d="M41.8122 25.3516C41.5422 24.9658 41.3813 24.5411 41.343 24.0701C41.3068 23.6251 41.4133 23.1896 41.3869 22.7458C41.3762 22.5676 41.1254 22.5533 41.0585 22.6998C40.6501 23.595 40.8011 24.9305 41.5747 25.5813C41.7219 25.7044 41.9175 25.504 41.8122 25.3516Z" fill="black"/>
<path d="M41.4574 22.2949C41.563 22.34 41.7047 22.2901 41.7464 22.1785C41.7882 22.0668 41.7436 21.9374 41.6305 21.8892C41.525 21.8442 41.3833 21.894 41.3415 22.0057C41.2998 22.1173 41.3444 22.2467 41.4574 22.2949Z" fill="black"/>
<path d="M48.589 20.7806C49.6319 21.2374 50.5009 21.8436 51.3421 22.6041C51.4746 22.7239 51.6912 22.5192 51.5699 22.3836C50.8023 21.5191 49.7987 20.8775 48.7138 20.4881C48.5227 20.4198 48.3995 20.6983 48.589 20.7806Z" fill="black"/>
<path d="M38.0896 30.1079C37.9592 29.2608 38.0153 28.4138 37.9272 27.5672C37.9081 27.378 37.6522 27.3998 37.6136 27.5657C37.2316 29.2181 37.7204 31.3758 38.4635 32.8654C38.5584 33.0559 38.8345 32.9457 38.7703 32.7418C38.4963 31.8732 38.23 31.0108 38.0914 30.1072L38.0896 30.1079Z" fill="black"/>
<path d="M39.4712 30.8242C39.4371 30.6493 39.1418 30.6189 39.1352 30.8235C39.0916 32.2024 39.4932 33.6904 40.0396 34.946C40.121 35.1337 40.3841 35.0195 40.3286 34.8295C39.9345 33.4992 39.7359 32.1787 39.4712 30.8242Z" fill="black"/>
<path d="M48.9158 45.4635C47.454 44.5881 46.1833 43.6193 45.0707 42.3177C44.9009 42.1203 44.587 42.3467 44.7438 42.5607C45.7527 43.9401 47.1536 45.1131 48.7567 45.7295C48.9129 45.7903 49.0739 45.5574 48.9163 45.4622L48.9158 45.4635Z" fill="black"/>
<path d="M50.5474 45.7761C50.0402 45.289 49.374 44.8856 48.7863 44.501C48.6043 44.3806 48.4226 44.6135 48.5769 44.7647C49.0809 45.2592 49.7175 45.7942 50.3802 46.0579C50.56 46.1287 50.6784 45.9027 50.5469 45.7774L50.5474 45.7761Z" fill="black"/>
<path d="M47.6237 30.403C47.5712 30.2129 47.242 30.2961 47.2864 30.4915C47.5604 31.7074 48.008 32.9502 48.7253 33.9771C48.8338 34.1323 49.1055 33.9878 49.0187 33.8125C48.4679 32.6948 47.9589 31.6097 47.6237 30.403Z" fill="black"/>
<path d="M49.2598 34.6271C49.3466 34.6509 49.4118 34.5669 49.4317 34.496C49.4606 34.3906 49.38 34.3076 49.3276 34.2308C49.2247 34.0796 48.965 34.2203 49.0453 34.3899C49.0681 34.4364 49.08 34.4841 49.1098 34.5278C49.1496 34.5859 49.1927 34.6088 49.2598 34.6271Z" fill="black"/>
</g>
<g clipPath="url(#clip1_314_45)">
<path d="M40.3658 47.5436C39.7826 47.2224 39.0687 46.9164 38.3836 47.0201C37.7167 47.1212 37.3454 47.5638 37.1336 48.1582C36.8956 48.8208 36.9924 49.5087 37.3009 50.1081C37.4735 50.6266 37.8318 51.2007 38.2633 51.5269C38.802 51.9366 39.5891 52.0707 40.256 51.9644C40.996 51.8481 41.5138 51.5396 41.8328 50.8693C42.4003 49.6781 41.4327 48.1303 40.3658 47.5411V47.5436ZM41.3046 50.9654C40.1435 52.5967 37.8815 51.0261 37.4474 49.6427C37.3349 49.1394 37.382 48.5982 37.5284 48.1076C37.5572 48.0469 37.5886 47.9862 37.6226 47.9255C38.0619 47.1845 38.917 47.316 39.6179 47.5992C40.3004 47.8749 40.8757 48.2416 41.2314 48.8865C41.6001 49.5542 41.7779 50.3054 41.3072 50.968L41.3046 50.9654Z" fill="#332000"/>
<path d="M40.6872 50.3791C40.5826 50.288 40.4493 50.2703 40.3447 50.1793C40.1825 50.0402 40.125 49.7999 40.0675 49.6077C39.989 49.3523 39.9079 49.1348 39.7406 48.9147C39.4817 48.5758 39.1417 48.237 38.6815 48.3482C38.6606 48.3533 38.6632 48.3887 38.6867 48.3862C39.0659 48.3685 39.3196 48.6922 39.5105 48.9653C39.7327 49.284 39.7406 49.5925 39.8713 49.9365C40.0021 50.283 40.2322 50.5258 40.6166 50.5485C40.7029 50.5536 40.7526 50.4347 40.6899 50.3791H40.6872Z" fill="#332000"/>
<path d="M40.1067 50.4523C39.9419 50.3689 39.8112 50.1691 39.6778 50.0451C39.466 49.8504 39.3875 49.686 39.3222 49.4129C39.2385 49.0664 39.1339 48.7604 38.841 48.5277C38.7965 48.4923 38.739 48.5454 38.7782 48.5884C39.1522 48.9956 39.0162 49.5444 39.3143 49.9718C39.4843 50.2146 39.7955 50.4321 40.0884 50.4928C40.1145 50.4979 40.1328 50.4624 40.1067 50.4498V50.4523Z" fill="#332000"/>
</g>
<g clipPath="url(#clip2_314_45)">
<path d="M35.6303 51.9137C36.0242 51.3769 36.4199 50.7085 36.4056 50.0157C36.3915 49.3414 36.0006 48.916 35.4387 48.6291C34.8123 48.3075 34.1177 48.3145 33.4835 48.5431C32.947 48.6472 32.3314 48.9282 31.9522 49.3139C31.4762 49.7952 31.2416 50.5584 31.2607 51.2333C31.2804 51.9822 31.5195 52.5356 32.1428 52.9385C33.2507 53.6552 34.9106 52.8958 35.6328 51.914L35.6303 51.9137ZM32.1158 52.4023C30.6483 51.0401 32.4981 49.0001 33.926 48.7484C34.4396 48.702 34.9702 48.8186 35.4378 49.0272C35.4942 49.0636 35.5504 49.1026 35.6062 49.1441C36.2842 49.6755 36.0433 50.5065 35.6718 51.1648C35.3102 51.806 34.8722 52.3291 34.1867 52.5984C33.477 52.8777 32.7092 52.957 32.113 52.4046L32.1158 52.4023Z" fill="black"/>
<path d="M32.7772 51.8661C32.881 51.7742 32.9158 51.6442 33.0196 51.5523C33.1785 51.4095 33.4242 51.3835 33.6222 51.3513C33.8857 51.3065 34.1118 51.2542 34.3516 51.1167C34.7212 50.9038 35.1012 50.6105 35.0503 50.1397C35.048 50.1183 35.0125 50.1163 35.012 50.14C34.9805 50.5183 34.6268 50.728 34.3312 50.882C33.9865 51.0612 33.6795 51.0291 33.3216 51.1143C32.9611 51.1992 32.6906 51.396 32.6183 51.7742C32.6022 51.8591 32.7136 51.9238 32.7769 51.8687L32.7772 51.8661Z" fill="black"/>
<path d="M32.7795 51.2807C32.8836 51.1281 33.0986 51.0243 33.2387 50.908C33.4592 50.7232 33.6324 50.6666 33.9117 50.6371C34.2661 50.5989 34.583 50.5347 34.8516 50.2744C34.8925 50.2349 34.8472 50.1709 34.7995 50.2043C34.3474 50.5225 33.8208 50.3167 33.3584 50.5571C33.0957 50.6942 32.8398 50.9747 32.7418 51.2573C32.7334 51.2826 32.7661 51.3053 32.782 51.281L32.7795 51.2807Z" fill="black"/>
</g>
<defs>
<clipPath id="clip0_314_45">
<rect width="28.5815" height="26.9003" fill="white" transform="translate(40.5577 15.5703) rotate(23.1086)"/>
</clipPath>
<clipPath id="clip1_314_45">
<rect width="5" height="5" fill="white" transform="translate(37 47)"/>
</clipPath>
<clipPath id="clip2_314_45">
<rect width="5" height="5" fill="white" transform="translate(36.6043 48.6465) rotate(97.4264)"/>
</clipPath>
</defs>
</svg>
