<svg xmlns="http://www.w3.org/2000/svg" width="49" height="45" viewBox="0 0 49 45" fill="none">
  <g clipPath="url(#clip0_17_451)">
    <path d="M11.4134 26.8121C10.5052 26.8121 9.59248 26.699 8.69767 26.4728C5.56135 25.6726 2.98428 23.5589 1.44073 20.5102C-0.0849265 17.4876 -0.411533 13.904 0.523547 10.429C1.45863 6.95412 3.55249 3.9837 6.41142 2.0788C9.29272 0.16085 12.608 -0.45672 15.7443 0.339163C18.8807 1.13939 21.4577 3.25305 22.9968 6.30176C24.5269 9.32438 24.8535 12.908 23.9185 16.3873C22.9789 19.8666 20.8895 22.8326 18.0306 24.7375C15.9725 26.1075 13.6952 26.8164 11.4134 26.8164V26.8121ZM13.033 0.869751C10.9347 0.869751 8.82742 1.52211 6.92146 2.7964C4.23702 4.58387 2.27738 7.37164 1.39152 10.6508C0.510125 13.9257 0.814361 17.2919 2.25054 20.1319C3.67777 22.9457 6.04902 24.9028 8.93032 25.6334C11.8116 26.3684 14.8629 25.7944 17.525 24.0199C20.2094 22.2325 22.1691 19.4447 23.055 16.1655C23.9363 12.8906 23.6321 9.52443 22.1959 6.68448C20.7687 3.87062 18.3975 1.91353 15.5162 1.18289C14.6974 0.974129 13.8652 0.869751 13.033 0.869751Z" fill="black"/>
    <path d="M31.3095 28.1777C30.3163 28.1777 28.1464 27.6819 27.0323 23.6329C26.4596 21.5453 26.6207 19.0707 26.7907 16.4482C27.0279 12.808 27.2739 9.04602 25.5604 6.02776C22.9386 1.39598 16.2901 1.28725 16.223 1.2829C15.9769 1.2829 15.7756 1.08285 15.78 0.843646C15.78 0.604446 15.9814 0.413086 16.2274 0.413086C16.5272 0.413086 23.471 0.521813 26.3523 5.60155C28.1911 8.84162 27.9361 12.734 27.69 16.496C27.5245 19.0446 27.3679 21.454 27.9003 23.4024C29.1128 27.8297 31.5825 27.2817 31.6093 27.2774C31.8464 27.2165 32.0925 27.36 32.1507 27.5949C32.2088 27.8297 32.0657 28.0646 31.8241 28.1211C31.7927 28.1298 31.6004 28.1733 31.3095 28.1733V28.1777Z" fill="black"/>
    <path d="M44.6691 41.3687C44.3514 41.3687 43.8861 41.2774 43.1792 40.999C39.8729 39.6943 32.5757 34.5928 31.1082 27.1385C30.6384 24.7421 30.9874 22.7503 32.1462 21.2237C33.9582 18.8404 37.0721 18.4838 37.2019 18.4708C37.2421 18.4708 37.2869 18.4708 37.3271 18.4708C39.0765 17.8836 41.0988 18.1315 42.4589 19.2144C43.5595 20.093 43.9667 21.3194 43.6087 22.672C42.9466 25.1683 39.8684 27.5299 36.3697 28.2779C36.6113 28.6607 36.8574 29.026 37.0587 29.3043C41.0764 34.8494 48.5078 35.4235 48.5794 35.4278C48.7316 35.4365 48.8702 35.5235 48.9418 35.654C49.0134 35.7845 49.0134 35.9454 48.9418 36.0715C48.6868 36.5151 46.3961 40.4206 45.2284 41.2165C45.1165 41.2904 44.9554 41.3643 44.6691 41.3643V41.3687ZM34.9648 20.0625C34.2311 20.4235 33.4571 20.9628 32.862 21.7456C31.8598 23.0677 31.5645 24.8291 31.9851 26.9732C33.0723 32.5096 37.6717 36.9457 41.6178 39.2463C43.4656 40.3249 44.5393 40.5511 44.7452 40.4902C45.4521 40.0031 46.9867 37.6067 47.8233 36.2194C45.7966 35.941 39.8908 34.7233 36.3294 29.8088C35.8552 29.1521 35.2109 28.1605 34.8351 27.3472C33.0723 23.5461 33.9761 21.2716 34.9693 20.0669L34.9648 20.0625ZM39.2376 19.0361C38.2175 19.0361 37.1706 19.3406 36.3518 19.9494C34.4772 21.3411 34.2221 23.9071 35.6494 26.9819C35.7254 27.1428 35.8104 27.3081 35.9044 27.4821C39.5284 26.8079 42.2263 24.4029 42.7452 22.4545C42.9332 21.7456 42.9376 20.7236 41.8952 19.8886C41.1838 19.3188 40.2219 19.0361 39.2421 19.0361H39.2376Z" fill="black"/>
    <path d="M33.3408 32.1613C33.3139 32.1613 33.2871 32.1613 33.2602 32.1526C28.8667 31.3828 25.7438 29.5823 23.9765 26.8076C21.2921 22.5933 22.7104 17.7137 22.773 17.5049C22.8401 17.2744 23.0907 17.1439 23.3278 17.2092C23.5649 17.2744 23.6991 17.518 23.632 17.7485C23.6186 17.7963 22.2674 22.4803 24.7416 26.3553C26.3746 28.9126 29.2917 30.5739 33.4213 31.2959C33.6629 31.3393 33.824 31.5655 33.7837 31.8004C33.7434 32.0091 33.5555 32.157 33.3452 32.157L33.3408 32.1613Z" fill="black"/>
    <path d="M38.3696 31.944C38.1504 31.944 37.958 31.7874 37.9267 31.57C37.8909 31.3308 38.0609 31.1133 38.307 31.0785C38.9065 30.9959 42.3873 29.9391 44.4857 26.9164C45.5729 25.3551 45.0584 23.6242 44.6557 22.7283C43.9443 21.1539 42.6916 20.0666 42.1055 19.9797C41.8594 19.9449 41.6939 19.7231 41.7297 19.4839C41.7654 19.2447 41.9936 19.0794 42.2397 19.1185C43.3001 19.2751 44.7228 20.7103 45.4744 22.3803C46.2977 24.207 46.2082 25.9901 45.2284 27.4035C42.96 30.6741 39.2331 31.8266 38.4323 31.9396C38.4099 31.9396 38.3875 31.9396 38.3696 31.9396V31.944Z" fill="black"/>
    <path d="M11.5655 26.8339C11.212 26.7991 20.0662 27.9951 22.9743 22.6283L22.8983 18.7881C22.8983 18.7881 20.6254 22.4761 18.1244 24.2984C15.44 26.2555 11.561 26.8339 11.561 26.8339H11.5655Z" fill="black"/>
    <path d="M15.2118 8.60681C14.9971 8.60681 14.7778 8.58071 14.5631 8.52417C13.0553 8.14146 12.1918 6.4801 12.6348 4.81875C12.8495 4.02722 13.3282 3.34876 13.9815 2.91385C14.657 2.46155 15.44 2.31803 16.1827 2.50939C17.6905 2.89211 18.554 4.55346 18.111 6.21481C17.8963 7.00634 17.4175 7.6848 16.7643 8.11971C16.2811 8.44154 15.7487 8.60681 15.2118 8.60681ZM15.5429 3.30092C15.185 3.30092 14.8226 3.414 14.4915 3.6358C14.0128 3.95328 13.6638 4.45343 13.5027 5.04491C13.1806 6.2409 13.7578 7.42386 14.7913 7.6848C15.2789 7.80658 15.7979 7.7109 16.2588 7.40646C16.7375 7.08898 17.0865 6.58883 17.2475 5.99736C17.5697 4.80136 16.9925 3.61841 15.959 3.35311C15.8203 3.31832 15.6816 3.30092 15.5429 3.30092Z" fill="black"/>
    <path d="M12.1829 23.1805C11.9681 23.1805 11.7489 23.1544 11.5342 23.0979C10.0264 22.7152 9.1629 21.0538 9.60583 19.3925C9.82058 18.601 10.2993 17.9225 10.9525 17.4876C11.6281 17.0353 12.4111 16.8918 13.1538 17.0831C13.8965 17.2701 14.5049 17.7703 14.8673 18.4835C15.2163 19.175 15.2924 19.9927 15.0821 20.7885C14.8673 21.5801 14.3886 22.2585 13.7354 22.6934C13.2522 23.0153 12.7198 23.1805 12.1829 23.1805ZM12.514 17.8747C12.156 17.8747 11.7936 17.9877 11.4626 18.2052C10.9838 18.5227 10.6349 19.0228 10.4738 19.6143C10.1517 20.8103 10.7288 21.9932 11.7623 22.2542C12.25 22.376 12.769 22.2803 13.2298 21.9715C13.7085 21.654 14.0575 21.1539 14.2186 20.5624C14.3797 19.9709 14.326 19.3707 14.0665 18.8619C13.8204 18.3791 13.4177 18.0443 12.9301 17.9181C12.7914 17.8834 12.6527 17.866 12.514 17.866V17.8747Z" fill="black"/>
    <path d="M18.5987 16.222C18.3839 16.222 18.1647 16.1959 17.9499 16.1394C16.4422 15.7567 15.5787 14.0953 16.0261 12.434C16.2408 11.6425 16.7196 10.964 17.3728 10.5291C18.0484 10.0768 18.8313 9.93326 19.574 10.1246C20.3167 10.3116 20.9252 10.8118 21.2876 11.525C21.6366 12.2165 21.7126 13.0342 21.5024 13.83C21.2876 14.6216 20.8089 15.3 20.1557 15.7349C19.6725 16.0568 19.14 16.222 18.6032 16.222H18.5987ZM18.9298 10.9162C18.5718 10.9162 18.2094 11.0292 17.8784 11.2467C17.3996 11.5642 17.0507 12.0643 16.8896 12.6558C16.5675 13.8518 17.1446 15.0347 18.1781 15.2957C18.6658 15.4175 19.1848 15.3218 19.6456 15.013C20.1243 14.6955 20.4733 14.1954 20.6344 13.6039C20.7954 13.0124 20.7418 12.4122 20.4867 11.9077C20.2407 11.425 19.838 11.0901 19.3503 10.964C19.2116 10.9292 19.0729 10.9118 18.9342 10.9118L18.9298 10.9162Z" fill="black"/>
    <path d="M4.46512 18.1791C4.25036 18.1791 4.03113 18.153 3.81638 18.0964C2.30862 17.7137 1.44512 16.0524 1.88806 14.391C2.10281 13.5995 2.58154 12.921 3.23475 12.4861C3.91033 12.0338 4.6933 11.8903 5.43599 12.0817C6.17869 12.2687 6.78716 12.7688 7.14956 13.4821C7.49854 14.1736 7.5746 14.9912 7.36432 15.7871C7.14956 16.5786 6.67084 17.2571 6.01762 17.692C5.53442 18.0138 5.00201 18.1791 4.46512 18.1791ZM4.7962 12.8732C4.43828 12.8732 4.07588 12.9863 3.74479 13.2037C3.26607 13.5212 2.91709 14.0213 2.75602 14.6128C2.43389 15.8088 3.01105 16.9918 4.04456 17.2527C4.53223 17.3745 5.05122 17.2788 5.51205 16.97C5.99078 16.6525 6.33975 16.1524 6.50082 15.5609C6.66189 14.9694 6.6082 14.3693 6.3487 13.8604C6.10263 13.3777 5.69996 13.0428 5.21229 12.9167C5.07359 12.8819 4.9349 12.8645 4.7962 12.8645V12.8732Z" fill="black"/>
    <path d="M7.03772 10.4593C6.82297 10.4593 6.60374 10.4333 6.38898 10.3767C4.88122 9.994 4.01772 8.33264 4.46066 6.67129C4.67541 5.87976 5.15414 5.2013 5.80735 4.76639C6.48294 4.31409 7.2659 4.17057 8.00859 4.36193C8.75129 4.54894 9.35976 5.04908 9.72216 5.76233C10.0711 6.45384 10.1472 7.27147 9.93692 8.06735C9.72216 8.85888 9.24344 9.53734 8.59022 9.97225C8.10702 10.2941 7.57461 10.4593 7.03772 10.4593ZM7.3688 5.15346C7.01088 5.15346 6.64848 5.26654 6.3174 5.48399C5.83867 5.80147 5.48969 6.30162 5.32863 6.8931C5.00649 8.0891 5.58365 9.27205 6.61716 9.53299C7.10483 9.65477 7.62382 9.55909 8.08465 9.2503C8.56338 8.93282 8.91236 8.43267 9.07342 7.8412C9.23449 7.24972 9.1808 6.64955 8.9213 6.1407C8.67523 5.65796 8.27256 5.32308 7.78489 5.19695C7.64619 5.16216 7.5075 5.14476 7.3688 5.14476V5.15346Z" fill="black"/>
    <path d="M12.3932 12.4904C12.1918 13.2297 11.4984 13.6951 10.8407 13.5255C10.183 13.3558 9.80716 12.6208 10.0085 11.8815C10.2098 11.1422 10.9033 10.6768 11.561 10.8464C12.2187 11.016 12.5945 11.751 12.3932 12.4904Z" fill="black"/>
    <path d="M14.5184 14.8044C14.3797 15.3219 13.892 15.6481 13.4312 15.5307C12.9703 15.4132 12.7108 14.8957 12.8495 14.3782C12.9882 13.8606 13.4759 13.5344 13.9367 13.6519C14.3976 13.7693 14.6571 14.2825 14.5184 14.8044Z" fill="black"/>
    <path d="M14.845 10.3075C14.7063 10.8251 14.2186 11.1512 13.7578 11.0338C13.2969 10.9164 13.0374 10.4032 13.1761 9.8813C13.3148 9.35941 13.8025 9.03758 14.2633 9.15501C14.7242 9.27243 14.9837 9.78563 14.845 10.3075Z" fill="black"/>
    <path d="M10.0443 15.0912C9.90558 15.6087 9.41791 15.9349 8.95708 15.8175C8.49625 15.7001 8.23675 15.1869 8.37545 14.665C8.51415 14.1431 9.00182 13.8213 9.46265 13.9387C9.92348 14.0561 10.183 14.5737 10.0443 15.0912Z" fill="black"/>
    <path d="M8.55888 11.7731C8.45598 12.1601 8.09358 12.3993 7.74907 12.3123C7.40457 12.2254 7.21219 11.8426 7.31509 11.4556C7.41799 11.0685 7.78039 10.8293 8.1249 10.9163C8.4694 11.0033 8.66178 11.386 8.55888 11.7731Z" fill="black"/>
    <path d="M11.3194 9.52452C11.2165 9.91158 10.8541 10.1508 10.5096 10.0638C10.1651 9.97682 9.97271 9.5941 10.0756 9.20703C10.1785 8.81996 10.5409 8.58076 10.8854 8.66775C11.2299 8.75473 11.4223 9.13745 11.3194 9.52452Z" fill="black"/>
    <path d="M5.82523 9.29387C5.82523 8.56758 7.69091 6.75835 9.25684 6.24951C9.25684 6.24951 10.0756 8.49799 8.58573 9.51133C7.09586 10.5247 5.82523 9.29387 5.82523 9.29387Z" fill="black"/>
    <path d="M13.2074 5.23636C13.8025 5.23636 15.8919 4.94497 17.2341 7.04992C17.2341 7.04992 16.0395 8.42858 14.326 7.99368C12.6124 7.55877 13.2074 5.24071 13.2074 5.24071V5.23636Z" fill="black"/>
    <path d="M18.8 10.4552C18.8 10.4552 19.4935 12.869 18.0663 15.722C18.0663 15.722 15.4624 15.0044 16.4601 12.5471C17.4578 10.0899 18.8 10.4552 18.8 10.4552Z" fill="black"/>
    <path d="M10.2233 20.893C10.523 21.0365 13.1314 21.1844 14.5497 19.5883C14.5497 19.5883 13.5072 16.7614 11.3418 17.5573C9.1808 18.3532 10.2233 20.893 10.2233 20.893Z" fill="black"/>
    <path d="M5.74916 17.3397C5.74916 17.3397 4.40694 16.2524 4.55459 12.6992C4.55459 12.6992 6.49186 12.9167 6.86768 14.2214C7.23903 15.5261 5.74916 17.3397 5.74916 17.3397Z" fill="black"/>
    <path d="M41.0183 19.3706C41.0183 19.3706 35.0543 19.7316 34.5309 23.4283C34.5309 23.4283 33.8016 20.6275 36.9155 18.9357C39.4523 17.5571 41.0183 19.3706 41.0183 19.3706Z" fill="black"/>
    <path d="M39.6045 31.4569C39.5642 31.4569 39.5195 31.4438 39.4837 31.4221C38.0609 30.5392 36.5174 28.2473 36.4547 28.1516C36.3876 28.0515 36.4189 27.9167 36.5218 27.8515C36.6247 27.7862 36.7634 27.8123 36.8305 27.9167C36.844 27.9385 38.3875 30.2261 39.7297 31.0611C39.8326 31.1263 39.864 31.2612 39.7968 31.3612C39.7566 31.4264 39.6805 31.4612 39.6089 31.4612L39.6045 31.4569Z" fill="black"/>
    <path d="M40.2174 30.9653C40.1772 30.9653 40.1369 30.9566 40.1011 30.9349C38.9557 30.2651 37.4122 28.0819 37.3451 27.9905C37.2735 27.8905 37.3003 27.7557 37.4032 27.6861C37.5061 27.6209 37.6448 27.6426 37.7164 27.7426C37.7298 27.7644 39.2689 29.9389 40.3293 30.5608C40.4366 30.6217 40.468 30.7565 40.4053 30.8609C40.3651 30.9305 40.289 30.9653 40.2129 30.9653H40.2174Z" fill="black"/>
    <path d="M31.9986 31.6181C31.9494 31.6181 31.8957 31.6007 31.8554 31.5659C31.5422 31.3137 31.1217 30.0829 30.6071 27.9127C30.5803 27.7953 30.6563 27.6778 30.7771 27.6517C30.8979 27.6256 31.0187 27.6996 31.0456 27.8126C31.5914 30.1177 31.9807 31.0962 32.1462 31.2267C32.2402 31.305 32.2536 31.4398 32.1731 31.5311C32.1283 31.5833 32.0657 31.6094 32.003 31.6094L31.9986 31.6181Z" fill="black"/>
    <path d="M30.3566 30.0956C30.3566 30.0956 30.3118 30.0956 30.2895 30.0869C30.1463 30.0434 26.7505 29.0083 24.7192 25.6377C22.7059 22.302 23.0996 15.574 23.726 15.0695C23.82 14.9912 23.9631 15.0042 24.0392 15.0956C24.1152 15.1869 24.1063 15.3174 24.0213 15.3957C23.6455 15.9088 23.1981 22.2585 25.104 25.4203C27.0458 28.6386 30.3879 29.6607 30.4192 29.6694C30.5355 29.7041 30.6026 29.8259 30.5669 29.939C30.5355 30.0347 30.4505 30.0912 30.3521 30.0912L30.3566 30.0956Z" fill="black"/>
    <path d="M40.7946 29.3737C40.714 29.3737 40.6335 29.3302 40.5932 29.2519C40.5396 29.1432 40.5843 29.0127 40.6917 28.9605C41.6491 28.4952 44.4588 26.4642 45.0494 24.033C45.0763 23.9156 45.1971 23.8417 45.3179 23.8721C45.4387 23.8982 45.5147 24.0156 45.4834 24.133C44.857 26.7164 41.8997 28.8605 40.893 29.3519C40.8617 29.3693 40.8259 29.3737 40.7946 29.3737Z" fill="black"/>
    <path d="M21.6321 2.47878C21.6321 2.47878 21.6008 2.47878 21.5829 2.47444C20.9252 2.33092 19.3012 2.19174 19.0953 2.19174C18.9701 2.19174 18.8716 2.09606 18.8716 1.97429C18.8716 1.85252 18.9701 1.75684 19.0953 1.75684C19.3548 1.75684 21.0058 1.9047 21.6769 2.05257C21.7977 2.07867 21.8737 2.19609 21.8469 2.31352C21.8245 2.41355 21.7306 2.48313 21.6277 2.48313L21.6321 2.47878Z" fill="black"/>
    <path d="M23.2741 3.34855C23.2741 3.34855 23.2383 3.34855 23.2204 3.33986C21.3189 2.86146 20.1691 3.32246 20.1602 3.33116C20.0483 3.379 19.9141 3.33116 19.8649 3.21808C19.8156 3.10935 19.8649 2.97888 19.9812 2.93104C20.0304 2.9093 21.2697 2.40045 23.3323 2.91799C23.4531 2.94844 23.5246 3.06586 23.4933 3.18329C23.4665 3.28332 23.377 3.34421 23.2786 3.34421L23.2741 3.34855Z" fill="black"/>
    <path d="M11.1315 25.2944C10.8183 25.2944 10.5051 25.277 10.1964 25.2422C6.18764 24.7725 3.9864 22.2065 3.3824 20.9105C3.33318 20.8017 3.3824 20.6713 3.49425 20.6234C3.6061 20.5756 3.74032 20.6234 3.78954 20.7322C3.80744 20.767 5.48521 24.2506 10.2501 24.8116C14.5184 25.3117 18.8806 22.0804 20.3973 19.5536C20.4599 19.4492 20.5986 19.4144 20.7015 19.4753C20.8089 19.5362 20.8447 19.671 20.7821 19.771C19.3146 22.2152 15.2745 25.2944 11.136 25.2944H11.1315Z" fill="black"/>
    <path d="M21.6321 17.5573C21.5919 17.5573 21.5471 17.5442 21.5113 17.5225C21.4084 17.4572 21.3771 17.3224 21.4442 17.2224C21.4666 17.1876 23.7484 13.6953 22.093 9.00262C22.0527 8.88954 22.1153 8.76342 22.2317 8.72428C22.348 8.68513 22.4733 8.74602 22.5135 8.8591C24.245 13.7605 21.9185 17.3094 21.82 17.4572C21.7753 17.5225 21.7037 17.5573 21.6321 17.5573Z" fill="black"/>
    <path d="M11.042 24.4419C8.60811 24.4419 6.5053 23.5025 4.79173 21.6542C4.74699 21.6063 4.71567 21.5715 4.6933 21.5498C4.60382 21.4672 4.60382 21.328 4.6933 21.241C4.78278 21.154 4.92148 21.154 5.01096 21.241C5.0378 21.2671 5.0736 21.3063 5.12281 21.3584C6.75137 23.1111 8.74233 24.0027 11.042 24.0027C11.1673 24.0027 11.2657 24.0984 11.2657 24.2201C11.2657 24.3419 11.1673 24.4376 11.042 24.4376V24.4419Z" fill="black"/>
    <path d="M25.717 44.9999C25.5738 44.9999 25.4396 44.9347 25.3501 44.8172L21.3011 39.2548L19.2877 40.8465C19.1311 40.9683 18.9119 40.977 18.7464 40.8639C18.5808 40.7508 18.5137 40.5508 18.5808 40.3638L19.5607 37.6195L12.7466 37.75C12.5274 37.75 12.344 37.6065 12.2992 37.4064C12.2545 37.202 12.3663 36.9976 12.5632 36.9149L17.7129 34.81L16.1022 32.6441C16.0127 32.5224 15.9903 32.3658 16.0485 32.2266C16.1067 32.0875 16.2319 31.9874 16.3841 31.9613L19.3414 31.4394L19.7486 28.2777C19.7709 28.0863 19.9275 27.9341 20.1199 27.9036C20.3212 27.8688 20.5092 27.9732 20.5942 28.1472L22.9833 33.066L27.7169 32.2527C27.9003 32.2179 28.0793 32.3006 28.1732 32.4528C28.2717 32.605 28.2627 32.7964 28.1553 32.9399L25.6185 36.3148L28.3164 37.8152C28.4998 37.9152 28.5848 38.1283 28.5222 38.3197C28.4596 38.5154 28.2672 38.6372 28.0569 38.6241L24.9161 38.3806L26.1465 44.4867C26.1867 44.6868 26.0794 44.8912 25.8825 44.9695C25.8243 44.9912 25.7662 45.0042 25.708 45.0042L25.717 44.9999ZM21.3905 38.1849C21.3905 38.1849 21.4308 38.1849 21.4532 38.1849C21.574 38.2023 21.6858 38.2675 21.7574 38.3632L24.8758 42.6514L23.9363 37.9761C23.9094 37.8413 23.9497 37.7065 24.0437 37.6021C24.1376 37.5021 24.2674 37.4499 24.415 37.4586L26.1465 37.5934L24.755 36.8193C24.6432 36.7584 24.5671 36.654 24.5403 36.5322C24.5134 36.4105 24.5403 36.2843 24.6163 36.1843L26.7952 33.2878L22.8178 33.9706C22.6164 34.0054 22.4196 33.9054 22.3346 33.7271L20.4555 29.8607L20.2004 31.8526C20.1781 32.0396 20.0304 32.1918 19.838 32.2266L17.2565 32.6833L18.7822 34.7317C18.8627 34.8404 18.8851 34.9753 18.8493 35.1057C18.8135 35.2318 18.7195 35.3362 18.5898 35.3884L15.0732 36.828L20.196 36.7279C20.3347 36.7323 20.4823 36.7932 20.5673 36.9062C20.6523 37.0237 20.6747 37.1715 20.6255 37.3064L19.9499 39.1939L21.1132 38.2762C21.1937 38.211 21.2921 38.1805 21.395 38.1805L21.3905 38.1849Z" fill="black"/>
  </g>
  <defs>
    <clipPath id="clip0_17_451">
      <rect width="49" height="45" fill="white"/>
    </clipPath>
  </defs>
</svg>