<svg xmlns="http://www.w3.org/2000/svg" width="36" height="36" viewBox="0 0 36 36" fill="none">
  <g clipPath="url(#clip0_15_585)">
    <path fillRule="evenodd" clipRule="evenodd" d="M0.75908 19.886C-0.223743 14.5963 1.05952 2.89567 15.2058 0.750644C29.0868 -1.35394 35.5015 10.4922 35.436 17.7604C35.372 24.7633 30.7424 33.2399 19.5238 34.5453C8.30684 35.8508 2.20055 27.6379 0.75908 19.886Z" fill="white"/>
    <path d="M17.2131 35.1875C7.48393 35.1875 1.72443 27.8012 0.270171 19.9814C-0.375456 16.5147 -0.00469963 11.3075 2.96454 7.08049C5.56463 3.37765 9.65893 1.07895 15.1324 0.249082C20.7576 -0.603428 25.7676 0.737618 29.619 4.12663C34.0329 8.01065 35.9714 13.7744 35.9347 17.7619C35.8979 21.7171 34.5188 25.5688 32.0481 28.6084C29.1188 32.211 24.8072 34.4369 19.5814 35.0451C18.768 35.1405 17.977 35.1858 17.2131 35.1858V35.1875ZM1.2514 19.7937C2.73442 27.7688 8.93819 35.2683 19.468 34.0422C30.0633 32.8095 34.8719 24.9735 34.9375 17.7539C34.971 13.9976 33.138 8.56227 28.9654 4.89017C25.3394 1.70175 20.609 0.443202 15.281 1.25042C10.0856 2.03822 6.21505 4.19619 3.77797 7.66609C0.990908 11.6342 0.645722 16.5325 1.2514 19.7937Z" fill="#1B1529"/>
    <path d="M8.5226 13.0094C8.00482 13.0094 7.54937 12.8849 7.37358 12.5355C7.24893 12.2863 7.34481 11.9822 7.59092 11.8544C7.79547 11.7477 8.03998 11.7994 8.187 11.9644C8.5226 12.0712 9.81865 11.9612 10.6864 11.2753C11.2921 10.7965 11.5126 10.1785 11.3576 9.38586C11.3049 9.11247 11.4807 8.84556 11.7507 8.79217C12.0224 8.73879 12.2845 8.91674 12.3372 9.19012C12.6505 10.7981 11.8083 12.1213 10.0823 12.7263C9.64765 12.8784 9.05157 13.0094 8.521 13.0094H8.5226Z" fill="#1B1529"/>
    <path d="M9.54537 20.1334C8.77349 20.1334 8.18859 19.873 8.15024 19.8552C7.89934 19.7403 7.78747 19.4411 7.90094 19.1871C8.0144 18.9331 8.30845 18.8199 8.55935 18.9331C8.58332 18.9445 9.61888 19.3877 10.541 18.8765C11.3384 18.4349 11.8674 17.4093 12.1103 15.8304C12.1534 15.5538 12.4107 15.3662 12.6808 15.4082C12.9541 15.4519 13.1395 15.7107 13.0979 15.9857C12.8023 17.8994 12.0991 19.1725 11.0092 19.7695C10.5058 20.0445 9.99443 20.1334 9.54537 20.1334Z" fill="#1B1529"/>
    <path d="M24.195 18.3397C23.8626 18.3397 23.5414 18.2895 23.2298 18.1876C21.4303 17.6036 20.7208 15.5427 20.692 15.4554C20.6041 15.1917 20.7432 14.9037 21.0052 14.8148C21.2657 14.7258 21.5502 14.8665 21.6381 15.1302C21.6461 15.1512 22.223 16.8029 23.5398 17.2267C24.39 17.5001 25.4032 17.2138 26.5538 16.3758C26.7775 16.2124 27.0892 16.2642 27.2506 16.4907C27.412 16.7171 27.3608 17.0326 27.1371 17.196C26.0936 17.9563 25.1075 18.338 24.195 18.338V18.3397Z" fill="#1B1529"/>
    <path d="M23.7076 11.3577C23.2474 11.3577 22.7807 11.2849 22.3572 11.1328C21.1395 10.6945 20.3884 9.68666 20.243 8.29708C20.2142 8.01884 20.4124 7.76972 20.6872 7.7406C20.9605 7.71148 21.2082 7.91207 21.237 8.19031C21.344 9.19974 21.8331 9.86945 22.6944 10.18C23.7188 10.5489 24.8646 10.2577 25.237 9.88563C25.4335 9.68827 25.75 9.69151 25.9433 9.88886C26.1367 10.0878 26.1351 10.4081 25.9401 10.6039C25.4559 11.0892 24.5962 11.3577 23.7108 11.3577H23.7076Z" fill="#1B1529"/>
    <path fillRule="evenodd" clipRule="evenodd" d="M5.06434 20.1364C5.10749 19.5136 5.84101 18.5026 6.66722 18.6999C7.49343 18.8973 7.35919 19.6835 8.3548 19.6269C9.35041 19.5719 10.231 19.3308 10.4787 20.633C10.7264 21.9369 9.09312 22.1504 8.3548 22.0275C7.61648 21.9045 7.4343 21.0601 6.58092 21.3723C5.72755 21.6861 4.98923 21.2316 5.06434 20.1348V20.1364Z" fill="white"/>
    <path d="M8.74953 22.5646C8.57214 22.5646 8.41074 22.5517 8.2733 22.5291C7.84182 22.4579 7.55896 22.2266 7.33043 22.0405C7.05077 21.8108 6.98205 21.7655 6.75192 21.8513C6.16543 22.0664 5.58852 22.0065 5.16822 21.6846C4.73354 21.353 4.5194 20.7901 4.56734 20.1026C4.60569 19.5445 4.98604 18.8909 5.49423 18.5124C5.89535 18.2131 6.3524 18.1064 6.78389 18.2099C7.30007 18.3344 7.56215 18.6305 7.75392 18.8472C7.94729 19.0672 8.01281 19.1417 8.32924 19.1239C8.4411 19.1174 8.54977 19.1093 8.65684 19.1012C9.50702 19.0349 10.6688 18.9443 10.9709 20.5409C11.1019 21.2252 10.8398 21.6701 10.5969 21.9224C10.1287 22.4093 9.35521 22.5663 8.74953 22.5663V22.5646ZM6.93251 20.7998C7.40394 20.7998 7.72516 21.0634 7.95848 21.2527C8.14865 21.408 8.2717 21.5035 8.43471 21.531C8.83743 21.5973 9.58373 21.5245 9.87938 21.2155C9.95769 21.1346 10.0392 21.0068 9.98805 20.7302C9.8586 20.0459 9.63807 20.0378 8.73195 20.109C8.61689 20.1187 8.50023 20.1268 8.38197 20.1333C7.59252 20.1786 7.25053 19.7984 7.00602 19.5202C6.8542 19.3487 6.76311 19.2436 6.55216 19.1934C6.40674 19.1578 6.25013 19.2031 6.08552 19.3261C5.79307 19.5445 5.57893 19.9392 5.56295 20.1721C5.54057 20.507 5.61249 20.7577 5.7691 20.8758C5.91453 20.9874 6.14785 20.9955 6.41153 20.8984C6.6033 20.8289 6.7759 20.7982 6.93251 20.7982V20.7998Z" fill="#1B1529"/>
    <path fillRule="evenodd" clipRule="evenodd" d="M24.716 19.6271C24.0416 18.9945 24.692 17.7053 25.5838 17.5209C26.4755 17.3381 25.8826 16.4467 26.8447 16.1814C27.8067 15.9161 29.1715 16.2235 28.9701 17.2782C28.7688 18.3313 27.3608 17.2782 27.3241 18.2262C27.2889 19.1741 26.378 21.1865 24.7144 19.6271H24.716Z" fill="white"/>
    <path d="M25.8698 20.7078C25.4607 20.7078 24.9541 20.5395 24.3772 19.9992C23.9777 19.6239 23.8418 19.0723 24.0049 18.4851C24.2046 17.7636 24.8135 17.1651 25.4847 17.026C25.6317 16.9952 25.6333 16.9936 25.7068 16.7477C25.8011 16.4323 25.9593 15.9033 26.7136 15.6946C27.4296 15.4973 28.4715 15.5393 29.0692 16.1023C29.416 16.429 29.5566 16.8804 29.4623 17.3754C29.2769 18.3411 28.4076 18.3104 28.0368 18.2974C27.9729 18.2958 27.8882 18.2926 27.8227 18.2942C27.7779 19.0432 27.3305 20.2209 26.4435 20.5929C26.2837 20.6592 26.092 20.7094 25.8698 20.7094V20.7078ZM25.0564 19.2567C25.4575 19.6336 25.7963 19.7679 26.0616 19.6563C26.5011 19.4719 26.8095 18.6744 26.8271 18.2069C26.8638 17.2427 27.7428 17.2735 28.072 17.2848C28.1886 17.2896 28.4044 17.2961 28.4571 17.2638C28.4571 17.2638 28.4699 17.2363 28.4811 17.1813C28.5163 16.992 28.4587 16.9063 28.39 16.8432C28.1343 16.6038 27.4999 16.5261 26.9773 16.6701C26.7552 16.7315 26.7376 16.7914 26.6625 17.0405C26.5698 17.3495 26.4148 17.8671 25.6828 18.0176C25.3728 18.0807 25.0644 18.3994 24.9653 18.7585C24.9238 18.9089 24.9062 19.1176 25.0548 19.2567H25.0564Z" fill="#1B1529"/>
    <path d="M13.3137 26.0832C13.2721 26.0832 13.2306 26.0783 13.189 26.067C12.9221 25.9974 12.7607 25.7224 12.8294 25.4523C12.839 25.4151 13.8394 21.6669 18.2629 21.5553C18.3173 21.5553 18.3716 21.5537 18.4243 21.5537C22.3269 21.5537 23.73 25.1563 23.7444 25.1935C23.8435 25.4539 23.714 25.7467 23.4551 25.847C23.1978 25.9457 22.9086 25.8163 22.8111 25.5542C22.7632 25.4296 21.5981 22.4742 18.2869 22.5664C14.6097 22.6602 13.8027 25.6739 13.7963 25.7046C13.7388 25.9327 13.5358 26.0848 13.3121 26.0848L13.3137 26.0832Z" fill="#1B1529"/>
  </g>
  <defs>
    <clipPath id="clip0_15_585">
      <rect width="35.9362" height="35.1875" fill="white"/>
    </clipPath>
  </defs>
</svg>