<svg xmlns="http://www.w3.org/2000/svg" width="37" height="36" viewBox="0 0 37 36" fill="none">
  <g clipPath="url(#clip0_15_439)">
    <path fillRule="evenodd" clipRule="evenodd" d="M0.56273 18.4813C0.122116 12.9779 2.69484 1.18312 17.4529 0.541029C31.9338 -0.0894436 37.2475 12.6942 36.401 20.099C35.5841 27.2349 29.9188 35.3747 18.2599 35.4808C6.5993 35.587 1.21127 26.5447 0.56273 18.4813Z" fill="white"/>
    <path d="M18.0571 36.0004C6.5879 36.0004 0.749356 27.2467 0.0496546 18.523C-0.239137 14.9193 0.698198 9.64659 4.20165 5.66134C7.26945 2.16885 11.7201 0.270793 17.43 0.0235811C23.2999 -0.231926 28.2984 1.68272 31.891 5.56013C36.0067 10.0033 37.3797 16.094 36.9143 20.1589C36.4523 24.1889 34.6222 27.9668 31.759 30.7973C28.3644 34.1521 23.6976 35.9522 18.265 36.0004C18.1957 36.0004 18.1264 36.0004 18.0587 36.0004H18.0571ZM1.07775 18.44C1.74445 26.7357 7.30575 35.0696 18.2551 34.9634C29.2671 34.8622 35.0463 27.3961 35.8895 20.0411C36.3268 16.2135 35.0281 10.4695 31.1368 6.26858C27.7555 2.61847 23.0292 0.818309 17.4745 1.05888C12.0551 1.29448 7.84868 3.07474 4.97397 6.34656C1.68669 10.0896 0.805464 15.0487 1.07775 18.44Z" fill="#1B1529"/>
    <path fillRule="evenodd" clipRule="evenodd" d="M8.17363 13.8358C8.08452 12.3326 8.60104 9.11221 11.5566 8.93634C14.4561 8.76379 15.5205 12.2546 15.3505 14.2771C15.1871 16.2249 14.0518 18.4482 11.7167 18.4781C9.38161 18.5079 8.30235 16.0375 8.17363 13.8358Z" fill="#1B1529"/>
    <path fillRule="evenodd" clipRule="evenodd" d="M21.9053 13.323C21.9053 11.8182 22.6083 8.63262 25.5704 8.63428C28.4749 8.63428 29.333 12.1832 29.0442 14.1907C28.767 16.1253 27.5029 18.2772 25.1711 18.1677C22.8393 18.0582 21.9069 15.528 21.9069 13.323H21.9053Z" fill="#1B1529"/>
    <path fillRule="evenodd" clipRule="evenodd" d="M11.319 9.60957C11.5401 11.9473 11.1853 13.5981 9.87503 14.1075C11.5467 14.2286 11.9131 16.0636 12.2794 18.1691C12.1986 16.1482 12.2728 14.5123 13.725 13.6711C12.4164 13.1054 11.6853 11.6437 11.3206 9.60791L11.319 9.60957Z" fill="white"/>
    <path fillRule="evenodd" clipRule="evenodd" d="M25.2949 9.29102C25.3774 11.6387 24.9285 13.2647 23.5885 13.696C25.2503 13.9167 25.5094 15.77 25.7503 17.8937C25.7883 15.8728 25.9599 14.2435 27.4583 13.4886C26.1843 12.8466 25.5407 11.3434 25.2965 9.29102H25.2949Z" fill="white"/>
    <path d="M19.4877 31.3261C19.4514 31.3261 19.4151 31.3261 19.3788 31.3261C10.1638 31.2497 9.28424 22.073 9.27599 21.9801C9.26279 21.8308 9.3156 21.6831 9.41956 21.5753C9.52353 21.4675 9.66875 21.4077 9.81727 21.4177C9.87668 21.421 15.7763 21.7279 20.0289 21.557C25.1991 21.3497 28.9501 20.535 28.9864 20.5267C29.1449 20.4919 29.3082 20.5334 29.432 20.6395C29.5541 20.7457 29.6218 20.9017 29.6119 21.0643C29.6053 21.1671 28.9122 31.3277 19.4877 31.3277V31.3261ZM10.3866 22.4828C10.7232 24.3991 12.3306 30.2294 19.387 30.2874C22.9829 30.314 25.6068 28.776 27.2141 25.7066C28.0392 24.132 28.3726 22.5476 28.5029 21.6782C27.1613 21.927 24.0143 22.4347 20.0702 22.594C16.5898 22.7334 12.0302 22.5575 10.3866 22.4845V22.4828Z" fill="#1B1529"/>
  </g>
  <defs>
    <clipPath id="clip0_15_439">
      <rect width="37" height="36" fill="white"/>
    </clipPath>
  </defs>
</svg>