<svg xmlns="http://www.w3.org/2000/svg" width="58" height="48" viewBox="0 0 58 48" fill="none">
  <g clipPath="url(#clip0_3_634)">
    <path fillRule="evenodd" clipRule="evenodd" d="M41.9857 11.8685C41.9857 11.8685 49.7499 8.45506 50.8616 3.67896L57.3019 9.42179C57.3019 9.42179 53.3147 15.7486 46.4937 17.702L41.9835 11.8685H41.9857Z" fill="white"/>
    <path d="M46.4958 18.3944C46.288 18.3944 46.0888 18.2993 45.9575 18.129L41.4473 12.2954C41.316 12.1273 41.2723 11.9061 41.3226 11.7003C41.3751 11.4924 41.5195 11.3221 41.7121 11.2358C41.7865 11.2026 49.1766 7.90203 50.1963 3.5219C50.2511 3.28519 50.4261 3.09495 50.6537 3.02194C50.8813 2.94894 51.133 3.00204 51.3146 3.16131L57.7549 8.90415C58.0066 9.12979 58.0613 9.50807 57.8796 9.79344C57.7111 10.0611 53.6714 16.3636 46.6819 18.3679C46.6206 18.3856 46.5571 18.3944 46.4958 18.3944ZM43.0514 12.1251L46.7453 16.9034C51.9033 15.2465 55.3477 10.9725 56.3916 9.53241L51.1833 4.88903C49.6471 8.51701 44.9465 11.1738 43.0514 12.1251Z" fill="#1B1529"/>
    <path fillRule="evenodd" clipRule="evenodd" d="M45.1238 15.9278C45.1238 15.9278 53.9187 14.6381 57.3019 12.625C57.3019 12.625 57.3282 16.7198 57.3019 19.7571C57.3019 19.7571 51.7917 22.1617 46.4937 20.5247L45.1238 15.9278Z" fill="white"/>
    <path d="M50.494 21.79C49.1525 21.79 47.7191 21.6263 46.2945 21.186C46.0757 21.1175 45.905 20.9449 45.8393 20.7237L44.4694 16.1268C44.4125 15.9343 44.441 15.7264 44.5482 15.556C44.6554 15.3857 44.8305 15.2729 45.0275 15.2441C45.115 15.2308 53.7283 13.95 56.9583 12.0298C57.1684 11.9037 57.431 11.9015 57.6433 12.0254C57.8556 12.1471 57.9891 12.3749 57.9891 12.6227C57.9891 12.6625 58.0153 16.7572 57.9891 19.7658C57.9869 20.0401 57.8249 20.2857 57.5755 20.3941C57.4026 20.4693 54.3104 21.7922 50.4962 21.7922L50.494 21.79ZM47.0407 19.9649C51.1176 21.0776 55.3171 19.7592 56.6213 19.2814C56.6345 17.3368 56.6301 15.0694 56.6213 13.7465C53.4329 15.1822 48.0255 16.1577 46.0035 16.4896L47.0407 19.9649Z" fill="#1B1529"/>
    <path fillRule="evenodd" clipRule="evenodd" d="M0.687135 23.1794C0.549269 15.8194 4.91284 0.336339 24.4986 0.699137C43.7144 1.0553 49.7127 18.5072 47.9883 28.2917C46.3273 37.7201 38.1692 48.0864 22.7282 47.2656C7.2872 46.4427 0.890652 33.9638 0.687135 23.1794Z" fill="white"/>
    <path d="M24.4067 48.0001C23.8399 48.0001 23.271 47.9846 22.6932 47.9536C7.32447 47.1373 0.223278 34.9283 0.00444293 23.1926C-0.0874677 18.3723 1.58443 11.4349 6.54323 6.41764C10.8871 2.02424 16.9335 -0.137063 24.5096 0.00672953C32.2979 0.150522 38.7601 3.11264 43.1981 8.5701C48.2838 14.8217 49.6056 23.04 48.6602 28.4112C47.7214 33.7381 44.9925 38.6138 40.9725 42.1422C36.5893 45.9914 30.8886 48.0001 24.4045 48.0001H24.4067ZM1.37216 23.1661C1.58005 34.2624 8.2764 45.8034 22.7655 46.5732C37.3486 47.3431 45.6053 37.8882 47.3165 28.1701C48.2072 23.1108 46.9533 15.3615 42.1455 9.44834C37.9657 4.31164 31.8602 1.5265 24.4855 1.38935C17.2924 1.25883 11.583 3.27634 7.51048 7.39543C2.85586 12.1052 1.28682 18.6289 1.37216 23.1661Z" fill="#1B1529"/>
    <path fillRule="evenodd" clipRule="evenodd" d="M10.5478 22.509C10.4691 21.1662 10.9264 18.2859 13.5568 18.1288C16.1369 17.974 17.0823 21.0954 16.9313 22.905C16.7868 24.6482 15.7758 26.6347 13.7013 26.6612C11.6245 26.6878 10.666 24.48 10.55 22.5112L10.5478 22.509Z" fill="#1B1529"/>
    <path fillRule="evenodd" clipRule="evenodd" d="M28.8293 21.633C28.7505 20.2902 29.2079 17.4099 31.8383 17.2529C34.4162 17.098 35.3637 20.2194 35.2127 22.029C35.0683 23.7722 34.0573 25.7587 31.9827 25.7853C29.906 25.8118 28.9475 23.6041 28.8315 21.6352L28.8293 21.633Z" fill="#1B1529"/>
    <path d="M16.9488 37.5607C16.5855 37.5607 16.2835 37.2731 16.266 36.9037C16.2616 36.8351 16.0209 29.9353 23.365 29.3137C25.5687 29.1279 27.3872 29.6455 28.768 30.8556C31.0527 32.8576 31.2584 36.0122 31.2649 36.1471C31.2868 36.5276 30.998 36.855 30.6216 36.8772C30.2495 36.8971 29.9213 36.6073 29.8994 36.2268C29.8994 36.2002 29.7112 33.5058 27.8621 31.8931C26.7723 30.9419 25.2995 30.5392 23.4788 30.6919C17.4652 31.2007 17.6228 36.6095 17.6315 36.8396C17.6468 37.22 17.3558 37.543 16.9794 37.5607C16.9685 37.5607 16.9575 37.5607 16.9488 37.5607Z" fill="#1B1529"/>
    <path d="M29.2517 38.5738C29.1422 38.5738 29.0328 38.5472 28.93 38.4919C28.5973 38.3105 28.4726 37.8924 28.6499 37.5562C28.7024 37.4588 29.9432 35.1582 32.3 34.6671C32.6721 34.5896 33.0309 34.8308 33.1075 35.2046C33.1841 35.5785 32.9456 35.9435 32.5758 36.0209C30.8404 36.3837 29.8644 38.1889 29.8556 38.2088C29.7331 38.441 29.4968 38.5738 29.2517 38.5738Z" fill="#1B1529"/>
    <path d="M16.9466 20.4495C16.8525 20.4495 16.7562 20.4296 16.6643 20.3876C13.5481 18.9585 11.3969 16.1888 11.3072 16.0716C11.0752 15.7707 11.1299 15.3371 11.4276 15.1027C11.7252 14.8682 12.1563 14.9235 12.3882 15.2243C12.4079 15.2509 14.4278 17.8436 17.2311 19.1288C17.5746 19.2859 17.7278 19.6974 17.5703 20.0447C17.4565 20.2991 17.207 20.4517 16.9466 20.4517V20.4495Z" fill="#1B1529"/>
    <path d="M28.1925 20.4495C27.908 20.4495 27.641 20.2681 27.5447 19.9783C27.4244 19.6177 27.6148 19.2239 27.9737 19.1023C28.0218 19.0846 30.847 18.0736 32.6436 15.2708C32.8493 14.95 33.2717 14.8593 33.589 15.0672C33.9063 15.2752 33.996 15.7021 33.7903 16.0229C31.7201 19.2527 28.5448 20.3654 28.4091 20.4119C28.3369 20.4362 28.2625 20.4495 28.1903 20.4495H28.1925Z" fill="#1B1529"/>
    <path fillRule="evenodd" clipRule="evenodd" d="M5.81007 8.25577C5.81007 8.25577 27.1027 20.0224 46.4937 15.6467C46.4937 15.6467 45.3185 10.4901 40.5392 6.73158C40.5392 6.73158 23.1002 8.37081 14.3971 2.22314C14.3971 2.22314 9.43178 3.59028 5.81225 8.25577H5.81007Z" fill="white"/>
    <path d="M37.4142 17.3014C20.9797 17.3014 5.66345 8.96148 5.48181 8.86193C5.30456 8.76459 5.17982 8.59425 5.14043 8.39516C5.10104 8.19606 5.14918 7.98811 5.27173 7.82884C8.98974 3.03724 14.0054 1.6126 14.2177 1.55508C14.4147 1.50199 14.6225 1.53738 14.7889 1.65463C23.1856 7.5855 40.305 6.05688 40.4757 6.04139C40.6486 6.02591 40.8215 6.07679 40.9593 6.18297C45.8744 10.0477 47.1108 15.2684 47.1611 15.4896C47.2027 15.6688 47.1699 15.8569 47.0736 16.0139C46.9773 16.1688 46.8219 16.2794 46.6447 16.3192C43.5897 17.0072 40.4823 17.2992 37.4142 17.2992V17.3014ZM6.88017 8.03457C10.7317 9.98793 28.9147 18.5402 45.6271 15.1268C45.1434 13.6801 43.6991 10.1892 40.3269 7.44392C38.0007 7.63417 22.6625 8.63628 14.2855 2.98415C13.2614 3.33368 9.73815 4.72072 6.88017 8.03457Z" fill="#1B1529"/>
  </g>
  <defs>
    <clipPath id="clip0_3_634">
      <rect width="58" height="48" fill="white"/>
    </clipPath>
  </defs>
</svg>