<svg xmlns="http://www.w3.org/2000/svg" width="51" height="49" viewBox="0 0 51 49" fill="none">
  <g clipPath="url(#clip0_3_659)">
    <path fillRule="evenodd" clipRule="evenodd" d="M0.775659 25.1549C0.168327 17.6642 3.71451 1.61011 24.0567 0.736157C44.0168 -0.121987 51.3412 17.278 50.1743 27.3567C49.0484 37.0695 41.2395 48.1486 25.169 48.2931C9.09634 48.4377 1.6696 36.1301 0.775659 25.1549Z" fill="white"/>
    <path d="M24.8894 49.0001C9.08057 49.0001 1.03285 37.0855 0.0683987 25.2115C-0.329666 20.3065 0.962337 13.1297 5.79143 7.70535C10.02 2.95169 16.1547 0.368226 24.025 0.0317438C32.116 -0.31603 39.0059 2.29002 43.9578 7.5676C49.6308 13.6153 51.5233 21.9054 50.8819 27.4381C50.245 32.9235 47.7224 38.0656 43.7759 41.9182C39.0969 46.4844 32.6642 48.9346 25.176 49.0001C25.0805 49.0001 24.9849 49.0001 24.8917 49.0001H24.8894ZM1.48551 25.0986C2.40447 36.3899 10.07 47.7332 25.1624 47.5887C40.3411 47.451 48.307 37.2887 49.4693 27.2778C50.0721 22.068 48.2819 14.2498 42.9183 8.53188C38.2575 3.56368 31.7429 1.11346 24.0865 1.44091C16.6165 1.76158 10.8184 4.18471 6.85596 8.63802C2.32485 13.7327 1.11019 20.4827 1.48551 25.0986Z" fill="#1B1529"/>
    <path fillRule="evenodd" clipRule="evenodd" d="M11.2664 18.8319C11.1435 16.7859 11.8555 12.4026 15.9294 12.1632C19.926 11.9283 21.3931 16.6797 21.1588 19.4326C20.9336 22.0838 19.3687 25.1099 16.15 25.1505C12.9314 25.1912 11.4438 21.8286 11.2664 18.8319Z" fill="#1B1529"/>
    <path fillRule="evenodd" clipRule="evenodd" d="M30.1937 18.1338C30.1937 16.0856 31.1627 11.7497 35.2458 11.752C39.2491 11.752 40.432 16.5824 40.0339 19.3149C39.6518 21.9481 37.9094 24.877 34.6953 24.728C31.4812 24.5789 30.196 21.1351 30.196 18.1338H30.1937Z" fill="#1B1529"/>
    <path fillRule="evenodd" clipRule="evenodd" d="M15.6018 13.0799C15.9067 16.2618 15.4176 18.5088 13.6115 19.2021C15.9158 19.3669 16.4207 21.8646 16.9257 24.7303C16.8142 21.9797 16.9166 19.7531 18.9183 18.6081C17.1145 17.8381 16.1068 15.8485 15.6041 13.0776L15.6018 13.0799Z" fill="white"/>
    <path fillRule="evenodd" clipRule="evenodd" d="M34.8659 12.6462C34.9796 15.8417 34.3609 18.0548 32.5139 18.642C34.8045 18.9423 35.1616 21.4648 35.4937 24.3554C35.546 21.6048 35.7826 19.3872 37.848 18.3597C36.0919 17.4857 35.2048 15.4397 34.8682 12.6462H34.8659Z" fill="white"/>
    <path d="M26.8614 42.6384C26.8113 42.6384 26.7613 42.6384 26.7113 42.6384C14.0096 42.5345 12.7972 30.044 12.7858 29.9175C12.7676 29.7143 12.8404 29.5133 12.9837 29.3665C13.127 29.2197 13.3272 29.1384 13.5319 29.152C13.6138 29.1565 21.7457 29.5743 27.6075 29.3417C34.734 29.0594 39.9042 27.9506 39.9543 27.9393C40.1726 27.8919 40.3978 27.9483 40.5684 28.0928C40.7368 28.2374 40.83 28.4497 40.8164 28.671C40.8073 28.811 39.8519 42.6406 26.8614 42.6406V42.6384ZM14.3167 30.6018C14.7807 33.2101 16.9962 41.1457 26.7226 41.2247C31.6791 41.2608 35.2958 39.1674 37.5113 34.9896C38.6486 32.8465 39.1081 30.6899 39.2878 29.5065C37.4385 29.8453 33.1008 30.5363 27.6643 30.7531C22.8671 30.9428 16.5822 30.7034 14.3167 30.604V30.6018Z" fill="#1B1529"/>
  </g>
  <defs>
    <clipPath id="clip0_3_659">
      <rect width="51" height="49" fill="white"/>
    </clipPath>
  </defs>
</svg>