<svg xmlns="http://www.w3.org/2000/svg" width="50" height="49" viewBox="-2 0 42 35" fill="none">
  <g clipPath="url(#clip0_15_419)">
    <path fillRule="evenodd" clipRule="evenodd" d="M30.4034 8.65414C30.4034 8.65414 36.0258 6.1652 36.8308 2.68262L41.4945 6.8701C41.4945 6.8701 38.6072 11.4834 33.6678 12.9078L30.4018 8.65414H30.4034Z" fill="white"/>
    <path d="M33.6694 13.4128C33.5189 13.4128 33.3747 13.3434 33.2796 13.2192L30.0136 8.96557C29.9185 8.84298 29.8868 8.68167 29.9233 8.53166C29.9613 8.38003 30.0659 8.25582 30.2053 8.19292C30.2592 8.16872 35.6106 5.76205 36.3491 2.5682C36.3887 2.39561 36.5155 2.25688 36.6803 2.20365C36.8451 2.15042 37.0273 2.18914 37.1588 2.30528L41.8225 6.49276C42.0048 6.65729 42.0444 6.93312 41.9128 7.14121C41.7908 7.33639 38.8655 11.932 33.8041 13.3934C33.7597 13.4063 33.7138 13.4128 33.6694 13.4128ZM31.1751 8.84136L33.8501 12.3256C37.5851 11.1174 40.0794 8.00096 40.8353 6.95087L37.0638 3.56507C35.9513 6.21047 32.5475 8.14775 31.1751 8.84136Z" fill="#1B1529"/>
    <path fillRule="evenodd" clipRule="evenodd" d="M32.6758 11.6139C32.6758 11.6139 39.0446 10.6734 41.4945 9.20557C41.4945 9.20557 41.5135 12.1913 41.4945 14.406C41.4945 14.406 37.5043 16.1594 33.6678 14.9658L32.6758 11.6139Z" fill="white"/>
    <path d="M36.5646 15.8884C35.5932 15.8884 34.5552 15.7691 33.5236 15.4481C33.3652 15.3981 33.2415 15.2722 33.194 15.1109L32.202 11.759C32.1608 11.6187 32.1814 11.467 32.2591 11.3428C32.3367 11.2186 32.4635 11.1364 32.6061 11.1154C32.6695 11.1057 38.9067 10.1718 41.2457 8.77164C41.3978 8.67969 41.588 8.67808 41.7417 8.76841C41.8954 8.85713 41.9921 9.02327 41.9921 9.20394C41.9921 9.23297 42.0111 12.2187 41.9921 14.4125C41.9905 14.6125 41.8732 14.7915 41.6926 14.8706C41.5674 14.9254 39.3283 15.89 36.5662 15.89L36.5646 15.8884ZM34.064 14.5577C37.0162 15.369 40.0572 14.4076 41.0017 14.0592C41.0112 12.6414 41.008 10.988 41.0017 10.0234C38.6928 11.0702 34.7771 11.7816 33.3129 12.0236L34.064 14.5577Z" fill="#1B1529"/>
    <path fillRule="evenodd" clipRule="evenodd" d="M0.497585 16.9018C0.397751 11.5351 3.55758 0.2454 17.7403 0.50994C31.6553 0.769642 35.9989 13.495 34.7501 20.6295C33.5474 27.5044 27.6397 35.0631 16.4583 34.4647C5.27694 33.8646 0.644959 24.7654 0.497585 16.9018Z" fill="white"/>
    <path d="M17.6741 35.0001C17.2636 35.0001 16.8516 34.9888 16.4333 34.9662C5.30417 34.371 0.16193 25.4685 0.00346314 16.9113C-0.0630928 13.3965 1.14759 8.33793 4.73845 4.67953C7.88401 1.47601 12.2624 -0.0999414 17.7486 0.00490695C23.3884 0.109755 28.0679 2.26963 31.2816 6.24903C34.9644 10.8075 35.9215 16.8 35.2369 20.7165C34.5571 24.6007 32.581 28.1559 29.67 30.7287C26.4959 33.5354 22.3679 35.0001 17.6725 35.0001H17.6741ZM0.99388 16.8919C1.14442 24.983 5.9935 33.3983 16.4856 33.9597C27.0458 34.521 33.0247 27.6268 34.264 20.5407C34.9089 16.8516 34.0009 11.2011 30.5194 6.88941C27.4927 3.14391 23.0715 1.11307 17.7311 1.01306C12.5223 0.917894 8.38793 2.389 5.43887 5.3925C2.06828 8.82669 0.932078 13.5836 0.99388 16.8919Z" fill="#1B1529"/>
    <path fillRule="evenodd" clipRule="evenodd" d="M7.63809 16.4127C7.58104 15.4336 7.91224 13.3334 9.81701 13.2189C11.6853 13.106 12.3699 15.382 12.2606 16.7015C12.156 17.9726 11.4239 19.4211 9.9216 19.4404C8.41775 19.4598 7.72366 17.85 7.63968 16.4143L7.63809 16.4127Z" fill="#1B1529"/>
    <path fillRule="evenodd" clipRule="evenodd" d="M20.8764 15.7741C20.8193 14.7949 21.1505 12.6947 23.0553 12.5802C24.922 12.4673 25.6082 14.7433 25.4989 16.0628C25.3943 17.3339 24.6622 18.7824 23.1599 18.8018C21.656 18.8211 20.962 17.2113 20.878 15.7757L20.8764 15.7741Z" fill="#1B1529"/>
    <path d="M12.2732 27.388C12.0102 27.388 11.7915 27.1783 11.7788 26.9089C11.7757 26.8589 11.6013 21.8278 16.9195 21.3745C18.5152 21.239 19.8321 21.6165 20.832 22.4988C22.4864 23.9586 22.6354 26.2588 22.6401 26.3572C22.656 26.6347 22.4468 26.8734 22.1742 26.8895C21.9048 26.9041 21.6671 26.6928 21.6513 26.4153C21.6513 26.3959 21.515 24.4313 20.176 23.2553C19.3868 22.5617 18.3203 22.2682 17.0019 22.3795C12.6472 22.7505 12.7613 26.6944 12.7677 26.8621C12.7787 27.1396 12.568 27.3751 12.2954 27.388C12.2875 27.388 12.2796 27.388 12.2732 27.388Z" fill="#1B1529"/>
    <path d="M21.1822 28.1268C21.103 28.1268 21.0238 28.1074 20.9493 28.0671C20.7084 27.9348 20.6181 27.63 20.7465 27.3848C20.7845 27.3138 21.683 25.6362 23.3897 25.2781C23.6591 25.2217 23.919 25.3975 23.9744 25.6701C24.0299 25.9427 23.8572 26.2089 23.5893 26.2653C22.3327 26.5299 21.6259 27.8461 21.6196 27.8606C21.5309 28.03 21.3597 28.1268 21.1822 28.1268Z" fill="#1B1529"/>
    <path d="M12.2717 14.911C12.2035 14.911 12.1338 14.8965 12.0672 14.8658C9.81067 13.8238 8.25294 11.8043 8.18797 11.7188C8.02 11.4994 8.05962 11.1832 8.27513 11.0123C8.49064 10.8413 8.80282 10.8816 8.9708 11.101C8.98506 11.1203 10.4477 13.0108 12.4777 13.948C12.7265 14.0625 12.8374 14.3626 12.7233 14.6158C12.6409 14.8013 12.4602 14.9126 12.2717 14.9126V14.911Z" fill="#1B1529"/>
    <path d="M20.4153 14.9113C20.2093 14.9113 20.0159 14.779 19.9462 14.5677C19.859 14.3048 19.9969 14.0176 20.2568 13.9289C20.2917 13.916 22.3375 13.1788 23.6385 11.1351C23.7874 10.9012 24.0933 10.8351 24.323 10.9867C24.5528 11.1383 24.6178 11.4497 24.4688 11.6835C22.9697 14.0386 20.6704 14.85 20.5721 14.8838C20.5198 14.9016 20.466 14.9113 20.4137 14.9113H20.4153Z" fill="#1B1529"/>
    <path fillRule="evenodd" clipRule="evenodd" d="M4.20729 6.01989C4.20729 6.01989 19.6261 14.5997 33.6678 11.4091C33.6678 11.4091 32.8169 7.64907 29.3559 4.90849C29.3559 4.90849 16.7277 6.10377 10.4255 1.62109C10.4255 1.62109 6.82991 2.61796 4.20887 6.01989H4.20729Z" fill="white"/>
    <path d="M27.093 12.6155C15.1922 12.6155 4.10112 6.53426 3.96959 6.46168C3.84123 6.3907 3.7509 6.2665 3.72238 6.12132C3.69386 5.97615 3.72872 5.82452 3.81746 5.70838C6.50981 2.21451 10.1419 1.1757 10.2956 1.13376C10.4382 1.09505 10.5887 1.12086 10.7092 1.20635C16.7895 5.53094 29.1864 4.41633 29.31 4.40503C29.4352 4.39374 29.5604 4.43084 29.6602 4.50827C33.2194 7.32627 34.1147 11.1331 34.1511 11.2944C34.1813 11.425 34.1575 11.5621 34.0878 11.6767C34.018 11.7896 33.9055 11.8702 33.7772 11.8993C31.565 12.4009 29.3147 12.6139 27.093 12.6139V12.6155ZM4.98219 5.85839C7.7712 7.28272 20.9382 13.5188 33.0403 11.0298C32.6901 9.9749 31.6442 7.42951 29.2022 5.42771C27.5177 5.56643 16.4108 6.29714 10.3447 2.1758C9.60308 2.43066 7.05176 3.44204 4.98219 5.85839Z" fill="#1B1529"/>
  </g>
  <defs>
    <clipPath id="clip0_15_419">
      <rect width="42" height="35" fill="white"/>
    </clipPath>
  </defs>
</svg>