<svg xmlns="http://www.w3.org/2000/svg" width="37" height="36" viewBox="0 0 37 36" fill="none">
  <g clipPath="url(#clip0_15_601)">
    <path fillRule="evenodd" clipRule="evenodd" d="M0.518301 16.9931C0.534861 11.4735 4.09179 -0.0582178 18.9024 0.540511C33.4348 1.12929 37.6822 14.3096 36.2167 21.6154C34.8042 28.6542 28.4604 36.2868 16.7927 35.4127C5.12674 34.5403 0.491807 25.0784 0.518301 16.9931Z" fill="white"/>
    <path d="M18.5759 36.0004C17.9765 36.0004 17.3704 35.9772 16.7561 35.9308C5.14306 35.0617 -0.0267445 25.7922 -0.000249654 16.992C0.0113418 13.3781 1.39073 8.20515 5.22585 4.52819C8.58407 1.30733 13.1925 -0.208562 18.9237 0.0236322C24.8121 0.26246 29.6524 2.58937 32.9212 6.7556C36.6653 11.5272 37.5296 17.7085 36.7249 21.7188C35.9267 25.696 33.7806 29.3049 30.6824 31.8823C27.4235 34.5923 23.2672 36.0004 18.5759 36.0004ZM1.0347 16.9953C1.00821 25.3162 5.88325 34.0782 16.8306 34.8975C17.43 34.9423 18.0179 34.9638 18.5908 34.9638C28.5347 34.9638 34.3321 28.3745 35.7081 21.5132C36.4649 17.7367 35.6452 11.907 32.1048 7.39413C29.0314 3.47669 24.4578 1.28577 18.8823 1.06021C13.4459 0.837969 9.09078 2.25933 5.94121 5.27785C2.34123 8.72924 1.0463 13.5937 1.0347 16.9953Z" fill="#1B1529"/>
    <path d="M9.17217 16.7343C8.97346 16.7343 8.78302 16.6182 8.69857 16.4242C8.58431 16.1621 8.70188 15.8553 8.96352 15.7409L14.5705 13.273L10.1127 8.65233C9.91402 8.44667 9.91899 8.11828 10.126 7.91926C10.3313 7.72023 10.6592 7.72521 10.8579 7.93253L15.8323 13.0889C15.9499 13.2116 16.0012 13.3824 15.9681 13.55C15.935 13.7158 15.824 13.8568 15.6684 13.9248L9.38081 16.6929C9.31292 16.7227 9.24172 16.736 9.17217 16.736V16.7343Z" fill="#1B1529"/>
    <path d="M29.1509 18.5189C29.0549 18.5189 28.9588 18.4924 28.8727 18.436L22.8269 14.5517C22.6812 14.4588 22.5918 14.298 22.5885 14.1255C22.5852 13.953 22.668 13.7888 22.8087 13.691L28.3213 9.83321C28.5548 9.66902 28.8777 9.72707 29.0416 9.96092C29.2056 10.1948 29.1476 10.5182 28.9141 10.6824L24.0358 14.0973L29.4324 17.5636C29.6725 17.7179 29.7437 18.0396 29.5881 18.2801C29.4887 18.4343 29.3231 18.5189 29.1526 18.5189H29.1509Z" fill="#1B1529"/>
    <path fillRule="evenodd" clipRule="evenodd" d="M8.2018 19.1741C10.843 18.917 27.1323 20.0465 29.0151 20.214C30.8979 20.3815 31.7441 24.5743 29.2668 25.6092C26.7896 26.6441 8.97843 25.0171 7.91864 24.8562C5.79243 24.5312 5.41156 19.4478 8.2018 19.1741Z" fill="white"/>
    <mask id="mask0_15_601" style="mask-type:luminance" maskUnits="userSpaceOnUse" x="6" y="19" width="25" height="7">
      <path d="M8.2018 19.1741C10.843 18.917 27.1323 20.0465 29.0151 20.214C30.8979 20.3815 31.7441 24.5743 29.2668 25.6092C26.7896 26.6441 8.97843 25.0171 7.91864 24.8562C5.79243 24.5312 5.41156 19.4478 8.2018 19.1741Z" fill="white"/>
    </mask>
    <g mask="url(#mask0_15_601)">
      <path d="M30.7952 23.7386C30.787 23.7386 30.7787 23.7386 30.7688 23.7386L6.18157 22.5113C5.89675 22.4963 5.67651 22.2542 5.68976 21.9673C5.70466 21.682 5.94146 21.4614 6.2329 21.4747L30.8201 22.702C31.1049 22.7169 31.3251 22.9591 31.3119 23.246C31.2986 23.523 31.0701 23.7386 30.7952 23.7386Z" fill="#1B1529"/>
      <path d="M9.26987 25.7718C9.26987 25.7718 9.25662 25.7718 9.25 25.7718C8.96518 25.7602 8.74163 25.5197 8.75322 25.2328L8.99499 19.0266C9.00658 18.7413 9.24503 18.5207 9.53316 18.529C9.81798 18.5406 10.0415 18.7811 10.0299 19.0681L9.78818 25.2743C9.77659 25.5529 9.54807 25.7718 9.27153 25.7718H9.26987Z" fill="#1B1529"/>
      <path d="M12.8632 25.9527C12.8632 25.9527 12.8467 25.9527 12.8401 25.9527C12.5552 25.9395 12.3333 25.6973 12.3466 25.4121L12.6264 19.2092C12.6397 18.9239 12.8815 18.7017 13.1663 18.7149C13.4511 18.7282 13.673 18.9703 13.6597 19.2556L13.3799 25.4585C13.3666 25.7371 13.1381 25.9527 12.8632 25.9527Z" fill="#1B1529"/>
      <path d="M16.5874 25.8763C16.5791 25.8763 16.5709 25.8763 16.5609 25.8763C16.2761 25.8614 16.0559 25.6192 16.0691 25.3323L16.3606 19.4943C16.3755 19.209 16.6123 18.9868 16.9037 19.0017C17.1885 19.0166 17.4088 19.2588 17.3955 19.5457L17.1041 25.3837C17.0908 25.6607 16.8623 25.8763 16.5874 25.8763Z" fill="#1B1529"/>
      <path d="M20.6063 26.339C20.5931 26.339 20.5782 26.339 20.5649 26.339C20.2801 26.3157 20.0665 26.067 20.0897 25.7817L20.5732 19.6916C20.5964 19.4063 20.8448 19.1924 21.1296 19.2156C21.4144 19.2388 21.628 19.4876 21.6049 19.7729L21.1213 25.863C21.0998 26.135 20.8729 26.3406 20.6063 26.3406V26.339Z" fill="#1B1529"/>
      <path d="M24.352 26.5265C24.3438 26.5265 24.3338 26.5265 24.3256 26.5265C24.0407 26.5116 23.8205 26.2678 23.8354 25.9825L24.1533 19.7813C24.1682 19.496 24.4133 19.2804 24.6965 19.2904C24.9813 19.3053 25.2015 19.5491 25.1866 19.8344L24.8687 26.0356C24.8538 26.3126 24.6253 26.5282 24.352 26.5282V26.5265Z" fill="#1B1529"/>
      <path d="M27.9421 26.4437C27.9338 26.4437 27.9255 26.4437 27.9156 26.4437C27.6308 26.4287 27.4105 26.1866 27.4238 25.8997L27.7136 20.0617C27.7285 19.7764 27.9653 19.5541 28.2567 19.5691C28.5415 19.584 28.7618 19.8261 28.7485 20.1131L28.4587 25.9511C28.4455 26.2281 28.217 26.4437 27.9421 26.4437Z" fill="#1B1529"/>
    </g>
    <path d="M25.2297 26.4633C18.967 26.4633 8.41708 25.4549 7.84081 25.367C6.39353 25.1464 5.6583 23.3751 5.70136 21.8211C5.74938 20.0398 6.71147 18.7976 8.15213 18.6566C10.8993 18.3896 27.553 19.5622 29.0615 19.6948C30.1511 19.791 31.037 20.8591 31.2672 22.3518C31.5305 24.0534 30.8234 25.5196 29.4672 26.0868C28.8148 26.3588 27.2433 26.4633 25.2313 26.4633H25.2297ZM8.25148 19.6882C7.17348 19.7943 6.76115 20.874 6.73465 21.8476C6.70485 22.9489 7.17844 24.216 7.99647 24.3404C9.21854 24.5261 26.8111 26.0702 29.0665 25.1282C30.1627 24.6704 30.3846 23.4315 30.2422 22.5094C30.0915 21.5292 29.555 20.7795 28.9671 20.7264C26.9187 20.5457 10.7867 19.4378 8.24983 19.6865L8.25148 19.6882Z" fill="#1B1529"/>
  </g>
  <defs>
    <clipPath id="clip0_15_601">
      <rect width="37" height="36" fill="white"/>
    </clipPath>
  </defs>
</svg>