<svg xmlns="http://www.w3.org/2000/svg" width="37" height="36" viewBox="0 0 45 48" fill="none">
  <g clipPath="url(#clip0_29_10)">
    <path fillRule="evenodd" clipRule="evenodd" d="M44.3631 24.3403C44.2301 17.5801 39.6652 3.52537 21.6535 4.56571C3.98244 5.58777 -0.917011 21.8208 1.01375 30.7389C2.87598 39.3318 10.7522 48.5506 24.9326 47.2401C39.113 45.9295 44.5586 34.2439 44.3631 24.3403Z" fill="white"/>
    <path d="M22.3005 48.0001C16.7843 48.0001 11.8687 46.3624 7.95884 43.2007C4.13562 40.1081 1.44908 35.7293 0.397037 30.8751C-0.663067 25.9802 0.262005 18.3889 4.7221 12.4659C8.61385 7.29671 14.4565 4.34636 21.6173 3.93185C28.5845 3.5275 34.2256 5.2912 38.3794 9.16607C43.1216 13.5916 44.9053 19.8987 44.9919 24.3262C45.2056 35.1055 39.1029 46.5676 24.989 47.8721C24.0781 47.9554 23.1812 47.9981 22.2985 47.9981L22.3005 48.0001ZM23.5238 5.14694C22.9232 5.14694 22.3126 5.16522 21.6898 5.19977C14.908 5.59193 9.38777 8.36956 5.72577 13.234C1.51156 18.8339 0.630824 25.9944 1.63047 30.6048C3.54913 39.464 11.4838 47.8497 24.8762 46.6103C38.1819 45.3809 43.9339 34.5468 43.7343 24.3547C43.6517 20.1872 41.9769 14.256 37.5249 10.1008C33.9979 6.81108 29.296 5.14694 23.5258 5.14694H23.5238Z" fill="#1B1529"/>
    <path fillRule="evenodd" clipRule="evenodd" d="M40.3686 8.04024C40.7132 5.69947 37.2004 0.312851 22.494 0.650149C8.06566 0.981352 3.7406 7.11165 4.71404 10.2022C5.64919 13.181 11.4314 16.3833 23.0421 15.9464C34.6529 15.5096 39.8627 11.4701 40.3686 8.0382V8.04024ZM35.8178 6.83124C36.0899 5.44548 33.4981 2.28381 22.502 2.58047C11.7115 2.87104 8.43851 6.52036 9.14592 8.34299C9.82712 10.0986 14.128 11.9537 22.8144 11.6184C31.4988 11.2852 35.4188 8.86316 35.8198 6.83124H35.8178Z" fill="white"/>
    <path d="M20.9884 16.6232C10.7018 16.6232 5.11308 13.5814 4.11344 10.3954C3.71842 9.14171 4.06507 7.61574 5.06471 6.20559C6.3183 4.43579 10.5265 0.290673 22.4798 0.0163636C33.6936 -0.24169 38.069 2.80619 39.6793 4.64507C40.6729 5.78092 41.1526 7.05086 40.9934 8.13388C40.4613 11.7405 35.447 16.1173 23.0663 16.5826C22.3549 16.609 21.6616 16.6232 20.9905 16.6232H20.9884ZM23.8221 1.27006C23.3948 1.27006 22.9595 1.27412 22.5101 1.28631C11.125 1.54843 7.23531 5.32983 6.09056 6.9452C5.3247 8.02619 5.04255 9.14374 5.31463 10.0114C6.20745 12.852 12.1227 15.7231 23.02 15.3126C33.8246 14.9063 39.2662 11.2082 39.7478 7.94694C39.7861 7.68482 39.8285 6.73185 38.7361 5.48629C37.3314 3.8831 33.5505 1.27006 23.8241 1.27006H23.8221ZM20.805 12.2932C12.8784 12.2932 9.24668 10.3507 8.55741 8.57277C8.28937 7.87989 8.42238 7.07322 8.93228 6.29702C10.6051 3.75509 15.6698 2.12753 22.4839 1.94465C31.6157 1.70286 34.7496 3.77744 35.8057 5.03927C36.3317 5.66713 36.5554 6.34782 36.4345 6.95536C35.9972 9.17625 32.1739 11.895 22.8346 12.2526C22.1292 12.279 21.452 12.2932 20.803 12.2932H20.805ZM23.9088 3.19632C23.4634 3.19632 22.9998 3.20241 22.5181 3.2146C14.9785 3.41779 11.0988 5.30138 9.98432 6.99803C9.7062 7.41864 9.61752 7.81283 9.7324 8.10949C10.2504 9.4465 14.1582 11.3138 22.7902 10.9826C32.0107 10.6291 34.9411 8.03025 35.2011 6.70747C35.2333 6.54085 35.1567 6.232 34.8444 5.85813C34.3042 5.21198 31.9603 3.19632 23.9108 3.19632H23.9088Z" fill="#1B1529"/>
    <path d="M21.8127 37.9195C19.9969 37.9195 18.5034 37.3831 17.3688 36.3204C15.3292 34.4104 15.2385 31.5067 15.2345 31.3848C15.2264 31.0333 15.5005 30.7427 15.8492 30.7346C16.2099 30.7204 16.486 31.0049 16.4941 31.3543C16.4941 31.3787 16.5828 33.8577 18.2334 35.3979C19.2068 36.3061 20.5531 36.7227 22.2319 36.6394C27.7824 36.363 27.8066 31.393 27.8046 31.1816C27.8025 30.8321 28.0807 30.5436 28.4273 30.5396H28.4354C28.78 30.5396 29.0601 30.8179 29.0642 31.1654C29.0642 31.2284 29.0722 37.57 22.2924 37.9073C22.1292 37.9154 21.9699 37.9195 21.8107 37.9195H21.8127Z" fill="#1B1529"/>
    <path d="M14.656 27.3963C13.1969 27.3963 11.9957 26.9635 11.0807 26.1061C9.44017 24.5679 9.36761 22.2373 9.36358 22.1377C9.35552 21.7862 9.62961 21.4956 9.97828 21.4875C9.98433 21.4875 9.98836 21.4875 9.9944 21.4875C10.335 21.4875 10.6151 21.7618 10.6232 22.1073C10.6232 22.1235 10.6937 24.0152 11.9453 25.1815C12.6809 25.8663 13.7028 26.1812 14.9785 26.1183C19.1967 25.909 19.2209 22.1377 19.2189 21.9772C19.2169 21.6277 19.495 21.3412 19.8417 21.3372H19.8477C20.1924 21.3372 20.4725 21.6155 20.4765 21.963C20.4765 22.0138 20.4846 27.118 15.037 27.3882C14.9059 27.3943 14.779 27.3984 14.652 27.3984L14.656 27.3963Z" fill="#1B1529"/>
    <path d="M31.9422 27.3964C31.8152 27.3964 31.6882 27.3924 31.5572 27.3863C26.1116 27.116 26.1177 22.0118 26.1177 21.961C26.1217 21.6136 26.4038 21.3352 26.7465 21.3352H26.7545C27.1012 21.3393 27.3793 21.6278 27.3753 21.9773C27.3753 22.1439 27.4015 25.9091 31.6157 26.1183C32.8975 26.1834 33.9213 25.8644 34.6569 25.1755C35.9125 23.9991 35.971 22.1277 35.971 22.1073C35.979 21.7558 36.2713 21.4815 36.6159 21.4876C36.9626 21.4957 37.2387 21.7863 37.2306 22.1378C37.2286 22.2374 37.154 24.568 35.5135 26.1061C34.5985 26.9636 33.3973 27.3964 31.9361 27.3964H31.9422Z" fill="#1B1529"/>
  </g>
  <defs>
    <clipPath id="clip0_29_10">
      <rect width="45" height="48" fill="white"/>
    </clipPath>
  </defs>
</svg>