<svg xmlns="http://www.w3.org/2000/svg" width="47" height="46" viewBox="0 0 39 38" fill="none">
  <g clipPath="url(#clip0_15_406)">
    <path fillRule="evenodd" clipRule="evenodd" d="M0.593152 19.5076C0.128721 13.6984 2.84051 1.24836 18.3963 0.570598C33.6599 -0.094901 39.2609 13.399 38.3686 21.2151C37.5076 28.7475 31.5361 37.3394 19.2469 37.4515C6.95603 37.5636 1.27675 28.0189 0.593152 19.5076Z" fill="white"/>
    <path d="M19.0331 38C6.94396 38 0.789815 28.7601 0.0522926 19.5517C-0.25211 15.7479 0.737632 10.1822 4.42873 5.97377C7.66235 2.28901 12.3536 0.285508 18.3721 0.0245625C24.5558 -0.243388 29.828 1.77588 33.6148 5.87045C37.953 10.5605 39.3984 16.9895 38.9079 21.2785C38.4209 25.5324 36.4918 29.5202 33.4739 32.5079C29.8959 36.0491 24.9767 37.9493 19.2505 38C19.1774 38 19.1044 38 19.0331 38ZM1.13596 19.4641C1.83348 28.1682 7.63973 36.9055 19.0365 36.9055C19.1044 36.9055 19.1722 36.9055 19.2418 36.9055C30.8491 36.7986 36.9406 28.9177 37.8295 21.1542C38.2904 17.1139 36.9215 11.0508 32.8199 6.61651C29.2558 2.76362 24.2775 0.863442 18.419 1.11738C12.7067 1.36607 8.27463 3.24523 5.24278 6.69882C1.77782 10.6498 0.848956 15.8845 1.13596 19.4641Z" fill="#1B1529"/>
    <path fillRule="evenodd" clipRule="evenodd" d="M9.77392 17.6776C9.7113 16.6145 10.0748 14.3343 12.1657 14.21C14.2147 14.0874 14.9679 16.5585 14.8479 17.991C14.7331 19.3711 13.9294 20.9438 12.2805 20.9648C10.6297 20.9858 9.86785 19.238 9.77566 17.6793L9.77392 17.6776Z" fill="#1B1529"/>
    <path fillRule="evenodd" clipRule="evenodd" d="M24.3035 16.9842C24.2408 15.9212 24.6044 13.6409 26.6952 13.5166C28.7443 13.394 29.4974 15.8651 29.3774 17.2977C29.2626 18.6777 28.459 20.2504 26.81 20.2714C25.1593 20.2924 24.3974 18.5446 24.3052 16.986L24.3035 16.9842Z" fill="#1B1529"/>
    <path d="M20.2488 29.2296C14.8305 29.2296 14.3226 24.079 14.3173 24.0264C14.2912 23.7252 14.5122 23.459 14.8113 23.4327C15.1105 23.4082 15.3732 23.6289 15.3993 23.9301C15.4167 24.121 15.8689 28.3714 20.6541 28.1228C22.1031 28.0474 23.2215 27.5728 23.9799 26.7094C25.2654 25.2453 25.128 23.1105 25.1262 23.0895C25.1053 22.7882 25.3297 22.5256 25.6272 22.5028C25.9281 22.4783 26.1873 22.7059 26.2099 23.0054C26.2186 23.1105 26.3891 25.6079 24.8009 27.424C23.8425 28.522 22.4649 29.1245 20.708 29.2138C20.5498 29.2226 20.3967 29.2261 20.2471 29.2261L20.2488 29.2296Z" fill="#1B1529"/>
  </g>
  <defs>
    <clipPath id="clip0_15_406">
      <rect width="39" height="38" fill="white"/>
    </clipPath>
  </defs>
</svg>