<svg xmlns="http://www.w3.org/2000/svg" width="47" height="46" viewBox="0 0 44 43" fill="none">
  <g clipPath="url(#clip0_12_65)">
    <path fillRule="evenodd" clipRule="evenodd" d="M0.669195 22.0746C0.145222 15.5032 3.20467 1.41292 20.7548 0.645985C37.9753 -0.10708 44.2944 15.1623 43.2876 24.0068C42.3162 32.5304 35.5791 42.2528 21.7145 42.3797C7.84978 42.5065 1.44044 31.7059 0.671157 22.0746H0.669195Z" fill="white"/>
    <path d="M21.4731 43.0001C7.83408 43.0001 0.890951 32.5443 0.0588744 22.1243C-0.284554 17.8199 0.832078 11.5219 4.99639 6.7598C8.64458 2.5902 13.9373 0.325062 20.7274 0.0277991C27.7097 -0.279372 33.652 2.00955 37.9243 6.64288C42.8186 11.95 44.4494 19.225 43.898 24.0783C43.3485 28.892 41.1721 33.4064 37.7673 36.7853C33.7305 40.7924 28.1807 42.9426 21.7204 43.0001C21.6379 43.0001 21.5555 43.0001 21.4731 43.0001ZM1.28148 22.0252C2.07038 31.8745 8.61907 41.7615 21.477 41.7615C21.5535 41.7615 21.6301 41.7615 21.7086 41.7615C34.8059 41.6406 41.6765 32.7227 42.6793 23.9376C43.2013 19.3657 41.6549 12.5049 37.0274 7.4871C33.0064 3.12725 27.384 0.977057 20.7803 1.26441C14.3357 1.54582 9.33536 3.67224 5.91481 7.58025C2.00562 12.0531 0.957675 17.9745 1.28148 22.0252Z" fill="#1B1529"/>
    <path fillRule="evenodd" clipRule="evenodd" d="M2.63949 11.514C2.63949 11.514 20.639 13.1906 31.6798 2.73487C31.6798 2.73487 24.1008 -1.35546 13.6174 1.87876C5.00816 4.5343 2.63949 11.514 2.63949 11.514Z" fill="white"/>
    <path d="M5.62633 12.2433C3.87583 12.2433 2.7592 12.1462 2.58258 12.1304C2.39419 12.1125 2.22542 12.0095 2.12337 11.8509C2.02132 11.6904 1.99777 11.4923 2.05861 11.3139C2.15869 11.0166 4.62941 4.0052 13.4369 1.28624C24.04 -1.98563 31.6484 2.01552 31.9682 2.18794C32.1429 2.28108 32.2606 2.45547 32.2881 2.65365C32.3136 2.85182 32.243 3.05 32.0997 3.18674C23.6082 11.2287 11.2958 12.2433 5.62633 12.2433ZM3.55399 10.9473C7.14723 11.1038 21.2042 11.1375 30.5729 2.90929C28.375 2.0076 21.9578 -0.0494591 13.798 2.46934C7.27479 4.4828 4.44494 9.11415 3.55399 10.9473Z" fill="#1B1529"/>
    <path d="M14.32 4.17549C11.9905 4.17549 10.346 3.88219 10.1949 3.85445C9.86129 3.79301 9.6415 3.46999 9.70233 3.13309C9.76317 2.7962 10.0811 2.57424 10.4167 2.63567C10.4991 2.65153 18.6844 4.10019 24.6424 0.313063C24.929 0.130742 25.3077 0.217939 25.4882 0.507274C25.6688 0.79661 25.5824 1.17909 25.2959 1.36141C21.6713 3.6642 17.3971 4.17549 14.3219 4.17549H14.32Z" fill="#1B1529"/>
    <path d="M4.66866 9.79965C4.15842 9.79965 3.85228 9.7719 3.79341 9.76596C3.45587 9.73227 3.21056 9.42906 3.24196 9.0882C3.27532 8.74734 3.56969 8.49566 3.91115 8.53133C4.02105 8.54124 11.7472 9.18134 19.4714 2.45727C19.7285 2.23333 20.1151 2.26306 20.3368 2.52267C20.5586 2.78227 20.5291 3.17268 20.2721 3.39662C13.5782 9.22494 6.99808 9.79965 4.66866 9.79965Z" fill="#1B1529"/>
    <path d="M23.361 6.01669C20.1681 6.01669 17.2813 5.65601 17.0831 5.63024C16.7475 5.58665 16.5081 5.27749 16.5513 4.93861C16.5944 4.59973 16.8986 4.35796 17.2362 4.40156C17.3147 4.41147 25.1566 5.38847 29.1266 4.13402C29.4485 4.03097 29.7939 4.21329 29.8959 4.54028C29.9979 4.86727 29.8174 5.21408 29.4936 5.31713C27.7941 5.85418 25.5079 6.01867 23.361 6.01867V6.01669Z" fill="#1B1529"/>
    <path fillRule="evenodd" clipRule="evenodd" d="M9.17051 21.0126C9.09986 19.8097 9.51001 17.2294 11.8689 17.0887C14.1826 16.95 15.0304 19.7462 14.895 21.3673C14.7654 22.9289 13.8588 24.7085 11.9984 24.7323C10.136 24.7561 9.27648 22.7783 9.17247 21.0146L9.17051 21.0126Z" fill="#1B1529"/>
    <path d="M10.8366 15.2378C10.1478 15.2378 9.51001 15.1406 9.01744 15.0079C8.68971 14.9187 8.49543 14.5798 8.58374 14.2489C8.67205 13.9179 9.00763 13.7237 9.33339 13.8109C9.49431 13.8545 13.2956 14.8275 14.3298 11.8668C14.4416 11.5438 14.7929 11.3733 15.1128 11.4883C15.4327 11.6012 15.5995 11.956 15.4876 12.279C14.6771 14.6016 12.593 15.2378 10.8386 15.2378H10.8366Z" fill="#1B1529"/>
    <path d="M30.6279 15.2317C26.966 15.2317 25.9749 11.7181 25.9651 11.6765C25.8768 11.3455 26.0691 11.0066 26.3969 10.9155C26.7226 10.8263 27.0602 11.0205 27.1485 11.3495C27.1877 11.4902 28.1336 14.7244 31.9251 13.8286C32.2528 13.7494 32.5844 13.9574 32.6629 14.2904C32.7395 14.6233 32.5354 14.9563 32.2057 15.0355C31.6327 15.1723 31.1087 15.2317 30.6299 15.2317H30.6279Z" fill="#1B1529"/>
    <path fillRule="evenodd" clipRule="evenodd" d="M25.9435 21.0126C25.8729 19.8097 26.283 17.2294 28.6419 17.0887C30.9537 16.95 31.8034 19.7462 31.668 21.3673C31.5385 22.9289 30.6318 24.7085 28.7714 24.7323C26.9091 24.7561 26.0495 22.7783 25.9455 21.0146L25.9435 21.0126Z" fill="#1B1529"/>
    <path d="M17.0478 32.0528C16.9359 32.0528 16.8241 32.0231 16.722 31.9616C16.4198 31.7793 16.3197 31.3849 16.5002 31.0778C16.5316 31.0243 19.703 25.7588 25.2999 26.817C25.6472 26.8824 25.8749 27.2193 25.8101 27.5701C25.7453 27.9208 25.4117 28.1507 25.0644 28.0853C20.3506 27.1935 17.7091 31.5514 17.5992 31.7357C17.4795 31.9378 17.2676 32.0488 17.0497 32.0488L17.0478 32.0528Z" fill="black"/>
    <path fillRule="evenodd" clipRule="evenodd" d="M28.9677 33.8046C28.0728 35.4158 31.1499 38.7213 32.4981 37.6928C33.8463 36.6643 39.2685 29.0999 40.0888 28.0318C40.9091 26.9636 38.8682 24.1099 36.4328 24.851C33.9955 25.5922 30.2864 31.4285 28.9677 33.8046Z" fill="white"/>
    <path d="M31.8937 38.5372C31.2676 38.5372 30.5553 38.2181 29.8508 37.5979C28.6085 36.5039 27.7156 34.7422 28.4103 33.4897C28.5968 33.1528 33.0338 25.2119 36.2483 24.2329C37.9773 23.7058 39.557 24.6531 40.3538 25.8263C41.0014 26.7795 41.0936 27.7763 40.5932 28.4263C40.4342 28.6324 40.1026 29.0862 39.6591 29.6867C36.7409 33.6522 33.9012 37.4294 32.8827 38.2063C32.5943 38.4262 32.2587 38.5352 31.8937 38.5352V38.5372ZM29.525 34.1199C29.2326 34.649 29.7762 35.8182 30.6907 36.6228C31.2676 37.1321 31.8662 37.366 32.1135 37.1777C33.1261 36.4068 36.9862 31.1592 38.6327 28.9178C39.0821 28.3054 39.4216 27.8457 39.5825 27.6356C39.6787 27.5108 39.6551 27.0807 39.2999 26.5575C38.7642 25.7708 37.728 25.1287 36.6153 25.4696C34.6077 26.0819 31.199 31.1017 29.523 34.1219L29.525 34.1199Z" fill="black"/>
    <path fillRule="evenodd" clipRule="evenodd" d="M32.0781 31.4069C31.8799 32.1877 33.7482 33.6681 34.539 32.9189C35.5733 31.94 36.3229 30.7925 36.6251 30.2178C36.9273 29.6431 35.2828 28.4124 34.539 28.567C33.7953 28.7216 32.3274 30.4219 32.0781 31.4049V31.4069Z" fill="black"/>
  </g>
  <defs>
    <clipPath id="clip0_12_65">
      <rect width="44" height="43" fill="white"/>
    </clipPath>
  </defs>
</svg>