<svg xmlns="http://www.w3.org/2000/svg" width="47" height="46" viewBox="0 0 46 45" fill="none">
  <g clipPath="url(#clip0_12_89)">
    <path fillRule="evenodd" clipRule="evenodd" d="M0.699609 23.1014C0.151819 16.2222 3.35034 1.47865 21.6982 0.676042C39.7014 -0.112049 46.3077 15.8675 45.2552 25.1235C44.2397 34.0434 37.1964 44.2181 22.7015 44.3508C8.20659 44.4835 1.50591 33.1807 0.70166 23.1014H0.699609Z" fill="white"/>
    <path d="M22.4495 45.0004C8.1905 45.0004 0.933818 34.0584 0.061868 23.1537C-0.29717 18.6492 0.870217 12.0582 5.22381 7.0746C9.03783 2.71106 14.5711 0.338491 21.6698 0.0294759C28.9634 -0.289908 35.182 2.1034 39.6484 6.95223C44.7652 12.5062 46.4701 20.1196 45.8916 25.1986C45.3171 30.2362 43.0418 34.9585 39.4822 38.4966C35.262 42.6901 29.4599 44.9403 22.7059 45.0004C22.6197 45.0004 22.5336 45.0004 22.4495 45.0004ZM1.34004 23.05C2.16276 33.3574 9.01116 43.7042 22.4536 43.7042C22.5336 43.7042 22.6136 43.7042 22.6957 43.7042C36.3863 43.5777 43.5712 34.2451 44.6196 25.0514C45.1632 20.2668 43.5486 13.0869 38.7108 7.83573C34.507 3.27309 28.6331 1.02081 21.7252 1.3236C14.9876 1.6181 9.76001 3.84135 6.18399 7.9332C2.0971 12.612 1.00152 18.8109 1.34004 23.05Z" fill="#1B1529"/>
    <path d="M10.1639 19.0739C9.81919 19.0739 9.53401 18.796 9.52375 18.4455C9.51349 18.0868 9.79252 17.7881 10.1454 17.7777L17.1682 17.5662C17.5252 17.5558 17.8186 17.8358 17.8288 18.1946C17.8391 18.5534 17.5601 18.852 17.2072 18.8624L10.1844 19.0739C10.1844 19.0739 10.1721 19.0739 10.1659 19.0739H10.1639Z" fill="#1B1529"/>
    <path d="M34.4472 19.0738C34.4472 19.0738 34.4349 19.0738 34.4287 19.0738L27.4059 18.8623C27.051 18.8519 26.774 18.5533 26.7843 18.1945C26.7945 17.8357 27.0838 17.5536 27.4449 17.5661L34.4677 17.7776C34.8226 17.788 35.0996 18.0866 35.0893 18.4454C35.0791 18.7959 34.7939 19.0738 34.4492 19.0738H34.4472Z" fill="#1B1529"/>
    <path d="M28.719 33.8173C28.7026 33.8173 28.6861 33.8173 28.6697 33.8173C28.3168 33.7904 28.0522 33.4772 28.0789 33.1205C28.0789 33.0956 28.243 30.5696 26.7268 28.8358C25.8323 27.8133 24.5131 27.2492 22.8041 27.1621C17.1559 26.8718 16.6266 31.9135 16.606 32.1292C16.5732 32.4859 16.2675 32.7493 15.9105 32.7161C15.5576 32.685 15.2991 32.3718 15.3279 32.0151C15.334 31.9508 15.9721 25.5154 22.8697 25.868C24.9419 25.9758 26.5668 26.6893 27.6972 27.9875C29.5704 30.1382 29.3673 33.0956 29.3591 33.22C29.3324 33.5602 29.0513 33.8194 28.721 33.8194L28.719 33.8173Z" fill="#1B1529"/>
  </g>
  <defs>
    <clipPath id="clip0_12_89">
      <rect width="46" height="45" fill="white"/>
    </clipPath>
  </defs>
</svg>