<svg width="73" height="54" viewBox="0 0 73 54" fill="none" xmlns="http://www.w3.org/2000/svg">
<circle cx="35.8917" cy="31.475" r="21.525" stroke="black" stroke-width="2"/>
<circle cx="36.3922" cy="31.9754" r="16.0189" stroke="black" stroke-width="2"/>
<circle cx="36.3922" cy="31.9755" r="11.0133" stroke="black" stroke-width="2"/>
<circle cx="36.3922" cy="31.9756" r="6.00778" stroke="black" stroke-width="2"/>
<path d="M21.32 5.20344L22.0452 5.89195C22.3062 5.61709 22.3893 5.21831 22.2599 4.86207C22.1306 4.50583 21.8109 4.25334 21.4344 4.21L21.32 5.20344ZM13.6995 13.2303L12.9743 12.5418C12.7345 12.7944 12.6434 13.1535 12.7338 13.4898C12.8241 13.8261 13.083 14.0912 13.417 14.1896L13.6995 13.2303ZM24.6983 17.5118C25.2281 17.6678 25.784 17.3648 25.9401 16.8351C26.0961 16.3053 25.7931 15.7493 25.2633 15.5933L24.6983 17.5118ZM10.6023 4.97635L21.2057 6.19688L21.4344 4.21L10.831 2.98947L10.6023 4.97635ZM20.5948 4.51493L12.9743 12.5418L14.4247 13.9188L22.0452 5.89195L20.5948 4.51493ZM13.417 14.1896L24.6983 17.5118L25.2633 15.5933L13.982 12.271L13.417 14.1896Z" fill="black"/>
<path d="M53.356 1L58.3703 10.4221L47.4362 8.70511L51.1052 19.8784" stroke="black" stroke-width="2" stroke-linecap="round" stroke-linejoin="round"/>
<path d="M3.36438 12.4834L10.1718 17.274L1.95855 19.9297L8.44644 26.4127" stroke="black" stroke-width="2" stroke-linecap="round" stroke-linejoin="round"/>
<path d="M70.7275 13.3667L69.3606 21.5778L63.4076 15.327L60.377 23.9836" stroke="black" stroke-width="2" stroke-linecap="round" stroke-linejoin="round"/>
</svg>
