<svg width="82" height="74" viewBox="0 0 82 74" fill="none" xmlns="http://www.w3.org/2000/svg">
<g clipPath="url(#clip0_5_235)">
<path d="M68.137 44.3327C66.2997 44.7948 64.4634 45.2581 62.626 45.7214C62.5845 45.3051 62.5095 44.8911 62.4034 44.484C63.8071 44.0574 65.1601 43.4141 66.4196 42.5528C69.7172 40.3005 73.2121 35.5976 71.2651 31.4577C70.332 29.4726 68.4681 28.3522 66.3262 27.7501C66.4058 26.14 65.9063 24.5448 64.934 23.179C63.0309 20.507 59.9385 18.9622 56.6963 18.4267C55.341 15.0586 51.7873 13.054 48.244 12.4944C45.7503 12.101 43.1379 12.1916 40.6326 12.4336C38.8056 12.6102 36.5426 13.3487 35.9855 15.2547C33.5564 14.187 30.794 13.968 28.283 15.1343C27.3914 15.5483 26.6059 16.1388 25.9588 16.8453C25.1168 17.1423 24.3071 17.5379 23.5459 18.0597C22.0222 19.1033 20.8031 20.601 20.1779 22.2719C17.2113 23.0391 14.5711 24.8028 12.7626 27.4829C12.247 28.2478 11.8295 29.0586 11.5076 29.8992C10.8756 31.0035 10.563 32.2673 10.7153 33.6388C10.5768 36.1675 11.1951 38.7398 12.5377 40.9668C13.8699 43.1767 15.7938 44.7627 18.0014 45.8808C18.2148 46.6331 18.6046 47.2833 19.2655 47.6847C20.4201 48.3843 21.5274 48.1136 22.5355 47.4966C23.8515 47.8063 25.193 48.0093 26.5136 48.1297C26.8274 48.5207 27.1734 48.8934 27.5552 49.2432C29.7501 51.2547 32.4583 52.1102 35.2877 52.3086C36.0605 52.6079 36.9082 52.7799 37.7964 52.8258C39.3512 52.9061 40.9371 52.7581 42.4989 52.468C42.9002 53.3349 43.7053 53.9817 44.7503 54.2157C45.7019 54.429 46.6316 54.2753 47.5266 53.9634C50.9742 55.0494 54.8174 55.0012 58.0527 53.3223C60.0447 52.2879 61.7552 50.6113 62.3953 48.4244C62.5614 47.8556 62.6468 47.2753 62.6641 46.695C64.6341 46.4233 66.5672 45.9244 68.4266 45.2145C68.8729 45.0437 68.5961 44.2168 68.1405 44.3315L68.137 44.3327ZM47.3524 53.0677C46.5312 52.7891 45.733 52.4416 44.9718 52.0345C45.4908 51.9359 45.9983 51.8223 46.4839 51.7019C46.6592 51.6583 46.8334 51.6125 47.0076 51.5655C48.4736 51.4921 49.9361 51.3246 51.3802 51.0769C50.5347 51.5414 49.6766 51.9829 48.8184 52.4187C48.3917 52.6343 47.8876 52.8739 47.3536 53.0689L47.3524 53.0677ZM34.2415 50.9531C33.6475 50.5356 33.1954 50.0127 32.8597 49.4244C33.7882 49.5781 34.7225 49.7031 35.6591 49.8051C35.696 49.82 35.7341 49.8372 35.771 49.8521C36.1943 50.4898 36.7837 51.0368 37.5438 51.4473C36.6914 51.4886 35.8448 51.4783 35.0097 51.4026C34.7433 51.2742 34.4861 51.1262 34.2415 50.9542V50.9531ZM22.3567 46.601C21.1052 46.2937 19.8872 45.8797 18.7442 45.3418C18.6173 44.6308 18.5966 43.8888 18.6519 43.1526C18.6992 43.1859 18.7454 43.2191 18.7926 43.2535C19.5804 44.015 20.4466 44.695 21.3682 45.2994C21.5274 45.4473 21.6831 45.5976 21.8365 45.7512C21.9715 45.8877 22.1699 45.9508 22.3244 45.89C22.5113 45.9989 22.6993 46.1033 22.8896 46.2065C22.7431 46.3246 22.5943 46.4382 22.4398 46.5448C22.4121 46.5643 22.3844 46.5815 22.3567 46.5999V46.601ZM11.5549 33.8384C11.6299 32.5035 11.9321 31.1836 12.4558 29.9416C14.0544 27.6113 17.104 26.4359 19.7892 25.6629C19.7961 25.7099 19.8042 25.7581 19.8123 25.8051C19.7811 25.8556 19.75 25.9049 19.7188 25.9554C18.6023 26.4794 17.5908 27.2363 16.7707 28.2386C13.9967 31.6308 14.2678 36.7501 16.4593 40.3556C16.5665 40.5322 16.6784 40.7042 16.7926 40.8739C15.9102 40.226 15.0579 39.5425 14.2851 38.7616C12.9748 37.4405 11.8398 35.6778 11.5526 33.8372L11.5549 33.8384ZM26.3279 17.601C28.5621 16.8281 31.0512 16.7868 33.4664 17.023C31.3384 17.9278 29.3268 19.1331 27.6232 20.6572C26.6347 20.89 25.6474 21.2294 24.7051 21.671C24.7304 20.1882 25.3567 18.7271 26.3279 17.601ZM56.3918 21.8441C56.3399 22.1836 56.2511 22.5081 56.1369 22.82C55.8785 22.734 55.6167 22.656 55.3537 22.5838C54.8624 21.3086 54.1184 20.1205 53.1576 19.1285C53.1368 19.1067 53.1149 19.0861 53.093 19.0643C54.0838 18.9989 55.1069 19.0265 56.1219 19.1526C56.4149 20.015 56.5313 20.9313 56.3906 21.8441H56.3918ZM64.1612 31.3246C64.1151 31.0196 64.0539 30.7226 63.979 30.4301C64.0424 30.3946 64.107 30.3625 64.1704 30.3258C64.4057 30.1916 64.445 29.8854 64.2754 29.6778C63.9536 29.2822 63.6191 28.9106 63.2719 28.5597C63.1958 28.4095 63.1151 28.2604 63.0309 28.1148C63.5395 28.1618 64.0459 28.2249 64.5499 28.3051C64.8429 28.3522 65.1439 28.4083 65.4473 28.4749C65.2454 29.4806 64.8002 30.4508 64.1601 31.3235L64.1612 31.3246ZM59.5118 44.2031C59.1727 44.2409 58.8324 44.2638 58.4922 44.2753C58.6375 44.1033 58.7794 43.929 58.9189 43.7535C59.4564 43.2077 59.9731 42.6377 60.4599 42.0448C60.4887 42.0861 60.5153 42.1297 60.5429 42.1721C60.2638 42.8866 59.9155 43.5632 59.5118 44.2042V44.2031ZM61.07 43.0827C61.1958 43.3349 61.3088 43.593 61.4092 43.8556C61.1439 43.9233 60.8763 43.9829 60.6075 44.0356C60.7759 43.7237 60.9305 43.4049 61.07 43.0838V43.0827ZM37.3869 50.4542C37.3685 50.4416 37.3523 50.429 37.335 50.4164C38.3085 50.7283 39.2993 50.9737 40.3016 51.1583C39.9683 51.2099 39.6361 51.257 39.3027 51.2971C38.6153 51.1239 37.9659 50.8533 37.3869 50.4554V50.4542ZM21.7385 44.5609C21.0234 43.9198 20.2609 43.3384 19.4801 42.7788C19.2413 42.5494 19.0106 42.3109 18.7869 42.0643C18.8296 41.8166 18.878 41.5712 18.9357 41.3315C19.367 39.5242 20.2344 37.859 21.449 36.4806C21.6658 36.7489 21.8896 37.0127 22.1156 37.2742C22.0395 37.4622 21.9692 37.6526 21.908 37.8487C21.5228 39.0918 21.464 40.4267 21.6958 41.7088C21.645 42.5219 21.7788 43.3177 22.1883 44.015C22.1041 44.2421 22.0222 44.4714 21.9449 44.7008C21.8746 44.6549 21.8065 44.6079 21.7373 44.562L21.7385 44.5609ZM19.0406 27.3625C17.9564 30.3258 19.081 33.2811 20.8803 35.7455C19.4905 37.2937 18.5297 39.2008 18.0925 41.2306C15.6427 38.0391 14.5942 33.7512 16.6277 30.0219C17.2436 28.8911 18.0764 28.0127 19.0395 27.3636L19.0406 27.3625ZM54.7389 23.2214C54.8012 23.4164 54.8566 23.6125 54.905 23.8109C54.8485 23.7925 54.792 23.7753 54.7366 23.7581C54.5555 23.5207 54.3491 23.2994 54.1207 23.0964C54.3272 23.1343 54.5336 23.1767 54.7389 23.2214ZM63.0701 29.945C61.7563 30.6411 60.3907 31.234 58.987 31.7145C57.9766 30.7054 56.7932 29.8923 55.5094 29.2524C55.5982 29.0093 55.6744 28.7627 55.7401 28.5127C56.1576 28.4301 56.5752 28.3533 56.9973 28.2902C58.4864 28.07 59.9997 27.9772 61.5072 28.0219C61.9467 28.3716 62.3653 28.7444 62.761 29.1423C62.8798 29.406 62.9824 29.6733 63.0712 29.945H63.0701ZM29.5264 47.382C29.5264 47.382 29.5241 47.382 29.5229 47.382C28.5033 47.3694 27.4917 47.1526 26.5655 46.7455C26.3925 46.4749 26.2345 46.1962 26.088 45.9095C26.84 45.89 27.614 45.7466 28.3718 45.5448C28.7847 45.7329 29.2149 45.8992 29.6578 46.046C30.1215 46.4634 30.6048 46.859 31.1054 47.2317C30.7559 47.3028 30.4018 47.3499 30.0477 47.3694C29.8747 47.3728 29.7005 47.3797 29.5275 47.3808L29.5264 47.382ZM22.7742 42.5769C22.6404 42.1698 22.5436 41.7524 22.4813 41.3281C22.6139 40.4588 23.0015 39.5781 23.4732 38.7558C23.6105 38.9003 23.7489 39.0448 23.8873 39.1882C23.8815 39.5689 23.8873 39.9508 23.9023 40.3315C23.4882 41.0609 23.1122 41.8109 22.7742 42.5769ZM22.5885 38.6583C22.6404 38.4382 22.7039 38.2226 22.7777 38.0116C22.8123 38.0494 22.8469 38.0872 22.8827 38.1251C22.8261 38.2272 22.7685 38.3292 22.7131 38.4313C22.6693 38.5138 22.6255 38.5987 22.5828 38.6847C22.5851 38.6755 22.5862 38.6675 22.5885 38.6583ZM21.998 35.9049C22.3348 35.5723 22.6947 35.2616 23.0753 34.9714C23.1168 35.1067 23.1606 35.2409 23.2068 35.3751C22.9392 35.7272 22.6993 36.0987 22.4882 36.4875C22.3221 36.2971 22.1583 36.1022 21.998 35.9049ZM19.4005 29.5838C19.4512 28.632 19.7119 27.7478 20.126 26.9393C20.2286 27.2122 20.3498 27.484 20.4951 27.7524C21.0487 28.773 21.7754 29.6056 22.6185 30.2799C22.5067 31.5311 22.5712 32.7914 22.8285 34.0093C22.3406 34.3544 21.8723 34.7421 21.4294 35.1733C20.2079 33.5184 19.2909 31.6538 19.4005 29.5838ZM43.1575 21.6583C43.2001 21.8797 43.2221 22.1033 43.2244 22.3281C43.0906 22.3613 42.9568 22.3946 42.8253 22.4278C42.6684 22.0815 42.5012 21.7398 42.3224 21.4038C42.5992 21.4921 42.8783 21.5769 43.1575 21.6583ZM54.3156 24.4599C54.4425 24.6675 54.5429 24.8866 54.6201 25.1125C53.9638 25.765 53.1899 26.3155 52.3929 26.7616C51.8 27.093 51.1829 27.39 50.5509 27.6606C48.5335 27.3051 46.4585 27.179 44.3859 27.2409C44.3593 27.1205 44.3316 27.0012 44.304 26.882C44.8714 26.5242 45.3893 26.0953 45.8265 25.5609C46.4032 24.8544 46.8069 23.984 46.913 23.093C47.3455 23.0253 47.7792 22.9691 48.2129 22.9233C50.2544 23.3866 52.3179 23.843 54.3168 24.4611L54.3156 24.4599ZM50.8796 48.6801C49.8138 48.9485 48.7492 49.2168 47.6835 49.4852C47.6604 49.4909 47.6373 49.4966 47.6143 49.5024C46.2475 49.4898 44.8807 49.468 43.5139 49.4301C43.9199 48.6698 44.4804 47.968 44.928 47.4565C46.9199 47.0551 48.9522 46.4794 50.8519 45.6583C51.9996 46.0425 53.1841 46.3372 54.3848 46.5471C53.3987 47.2398 52.3837 47.8671 51.3675 48.4221C51.206 48.5104 51.0411 48.5941 50.8773 48.679L50.8796 48.6801ZM23.4917 33.3705C23.3544 32.5299 23.3187 31.6733 23.3694 30.8212C23.7685 31.0792 24.1883 31.3074 24.622 31.5093C24.381 32.0586 24.2172 32.6297 24.1191 33.2145C23.9184 33.32 23.72 33.4313 23.5251 33.5494C23.5147 33.4898 23.5009 33.4301 23.4917 33.3705ZM23.7235 25.9565C23.246 27.0551 22.9103 28.2134 22.7258 29.3911C21.8388 28.593 21.1214 27.6079 20.7408 26.4966C21.6866 26.1503 22.6981 25.9726 23.7235 25.9565ZM24.637 25.984C25.013 26.0127 25.3879 26.0643 25.7616 26.1343C26.5632 27.0414 27.5529 27.7593 28.644 28.3304C28.6025 28.3476 28.5633 28.3671 28.5217 28.3854C27.058 28.7226 25.7512 29.5207 24.9484 30.8648C24.4744 30.6377 24.0119 30.3728 23.5655 30.0597C23.5263 30.0322 23.4871 30.0024 23.4478 29.9737C23.6266 28.5907 24.0372 27.234 24.637 25.9829V25.984ZM44.1044 26.0849C43.9568 25.5265 43.7918 24.9726 43.6084 24.4267C43.6915 24.2054 43.7619 23.9806 43.8172 23.7524C44.6223 23.5356 45.4378 23.3499 46.2578 23.2019C46.0525 24.4026 45.1609 25.3682 44.1033 26.0849H44.1044ZM59.0516 34.7719C59.0054 34.3613 58.9201 33.9531 58.7978 33.5494C59.1658 33.8338 59.4553 34.1813 59.6502 34.5781C59.453 34.648 59.2534 34.7134 59.0516 34.7719ZM41.2543 47.1893C41.2232 47.0941 41.1909 47.0001 41.1597 46.9049C42.3766 46.7788 43.5877 46.5884 44.7849 46.3349C44.7619 46.359 44.7376 46.382 44.7146 46.4072C44.6165 46.5116 44.5185 46.6194 44.4205 46.7283C43.665 46.8705 42.9152 46.9886 42.1805 47.0838C41.8726 47.1239 41.5634 47.1583 41.2543 47.1905V47.1893ZM42.1482 25.593C42.109 25.5448 42.0686 25.4978 42.0283 25.4496C42.2555 25.1113 42.4954 24.7845 42.748 24.4668C42.5807 24.8544 42.3766 25.2317 42.1482 25.5918V25.593ZM47.5381 34.8602C47.4401 34.7386 47.3374 34.6216 47.229 34.5093C47.2394 34.5047 47.2498 34.5001 47.259 34.4966C47.5162 34.507 47.7723 34.5081 48.0272 34.5012C47.883 34.6079 47.74 34.7157 47.5947 34.82C47.5762 34.8338 47.5566 34.8464 47.5381 34.8602ZM47.2832 40.2547C46.2798 39.5838 45.2947 38.8774 44.3097 38.1687C44.9949 37.7386 45.6719 37.296 46.3397 36.843C46.7965 36.8304 47.2613 36.8281 47.7285 36.8338C48.0087 37.7719 47.9499 38.8086 47.4793 39.8556C47.4182 39.9909 47.3524 40.1239 47.2832 40.2547ZM35.1389 43.015C35.5541 42.8338 35.9682 42.648 36.3788 42.4588C36.245 42.679 36.1181 42.9026 35.9993 43.1297C35.711 43.0964 35.4238 43.0586 35.1389 43.015ZM42.861 39.2661C43.2647 40.6572 44.1655 41.796 45.2613 42.7157C45.2186 42.7524 45.1748 42.7891 45.131 42.8246C44.0917 41.7581 43.1471 40.6056 42.312 39.3785C42.4804 39.2811 42.6488 39.1836 42.8172 39.0838C42.8322 39.1446 42.8449 39.2054 42.8622 39.2661H42.861ZM46.8276 44.531C46.8253 44.4622 46.7976 44.3911 46.7354 44.3384C46.4332 44.0781 46.139 43.8074 45.8495 43.5333C45.8403 43.4611 45.8149 43.3911 45.7757 43.3292C45.8195 43.2925 45.8611 43.2535 45.9038 43.2157C46.2429 43.4599 46.5923 43.6882 46.9476 43.8969C47.0895 43.9806 47.2313 44.0609 47.3755 44.1411C47.1898 44.2673 47.0076 44.3969 46.8265 44.531H46.8276ZM38.4907 45.2455C38.3292 44.8934 38.1816 44.5368 38.0432 44.1767C38.5519 44.2054 39.0594 44.2214 39.5646 44.2283C39.6741 44.6366 39.7906 45.0425 39.9117 45.4473C39.5103 45.5437 39.1043 45.6182 38.6972 45.671C38.6268 45.5299 38.5588 45.3877 38.4919 45.2444L38.4907 45.2455ZM32.0247 42.2914C31.3776 42.0815 30.7432 41.8349 30.125 41.5437C30.373 41.3934 30.6233 41.2466 30.8759 41.1033C31.5841 40.7019 32.3084 40.3281 33.0443 39.9806C33.0062 40.054 32.9682 40.1285 32.9301 40.2019C32.5898 40.8739 32.2807 41.5735 32.0247 42.2914ZM31.6671 43.445C31.6025 43.4691 31.5391 43.4944 31.4745 43.5184C31.268 43.3155 31.0696 43.0976 30.8793 42.8636C30.8447 42.8212 30.8147 42.7788 30.7824 42.7363C31.1054 42.8625 31.433 42.9794 31.764 43.0861C31.7294 43.2054 31.6982 43.3246 31.6659 43.445H31.6671ZM32.2542 32.8625C32.8505 32.9703 33.4388 33.1182 34.0189 33.296C34.1239 33.5391 34.2231 33.7856 34.3188 34.0333C33.2161 35.1526 32.1204 36.2765 31.0685 37.4382C30.5137 38.0505 29.9543 38.7168 29.4918 39.4359C29.3164 37.0712 30.5079 34.6606 32.2542 32.8625ZM25.1503 37.4714C25.1307 37.3957 25.1122 37.3189 25.0938 37.2432C25.2875 36.5941 25.5597 35.9588 25.8827 35.351C26.599 34.4611 27.3625 33.6102 28.1676 32.7994C28.4456 32.7547 28.7259 32.7214 29.0073 32.6962C29.4871 32.7535 29.9681 32.7937 30.4456 32.8166C28.5702 34.2581 26.8873 35.9634 25.4663 37.9061C25.3579 37.7638 25.2529 37.6194 25.1514 37.4714H25.1503ZM25.2887 34.6618C25.3083 34.5815 25.3279 34.5001 25.3475 34.421C25.4017 34.3739 25.4571 34.3269 25.5125 34.281C25.4363 34.406 25.3625 34.5333 25.2898 34.6606C25.2898 34.6606 25.2898 34.6618 25.2887 34.6629V34.6618ZM44.4862 31.6905C43.7965 31.2845 43.1182 30.8625 42.4539 30.4336C42.9752 30.3854 43.4943 30.3246 44.0121 30.2501C44.1575 30.6595 44.2832 31.0758 44.387 31.4989C44.4066 31.5781 44.4424 31.6411 44.4862 31.6905ZM41.3155 29.6836C41.2243 29.6228 41.1321 29.5609 41.0421 29.5001C40.8091 29.343 40.575 29.1847 40.342 29.0265C40.3696 28.9966 40.3973 28.9668 40.425 28.937C41.0755 28.7833 41.7353 28.6526 42.4043 28.5528C42.6765 28.5116 42.9487 28.476 43.2221 28.4439C43.3974 28.7765 43.5588 29.1171 43.7065 29.4634C42.9072 29.5677 42.109 29.64 41.3166 29.6847L41.3155 29.6836ZM40.6419 45.2489C40.5427 44.9106 40.4458 44.5723 40.3535 44.2317C40.5161 44.2317 40.6776 44.2294 40.8391 44.226C41.6303 44.2122 42.4204 44.1801 43.2105 44.1388C43.0813 44.2111 42.9521 44.2822 42.823 44.351C42.1321 44.7157 41.3973 45.0184 40.6419 45.2489ZM44.7238 43.1469C43.214 43.2409 41.6684 43.3246 40.1205 43.3327C39.9187 42.5207 39.7399 41.7042 39.5922 40.8831C40.365 40.4783 41.1297 40.0586 41.8864 39.6262C42.0317 39.8384 42.1794 40.0483 42.3305 40.257C43.0686 41.2707 43.883 42.226 44.7619 43.1194C44.7492 43.1285 44.7365 43.1388 44.7238 43.148V43.1469ZM39.4331 39.9152C39.4285 39.8854 39.4238 39.8556 39.4192 39.8258C39.9279 39.2925 40.4711 38.7868 41.0386 38.3063C41.147 38.4875 41.2589 38.6664 41.372 38.8441C40.7307 39.2111 40.0848 39.5689 39.4331 39.9164V39.9152ZM39.508 38.6836C39.4377 38.7512 39.3673 38.8212 39.297 38.8911C39.2543 38.5253 39.2197 38.1583 39.192 37.7925C39.6488 37.6801 40.1078 37.5781 40.5692 37.4852C40.598 37.5379 40.6257 37.5918 40.6557 37.6434C40.2624 37.9783 39.8783 38.3246 39.508 38.6836ZM33.3303 31.8877C33.358 31.9382 33.3869 31.9886 33.4145 32.0391C33.32 32.0425 33.2242 32.0471 33.1285 32.0505C33.1954 31.9955 33.2623 31.9416 33.3303 31.8877ZM33.9509 31.4863C34.5287 31.1572 35.1181 30.8487 35.7225 30.5677C36.0847 30.7329 36.4457 30.9038 36.8067 31.0746C36.794 31.2352 36.7767 31.3957 36.756 31.554C36.7491 31.562 36.741 31.5689 36.7341 31.5758C36.6303 31.6824 36.5265 31.7891 36.4226 31.8946C35.6995 31.9244 34.9647 31.9657 34.2265 32.0024C34.1377 31.8292 34.0455 31.6572 33.9509 31.4863ZM33.5276 30.7719C33.4157 30.593 33.3003 30.4152 33.1804 30.2421C33.3972 30.1675 33.6141 30.0953 33.8321 30.0253C34.0616 30.0689 34.2911 30.109 34.5184 30.1469C34.1804 30.3441 33.8505 30.5517 33.5287 30.773L33.5276 30.7719ZM32.4549 30.4989C32.6083 30.7122 32.7548 30.929 32.8943 31.1492C32.4872 31.3923 32.0881 31.648 31.6948 31.9129C30.9174 31.8166 30.14 31.7845 29.3683 31.8189C30.3672 31.32 31.4053 30.8831 32.4549 30.4978V30.4989ZM31.3868 29.9439C31.516 29.843 31.6452 29.7409 31.7767 29.6411C31.809 29.6778 31.8401 29.7157 31.8724 29.7535C31.7098 29.8155 31.5483 29.8785 31.3868 29.9439ZM35.6326 32.6996C35.5737 32.7593 35.5149 32.8189 35.4561 32.8785C35.3211 32.8269 35.1862 32.7776 35.0501 32.7283C35.2439 32.718 35.4376 32.7088 35.6326 32.6996ZM37.8644 31.5712C37.9901 31.6297 38.117 31.687 38.2439 31.7444C38.2531 31.7799 38.2623 31.8155 38.2716 31.851C38.2439 31.851 38.2151 31.851 38.1874 31.851C37.9867 31.851 37.7837 31.8544 37.5795 31.8579C37.6741 31.7627 37.7698 31.6664 37.8644 31.5712ZM38.3004 29.7249C38.2889 29.6664 38.2785 29.609 38.267 29.5505C38.5046 29.4703 38.7433 29.3923 38.9844 29.32C38.8483 29.4577 38.711 29.5953 38.5738 29.7317C38.4827 29.7294 38.3915 29.7272 38.3004 29.7249ZM35.606 33.8648C35.7698 33.9324 35.9324 34.0012 36.0951 34.0723C35.9382 34.4852 35.7617 34.8911 35.5714 35.2925C35.4584 34.945 35.3396 34.5999 35.2127 34.2581C35.3442 34.1274 35.4757 33.9955 35.606 33.8636V33.8648ZM36.2542 33.2054C36.2762 33.1824 36.2981 33.1606 36.32 33.1377C36.3638 33.093 36.4077 33.0483 36.4515 33.0035C36.4273 33.0884 36.403 33.1733 36.3765 33.2581C36.3361 33.2398 36.2946 33.2237 36.2542 33.2054ZM37.3685 32.6308C37.6914 32.6228 38.0132 32.6171 38.3362 32.6159C38.3881 32.6159 38.4423 32.6159 38.4942 32.6159C38.5115 32.6733 38.5322 32.7306 38.5496 32.7879C38.4861 33.2799 38.44 33.773 38.4088 34.2684C37.9832 34.0333 37.5518 33.8097 37.1124 33.5976C37.2093 33.2788 37.2958 32.9565 37.3673 32.6297L37.3685 32.6308ZM39.1563 34.4886C39.192 34.5781 39.2255 34.6687 39.2624 34.7581C39.2231 34.7352 39.1839 34.7111 39.1436 34.6882C39.147 34.6216 39.1516 34.5551 39.1563 34.4886ZM39.8598 36.1056C39.9533 36.3005 40.049 36.4944 40.147 36.6882C39.8091 36.7581 39.4734 36.8338 39.1378 36.9141C39.1193 36.4921 39.1136 36.0712 39.117 35.6492C39.3662 35.7982 39.6142 35.9508 39.8598 36.1056ZM42.3743 36.3074C42.1817 36.3338 41.989 36.3602 41.7964 36.39C41.2093 35.9875 40.6176 35.5941 40.0167 35.218C39.7595 34.6274 39.5219 34.0276 39.3097 33.4175C39.2935 33.3716 39.2774 33.3246 39.2624 33.2788C39.2877 33.062 39.3154 32.8453 39.3477 32.6297C39.8033 32.6434 40.2635 32.6687 40.7237 32.7111C40.8091 32.7386 40.8945 32.7661 40.9798 32.7925C41.8945 33.2363 42.8783 33.6251 43.8933 33.921C43.4758 34.5425 43.1413 35.2203 42.9245 35.929C42.7399 36.0528 42.5565 36.179 42.3754 36.3086L42.3743 36.3074ZM38.8287 30.5976C38.8425 30.5838 38.8564 30.5689 38.8714 30.5551C38.9013 30.5551 38.9313 30.5574 38.9613 30.5574C38.9532 30.5918 38.944 30.6262 38.9359 30.6606C38.9002 30.64 38.8644 30.6182 38.8298 30.5976H38.8287ZM30.9024 38.8395C32.0339 37.4336 33.3257 36.1388 34.6152 34.8533C34.7779 35.3269 34.9278 35.8063 35.0697 36.2914C34.6418 37.1044 34.1781 37.9049 33.7306 38.7065C32.3545 39.2983 31.0212 39.9829 29.7397 40.7547C29.7305 40.7237 29.719 40.6939 29.7097 40.6629C30.035 40.0058 30.4618 39.3854 30.9012 38.8395H30.9024ZM35.3776 37.3992C35.4307 37.5976 35.4826 37.796 35.5334 37.9955C35.3246 38.0712 35.117 38.148 34.9094 38.2283C35.0662 37.9531 35.2231 37.6767 35.3776 37.4003V37.3992ZM35.9117 36.4152C36.1897 35.8843 36.4503 35.3464 36.681 34.7971C36.7341 34.671 36.7848 34.5437 36.8333 34.4141C37.3304 34.6538 37.8183 34.9083 38.2981 35.1744C38.3212 35.187 38.3454 35.2008 38.3685 35.2145C38.3535 35.8418 38.3615 36.4714 38.3915 37.0999C37.6753 37.2891 36.9659 37.5024 36.2635 37.7386C36.1539 37.2948 36.0363 36.8533 35.9117 36.4141V36.4152ZM38.4492 37.9852C38.4919 38.5184 38.5484 39.0517 38.6199 39.5827C38.2139 40.0127 37.8194 40.4611 37.4492 40.929C37.3269 40.9886 37.2047 41.0471 37.0824 41.1067C36.8656 40.2707 36.6695 39.429 36.4699 38.5895C37.1228 38.3671 37.7837 38.1664 38.4504 37.9852H38.4492ZM37.7814 41.7937C38.1505 41.6136 38.5173 41.4313 38.8829 41.2455C39.0121 41.945 39.162 42.6411 39.3304 43.3304C38.7918 43.3235 38.2531 43.3063 37.7168 43.2765C37.6107 42.9611 37.5115 42.6446 37.418 42.3258C37.5357 42.1469 37.6557 41.9691 37.7814 41.7937ZM41.7999 38.5976C41.673 38.3946 41.5473 38.1905 41.4262 37.9852C41.6153 37.8327 41.8068 37.6836 42.0006 37.5368C42.2174 37.6882 42.4343 37.8418 42.65 37.9944C42.6511 38.0265 42.6557 38.0574 42.658 38.0895C42.3731 38.2616 42.0871 38.4313 41.7999 38.5987V38.5976ZM43.4504 37.554C43.4597 37.382 43.4793 37.2077 43.5081 37.0299C43.7918 37.0001 44.0756 36.9726 44.3593 36.9496C44.4055 36.9462 44.4527 36.9427 44.4989 36.9393C44.1632 37.156 43.8264 37.3694 43.4885 37.5804C43.4758 37.5712 43.4643 37.5632 43.4516 37.554H43.4504ZM44.139 35.1664C44.3247 34.8086 44.5404 34.4714 44.7815 34.1538C45.0791 34.2226 45.3778 34.2822 45.6788 34.3315C45.1563 34.5918 44.6431 34.8705 44.139 35.1664ZM44.748 32.8499C44.6707 32.8361 44.5935 32.8235 44.5162 32.8097C43.5508 32.4427 42.5035 32.2088 41.4642 32.0632C40.8425 31.7604 40.2382 31.4244 39.6395 31.0758C39.6787 30.9049 39.7203 30.7352 39.7641 30.5643C40.2128 30.562 40.6615 30.5505 41.1101 30.5288C42.3109 31.3292 43.5254 32.1079 44.778 32.8189C44.7676 32.8292 44.7584 32.8395 44.748 32.8499ZM44.6984 31.8166C44.9072 31.859 45.131 31.7214 45.0906 31.4106C45.0352 30.9783 44.9764 30.5448 44.9107 30.109C46.5128 29.8327 48.0941 29.4347 49.6351 28.9106C49.8865 28.8258 50.1403 28.7329 50.394 28.6354C50.7389 28.6927 51.0849 28.7581 51.4286 28.8327C51.3502 28.8625 51.2718 28.8888 51.1933 28.9187C49.1587 29.7031 47.041 30.7283 45.3962 32.2111C45.1621 32.0815 44.9291 31.9496 44.6973 31.8155L44.6984 31.8166ZM44.7838 29.3051C44.7296 28.9771 44.6707 28.6492 44.6085 28.3223C45.9303 28.2409 47.259 28.2638 48.5774 28.3969C47.3432 28.7925 46.0687 29.0918 44.7838 29.3051ZM37.305 28.1446C37.2842 28.07 37.2577 27.9966 37.2347 27.9221C37.3246 27.9817 37.4146 28.0414 37.5046 28.101C37.4377 28.1159 37.3719 28.1308 37.305 28.1446ZM30.0765 29.0781C29.2634 29.7879 28.4894 30.5425 27.7616 31.3395C27.6521 31.4599 27.5425 31.5827 27.4341 31.7054C27.1353 31.64 26.84 31.5655 26.5471 31.4794C27.2011 30.4496 28.073 29.6262 29.1896 29.1606C29.4814 29.1148 29.7778 29.0872 30.0765 29.0781ZM26.6244 32.2375C26.4283 32.2902 26.2333 32.3476 26.0407 32.4095C26.088 32.3086 26.1376 32.2088 26.1884 32.1102C26.3325 32.1549 26.479 32.1973 26.6255 32.2375H26.6244ZM30.1988 34.109C28.96 36.0505 28.4744 38.3304 28.9358 40.437C28.8781 40.562 28.8239 40.6882 28.7743 40.8166C28.4029 40.5907 28.0373 40.3476 27.6809 40.0815C27.0834 39.6366 26.5367 39.14 26.0465 38.5999C27.2426 36.9347 28.6405 35.4267 30.1988 34.109ZM29.1953 43.4989C29.1077 43.0425 29.1204 42.5804 29.2057 42.1228C29.2334 42.1044 29.2599 42.0861 29.2876 42.0677C29.3845 42.1171 29.4825 42.1641 29.5794 42.2111C29.8735 42.773 30.2484 43.3097 30.7121 43.8074C30.4364 43.9118 30.1365 44.0242 29.8216 44.1377C29.6129 43.9244 29.4041 43.7111 29.1953 43.4989ZM32.7617 42.515C33.1516 41.4554 33.6694 40.4473 34.2208 39.4531C34.726 39.2386 35.2346 39.0356 35.7502 38.8464C35.9659 39.7111 36.177 40.5781 36.4053 41.4324C35.4549 41.8797 34.4953 42.304 33.5253 42.7077C33.2692 42.648 33.0154 42.5849 32.7628 42.515H32.7617ZM37.2404 44.1239C37.4434 44.6744 37.6683 45.2168 37.9198 45.7466C37.2347 45.7868 36.5507 45.7604 35.8828 45.6606C36.0143 45.1079 36.2093 44.5632 36.4457 44.0494C36.711 44.0781 36.9763 44.1022 37.2416 44.1239H37.2404ZM42.0998 45.7283C43.3155 45.218 44.4943 44.6285 45.6373 43.9737C45.6385 43.9737 45.6396 43.9726 45.6408 43.9714C45.9199 44.2294 46.2025 44.484 46.492 44.7306C46.5058 44.7421 46.5197 44.7512 46.5324 44.7593C46.379 44.8785 46.2267 45.0001 46.0779 45.1251C44.5496 45.5207 42.9971 45.812 41.4366 45.9944C41.658 45.9072 41.8795 45.82 42.0998 45.7283ZM48.2025 43.6182C47.6154 43.3246 47.0468 42.9978 46.5174 42.6366C46.8922 42.2547 47.2359 41.8487 47.5324 41.421C48.2706 41.9003 49.0226 42.3556 49.7954 42.7753C49.5532 42.8877 49.3133 43.0035 49.0757 43.1262C48.7792 43.281 48.4886 43.4462 48.2025 43.6182ZM45.8645 42.1549C44.6719 41.2031 43.7815 40.0437 43.5208 38.6583C43.53 38.6526 43.5404 38.6469 43.5508 38.64C44.6442 39.4267 45.7353 40.2191 46.8507 40.9691C46.5612 41.3923 46.229 41.7868 45.8645 42.1538V42.1549ZM45.8876 36.0207C45.2901 36.0379 44.6938 36.0712 44.0986 36.1205C44.8714 35.6538 45.6661 35.2306 46.4712 34.8522C46.6281 34.9989 46.7723 35.1538 46.9049 35.3143C46.5681 35.5528 46.229 35.7879 45.8876 36.0207ZM53.0077 32.7696C53.9431 32.6148 54.8923 32.5391 55.8058 32.6022C54.7286 32.8372 53.6386 33.0093 52.5405 33.1205C52.6997 33.0116 52.8543 32.8934 53.0077 32.7696ZM51.2729 31.9577C51.0745 32.1251 50.8727 32.2891 50.6708 32.4542C49.8392 32.671 49.0203 32.9347 48.2279 33.2317C48.0399 33.2226 47.8519 33.2157 47.6639 33.2031C47.5255 33.1939 47.3859 33.1824 47.2475 33.171C46.9061 33.0081 46.567 32.8395 46.2313 32.6641C47.2648 31.8074 48.469 31.1251 49.6512 30.5517C50.7181 30.0345 51.8208 29.5976 52.9488 29.2363C53.2026 29.3166 53.4529 29.406 53.6997 29.5012C53.0296 30.4336 52.1426 31.226 51.2718 31.9577H51.2729ZM42.1067 27.1194C42.0583 27.1377 42.0098 27.1549 41.9614 27.1733C42.0502 27.062 42.139 26.9485 42.2255 26.8338C42.2693 26.8957 42.3143 26.9565 42.357 27.0196C42.2728 27.054 42.1886 27.0884 42.1067 27.1205V27.1194ZM41.1217 26.9898C41.2843 26.6755 41.4562 26.3682 41.6384 26.0677C41.6719 26.109 41.7053 26.1503 41.7388 26.1916C41.5415 26.4622 41.3351 26.7283 41.1217 26.9898ZM41.4481 24.8074C41.3708 24.7272 41.2912 24.6503 41.2128 24.5723C41.3893 24.5093 41.568 24.4473 41.7457 24.3866C41.6442 24.5253 41.545 24.6652 41.4469 24.8074H41.4481ZM41.0571 25.4072C40.7203 25.9542 40.4135 26.5265 40.1413 27.1216C40.0605 27.2994 39.9821 27.4783 39.9071 27.6572C39.4804 27.7226 39.0559 27.7948 38.6338 27.8739C38.4204 27.7306 38.2058 27.5872 37.9913 27.445C37.9555 26.929 37.9452 26.4152 37.9671 25.9095C37.9671 25.9095 37.9682 25.9095 37.9694 25.9095C38.7825 25.5288 39.6257 25.1698 40.4919 24.8395C40.6857 25.0242 40.8737 25.2134 41.0559 25.4095L41.0571 25.4072ZM37.4861 27.109C37.2081 26.9267 36.9278 26.7455 36.6476 26.5655C36.9244 26.421 37.2035 26.281 37.4838 26.1446C37.4746 26.4691 37.4757 26.7914 37.4861 27.109ZM36.1262 27.2065C36.3142 27.5586 36.4607 27.9313 36.5691 28.3155C36.1089 28.4255 35.6487 28.5437 35.1896 28.671C34.8886 28.5471 34.5841 28.4313 34.2715 28.3304C34.1285 28.2845 33.9855 28.2409 33.8401 28.2008C34.4861 27.7822 35.1458 27.3854 35.8183 27.0116C35.9209 27.0758 36.0236 27.1411 36.1262 27.2054V27.2065ZM26.0765 40.0253C26.0154 39.8934 25.9554 39.7593 25.8965 39.6239C26.6682 40.3946 27.5194 41.0448 28.4306 41.5918C28.3326 41.6572 28.2345 41.7203 28.1376 41.7868C28.0142 41.8705 27.8931 41.9588 27.772 42.0448C27.2991 41.5597 26.8262 41.0746 26.3556 40.5884C26.2599 40.4026 26.1664 40.2157 26.0776 40.0265L26.0765 40.0253ZM31.2669 45.6125C31.0177 45.3579 30.7674 45.1022 30.5171 44.8476C30.8378 44.7294 31.1458 44.6136 31.4399 44.5047C31.3787 44.8762 31.3361 45.2489 31.3165 45.6239C31.3003 45.6205 31.283 45.6171 31.2669 45.6125ZM32.2773 44.187C32.7617 44.0012 33.245 43.8109 33.7248 43.6148C34.3465 43.7501 34.9763 43.8602 35.6106 43.9473C35.4203 44.3957 35.2612 44.8567 35.1412 45.3304C35.1262 45.39 35.1124 45.4485 35.0997 45.5081C34.0904 45.2638 33.1319 44.8372 32.2738 44.2019C32.2738 44.1973 32.2761 44.1916 32.2773 44.187ZM46.477 45.9313C47.4193 45.6813 48.3513 45.3923 49.2683 45.0632C49.4194 45.1274 49.5705 45.1893 49.7227 45.2501C48.4955 45.7271 47.221 46.1079 45.9441 46.4083C46.1171 46.2455 46.2948 46.0861 46.4758 45.9313H46.477ZM49.176 44.07C49.7054 43.7811 50.251 43.5242 50.8069 43.2971C50.8911 43.3384 50.9765 43.3785 51.0618 43.4187C50.4817 43.6698 49.8946 43.9049 49.3006 44.1228C49.259 44.1056 49.2175 44.0872 49.1771 44.07H49.176ZM51.9327 42.8843C52.191 42.8005 52.4517 42.7214 52.7135 42.6503C52.5071 42.7535 52.2995 42.8556 52.0918 42.9542C52.0388 42.9313 51.9869 42.9072 51.9338 42.8843H51.9327ZM50.8046 42.351C49.8854 41.8854 48.9938 41.3636 48.131 40.8132C48.0779 40.7788 48.0249 40.7444 47.9718 40.7099C48.5958 39.5551 48.8646 38.2719 48.537 36.9095C48.5324 36.8923 48.5266 36.8762 48.5232 36.859C51.6293 36.984 54.8358 37.5999 57.3895 39.1698C57.2003 39.5437 56.9869 39.9061 56.7505 40.2535C56.2222 40.6251 55.6813 40.9794 55.1288 41.3177C53.6501 41.468 52.1933 41.8166 50.8035 42.3522L50.8046 42.351ZM48.2452 36.0391C48.1864 35.9026 48.1218 35.7719 48.0537 35.6434C48.4101 35.3854 48.7654 35.1228 49.1172 34.8579C52.0561 35.9244 55.2926 36.4542 58.3191 35.8453C58.2696 36.7306 58.0539 37.6228 57.7055 38.476C54.9281 36.812 51.4471 36.1836 48.2463 36.0391H48.2452ZM57.055 35.171C54.5821 35.4462 52.1968 35.0505 49.9142 34.2673C50.1299 34.2168 50.3444 34.1583 50.5555 34.0907C52.9927 34.0184 55.4148 33.6515 57.7563 32.9944C57.7817 33.0035 57.8059 33.0116 57.8313 33.0207C58.1058 33.6388 58.2603 34.2925 58.3111 34.9622C57.8981 35.0528 57.4795 35.1239 57.0573 35.171H57.055ZM55.3468 31.8349C54.8797 31.8281 54.4079 31.8476 53.9362 31.8854C54.4125 31.351 54.8024 30.773 55.1126 30.1652C55.3652 30.3097 55.6098 30.4645 55.8462 30.6331C56.4564 31.0677 56.9397 31.5643 57.3145 32.1021C56.6709 31.9313 55.9962 31.8453 55.3479 31.8361L55.3468 31.8349ZM54.5509 27.8808C54.0573 27.9989 53.5659 28.1308 53.0792 28.2776C52.7032 28.1583 52.3237 28.0517 51.9407 27.9565C52.9754 27.4405 53.9661 26.8097 54.8058 26.0609C54.8462 26.6675 54.7493 27.2925 54.5509 27.8808ZM42.9994 26.7283C42.8864 26.562 42.7722 26.3992 42.6523 26.2375C42.8391 25.9599 43.0144 25.6744 43.1736 25.3808C43.282 25.7432 43.3835 26.109 43.477 26.476C43.3178 26.5655 43.1586 26.6492 42.9983 26.7283H42.9994ZM29.7328 27.9932C29.208 27.7547 28.6994 27.4875 28.2138 27.1882C27.8989 26.9944 27.5932 26.781 27.3014 26.5528C28.2449 26.8854 29.1411 27.3522 29.945 27.9485C29.8735 27.9611 29.8032 27.9783 29.7328 27.9944V27.9932ZM24.0096 34.3338C24.0084 34.3716 24.0061 34.4095 24.0049 34.4473C23.9334 34.5207 23.8631 34.5941 23.795 34.6698C23.7777 34.6136 23.7604 34.5574 23.7443 34.5012C23.8319 34.4439 23.9207 34.3888 24.0096 34.3349V34.3338ZM24.8723 40.398C24.8965 40.3567 24.9208 40.3143 24.9461 40.273C25.2091 40.5402 25.4721 40.8063 25.7339 41.0735C26.0442 41.6618 26.3902 42.2306 26.7685 42.7776C26.6036 42.9038 26.441 43.0333 26.2783 43.1629C25.9023 42.765 25.5817 42.3132 25.3314 41.796C25.1099 41.3372 24.96 40.8694 24.8723 40.3992V40.398ZM27.283 43.4875C27.5598 43.8487 27.8504 44.2008 28.1538 44.5414C27.7201 44.3166 27.3106 44.0574 26.9346 43.7604C27.05 43.6687 27.1653 43.5769 27.283 43.4875ZM27.1607 44.898C26.6601 44.9898 26.163 45.0448 25.6878 45.0402C25.6636 44.9806 25.6382 44.9221 25.6151 44.8625C25.8412 44.6629 26.0696 44.4657 26.3014 44.273C26.5701 44.4989 26.8573 44.7065 27.1595 44.898H27.1607ZM32.0823 45.7765C32.0927 45.5276 32.1123 45.2788 32.1412 45.0333C32.7848 45.4714 33.4734 45.8109 34.1896 46.0597C33.7063 46.0104 33.2231 45.9542 32.7421 45.8831C32.5252 45.851 32.3038 45.8155 32.0812 45.7753L32.0823 45.7765ZM38.1608 47.0895C38.3154 47.0872 38.4688 47.0815 38.6234 47.0769C38.6799 47.171 38.7376 47.2638 38.7952 47.3567C38.2381 47.3716 37.6822 47.3716 37.1262 47.3556C37.4723 47.2719 37.8171 47.1836 38.1608 47.0895ZM39.4804 47.0425C39.7837 47.0265 40.0859 47.007 40.3881 46.9829C40.4192 47.0781 40.4492 47.1733 40.4804 47.2673C40.2093 47.2891 39.9383 47.3063 39.6661 47.3212C39.6026 47.2294 39.5415 47.1354 39.4804 47.0414V47.0425ZM40.7491 48.0586C40.7745 48.1308 40.7976 48.2042 40.8229 48.2765C40.9994 48.7833 41.6649 48.4806 41.5208 47.9875C42.109 47.9267 42.6961 47.8521 43.2809 47.7593C43.3928 47.7421 43.5058 47.7226 43.6177 47.7042C43.2174 48.2363 42.8645 48.8051 42.6107 49.4095C42.1932 49.3957 41.7745 49.3785 41.357 49.3602C40.9579 48.9588 40.583 48.5356 40.2335 48.0918C40.4054 48.0804 40.5773 48.0712 40.7491 48.0574V48.0586ZM43.049 50.6366C43.0779 50.5081 43.1136 50.3785 43.1575 50.2501C43.6292 50.2616 44.0998 50.2707 44.5715 50.2788C44.0687 50.4015 43.5612 50.523 43.049 50.6366ZM52.9765 45.3292C52.6882 45.2593 52.386 45.1813 52.0734 45.093C52.5232 44.8648 52.965 44.6205 53.3917 44.3602C54.3791 44.6813 55.3825 44.9015 56.3895 45.0196C56.0734 45.2833 55.7528 45.5402 55.4275 45.7902C54.6051 45.6755 53.7862 45.5253 52.9765 45.3292ZM50.935 44.7421C50.7931 44.695 50.6501 44.6457 50.507 44.5941C51.0549 44.3739 51.5982 44.1423 52.1334 43.8934C52.2222 43.929 52.3098 43.9657 52.3987 44.0012C51.9246 44.2673 51.4344 44.5127 50.935 44.7409V44.7421ZM53.1784 43.3866C53.5094 43.218 53.8381 43.0448 54.1622 42.8659C53.8923 43.0655 53.6155 43.2558 53.3318 43.4393C53.281 43.421 53.2291 43.4049 53.1784 43.3866ZM58.3964 38.9278C58.3964 38.9278 58.3895 38.9233 58.3872 38.921C58.8278 37.8808 59.0839 36.7742 59.0954 35.6664C59.3664 35.593 59.6363 35.5104 59.9028 35.4164C59.9512 35.7753 59.9328 36.1595 59.8371 36.5597C59.6133 37.4955 59.0677 38.265 58.3964 38.9267V38.9278ZM34.2104 26.0505C33.3096 26.6033 32.4364 27.2008 31.5967 27.8418C31.4145 27.8349 31.2323 27.8349 31.05 27.8395C30.418 27.2879 29.7167 26.7891 28.9323 26.3579C28.0188 25.8556 27.0281 25.4989 26.0073 25.2891C25.8077 25.0414 25.6255 24.781 25.4652 24.507V24.5047C27.2922 24.2937 29.1365 24.2455 30.9404 24.4072C32.0673 24.8888 33.1527 25.445 34.2104 26.0505ZM26.1157 23.5735C26.2483 23.398 26.3856 23.226 26.5263 23.0574C27.1134 23.1618 27.6982 23.2983 28.2795 23.4599C27.5586 23.4703 26.8366 23.5093 26.1157 23.5735ZM25.0326 23.5987C24.96 23.4026 24.8965 23.2008 24.8458 22.9944C24.8331 22.9439 24.8262 22.8934 24.8146 22.843C25.0522 22.8602 25.291 22.882 25.5298 22.9095C25.3579 23.1343 25.193 23.3636 25.0326 23.5987ZM24.3798 24.648C24.3648 24.6744 24.3498 24.6985 24.3348 24.7249C24.2714 24.8395 24.2102 24.9554 24.1491 25.0712C23.126 25.0425 22.1041 25.1652 21.1295 25.4393C21.1779 25.3808 21.2287 25.3246 21.2794 25.2673C22.2944 25.015 23.3313 24.8051 24.3786 24.6469L24.3798 24.648ZM23.6012 36.3728C23.652 36.4829 23.7039 36.593 23.7593 36.7019C23.6036 36.9336 23.4525 37.1675 23.3071 37.4026C23.2448 37.3361 23.1837 37.2684 23.1214 37.2008C23.2644 36.9141 23.4248 36.6377 23.6024 36.3716L23.6012 36.3728ZM25.6636 43.6664C25.5517 43.7604 25.4386 43.8522 25.3279 43.9473C25.321 43.9531 25.3152 43.9599 25.3083 43.9657C25.1987 43.601 25.1053 43.2294 25.0269 42.8522C25.2172 43.1423 25.4306 43.4129 25.6636 43.6664ZM32.8032 46.7776C33.3557 46.8602 33.9082 46.9232 34.4526 46.9703C34.2796 46.9989 34.1054 47.0242 33.9313 47.0494C33.5541 46.9783 33.1758 46.8888 32.8032 46.7776ZM36.538 48.1251C37.4653 48.1687 38.3938 48.171 39.3212 48.1377C39.3373 48.1595 39.3512 48.1813 39.3673 48.2031C39.6488 48.5861 39.9498 48.9531 40.2658 49.3074C38.8737 49.2329 37.4838 49.1308 36.0985 48.9886C35.9578 48.6985 35.8586 48.3946 35.794 48.0804C36.0432 48.0987 36.2912 48.1136 36.5391 48.1251H36.538ZM41.1171 50.1882C41.2289 50.2948 41.342 50.3992 41.4562 50.5024C40.733 50.4015 40.0155 50.2696 39.3027 50.1056C39.9071 50.1388 40.5127 50.1652 41.1171 50.1882ZM57.258 44.2627C57.0008 44.2466 56.7447 44.2249 56.4887 44.1927C55.7505 44.101 55.0284 43.9496 54.3191 43.7501C54.8243 43.3946 55.3087 43.0127 55.7643 42.601C55.9408 42.4416 56.1115 42.2753 56.2787 42.1022C57.1853 42.0666 58.0965 42.1102 59.002 42.2363C58.6467 42.734 58.2719 43.218 57.8762 43.6836C57.6732 43.8797 57.4668 44.0735 57.258 44.2627ZM59.8417 41.5379C59.8117 41.5242 59.7805 41.5127 59.7471 41.507C58.8474 41.3372 57.9362 41.2478 57.0262 41.234C57.0838 41.1595 57.1404 41.0849 57.1969 41.0093C57.6582 40.6882 58.1104 40.3441 58.5268 39.9714C58.8993 40.2719 59.2534 40.5976 59.5845 40.9519C59.7148 41.0918 59.8405 41.2386 59.9628 41.3888C59.9224 41.4393 59.882 41.4886 59.8417 41.5391V41.5379ZM59.0769 39.4393C59.9928 38.4772 60.6421 37.3407 60.6813 35.9657C60.6837 35.9003 60.6813 35.8372 60.6813 35.773C61.1381 37.0104 61.318 38.3384 61.1692 39.6973C60.9386 40.0609 60.6929 40.4164 60.4368 40.765C60.0216 40.2765 59.5671 39.8361 59.0781 39.4382L59.0769 39.4393ZM58.5141 27.2444C57.649 27.3155 56.7874 27.4336 55.9339 27.5907C56.0619 26.7444 56.0688 25.8785 55.9639 25.0219C57.4702 25.5781 58.9224 26.2604 60.2811 27.1457C59.6606 27.1641 59.0654 27.1996 58.5152 27.2444H58.5141ZM53.0376 23.2684C52.4367 23.1056 51.8312 22.9531 51.2222 22.8051C51.5059 22.8132 51.7896 22.8269 52.0722 22.8464C52.409 22.9565 52.7343 23.0941 53.0376 23.2684ZM45.8726 21.5437C45.9291 21.5047 45.9868 21.468 46.0433 21.4301C46.0687 21.4863 46.0929 21.5448 46.1148 21.6044C46.0341 21.5838 45.9533 21.5643 45.8715 21.5437H45.8726ZM44.8241 21.2707C44.4504 21.1698 44.0802 21.0666 43.7111 20.9577C43.5485 20.4955 43.3143 20.0815 43.0248 19.7099C43.9983 19.7214 44.9556 20.0563 45.5831 20.7363C45.3247 20.9072 45.0721 21.0849 44.8241 21.2719V21.2707ZM42.2613 19.8969C42.4885 20.1492 42.6696 20.4118 42.8114 20.6813C42.4273 20.5586 42.0467 20.429 41.6707 20.2925C41.6038 20.187 41.5358 20.0827 41.4654 19.9794C41.6869 19.8957 41.9175 19.8315 42.1528 19.7868C42.1886 19.8235 42.2255 19.859 42.2601 19.8969H42.2613ZM41.0432 19.3774C40.8276 19.0861 40.5992 18.8028 40.3593 18.5265C40.7641 18.7191 41.1459 18.945 41.4988 19.2088C41.3408 19.2593 41.1886 19.3155 41.0421 19.3774H41.0432ZM38.8587 17.9863C39.4342 18.5196 39.9486 19.0941 40.41 19.7019C40.3777 19.7214 40.3454 19.7398 40.3131 19.7593C40.1839 19.7042 40.0548 19.648 39.9267 19.5907C39.004 19.179 37.7514 18.4875 37.0893 17.5505C37.6591 17.6572 38.245 17.7845 38.8206 17.9519C38.8333 17.9634 38.846 17.9749 38.8587 17.9863ZM41.3293 21.0712C41.6269 21.5723 41.8968 22.0884 42.1413 22.6194C41.3616 22.8349 40.5899 23.0792 39.8298 23.3544C39.4792 23.0827 39.117 22.8258 38.7433 22.5861C39.1055 21.8521 39.6107 21.1985 40.2912 20.6641C40.6326 20.8097 40.9787 20.9439 41.3293 21.0712ZM39.0559 23.6469C38.7814 23.7547 38.5092 23.8648 38.2381 23.9806C38.3016 23.7294 38.3754 23.4829 38.463 23.2432C38.6649 23.3728 38.8621 23.5081 39.0559 23.648V23.6469ZM37.6845 24.2203C36.9509 24.5494 36.2289 24.906 35.5241 25.2914C34.3753 24.3005 32.8471 23.7673 31.223 23.5907C29.9404 23.031 28.6163 22.5735 27.238 22.2616C27.5033 21.9829 27.7801 21.7145 28.065 21.4542C31.0062 20.8074 34.1654 21.1033 36.8955 22.3762C37.2739 22.5528 37.643 22.7478 38.0017 22.9588C37.8679 23.3659 37.7641 23.7891 37.6845 24.2203ZM26.2287 22.0643C26.1849 22.0574 26.1411 22.0494 26.0972 22.0425C26.1722 22.0138 26.2472 21.9863 26.3222 21.9588C26.291 21.9932 26.2587 22.0288 26.2276 22.0643H26.2287ZM24.3464 23.7822C23.7258 23.8728 23.1099 23.9794 22.5009 24.101C23.0107 23.6859 23.5597 23.3109 24.1284 22.9817C24.1826 23.2501 24.2552 23.5173 24.3464 23.781V23.7822ZM23.2518 43.7191C23.246 43.7088 23.2414 43.6985 23.2356 43.6882C23.479 43.0907 23.7454 42.5047 24.0338 41.9313C24.1526 42.8418 24.344 43.7375 24.6243 44.5987C24.5413 44.679 24.4582 44.7604 24.3752 44.8418C24.1653 44.7707 23.9669 44.6767 23.7812 44.562C23.5851 44.2982 23.4075 44.0173 23.2506 43.7191H23.2518ZM34.2888 47.9083C34.5357 47.9485 34.7836 47.9817 35.0316 48.0104C35.0778 48.2581 35.1412 48.5001 35.2219 48.7352C34.7179 48.5058 34.2231 48.257 33.7375 47.9875C33.922 47.9634 34.1054 47.9359 34.2888 47.9083ZM57.7459 45.1171C58.13 45.1274 58.5129 45.1228 58.8947 45.1033C58.6583 45.4187 58.4091 45.726 58.1473 46.023C57.7367 46.0104 57.3272 45.9886 56.9177 45.9565C57.2003 45.6836 57.4772 45.4049 57.7459 45.1182V45.1171ZM61.9997 38.2535C61.9443 37.1044 61.6848 35.9634 61.1946 34.8705C61.2165 34.859 61.2385 34.8499 61.2615 34.8384C62.0585 34.4336 62.8059 33.9187 63.4726 33.3143C63.4057 34.3384 63.182 35.3636 62.8279 36.351C62.5949 37.0012 62.3169 37.6354 61.9997 38.2535ZM60.8071 34.101C60.7482 33.9966 60.6871 33.8923 60.6237 33.7879C60.3215 33.296 59.9847 32.8361 59.6191 32.4072C60.8797 31.9599 62.1104 31.4278 63.2996 30.8051C63.3942 31.2466 63.4565 31.6927 63.4819 32.1434C62.7102 32.9611 61.8025 33.6113 60.8082 34.101H60.8071ZM56.318 24.2994C56.4241 24.1285 56.5233 23.9531 56.6121 23.7742C58.348 24.4221 59.9501 25.4359 61.1912 26.7982C59.6929 25.7329 58.0469 24.9382 56.318 24.2994ZM55.7147 23.7237C55.6917 23.6331 55.6686 23.5425 55.6432 23.4531C55.7067 23.4714 55.7689 23.4921 55.8312 23.5104C55.7932 23.5815 55.7551 23.6526 55.7147 23.7226V23.7237ZM53.5774 20.9026C53.9073 21.3625 54.1818 21.8533 54.4079 22.3613C53.9315 22.2627 53.4506 22.1847 52.9707 22.1343C52.7862 22.1148 52.6017 22.0976 52.416 22.0827C52.1599 21.9852 51.8946 21.9015 51.6178 21.8349C50.0849 21.4668 48.4344 21.4714 46.8011 21.6641C46.7446 21.4703 46.6696 21.2788 46.575 21.093C47.9511 20.2627 49.4897 19.6549 51.1703 19.32C51.454 19.2638 51.7435 19.2157 52.0376 19.1755C52.597 19.6836 53.1138 20.2558 53.5774 20.9015V20.9026ZM46.1137 20.4015C45.214 19.3533 43.7284 18.8304 42.3581 19.0093C41.4896 18.2455 40.3581 17.7065 39.1724 17.32C38.8321 17.0173 38.4757 16.7317 38.102 16.4668C38.1539 16.4554 38.2058 16.4427 38.2577 16.4313C42.628 15.4703 47.6062 15.8223 51.1945 18.484C49.3629 18.8246 47.65 19.4783 46.1125 20.4015H46.1137ZM37.3558 16.8349C37.2231 16.8063 37.0916 16.7788 36.9613 16.7535C37.0224 16.7363 37.0847 16.7191 37.1458 16.7031C37.2162 16.7455 37.2866 16.7914 37.3558 16.8349ZM36.1354 17.3866C36.6141 18.4462 37.6407 19.281 38.6395 19.851C38.9452 20.0253 39.2578 20.187 39.5772 20.3407C39.0086 20.882 38.5761 21.5483 38.2566 22.2868C35.6452 20.7512 32.5575 20.0173 29.3903 20.3613C31.1746 19.0265 33.2161 17.9966 35.3281 17.2604C35.5991 17.3005 35.869 17.343 36.1354 17.3866ZM20.8307 24.4737C20.7039 24.5047 20.5758 24.5356 20.449 24.5677C20.4651 24.0723 20.5447 23.5884 20.6808 23.1205C21.344 22.9726 22.0199 22.8774 22.7039 22.8315C22.0188 23.312 21.3867 23.859 20.8307 24.4726V24.4737ZM22.6912 45.1629C22.7316 45.0402 22.7708 44.9175 22.8135 44.796C22.885 44.8636 22.9599 44.9301 23.0395 44.9944C23.0626 45.0127 23.0868 45.0288 23.1099 45.0471C23.2564 45.2455 23.4121 45.4359 23.5759 45.6182C23.5678 45.6262 23.5597 45.6331 23.5505 45.6411C23.2598 45.4886 22.9738 45.3292 22.6912 45.1629ZM31.576 48.2008C31.5841 48.2294 31.5887 48.2581 31.5967 48.2868C31.6014 48.304 31.6071 48.3212 31.6117 48.3384C31.4283 48.3028 31.2461 48.2661 31.0627 48.2283C31.2334 48.2203 31.4041 48.2122 31.5748 48.2008H31.576ZM32.3315 48.1411C32.358 48.1388 32.3845 48.1366 32.4099 48.1343C32.6752 48.3017 32.9439 48.4634 33.2161 48.6194C32.9578 48.5792 32.6994 48.5368 32.441 48.4921C32.4018 48.3762 32.3638 48.2593 32.3315 48.1411ZM53.9431 49.5632C53.3018 49.5551 52.6605 49.5483 52.0192 49.5425C52.1668 49.4622 52.3133 49.3797 52.4598 49.296C53.4367 49.0482 54.4148 48.7994 55.3918 48.5494C54.9212 48.906 54.4367 49.2432 53.9442 49.5632H53.9431ZM54.9143 47.6721C55.2891 47.3877 55.6548 47.093 56.01 46.7856C56.4448 46.8338 56.8808 46.8716 57.3157 46.898C57.2372 46.9749 57.1588 47.0505 57.0792 47.1262C56.3572 47.3086 55.6363 47.4898 54.9143 47.6721ZM61.874 45.8694C61.0158 45.968 60.1542 46.0219 59.2915 46.0333C59.5545 45.7008 59.8036 45.3567 60.0377 44.9989C60.5879 44.9278 61.1346 44.8246 61.6744 44.6916C61.7736 45.0792 61.8417 45.4726 61.874 45.8694ZM70.7957 32.429C71.4531 34.718 70.3482 37.1652 68.9698 38.9622C67.5269 40.8441 65.5442 42.2982 63.3561 43.2111C62.9582 43.3762 62.5533 43.5242 62.1416 43.6538C61.9501 43.1354 61.7102 42.6331 61.4299 42.1583C61.6664 41.4599 61.8348 40.7478 61.927 40.0299C63.2719 37.9187 64.1681 35.5884 64.2616 33.1148C64.2696 32.9095 64.2696 32.7077 64.265 32.5081C64.9721 31.7008 65.543 30.7776 65.9133 29.7742C66.0482 29.4106 66.1462 29.0425 66.2155 28.6733C68.2293 29.2432 70.1948 30.3441 70.7934 32.4301L70.7957 32.429ZM64.8406 24.3808C65.3988 25.4095 65.6214 26.4966 65.5661 27.5666C64.5349 27.3384 63.4588 27.2157 62.4057 27.1641C61.0574 25.351 59.0931 23.9714 56.9027 23.1044C57.2419 22.1583 57.348 21.1056 57.1334 19.9405C57.0919 19.7168 57.04 19.5001 56.9812 19.2856C60.2234 19.8705 63.2742 21.4966 64.8406 24.3797V24.3808ZM43.0859 13.1446C47.2786 12.9634 52.0907 13.3579 54.8797 16.898C55.2222 17.3338 55.5267 17.8086 55.7736 18.3097C54.6028 18.1859 53.4252 18.1905 52.2902 18.3189C48.3421 14.9473 42.7987 14.4588 37.8217 15.6159C37.5691 15.6744 37.3165 15.7386 37.0639 15.8051C36.9555 15.7432 36.846 15.6836 36.7352 15.6251C36.741 15.6044 36.7456 15.5838 36.7525 15.5632C37.5645 13.1343 41.0259 13.2329 43.0859 13.1446ZM35.8644 16.0379C35.8632 16.0758 35.8586 16.1136 35.8586 16.1503C35.5772 16.2386 35.2969 16.3315 35.0178 16.4301C32.6244 16.0895 30.0835 15.9233 27.704 16.3843C30.1065 14.7547 33.2138 14.8739 35.8644 16.0379ZM23.3002 19.2983C23.8308 18.8556 24.3948 18.4886 24.983 18.1847C24.3371 19.3017 23.983 20.5712 24.0049 21.8464C23.013 21.8235 22.0337 21.9015 21.081 22.0792C21.5989 21.0093 22.3902 20.0563 23.299 19.2983H23.3002ZM19.8676 23.3327C19.7673 23.8028 19.7165 24.2822 19.72 24.7638C17.7303 25.3189 15.7718 26.0781 14.0832 27.218C14.3012 26.9462 14.5331 26.6824 14.7776 26.4278C16.2678 24.8831 18.0072 23.8843 19.8676 23.3327ZM13.4904 40.9783C12.6184 39.6687 12.0428 38.2294 11.7545 36.7501C12.4119 37.9233 13.3093 38.9794 14.2805 39.8694C15.3924 40.8877 16.6323 41.7466 17.8688 42.609C17.7834 43.3177 17.7396 44.1113 17.8145 44.8716C16.1052 43.9221 14.6069 42.6538 13.4904 40.9783ZM19.1629 46.4278C19.7903 46.6905 20.4363 46.9198 21.0926 47.1194C20.3348 47.2466 19.6127 47.0437 19.1629 46.4278ZM23.6981 46.6331C23.9899 46.7765 24.2841 46.9152 24.5816 47.0471C24.201 46.9898 23.8215 46.9232 23.4432 46.8487C23.5297 46.7776 23.6139 46.7054 23.6981 46.6331ZM29.095 49.3728C28.5955 49.031 28.148 48.648 27.7443 48.2352C28.1169 48.3521 28.4906 48.4622 28.8631 48.5643C29.8874 48.8464 30.9197 49.0804 31.9601 49.2753C32.3096 50.0253 32.7894 50.656 33.3707 51.1687C31.877 50.8567 30.4376 50.2914 29.095 49.3728ZM43.4135 52.5528C43.3547 52.4783 43.3051 52.4015 43.2601 52.3246C43.3432 52.3063 43.4274 52.2891 43.5104 52.2696C43.5946 52.2593 43.6788 52.2501 43.7619 52.2386C44.0306 52.406 44.304 52.5677 44.5819 52.7203C45.0537 52.9794 45.5416 53.2145 46.041 53.4267C45.0502 53.5758 44.0848 53.4118 43.4135 52.5528ZM57.0158 52.882C54.3998 54.0288 51.4736 54.1343 48.7169 53.4714C49.2244 53.2271 49.7193 52.9611 50.1979 52.7122C51.4932 52.0391 52.8 51.3292 54.0538 50.5379C54.2095 50.5012 54.3641 50.4634 54.5186 50.4255C54.7447 50.3694 54.8347 50.2054 54.8254 50.0356C55.7343 49.4233 56.604 48.7627 57.4091 48.0345C58.8982 47.6526 60.3861 47.2696 61.8751 46.89C61.8578 47.1056 61.8336 47.32 61.7932 47.5345C61.3192 50.0517 59.288 51.8877 57.0158 52.8843V52.882Z" fill="black"/>
<path d="M81.8563 36.2034C82.2358 32.6953 81.8724 29.1151 80.7017 25.7802C79.4814 22.302 77.3476 19.185 74.8147 16.5199C72.1999 13.7687 69.1745 11.4408 65.9933 9.3754C62.4362 7.06577 58.6645 5.07494 54.7106 3.52677C40.6919 -1.9652 23.6606 -1.53515 11.6512 8.33985C5.94404 13.0325 1.67408 19.6415 0.408782 26.9499C-0.707727 33.4041 0.467607 40.3249 3.93594 45.9236C4.73756 47.216 5.65684 48.4259 6.68453 49.5463C6.68569 49.5463 6.68684 49.544 6.68799 49.5428C6.76758 49.4476 6.84717 49.3525 6.92329 49.2538C6.98673 49.1713 7.05824 49.1105 7.13321 49.0623C2.9117 44.2607 0.757115 37.8811 0.868997 31.5233C0.993566 24.3697 4.0928 17.5589 8.96023 12.3502C19.0861 1.51416 35.0056 -0.983546 48.9239 2.78595C56.6103 4.86737 63.9622 8.72517 70.1491 13.7034C75.7432 18.2045 80.2058 24.1151 80.8332 31.4419C82.117 46.4362 69.4893 58.2137 56.2204 62.693C49.4037 64.9947 42.046 65.6472 34.9018 64.7137C34.5869 64.9155 34.2697 65.1174 33.9525 65.3158C40.2548 66.4144 46.692 66.38 52.6148 64.9603C66.5493 61.6197 80.2346 51.2034 81.8563 36.2022V36.2034Z" fill="black"/>
<path d="M32.403 63.6859C28.403 66.2283 24.5413 69.0333 20.6693 71.7764C20.7777 70.015 20.885 68.2547 20.9934 66.4932C21.133 64.2168 21.4213 61.8602 21.2898 59.5838C21.2702 59.242 20.705 58.9014 20.6001 59.3797C20.5943 59.4072 20.5897 59.4347 20.5839 59.4622C20.532 59.4095 20.4744 59.3636 20.4075 59.3269C19.3752 58.7661 18.1975 58.4725 17.1248 57.9806C16.1075 57.5138 15.1294 56.9691 14.1917 56.359C12.2643 55.1044 10.4835 53.5528 9.014 51.7914C8.82368 51.5631 8.57685 51.8338 8.71872 52.0563C10.0717 54.1847 11.6865 56.0253 13.7142 57.5448C15.4789 58.8659 17.9368 60.4531 20.1883 60.6205C20.2564 60.6251 20.3175 60.6205 20.374 60.6113C20.0926 62.4106 20.0072 64.273 19.84 66.0666C19.6185 68.4336 19.3982 70.8005 19.1756 73.1675C19.1156 73.8131 19.8308 74.2226 20.3486 73.8762C24.6647 70.9886 29.0881 68.1744 33.2623 65.0884C33.9186 64.6033 33.1216 63.2306 32.4019 63.6881L32.403 63.6859Z" fill="black"/>
</g>
<defs>
<clipPath id="clip0_5_235">
<rect width="82" height="74" fill="white"/>
</clipPath>
</defs>
</svg>
