<svg width="82" height="80" viewBox="0 0 82 80" fill="none" xmlns="http://www.w3.org/2000/svg">
<path d="M52.857 35.8547C48.7734 38.5005 47.3863 44.6588 47.166 47.3514C45.7108 58.8985 37.0756 56.7274 33.1605 61.3818C29.2454 66.0363 31.5193 72.7387 37.3217 75.6282C49.7747 81.3234 61.2607 80.0693 69.9564 69.8207C78.4574 58.9314 74.0064 45.8939 69.3687 40.6579C66.1853 37.0639 58.8268 31.9867 52.857 35.8547Z" fill="#E59261"/>
<path d="M18.7014 24.2024C19.3181 21.5015 21.6051 18.3929 23.1913 16.566C25.3062 14.1301 25.5377 11.6151 25.4863 9.84555C25.4349 8.07604 23.8021 4.59726 19.5649 3.66171C16.1752 2.91326 13.2393 4.53193 12.1872 5.62385C8.41041 9.12771 3.24173 18.2504 2.33121 24.6503C1.08148 33.4345 5.3775 41.9469 10.4284 47.4613C15.4794 52.9757 27.97 58.0454 37.682 54.414C47.3939 50.7826 52.1947 44.2937 53.1213 43.1965C54.0479 42.0993 54.9305 39.4871 55.0047 37.7229C55.0788 35.9587 53.3788 31.0884 48.3829 30.2472C44.3863 29.5742 42.3053 31.6345 41.2351 32.724C39.8086 34.1763 37.1019 37.5257 33.3345 38.5793C28.6253 39.8962 25.1076 39.3679 21.2434 35.5445C17.3791 31.7211 17.9306 27.5784 18.7014 24.2024Z" fill="#F3D146"/>
<path d="M24.7961 7.91653C29.636 4.78708 34.5802 7.65182 36.3685 8.98875C38.6576 10.7002 40.6202 15.3454 39.0215 19.489C37.3864 23.7268 33.1351 27.9646 26.7582 29.4315C20.3813 30.8984 17.6016 25.6827 17.2746 22.0968C16.9476 18.511 18.7462 11.8283 24.7961 7.91653Z" fill="#C5B5D3"/>
<path d="M70.6487 7.56896C62.433 0.947906 52.2159 0.154302 47.9989 0.959592C45.3695 1.46171 42.6271 3.26423 41.7063 6.44668C40.5554 10.4247 42.047 12.6114 43.4035 13.5824C44.4888 14.3593 47.0446 14.6016 48.6912 14.7154C50.1081 14.8133 51.6398 15.4674 52.6258 16.4129C53.6117 17.3583 53.9857 18.9194 54.2558 21.3507C54.3977 25.6374 57.5132 28.0946 60.196 28.8892C62.4496 29.5567 63.7775 29.356 66.3179 30.6282C68.8582 31.9003 69.8501 33.3945 70.7556 34.5537C71.661 35.7129 74.271 35.9775 76.0658 35.3592C78.3992 34.5554 79.2361 31.74 79.3629 30.4328C79.8814 25.5703 78.8644 14.19 70.6487 7.56896Z" fill="#AFCBA2"/>
<path d="M3.81735 52.8975C5.92489 51.4163 8.02852 51.4612 9.57405 51.9484C11.1196 52.4357 13.071 53.8974 14.2419 55.7489C15.4945 57.7296 16.1113 60.1085 18.6482 62.6422C21.185 65.1758 23.2184 64.9088 25.1698 66.468C27.1213 68.0271 26.649 70.3404 26.1612 71.6072C25.6733 72.874 23.4292 74.823 19.3312 74.823C15.2332 74.823 9.34768 72.6732 6.24102 69.4888C2.53331 65.6884 1.08535 61.4728 0.987779 59.4264C0.890208 57.38 1.18292 54.749 3.81735 52.8975Z" fill="#95ABCC"/>
</svg>
