<svg xmlns="http://www.w3.org/2000/svg" width="78" height="48" viewBox="0 0 78 48" fill="none">
  <g clipPath="url(#clip0_17_486)">
    <mask id="path-1-outside-1_17_486" maskUnits="userSpaceOnUse" x="-0.442444" y="3.64333" width="79.2126" height="44.1536" fill="black">
      <rect fill="white" x="-0.442444" y="3.64333" width="79.2126" height="44.1536"/>
      <path d="M10.8269 26.3434C10.6788 26.3117 10.5742 26.4153 10.4619 26.4838C10.2262 26.626 10.0187 26.6101 9.77832 26.4651C9.47335 26.2817 9.44941 26.3042 9.2288 26.5125C8.34387 27.3505 7.46065 28.1912 6.56942 29.024C6.39251 29.1893 6.19367 29.338 5.98559 29.4661C5.4025 29.826 4.94053 30.3282 4.41663 30.7601C4.12781 30.9981 4.05514 31.3561 3.91482 31.6746C3.82799 31.8714 3.78045 32.0846 3.70725 32.2873C3.64073 32.4693 3.52423 32.6143 3.35945 32.7252C3.14843 32.8679 2.92522 32.8248 2.81465 32.5967C2.59693 32.146 2.51668 31.6619 2.59302 31.1769C2.67159 30.6702 2.84606 30.1801 3.11803 29.738C3.20087 29.6049 3.32246 29.4823 3.45324 29.3949C3.69306 29.235 4.10922 29.3083 4.19632 29.6235C4.22522 29.7272 4.25021 29.8355 4.29997 29.9299C4.35358 30.0341 4.4469 30.084 4.56483 30.0136C4.63481 29.9723 4.70294 29.9269 4.7662 29.8762C5.65479 29.1658 6.55324 28.4675 7.34559 27.6471C7.62773 27.3552 7.9209 27.0722 8.2238 26.7997C8.77092 26.3081 9.26907 25.7751 9.6723 25.1607C9.8099 24.9488 9.97126 24.7577 10.2251 24.713C10.613 24.6438 10.8366 24.3762 11.0423 24.0887C11.8961 22.8999 12.8571 21.7985 13.8179 20.6957C14.0842 20.3895 14.3773 20.1065 14.579 19.7475C14.6447 19.6318 14.7392 19.5292 14.8311 19.4296C15.5911 18.6196 16.3495 17.8083 17.1176 17.0075C17.5867 16.519 18.0068 15.9893 18.4913 15.5094C19.1651 14.8429 19.8545 14.1879 20.5124 13.5071C21.3588 12.6311 22.1301 11.6833 22.9366 10.7695C23.1903 10.4831 23.3885 10.1633 23.5833 9.83808C23.7418 9.57245 23.9978 9.53472 24.1767 9.79357C24.4819 10.2344 24.8877 10.3058 25.3781 10.2914C26.0608 10.2713 26.7325 10.422 27.3977 10.5504C28.2063 10.7065 29.0197 10.7183 29.8342 10.7402C30.7576 10.7644 31.6839 10.7279 32.6078 10.7261C33.8347 10.7238 35.0511 10.5528 36.2736 10.4891C37.6865 10.4141 39.0998 10.3592 40.5133 10.2914C42.9591 10.1725 45.408 10.0863 47.8442 9.80868C48.903 9.68744 49.9179 9.36765 50.9263 9.04128C51.1556 8.96729 51.3626 8.82786 51.5793 8.71338C51.9478 8.51947 52.2732 8.58433 52.5071 8.90258C52.5388 8.94553 52.5639 8.99489 52.5874 9.04295C53.2996 10.5102 54.2969 11.7916 55.2616 13.0948C55.9223 13.9859 56.662 14.809 57.3994 15.638C58.3336 16.6867 59.2441 17.7608 60.2735 18.714C61.362 19.7233 62.4066 20.7887 63.6411 21.6429C64.2398 22.0582 64.7708 22.5691 65.3405 23.0289C65.7195 23.3331 66.1116 23.6217 66.4984 23.9165C67.2721 24.5061 68.0352 25.1068 68.8242 25.6748C69.0534 25.8395 69.2 26.0195 69.1188 26.2748C68.9431 26.8269 69.2033 27.1929 69.556 27.5687C70.2031 28.2598 70.8954 28.9076 71.4867 29.6515C72.1936 30.5396 72.9382 31.3981 73.6747 32.2632C73.9546 32.5914 74.2442 32.9157 74.5533 33.2166C74.8976 33.5515 75.0986 33.545 75.4711 33.2428C75.576 33.1578 75.6694 33.0582 75.7726 32.9705C75.9722 32.8002 76.2123 32.7625 76.4627 32.7872C76.9064 32.8305 77.1922 33.2502 77.0435 33.6616C76.9805 33.8345 76.8901 34.0245 76.7564 34.1425C76.1454 34.6777 75.5213 35.1985 74.8859 35.7073C74.7029 35.8545 74.4666 36.0514 74.225 35.8936C73.9309 35.702 74.1002 35.3979 74.1738 35.1549C74.2597 34.8733 74.4083 34.6101 74.5256 34.3384C74.5967 34.1747 74.5752 34.0272 74.4421 33.8962C73.3403 32.8091 72.4842 31.5183 71.471 30.3579C70.7939 29.582 70.0865 28.8378 69.3762 28.0939C69.2454 27.957 69.0997 27.8301 68.9892 27.6783C68.6912 27.267 68.371 26.9715 67.7844 27.0398C67.4358 27.0807 67.1292 26.8501 66.8682 26.5819C66.6426 26.3492 66.3708 26.4331 66.3205 26.7227C66.0741 28.1332 65.8528 29.547 66.0226 30.9862C66.0953 31.602 65.9375 31.7855 65.2798 31.8838C64.4192 32.0146 63.5527 32.1143 62.7002 32.2832C61.526 32.5163 60.3626 32.8001 59.1941 33.0614C58.9016 33.1271 58.6085 33.1857 58.316 33.2515C57.8646 33.3527 57.4087 33.4386 56.9655 33.5649C55.2677 34.053 53.5723 34.5509 51.8775 35.0545C50.4703 35.4727 49.066 35.905 47.6592 36.3275C47.1912 36.4677 46.7113 36.5746 46.2529 36.7398C45.5437 36.9955 45.5408 37.0404 45.9783 37.6036C46.361 38.0958 46.7744 38.5592 47.2492 38.9692C47.7827 39.4296 48.3043 39.9027 48.8389 40.3601C49.2502 40.7129 49.3535 40.8209 49.7519 40.3364C50.0361 39.991 50.4363 39.8098 50.8573 39.6784C51.0643 39.6138 51.257 39.7764 51.2092 39.9867C51.149 40.2486 51.1022 40.5293 50.9674 40.7552C50.5246 41.5 50.0419 42.2228 49.3592 42.7823C49.2544 42.8687 49.1515 42.9592 49.0381 43.032C48.873 43.1386 48.6924 43.2065 48.504 43.0881C48.3124 42.9671 48.3024 42.7739 48.3551 42.5847C48.4548 42.2212 48.5634 41.8597 48.7499 41.5237C48.9314 41.1955 48.9254 41.1788 48.6354 40.9106C48.3197 40.6161 47.9934 40.3327 47.6594 40.0586C46.8385 39.3859 46.1502 38.5852 45.4608 37.7874C45.3367 37.6441 45.222 37.4927 45.098 37.3508C44.9806 37.2169 44.832 37.1809 44.6563 37.2238C43.3861 37.5281 42.1134 37.8225 40.9515 38.4514C40.7846 38.5409 40.6117 38.6425 40.4295 38.6789C40.0208 38.7573 39.6546 38.8704 39.4116 39.2521C39.2844 39.4514 39.0484 39.4556 38.8192 39.426C37.3344 39.2375 35.8426 39.0958 34.3935 38.7068C32.8908 38.3028 31.35 38.1356 29.814 37.9276C28.6014 37.7632 27.3884 37.6102 26.1769 37.4427C24.6685 37.235 23.1761 36.9379 21.6876 36.6218C21.581 36.599 21.471 36.5867 21.3692 36.5534C19.9405 36.0905 18.4439 35.9449 16.9811 35.6392C15.7582 35.3836 14.5268 35.1606 13.3007 34.9168C13.0877 34.8742 12.8702 34.8305 12.6733 34.7446C12.1978 34.5375 11.8562 34.2153 11.8325 33.6566C11.8267 33.5219 11.7978 33.3881 11.7906 33.2536C11.7034 31.3648 11.4091 29.4946 11.2515 27.6126C11.2133 27.1575 11.1734 26.7011 10.8283 26.3433L10.8269 26.3434ZM39.3445 29.1525C39.2566 29.443 39.2293 29.7304 39.2258 30.0242C39.2226 30.3208 39.205 30.6174 39.2003 30.9141C39.182 32.2076 39.1056 33.5009 39.1976 34.7952C39.2617 35.6822 39.2813 36.5735 39.4405 37.4528C39.4838 37.6902 39.5358 37.9283 39.6089 38.1586C39.6401 38.2562 39.7349 38.3218 39.8669 38.3062C40.2499 38.2619 40.6068 38.1425 40.9608 37.9931C41.6617 37.6965 42.3704 37.4208 43.1106 37.2297C43.4516 37.142 43.7847 37.0163 44.115 36.8922C44.4901 36.7509 44.5138 36.6364 44.252 36.2993C43.9371 35.8939 43.6154 35.4921 43.3005 35.0868C42.7834 34.4206 42.3707 33.6939 42.0544 32.9147C42.0144 32.8164 41.9741 32.7139 41.9554 32.6107C41.9341 32.4963 41.9888 32.4018 42.095 32.3455C42.2069 32.2872 42.3161 32.3212 42.3931 32.3972C42.4667 32.4691 42.5327 32.5663 42.5624 32.6627C43.0089 34.1283 44.0222 35.2298 44.9727 36.3719C45.132 36.5636 45.3281 36.5964 45.5593 36.5279C46.1318 36.3574 46.7096 36.1979 47.28 36.0218C48.5011 35.6447 49.7179 35.2521 50.9397 34.8821C51.9022 34.5904 52.8752 34.3322 53.8381 34.0447C55.5851 33.526 57.3216 32.9738 59.1134 32.6176C59.8335 32.4745 60.5503 32.3116 61.2608 32.1291C61.8142 31.9864 62.3666 31.8494 62.9342 31.7643C63.5791 31.6673 64.2214 31.5447 64.8604 31.4181C65.3714 31.3168 65.3983 31.2955 65.4104 30.7909C65.4343 29.7644 65.5357 28.7449 65.6606 27.7273C65.6992 27.4072 65.7039 27.0816 65.7045 26.7579C65.7044 26.6069 65.5969 26.5152 65.4412 26.5101C65.3334 26.5062 65.2241 26.5153 65.1166 26.5286C63.9277 26.6697 62.733 26.735 61.5372 26.7904C60.5885 26.8348 59.6331 26.8252 58.6913 27.0013C57.8636 27.1562 57.0292 27.273 56.1963 27.4054C55.3649 27.5377 54.5318 27.6673 53.7006 27.8025C53.5406 27.828 53.3826 27.8736 53.2233 27.9062C52.5576 28.0426 51.8969 28.2145 51.2252 28.304C50.4131 28.4114 49.6086 28.5814 48.8351 28.8174C47.512 29.2203 46.1426 29.4895 44.8811 30.0936C44.4417 30.3044 43.9724 30.4462 43.5522 30.7056C43.3729 30.8164 43.1672 30.9241 42.9375 30.8442C42.8924 30.8284 42.8444 30.7813 42.827 30.7369C42.8098 30.694 42.813 30.6218 42.8402 30.5889C42.8895 30.5281 42.9565 30.4712 43.0276 30.4413C43.8756 30.0759 44.7197 29.7007 45.5756 29.356C46.839 28.8467 48.1816 28.5858 49.4696 28.1504C49.6999 28.072 49.9464 28.0409 50.1876 28.0003C50.9912 27.8649 51.7974 27.7423 52.6003 27.5998C53.2961 27.4749 53.9867 27.326 54.6803 27.1941C55.6688 27.0063 56.6591 26.8212 57.6483 26.6406C58.0488 26.5673 58.4506 26.478 58.8556 26.4503C59.8052 26.3857 60.7569 26.3568 61.708 26.3064C62.1972 26.2806 62.6889 26.2646 63.1722 26.1933C63.9802 26.0734 64.7873 25.9593 65.6041 25.9305C65.8209 25.9225 66.0377 25.9144 66.253 25.8907C66.4682 25.867 66.6837 25.8303 66.8954 25.7839C67.0913 25.7404 67.2545 25.6283 67.2941 25.4231C67.329 25.2442 67.2008 25.1185 67.0748 25.0157C66.7202 24.7235 66.3602 24.4362 65.999 24.1518C64.8715 23.2642 63.7362 22.386 62.6179 21.4874C62.1333 21.0971 61.6914 20.6537 61.2134 20.2555C60.2951 19.4915 59.4408 18.668 58.6664 17.7563C57.9327 16.891 57.1787 16.0405 56.4024 15.2138C55.1198 13.8479 53.9902 12.3693 52.9726 10.8036C52.7069 10.3964 52.4442 9.99034 52.2429 9.54523C52.1283 9.29023 51.9857 9.25514 51.7066 9.33969C51.6024 9.37137 51.5041 9.41972 51.4014 9.45268C50.1337 9.85881 48.8664 10.2678 47.5149 10.3023C47.2992 10.3074 47.0857 10.3798 46.87 10.3993C45.9222 10.4824 44.9748 10.5857 44.0251 10.6201C43.5366 10.6387 43.0506 10.6527 42.5621 10.687C41.4239 10.767 40.2841 10.8156 39.1455 10.8611C38.2222 10.8987 37.2943 10.8735 36.3731 10.9469C35.0704 11.0515 33.7717 11.1816 32.4641 11.1745C31.7296 11.1694 30.9957 11.1858 30.2606 11.2037C29.116 11.2326 27.9764 11.2092 26.8491 10.9818C26.5561 10.9224 26.261 10.8561 25.9647 10.8373C25.6758 10.8192 25.2822 10.6948 25.1191 10.9422C24.9381 11.2157 25.2632 11.4719 25.4321 11.703C25.6077 11.9435 25.802 12.1677 25.9912 12.3982C26.2148 12.67 26.4519 12.9319 26.6633 13.212C28.1762 15.2188 29.7244 17.2005 31.317 19.1463C31.8303 19.7741 32.2964 20.4525 32.8797 21.0087C33.6102 21.7061 34.2242 22.4895 34.8562 23.264C35.1475 23.6199 35.4116 23.9956 35.7001 24.3532C36.6526 25.531 37.6892 26.6345 38.7447 27.7219C39.2137 28.2058 39.7158 28.6577 40.2074 29.1207C40.5412 29.4365 40.8948 29.7331 41.2153 30.0616C41.3585 30.2074 41.4977 30.2961 41.7017 30.3065C41.8359 30.3137 41.9709 30.3452 42.1007 30.3815C42.3227 30.442 42.4946 30.5548 42.5266 30.8106C42.5438 30.9427 42.594 31.0716 42.6156 31.2048C42.6718 31.546 42.518 31.86 42.2073 32.0066C42.0616 32.0754 41.9001 32.1155 41.7428 32.1537C41.2482 32.2736 40.8123 32.1763 40.5153 31.7462C40.2354 31.3418 40.263 30.9378 40.6009 30.5627C40.677 30.4791 40.7021 30.3789 40.6348 30.2689C40.4471 29.9634 39.8257 29.418 39.3479 29.1579L39.3445 29.1525ZM12.0223 29.9991C12.0438 29.997 12.0668 29.9948 12.0884 29.9927C12.1767 30.9047 12.2637 31.8183 12.3535 32.7302C12.3847 33.0522 12.4288 33.373 12.4686 33.6942C12.505 33.9956 12.6863 34.1593 12.9615 34.2751C13.3926 34.4577 13.8523 34.5168 14.2976 34.6362C14.9811 34.8188 15.03 34.7839 15.052 34.0525C15.0833 33.0282 15.0855 32.0024 15.1067 30.9777C15.1233 30.2209 15.2265 29.4745 15.3898 28.7337C15.6929 27.3551 16.1894 26.0413 16.7734 24.7621C17.2461 23.7267 17.8564 22.7643 18.5474 21.8559C18.958 21.317 19.4253 20.81 20.0611 20.5298C20.8194 20.1975 21.6227 20.0737 22.4554 20.18C22.5934 20.1969 22.7263 20.2056 22.8363 20.2927C23.1914 20.5748 23.627 20.639 24.0497 20.7347C24.7066 20.8826 25.2593 21.1973 25.703 21.7052C26.0408 22.0925 26.3946 22.4653 26.7391 22.8476C26.8513 22.972 26.9675 23.0787 27.1545 23.0476C27.4101 23.0056 27.5486 23.1777 27.5134 23.3681C27.4247 23.8456 27.6537 24.2032 27.8791 24.5683C28.1353 24.9822 28.3913 25.3932 28.5523 25.8581C28.7293 26.3674 28.9385 26.8649 29.1296 27.37C29.3302 27.8986 29.5952 28.4037 29.6441 28.9829C29.66 29.1626 29.7614 29.3412 29.846 29.51C30.0793 29.9721 30.2326 30.4621 30.3618 30.9574C30.6341 32.0012 30.8836 33.0501 31.1389 34.0984C31.3942 35.1467 31.6509 36.1949 31.8907 37.2476C31.9685 37.5867 32.1498 37.7662 32.4957 37.7888C33.2066 37.835 33.8896 37.9975 34.5606 38.2303C34.7903 38.3102 35.0331 38.3615 35.2736 38.4029C36.0495 38.5363 36.8269 38.6696 37.6065 38.7811C37.9272 38.8277 38.2572 38.8346 38.5833 38.8318C38.9094 38.829 39.0328 38.6804 39.0035 38.3783C38.9958 38.2985 38.9836 38.2177 38.9658 38.1388C38.6273 36.68 38.778 35.181 38.6007 33.7094C38.585 33.5772 38.6079 33.4398 38.6211 33.3062C38.7557 32.0144 38.7348 30.7204 38.6835 29.4265C38.677 29.2546 38.6907 29.0964 38.7976 28.9725C38.975 28.7669 38.954 28.5948 38.7691 28.4085C38.6164 28.255 38.4877 28.079 38.3391 27.9223C37.6122 27.1569 36.8788 26.3995 36.1532 25.6326C35.6507 25.1016 35.1966 24.5314 34.7636 23.9404C34.2204 23.199 33.638 22.4873 32.9738 21.8454C32.6825 21.5629 32.3907 21.2762 32.1342 20.9644C31.1916 19.8144 30.2557 18.6579 29.3322 17.4945C28.559 16.5208 27.787 15.5441 27.0448 14.5458C26.3511 13.6134 25.5467 12.7664 24.926 11.7793C24.7116 11.4376 24.4684 11.1131 24.2225 10.7917C24.0648 10.5854 23.8286 10.5738 23.6619 10.7539C23.2191 11.2298 22.7467 11.684 22.3556 12.1994C21.8603 12.8515 21.2813 13.4182 20.7106 13.9956C19.4911 15.2285 18.2381 16.4301 17.049 17.6916C16.0651 18.7362 15.1466 19.8421 14.2122 20.9323C13.4887 21.7748 12.7764 22.6277 12.0749 23.4882C11.8196 23.802 11.5868 24.1396 11.3812 24.4874C11.1143 24.9376 11.1066 25.4116 11.3935 25.8584C11.5626 26.1211 11.6048 26.4076 11.6378 26.7036C11.7618 27.8034 11.8899 28.9015 12.0152 30.0012L12.0223 29.9991ZM22.3721 33.9837C22.4053 34.6853 22.4296 35.2511 22.4626 35.816C22.4802 36.1178 22.6266 36.3122 22.9473 36.3732C23.534 36.4847 24.113 36.6372 24.7034 36.7267C26.0726 36.935 27.4445 37.1416 28.8204 37.2989C29.5494 37.3822 30.2801 37.438 31.0003 37.5797C31.188 37.6162 31.3207 37.4883 31.3056 37.3028C31.2916 37.143 31.2644 36.9817 31.2289 36.8255C30.9934 35.8011 30.7775 34.7706 30.5093 33.7537C30.2221 32.6596 30.0072 31.5498 29.6701 30.4648C29.2461 29.0977 28.7243 27.7688 28.194 26.4422C27.9141 25.7386 27.5483 25.0764 27.1385 24.4401C26.9814 24.1964 26.8142 24.2068 26.6297 24.4433C26.2232 24.9646 26.031 25.5859 25.7931 26.1857C25.7139 26.3861 25.6588 26.5957 25.5081 26.7627C25.301 26.9899 25.1181 26.9889 24.9069 26.7404C24.7483 26.5558 24.6083 26.3536 24.4366 26.1833C24.072 25.8187 23.676 25.4888 23.1787 25.3112C22.9202 25.2183 22.7319 25.3113 22.6958 25.5679C22.6531 25.8612 22.6369 26.1576 22.6162 26.4531C22.5408 27.5018 22.5613 28.5527 22.473 29.6026C22.3471 31.1036 22.1156 32.6075 22.3719 33.9808L22.3721 33.9837ZM21.3246 20.711C20.8839 20.8486 20.3223 20.8756 19.8835 21.2432C19.4878 21.575 19.0958 21.9164 18.8081 22.3456C18.1007 23.3994 17.3569 24.4366 16.941 25.6535C16.8968 25.7815 16.8344 25.9011 16.7812 26.0257C16.248 27.2755 15.8947 28.5697 15.7411 29.9194C15.6061 31.1019 15.6311 32.289 15.6358 33.4753C15.6378 33.826 15.6601 34.1763 15.6708 34.5262C15.678 34.7801 15.8179 34.9219 16.0553 34.9766C16.4262 35.0615 16.795 35.1552 17.1698 35.221C18.48 35.4494 19.8066 35.5914 21.0791 36.0004C21.2318 36.0489 21.3996 36.0585 21.5616 36.0687C21.7191 36.0779 21.8173 35.9835 21.8422 35.8358C21.8642 35.7043 21.8728 35.5682 21.8699 35.4333C21.8541 34.7602 21.8796 34.0803 21.8006 33.4147C21.6401 32.0566 21.8909 30.722 22.008 29.3844C22.1058 28.253 22.0528 27.1218 22.1556 25.9957C22.1607 25.9434 22.1524 25.8881 22.1459 25.8355C21.9497 24.3341 21.9143 22.8301 22.0365 21.3209C22.0451 21.2151 22.0389 21.1064 22.0286 20.9995C22.0061 20.7672 21.8925 20.6732 21.6497 20.6824C21.5687 20.6845 21.4873 20.6981 21.3278 20.7135L21.3246 20.711ZM22.6273 24.2915C22.7179 24.2828 22.814 24.3022 22.8712 24.2636C23.3491 23.9411 23.8795 23.756 24.4318 23.6018C24.874 23.4799 25.3028 23.3089 25.7362 23.1562C25.8919 23.1008 25.9841 22.9452 25.914 22.8499C25.4134 22.1748 24.8839 21.5299 24.0024 21.3247C23.8184 21.2822 23.6331 21.2411 23.4491 21.1985C22.5067 20.9791 22.5008 20.9782 22.4736 21.9705C22.4614 22.3989 22.4583 22.8307 22.4852 23.2582C22.5068 23.6013 22.4804 23.9577 22.6288 24.2914L22.6273 24.2915ZM26.0417 23.5998C25.229 23.8957 24.4128 24.1848 23.6027 24.4919C23.4264 24.5594 23.4278 24.7534 23.5976 24.8736C24.0614 25.1998 24.5458 25.4981 24.9532 25.9002C25.104 26.0496 25.2563 26.019 25.3406 25.8268C25.6207 25.184 25.9298 24.5557 26.283 23.949C26.3836 23.7753 26.2653 23.6314 26.0433 23.6011L26.0417 23.5998ZM40.9027 31.2225C40.9057 31.2538 40.9053 31.2798 40.9107 31.3051C40.9569 31.5121 41.1427 31.7084 41.3434 31.7293C41.616 31.7575 41.8841 31.7402 42.076 31.5044C42.1057 31.467 42.1215 31.4051 42.1166 31.3552C42.0936 31.087 41.8569 30.7849 41.6482 30.772C41.3665 30.7547 41.1133 30.8209 40.9495 31.077C40.9218 31.12 40.9157 31.1766 40.9013 31.2226L40.9027 31.2225ZM3.09144 31.5904C3.1384 31.7009 3.12689 31.8516 3.28495 31.8061C3.34564 31.7887 3.42474 31.6919 3.4234 31.633C3.41173 31.2429 3.54238 30.8994 3.73231 30.5689C3.74461 30.5461 3.74917 30.5184 3.75373 30.4906C3.76966 30.3855 3.81172 30.2505 3.69526 30.2014C3.55013 30.1406 3.4299 30.2472 3.37024 30.3652C3.17749 30.7564 3.07242 31.1693 3.09 31.5905L3.09144 31.5904ZM68.2641 26.1073C68.0719 26.1144 67.8799 26.1244 67.7397 26.2789C67.6807 26.3436 67.6744 26.4435 67.7427 26.4901C67.9711 26.6463 68.2953 26.6091 68.4839 26.414C68.5141 26.3823 68.5232 26.3109 68.5116 26.266C68.5 26.2211 68.4592 26.1747 68.4175 26.1485C68.3744 26.1225 68.3161 26.1195 68.2641 26.1073ZM76.2175 33.2957C76.0294 33.3009 75.8485 33.4853 75.873 33.6483C75.8949 33.7843 76.0793 33.906 76.234 33.8852C76.383 33.8665 76.5037 33.7052 76.4834 33.5403C76.4646 33.3911 76.3673 33.3142 76.2175 33.2957ZM10.5125 25.2533C10.4859 25.2487 10.4584 25.2341 10.4358 25.2406C10.2181 25.2991 10.0816 25.5827 10.1678 25.8132C10.1813 25.8478 10.2547 25.8868 10.2948 25.8814C10.5177 25.8469 10.6896 25.5699 10.6235 25.3519C10.6109 25.3114 10.5518 25.2855 10.5125 25.2533ZM49.0119 42.2219C49.0571 42.2391 49.1134 42.2811 49.1483 42.2676C49.3528 42.1917 49.4946 42.0385 49.6045 41.8552C49.657 41.7682 49.6042 41.7028 49.5415 41.6542C49.5038 41.6248 49.44 41.595 49.4005 41.606C49.1763 41.6723 48.9656 42.0135 49.0119 42.2219ZM49.9202 40.9213C49.9609 41.0267 50.0343 41.0656 50.115 41.0449C50.354 40.9815 50.4246 40.7675 50.5057 40.5712C50.5186 40.5398 50.4709 40.4811 50.4409 40.4408C50.4307 40.426 50.3881 40.4201 50.3686 40.4291C50.1406 40.5303 49.968 40.6808 49.9204 40.9228L49.9202 40.9213ZM74.8795 34.8478C74.889 34.8713 74.8917 34.8984 74.9061 34.9128C74.9221 34.9285 74.9543 34.9456 74.9712 34.941C75.1597 34.8796 75.2727 34.7436 75.3258 34.5586C75.3314 34.5408 75.3153 34.5093 75.2992 34.4936C75.2832 34.4779 75.2511 34.4608 75.2328 34.4669C75.0413 34.5258 74.9358 34.6654 74.8797 34.8492L74.8795 34.8478Z"/>
    </mask>
    <path d="M10.8269 26.3434C10.6788 26.3117 10.5742 26.4153 10.4619 26.4838C10.2262 26.626 10.0187 26.6101 9.77832 26.4651C9.47335 26.2817 9.44941 26.3042 9.2288 26.5125C8.34387 27.3505 7.46065 28.1912 6.56942 29.024C6.39251 29.1893 6.19367 29.338 5.98559 29.4661C5.4025 29.826 4.94053 30.3282 4.41663 30.7601C4.12781 30.9981 4.05514 31.3561 3.91482 31.6746C3.82799 31.8714 3.78045 32.0846 3.70725 32.2873C3.64073 32.4693 3.52423 32.6143 3.35945 32.7252C3.14843 32.8679 2.92522 32.8248 2.81465 32.5967C2.59693 32.146 2.51668 31.6619 2.59302 31.1769C2.67159 30.6702 2.84606 30.1801 3.11803 29.738C3.20087 29.6049 3.32246 29.4823 3.45324 29.3949C3.69306 29.235 4.10922 29.3083 4.19632 29.6235C4.22522 29.7272 4.25021 29.8355 4.29997 29.9299C4.35358 30.0341 4.4469 30.084 4.56483 30.0136C4.63481 29.9723 4.70294 29.9269 4.7662 29.8762C5.65479 29.1658 6.55324 28.4675 7.34559 27.6471C7.62773 27.3552 7.9209 27.0722 8.2238 26.7997C8.77092 26.3081 9.26907 25.7751 9.6723 25.1607C9.8099 24.9488 9.97126 24.7577 10.2251 24.713C10.613 24.6438 10.8366 24.3762 11.0423 24.0887C11.8961 22.8999 12.8571 21.7985 13.8179 20.6957C14.0842 20.3895 14.3773 20.1065 14.579 19.7475C14.6447 19.6318 14.7392 19.5292 14.8311 19.4296C15.5911 18.6196 16.3495 17.8083 17.1176 17.0075C17.5867 16.519 18.0068 15.9893 18.4913 15.5094C19.1651 14.8429 19.8545 14.1879 20.5124 13.5071C21.3588 12.6311 22.1301 11.6833 22.9366 10.7695C23.1903 10.4831 23.3885 10.1633 23.5833 9.83808C23.7418 9.57245 23.9978 9.53472 24.1767 9.79357C24.4819 10.2344 24.8877 10.3058 25.3781 10.2914C26.0608 10.2713 26.7325 10.422 27.3977 10.5504C28.2063 10.7065 29.0197 10.7183 29.8342 10.7402C30.7576 10.7644 31.6839 10.7279 32.6078 10.7261C33.8347 10.7238 35.0511 10.5528 36.2736 10.4891C37.6865 10.4141 39.0998 10.3592 40.5133 10.2914C42.9591 10.1725 45.408 10.0863 47.8442 9.80868C48.903 9.68744 49.9179 9.36765 50.9263 9.04128C51.1556 8.96729 51.3626 8.82786 51.5793 8.71338C51.9478 8.51947 52.2732 8.58433 52.5071 8.90258C52.5388 8.94553 52.5639 8.99489 52.5874 9.04295C53.2996 10.5102 54.2969 11.7916 55.2616 13.0948C55.9223 13.9859 56.662 14.809 57.3994 15.638C58.3336 16.6867 59.2441 17.7608 60.2735 18.714C61.362 19.7233 62.4066 20.7887 63.6411 21.6429C64.2398 22.0582 64.7708 22.5691 65.3405 23.0289C65.7195 23.3331 66.1116 23.6217 66.4984 23.9165C67.2721 24.5061 68.0352 25.1068 68.8242 25.6748C69.0534 25.8395 69.2 26.0195 69.1188 26.2748C68.9431 26.8269 69.2033 27.1929 69.556 27.5687C70.2031 28.2598 70.8954 28.9076 71.4867 29.6515C72.1936 30.5396 72.9382 31.3981 73.6747 32.2632C73.9546 32.5914 74.2442 32.9157 74.5533 33.2166C74.8976 33.5515 75.0986 33.545 75.4711 33.2428C75.576 33.1578 75.6694 33.0582 75.7726 32.9705C75.9722 32.8002 76.2123 32.7625 76.4627 32.7872C76.9064 32.8305 77.1922 33.2502 77.0435 33.6616C76.9805 33.8345 76.8901 34.0245 76.7564 34.1425C76.1454 34.6777 75.5213 35.1985 74.8859 35.7073C74.7029 35.8545 74.4666 36.0514 74.225 35.8936C73.9309 35.702 74.1002 35.3979 74.1738 35.1549C74.2597 34.8733 74.4083 34.6101 74.5256 34.3384C74.5967 34.1747 74.5752 34.0272 74.4421 33.8962C73.3403 32.8091 72.4842 31.5183 71.471 30.3579C70.7939 29.582 70.0865 28.8378 69.3762 28.0939C69.2454 27.957 69.0997 27.8301 68.9892 27.6783C68.6912 27.267 68.371 26.9715 67.7844 27.0398C67.4358 27.0807 67.1292 26.8501 66.8682 26.5819C66.6426 26.3492 66.3708 26.4331 66.3205 26.7227C66.0741 28.1332 65.8528 29.547 66.0226 30.9862C66.0953 31.602 65.9375 31.7855 65.2798 31.8838C64.4192 32.0146 63.5527 32.1143 62.7002 32.2832C61.526 32.5163 60.3626 32.8001 59.1941 33.0614C58.9016 33.1271 58.6085 33.1857 58.316 33.2515C57.8646 33.3527 57.4087 33.4386 56.9655 33.5649C55.2677 34.053 53.5723 34.5509 51.8775 35.0545C50.4703 35.4727 49.066 35.905 47.6592 36.3275C47.1912 36.4677 46.7113 36.5746 46.2529 36.7398C45.5437 36.9955 45.5408 37.0404 45.9783 37.6036C46.361 38.0958 46.7744 38.5592 47.2492 38.9692C47.7827 39.4296 48.3043 39.9027 48.8389 40.3601C49.2502 40.7129 49.3535 40.8209 49.7519 40.3364C50.0361 39.991 50.4363 39.8098 50.8573 39.6784C51.0643 39.6138 51.257 39.7764 51.2092 39.9867C51.149 40.2486 51.1022 40.5293 50.9674 40.7552C50.5246 41.5 50.0419 42.2228 49.3592 42.7823C49.2544 42.8687 49.1515 42.9592 49.0381 43.032C48.873 43.1386 48.6924 43.2065 48.504 43.0881C48.3124 42.9671 48.3024 42.7739 48.3551 42.5847C48.4548 42.2212 48.5634 41.8597 48.7499 41.5237C48.9314 41.1955 48.9254 41.1788 48.6354 40.9106C48.3197 40.6161 47.9934 40.3327 47.6594 40.0586C46.8385 39.3859 46.1502 38.5852 45.4608 37.7874C45.3367 37.6441 45.222 37.4927 45.098 37.3508C44.9806 37.2169 44.832 37.1809 44.6563 37.2238C43.3861 37.5281 42.1134 37.8225 40.9515 38.4514C40.7846 38.5409 40.6117 38.6425 40.4295 38.6789C40.0208 38.7573 39.6546 38.8704 39.4116 39.2521C39.2844 39.4514 39.0484 39.4556 38.8192 39.426C37.3344 39.2375 35.8426 39.0958 34.3935 38.7068C32.8908 38.3028 31.35 38.1356 29.814 37.9276C28.6014 37.7632 27.3884 37.6102 26.1769 37.4427C24.6685 37.235 23.1761 36.9379 21.6876 36.6218C21.581 36.599 21.471 36.5867 21.3692 36.5534C19.9405 36.0905 18.4439 35.9449 16.9811 35.6392C15.7582 35.3836 14.5268 35.1606 13.3007 34.9168C13.0877 34.8742 12.8702 34.8305 12.6733 34.7446C12.1978 34.5375 11.8562 34.2153 11.8325 33.6566C11.8267 33.5219 11.7978 33.3881 11.7906 33.2536C11.7034 31.3648 11.4091 29.4946 11.2515 27.6126C11.2133 27.1575 11.1734 26.7011 10.8283 26.3433L10.8269 26.3434ZM39.3445 29.1525C39.2566 29.443 39.2293 29.7304 39.2258 30.0242C39.2226 30.3208 39.205 30.6174 39.2003 30.9141C39.182 32.2076 39.1056 33.5009 39.1976 34.7952C39.2617 35.6822 39.2813 36.5735 39.4405 37.4528C39.4838 37.6902 39.5358 37.9283 39.6089 38.1586C39.6401 38.2562 39.7349 38.3218 39.8669 38.3062C40.2499 38.2619 40.6068 38.1425 40.9608 37.9931C41.6617 37.6965 42.3704 37.4208 43.1106 37.2297C43.4516 37.142 43.7847 37.0163 44.115 36.8922C44.4901 36.7509 44.5138 36.6364 44.252 36.2993C43.9371 35.8939 43.6154 35.4921 43.3005 35.0868C42.7834 34.4206 42.3707 33.6939 42.0544 32.9147C42.0144 32.8164 41.9741 32.7139 41.9554 32.6107C41.9341 32.4963 41.9888 32.4018 42.095 32.3455C42.2069 32.2872 42.3161 32.3212 42.3931 32.3972C42.4667 32.4691 42.5327 32.5663 42.5624 32.6627C43.0089 34.1283 44.0222 35.2298 44.9727 36.3719C45.132 36.5636 45.3281 36.5964 45.5593 36.5279C46.1318 36.3574 46.7096 36.1979 47.28 36.0218C48.5011 35.6447 49.7179 35.2521 50.9397 34.8821C51.9022 34.5904 52.8752 34.3322 53.8381 34.0447C55.5851 33.526 57.3216 32.9738 59.1134 32.6176C59.8335 32.4745 60.5503 32.3116 61.2608 32.1291C61.8142 31.9864 62.3666 31.8494 62.9342 31.7643C63.5791 31.6673 64.2214 31.5447 64.8604 31.4181C65.3714 31.3168 65.3983 31.2955 65.4104 30.7909C65.4343 29.7644 65.5357 28.7449 65.6606 27.7273C65.6992 27.4072 65.7039 27.0816 65.7045 26.7579C65.7044 26.6069 65.5969 26.5152 65.4412 26.5101C65.3334 26.5062 65.2241 26.5153 65.1166 26.5286C63.9277 26.6697 62.733 26.735 61.5372 26.7904C60.5885 26.8348 59.6331 26.8252 58.6913 27.0013C57.8636 27.1562 57.0292 27.273 56.1963 27.4054C55.3649 27.5377 54.5318 27.6673 53.7006 27.8025C53.5406 27.828 53.3826 27.8736 53.2233 27.9062C52.5576 28.0426 51.8969 28.2145 51.2252 28.304C50.4131 28.4114 49.6086 28.5814 48.8351 28.8174C47.512 29.2203 46.1426 29.4895 44.8811 30.0936C44.4417 30.3044 43.9724 30.4462 43.5522 30.7056C43.3729 30.8164 43.1672 30.9241 42.9375 30.8442C42.8924 30.8284 42.8444 30.7813 42.827 30.7369C42.8098 30.694 42.813 30.6218 42.8402 30.5889C42.8895 30.5281 42.9565 30.4712 43.0276 30.4413C43.8756 30.0759 44.7197 29.7007 45.5756 29.356C46.839 28.8467 48.1816 28.5858 49.4696 28.1504C49.6999 28.072 49.9464 28.0409 50.1876 28.0003C50.9912 27.8649 51.7974 27.7423 52.6003 27.5998C53.2961 27.4749 53.9867 27.326 54.6803 27.1941C55.6688 27.0063 56.6591 26.8212 57.6483 26.6406C58.0488 26.5673 58.4506 26.478 58.8556 26.4503C59.8052 26.3857 60.7569 26.3568 61.708 26.3064C62.1972 26.2806 62.6889 26.2646 63.1722 26.1933C63.9802 26.0734 64.7873 25.9593 65.6041 25.9305C65.8209 25.9225 66.0377 25.9144 66.253 25.8907C66.4682 25.867 66.6837 25.8303 66.8954 25.7839C67.0913 25.7404 67.2545 25.6283 67.2941 25.4231C67.329 25.2442 67.2008 25.1185 67.0748 25.0157C66.7202 24.7235 66.3602 24.4362 65.999 24.1518C64.8715 23.2642 63.7362 22.386 62.6179 21.4874C62.1333 21.0971 61.6914 20.6537 61.2134 20.2555C60.2951 19.4915 59.4408 18.668 58.6664 17.7563C57.9327 16.891 57.1787 16.0405 56.4024 15.2138C55.1198 13.8479 53.9902 12.3693 52.9726 10.8036C52.7069 10.3964 52.4442 9.99034 52.2429 9.54523C52.1283 9.29023 51.9857 9.25514 51.7066 9.33969C51.6024 9.37137 51.5041 9.41972 51.4014 9.45268C50.1337 9.85881 48.8664 10.2678 47.5149 10.3023C47.2992 10.3074 47.0857 10.3798 46.87 10.3993C45.9222 10.4824 44.9748 10.5857 44.0251 10.6201C43.5366 10.6387 43.0506 10.6527 42.5621 10.687C41.4239 10.767 40.2841 10.8156 39.1455 10.8611C38.2222 10.8987 37.2943 10.8735 36.3731 10.9469C35.0704 11.0515 33.7717 11.1816 32.4641 11.1745C31.7296 11.1694 30.9957 11.1858 30.2606 11.2037C29.116 11.2326 27.9764 11.2092 26.8491 10.9818C26.5561 10.9224 26.261 10.8561 25.9647 10.8373C25.6758 10.8192 25.2822 10.6948 25.1191 10.9422C24.9381 11.2157 25.2632 11.4719 25.4321 11.703C25.6077 11.9435 25.802 12.1677 25.9912 12.3982C26.2148 12.67 26.4519 12.9319 26.6633 13.212C28.1762 15.2188 29.7244 17.2005 31.317 19.1463C31.8303 19.7741 32.2964 20.4525 32.8797 21.0087C33.6102 21.7061 34.2242 22.4895 34.8562 23.264C35.1475 23.6199 35.4116 23.9956 35.7001 24.3532C36.6526 25.531 37.6892 26.6345 38.7447 27.7219C39.2137 28.2058 39.7158 28.6577 40.2074 29.1207C40.5412 29.4365 40.8948 29.7331 41.2153 30.0616C41.3585 30.2074 41.4977 30.2961 41.7017 30.3065C41.8359 30.3137 41.9709 30.3452 42.1007 30.3815C42.3227 30.442 42.4946 30.5548 42.5266 30.8106C42.5438 30.9427 42.594 31.0716 42.6156 31.2048C42.6718 31.546 42.518 31.86 42.2073 32.0066C42.0616 32.0754 41.9001 32.1155 41.7428 32.1537C41.2482 32.2736 40.8123 32.1763 40.5153 31.7462C40.2354 31.3418 40.263 30.9378 40.6009 30.5627C40.677 30.4791 40.7021 30.3789 40.6348 30.2689C40.4471 29.9634 39.8257 29.418 39.3479 29.1579L39.3445 29.1525ZM12.0223 29.9991C12.0438 29.997 12.0668 29.9948 12.0884 29.9927C12.1767 30.9047 12.2637 31.8183 12.3535 32.7302C12.3847 33.0522 12.4288 33.373 12.4686 33.6942C12.505 33.9956 12.6863 34.1593 12.9615 34.2751C13.3926 34.4577 13.8523 34.5168 14.2976 34.6362C14.9811 34.8188 15.03 34.7839 15.052 34.0525C15.0833 33.0282 15.0855 32.0024 15.1067 30.9777C15.1233 30.2209 15.2265 29.4745 15.3898 28.7337C15.6929 27.3551 16.1894 26.0413 16.7734 24.7621C17.2461 23.7267 17.8564 22.7643 18.5474 21.8559C18.958 21.317 19.4253 20.81 20.0611 20.5298C20.8194 20.1975 21.6227 20.0737 22.4554 20.18C22.5934 20.1969 22.7263 20.2056 22.8363 20.2927C23.1914 20.5748 23.627 20.639 24.0497 20.7347C24.7066 20.8826 25.2593 21.1973 25.703 21.7052C26.0408 22.0925 26.3946 22.4653 26.7391 22.8476C26.8513 22.972 26.9675 23.0787 27.1545 23.0476C27.4101 23.0056 27.5486 23.1777 27.5134 23.3681C27.4247 23.8456 27.6537 24.2032 27.8791 24.5683C28.1353 24.9822 28.3913 25.3932 28.5523 25.8581C28.7293 26.3674 28.9385 26.8649 29.1296 27.37C29.3302 27.8986 29.5952 28.4037 29.6441 28.9829C29.66 29.1626 29.7614 29.3412 29.846 29.51C30.0793 29.9721 30.2326 30.4621 30.3618 30.9574C30.6341 32.0012 30.8836 33.0501 31.1389 34.0984C31.3942 35.1467 31.6509 36.1949 31.8907 37.2476C31.9685 37.5867 32.1498 37.7662 32.4957 37.7888C33.2066 37.835 33.8896 37.9975 34.5606 38.2303C34.7903 38.3102 35.0331 38.3615 35.2736 38.4029C36.0495 38.5363 36.8269 38.6696 37.6065 38.7811C37.9272 38.8277 38.2572 38.8346 38.5833 38.8318C38.9094 38.829 39.0328 38.6804 39.0035 38.3783C38.9958 38.2985 38.9836 38.2177 38.9658 38.1388C38.6273 36.68 38.778 35.181 38.6007 33.7094C38.585 33.5772 38.6079 33.4398 38.6211 33.3062C38.7557 32.0144 38.7348 30.7204 38.6835 29.4265C38.677 29.2546 38.6907 29.0964 38.7976 28.9725C38.975 28.7669 38.954 28.5948 38.7691 28.4085C38.6164 28.255 38.4877 28.079 38.3391 27.9223C37.6122 27.1569 36.8788 26.3995 36.1532 25.6326C35.6507 25.1016 35.1966 24.5314 34.7636 23.9404C34.2204 23.199 33.638 22.4873 32.9738 21.8454C32.6825 21.5629 32.3907 21.2762 32.1342 20.9644C31.1916 19.8144 30.2557 18.6579 29.3322 17.4945C28.559 16.5208 27.787 15.5441 27.0448 14.5458C26.3511 13.6134 25.5467 12.7664 24.926 11.7793C24.7116 11.4376 24.4684 11.1131 24.2225 10.7917C24.0648 10.5854 23.8286 10.5738 23.6619 10.7539C23.2191 11.2298 22.7467 11.684 22.3556 12.1994C21.8603 12.8515 21.2813 13.4182 20.7106 13.9956C19.4911 15.2285 18.2381 16.4301 17.049 17.6916C16.0651 18.7362 15.1466 19.8421 14.2122 20.9323C13.4887 21.7748 12.7764 22.6277 12.0749 23.4882C11.8196 23.802 11.5868 24.1396 11.3812 24.4874C11.1143 24.9376 11.1066 25.4116 11.3935 25.8584C11.5626 26.1211 11.6048 26.4076 11.6378 26.7036C11.7618 27.8034 11.8899 28.9015 12.0152 30.0012L12.0223 29.9991ZM22.3721 33.9837C22.4053 34.6853 22.4296 35.2511 22.4626 35.816C22.4802 36.1178 22.6266 36.3122 22.9473 36.3732C23.534 36.4847 24.113 36.6372 24.7034 36.7267C26.0726 36.935 27.4445 37.1416 28.8204 37.2989C29.5494 37.3822 30.2801 37.438 31.0003 37.5797C31.188 37.6162 31.3207 37.4883 31.3056 37.3028C31.2916 37.143 31.2644 36.9817 31.2289 36.8255C30.9934 35.8011 30.7775 34.7706 30.5093 33.7537C30.2221 32.6596 30.0072 31.5498 29.6701 30.4648C29.2461 29.0977 28.7243 27.7688 28.194 26.4422C27.9141 25.7386 27.5483 25.0764 27.1385 24.4401C26.9814 24.1964 26.8142 24.2068 26.6297 24.4433C26.2232 24.9646 26.031 25.5859 25.7931 26.1857C25.7139 26.3861 25.6588 26.5957 25.5081 26.7627C25.301 26.9899 25.1181 26.9889 24.9069 26.7404C24.7483 26.5558 24.6083 26.3536 24.4366 26.1833C24.072 25.8187 23.676 25.4888 23.1787 25.3112C22.9202 25.2183 22.7319 25.3113 22.6958 25.5679C22.6531 25.8612 22.6369 26.1576 22.6162 26.4531C22.5408 27.5018 22.5613 28.5527 22.473 29.6026C22.3471 31.1036 22.1156 32.6075 22.3719 33.9808L22.3721 33.9837ZM21.3246 20.711C20.8839 20.8486 20.3223 20.8756 19.8835 21.2432C19.4878 21.575 19.0958 21.9164 18.8081 22.3456C18.1007 23.3994 17.3569 24.4366 16.941 25.6535C16.8968 25.7815 16.8344 25.9011 16.7812 26.0257C16.248 27.2755 15.8947 28.5697 15.7411 29.9194C15.6061 31.1019 15.6311 32.289 15.6358 33.4753C15.6378 33.826 15.6601 34.1763 15.6708 34.5262C15.678 34.7801 15.8179 34.9219 16.0553 34.9766C16.4262 35.0615 16.795 35.1552 17.1698 35.221C18.48 35.4494 19.8066 35.5914 21.0791 36.0004C21.2318 36.0489 21.3996 36.0585 21.5616 36.0687C21.7191 36.0779 21.8173 35.9835 21.8422 35.8358C21.8642 35.7043 21.8728 35.5682 21.8699 35.4333C21.8541 34.7602 21.8796 34.0803 21.8006 33.4147C21.6401 32.0566 21.8909 30.722 22.008 29.3844C22.1058 28.253 22.0528 27.1218 22.1556 25.9957C22.1607 25.9434 22.1524 25.8881 22.1459 25.8355C21.9497 24.3341 21.9143 22.8301 22.0365 21.3209C22.0451 21.2151 22.0389 21.1064 22.0286 20.9995C22.0061 20.7672 21.8925 20.6732 21.6497 20.6824C21.5687 20.6845 21.4873 20.6981 21.3278 20.7135L21.3246 20.711ZM22.6273 24.2915C22.7179 24.2828 22.814 24.3022 22.8712 24.2636C23.3491 23.9411 23.8795 23.756 24.4318 23.6018C24.874 23.4799 25.3028 23.3089 25.7362 23.1562C25.8919 23.1008 25.9841 22.9452 25.914 22.8499C25.4134 22.1748 24.8839 21.5299 24.0024 21.3247C23.8184 21.2822 23.6331 21.2411 23.4491 21.1985C22.5067 20.9791 22.5008 20.9782 22.4736 21.9705C22.4614 22.3989 22.4583 22.8307 22.4852 23.2582C22.5068 23.6013 22.4804 23.9577 22.6288 24.2914L22.6273 24.2915ZM26.0417 23.5998C25.229 23.8957 24.4128 24.1848 23.6027 24.4919C23.4264 24.5594 23.4278 24.7534 23.5976 24.8736C24.0614 25.1998 24.5458 25.4981 24.9532 25.9002C25.104 26.0496 25.2563 26.019 25.3406 25.8268C25.6207 25.184 25.9298 24.5557 26.283 23.949C26.3836 23.7753 26.2653 23.6314 26.0433 23.6011L26.0417 23.5998ZM40.9027 31.2225C40.9057 31.2538 40.9053 31.2798 40.9107 31.3051C40.9569 31.5121 41.1427 31.7084 41.3434 31.7293C41.616 31.7575 41.8841 31.7402 42.076 31.5044C42.1057 31.467 42.1215 31.4051 42.1166 31.3552C42.0936 31.087 41.8569 30.7849 41.6482 30.772C41.3665 30.7547 41.1133 30.8209 40.9495 31.077C40.9218 31.12 40.9157 31.1766 40.9013 31.2226L40.9027 31.2225ZM3.09144 31.5904C3.1384 31.7009 3.12689 31.8516 3.28495 31.8061C3.34564 31.7887 3.42474 31.6919 3.4234 31.633C3.41173 31.2429 3.54238 30.8994 3.73231 30.5689C3.74461 30.5461 3.74917 30.5184 3.75373 30.4906C3.76966 30.3855 3.81172 30.2505 3.69526 30.2014C3.55013 30.1406 3.4299 30.2472 3.37024 30.3652C3.17749 30.7564 3.07242 31.1693 3.09 31.5905L3.09144 31.5904ZM68.2641 26.1073C68.0719 26.1144 67.8799 26.1244 67.7397 26.2789C67.6807 26.3436 67.6744 26.4435 67.7427 26.4901C67.9711 26.6463 68.2953 26.6091 68.4839 26.414C68.5141 26.3823 68.5232 26.3109 68.5116 26.266C68.5 26.2211 68.4592 26.1747 68.4175 26.1485C68.3744 26.1225 68.3161 26.1195 68.2641 26.1073ZM76.2175 33.2957C76.0294 33.3009 75.8485 33.4853 75.873 33.6483C75.8949 33.7843 76.0793 33.906 76.234 33.8852C76.383 33.8665 76.5037 33.7052 76.4834 33.5403C76.4646 33.3911 76.3673 33.3142 76.2175 33.2957ZM10.5125 25.2533C10.4859 25.2487 10.4584 25.2341 10.4358 25.2406C10.2181 25.2991 10.0816 25.5827 10.1678 25.8132C10.1813 25.8478 10.2547 25.8868 10.2948 25.8814C10.5177 25.8469 10.6896 25.5699 10.6235 25.3519C10.6109 25.3114 10.5518 25.2855 10.5125 25.2533ZM49.0119 42.2219C49.0571 42.2391 49.1134 42.2811 49.1483 42.2676C49.3528 42.1917 49.4946 42.0385 49.6045 41.8552C49.657 41.7682 49.6042 41.7028 49.5415 41.6542C49.5038 41.6248 49.44 41.595 49.4005 41.606C49.1763 41.6723 48.9656 42.0135 49.0119 42.2219ZM49.9202 40.9213C49.9609 41.0267 50.0343 41.0656 50.115 41.0449C50.354 40.9815 50.4246 40.7675 50.5057 40.5712C50.5186 40.5398 50.4709 40.4811 50.4409 40.4408C50.4307 40.426 50.3881 40.4201 50.3686 40.4291C50.1406 40.5303 49.968 40.6808 49.9204 40.9228L49.9202 40.9213ZM74.8795 34.8478C74.889 34.8713 74.8917 34.8984 74.9061 34.9128C74.9221 34.9285 74.9543 34.9456 74.9712 34.941C75.1597 34.8796 75.2727 34.7436 75.3258 34.5586C75.3314 34.5408 75.3153 34.5093 75.2992 34.4936C75.2832 34.4779 75.2511 34.4608 75.2328 34.4669C75.0413 34.5258 74.9358 34.6654 74.8797 34.8492L74.8795 34.8478Z" fill="black"/>
    <path d="M10.8269 26.3434C10.6788 26.3117 10.5742 26.4153 10.4619 26.4838C10.2262 26.626 10.0187 26.6101 9.77832 26.4651C9.47335 26.2817 9.44941 26.3042 9.2288 26.5125C8.34387 27.3505 7.46065 28.1912 6.56942 29.024C6.39251 29.1893 6.19367 29.338 5.98559 29.4661C5.4025 29.826 4.94053 30.3282 4.41663 30.7601C4.12781 30.9981 4.05514 31.3561 3.91482 31.6746C3.82799 31.8714 3.78045 32.0846 3.70725 32.2873C3.64073 32.4693 3.52423 32.6143 3.35945 32.7252C3.14843 32.8679 2.92522 32.8248 2.81465 32.5967C2.59693 32.146 2.51668 31.6619 2.59302 31.1769C2.67159 30.6702 2.84606 30.1801 3.11803 29.738C3.20087 29.6049 3.32246 29.4823 3.45324 29.3949C3.69306 29.235 4.10922 29.3083 4.19632 29.6235C4.22522 29.7272 4.25021 29.8355 4.29997 29.9299C4.35358 30.0341 4.4469 30.084 4.56483 30.0136C4.63481 29.9723 4.70294 29.9269 4.7662 29.8762C5.65479 29.1658 6.55324 28.4675 7.34559 27.6471C7.62773 27.3552 7.9209 27.0722 8.2238 26.7997C8.77092 26.3081 9.26907 25.7751 9.6723 25.1607C9.8099 24.9488 9.97126 24.7577 10.2251 24.713C10.613 24.6438 10.8366 24.3762 11.0423 24.0887C11.8961 22.8999 12.8571 21.7985 13.8179 20.6957C14.0842 20.3895 14.3773 20.1065 14.579 19.7475C14.6447 19.6318 14.7392 19.5292 14.8311 19.4296C15.5911 18.6196 16.3495 17.8083 17.1176 17.0075C17.5867 16.519 18.0068 15.9893 18.4913 15.5094C19.1651 14.8429 19.8545 14.1879 20.5124 13.5071C21.3588 12.6311 22.1301 11.6833 22.9366 10.7695C23.1903 10.4831 23.3885 10.1633 23.5833 9.83808C23.7418 9.57245 23.9978 9.53472 24.1767 9.79357C24.4819 10.2344 24.8877 10.3058 25.3781 10.2914C26.0608 10.2713 26.7325 10.422 27.3977 10.5504C28.2063 10.7065 29.0197 10.7183 29.8342 10.7402C30.7576 10.7644 31.6839 10.7279 32.6078 10.7261C33.8347 10.7238 35.0511 10.5528 36.2736 10.4891C37.6865 10.4141 39.0998 10.3592 40.5133 10.2914C42.9591 10.1725 45.408 10.0863 47.8442 9.80868C48.903 9.68744 49.9179 9.36765 50.9263 9.04128C51.1556 8.96729 51.3626 8.82786 51.5793 8.71338C51.9478 8.51947 52.2732 8.58433 52.5071 8.90258C52.5388 8.94553 52.5639 8.99489 52.5874 9.04295C53.2996 10.5102 54.2969 11.7916 55.2616 13.0948C55.9223 13.9859 56.662 14.809 57.3994 15.638C58.3336 16.6867 59.2441 17.7608 60.2735 18.714C61.362 19.7233 62.4066 20.7887 63.6411 21.6429C64.2398 22.0582 64.7708 22.5691 65.3405 23.0289C65.7195 23.3331 66.1116 23.6217 66.4984 23.9165C67.2721 24.5061 68.0352 25.1068 68.8242 25.6748C69.0534 25.8395 69.2 26.0195 69.1188 26.2748C68.9431 26.8269 69.2033 27.1929 69.556 27.5687C70.2031 28.2598 70.8954 28.9076 71.4867 29.6515C72.1936 30.5396 72.9382 31.3981 73.6747 32.2632C73.9546 32.5914 74.2442 32.9157 74.5533 33.2166C74.8976 33.5515 75.0986 33.545 75.4711 33.2428C75.576 33.1578 75.6694 33.0582 75.7726 32.9705C75.9722 32.8002 76.2123 32.7625 76.4627 32.7872C76.9064 32.8305 77.1922 33.2502 77.0435 33.6616C76.9805 33.8345 76.8901 34.0245 76.7564 34.1425C76.1454 34.6777 75.5213 35.1985 74.8859 35.7073C74.7029 35.8545 74.4666 36.0514 74.225 35.8936C73.9309 35.702 74.1002 35.3979 74.1738 35.1549C74.2597 34.8733 74.4083 34.6101 74.5256 34.3384C74.5967 34.1747 74.5752 34.0272 74.4421 33.8962C73.3403 32.8091 72.4842 31.5183 71.471 30.3579C70.7939 29.582 70.0865 28.8378 69.3762 28.0939C69.2454 27.957 69.0997 27.8301 68.9892 27.6783C68.6912 27.267 68.371 26.9715 67.7844 27.0398C67.4358 27.0807 67.1292 26.8501 66.8682 26.5819C66.6426 26.3492 66.3708 26.4331 66.3205 26.7227C66.0741 28.1332 65.8528 29.547 66.0226 30.9862C66.0953 31.602 65.9375 31.7855 65.2798 31.8838C64.4192 32.0146 63.5527 32.1143 62.7002 32.2832C61.526 32.5163 60.3626 32.8001 59.1941 33.0614C58.9016 33.1271 58.6085 33.1857 58.316 33.2515C57.8646 33.3527 57.4087 33.4386 56.9655 33.5649C55.2677 34.053 53.5723 34.5509 51.8775 35.0545C50.4703 35.4727 49.066 35.905 47.6592 36.3275C47.1912 36.4677 46.7113 36.5746 46.2529 36.7398C45.5437 36.9955 45.5408 37.0404 45.9783 37.6036C46.361 38.0958 46.7744 38.5592 47.2492 38.9692C47.7827 39.4296 48.3043 39.9027 48.8389 40.3601C49.2502 40.7129 49.3535 40.8209 49.7519 40.3364C50.0361 39.991 50.4363 39.8098 50.8573 39.6784C51.0643 39.6138 51.257 39.7764 51.2092 39.9867C51.149 40.2486 51.1022 40.5293 50.9674 40.7552C50.5246 41.5 50.0419 42.2228 49.3592 42.7823C49.2544 42.8687 49.1515 42.9592 49.0381 43.032C48.873 43.1386 48.6924 43.2065 48.504 43.0881C48.3124 42.9671 48.3024 42.7739 48.3551 42.5847C48.4548 42.2212 48.5634 41.8597 48.7499 41.5237C48.9314 41.1955 48.9254 41.1788 48.6354 40.9106C48.3197 40.6161 47.9934 40.3327 47.6594 40.0586C46.8385 39.3859 46.1502 38.5852 45.4608 37.7874C45.3367 37.6441 45.222 37.4927 45.098 37.3508C44.9806 37.2169 44.832 37.1809 44.6563 37.2238C43.3861 37.5281 42.1134 37.8225 40.9515 38.4514C40.7846 38.5409 40.6117 38.6425 40.4295 38.6789C40.0208 38.7573 39.6546 38.8704 39.4116 39.2521C39.2844 39.4514 39.0484 39.4556 38.8192 39.426C37.3344 39.2375 35.8426 39.0958 34.3935 38.7068C32.8908 38.3028 31.35 38.1356 29.814 37.9276C28.6014 37.7632 27.3884 37.6102 26.1769 37.4427C24.6685 37.235 23.1761 36.9379 21.6876 36.6218C21.581 36.599 21.471 36.5867 21.3692 36.5534C19.9405 36.0905 18.4439 35.9449 16.9811 35.6392C15.7582 35.3836 14.5268 35.1606 13.3007 34.9168C13.0877 34.8742 12.8702 34.8305 12.6733 34.7446C12.1978 34.5375 11.8562 34.2153 11.8325 33.6566C11.8267 33.5219 11.7978 33.3881 11.7906 33.2536C11.7034 31.3648 11.4091 29.4946 11.2515 27.6126C11.2133 27.1575 11.1734 26.7011 10.8283 26.3433L10.8269 26.3434ZM39.3445 29.1525C39.2566 29.443 39.2293 29.7304 39.2258 30.0242C39.2226 30.3208 39.205 30.6174 39.2003 30.9141C39.182 32.2076 39.1056 33.5009 39.1976 34.7952C39.2617 35.6822 39.2813 36.5735 39.4405 37.4528C39.4838 37.6902 39.5358 37.9283 39.6089 38.1586C39.6401 38.2562 39.7349 38.3218 39.8669 38.3062C40.2499 38.2619 40.6068 38.1425 40.9608 37.9931C41.6617 37.6965 42.3704 37.4208 43.1106 37.2297C43.4516 37.142 43.7847 37.0163 44.115 36.8922C44.4901 36.7509 44.5138 36.6364 44.252 36.2993C43.9371 35.8939 43.6154 35.4921 43.3005 35.0868C42.7834 34.4206 42.3707 33.6939 42.0544 32.9147C42.0144 32.8164 41.9741 32.7139 41.9554 32.6107C41.9341 32.4963 41.9888 32.4018 42.095 32.3455C42.2069 32.2872 42.3161 32.3212 42.3931 32.3972C42.4667 32.4691 42.5327 32.5663 42.5624 32.6627C43.0089 34.1283 44.0222 35.2298 44.9727 36.3719C45.132 36.5636 45.3281 36.5964 45.5593 36.5279C46.1318 36.3574 46.7096 36.1979 47.28 36.0218C48.5011 35.6447 49.7179 35.2521 50.9397 34.8821C51.9022 34.5904 52.8752 34.3322 53.8381 34.0447C55.5851 33.526 57.3216 32.9738 59.1134 32.6176C59.8335 32.4745 60.5503 32.3116 61.2608 32.1291C61.8142 31.9864 62.3666 31.8494 62.9342 31.7643C63.5791 31.6673 64.2214 31.5447 64.8604 31.4181C65.3714 31.3168 65.3983 31.2955 65.4104 30.7909C65.4343 29.7644 65.5357 28.7449 65.6606 27.7273C65.6992 27.4072 65.7039 27.0816 65.7045 26.7579C65.7044 26.6069 65.5969 26.5152 65.4412 26.5101C65.3334 26.5062 65.2241 26.5153 65.1166 26.5286C63.9277 26.6697 62.733 26.735 61.5372 26.7904C60.5885 26.8348 59.6331 26.8252 58.6913 27.0013C57.8636 27.1562 57.0292 27.273 56.1963 27.4054C55.3649 27.5377 54.5318 27.6673 53.7006 27.8025C53.5406 27.828 53.3826 27.8736 53.2233 27.9062C52.5576 28.0426 51.8969 28.2145 51.2252 28.304C50.4131 28.4114 49.6086 28.5814 48.8351 28.8174C47.512 29.2203 46.1426 29.4895 44.8811 30.0936C44.4417 30.3044 43.9724 30.4462 43.5522 30.7056C43.3729 30.8164 43.1672 30.9241 42.9375 30.8442C42.8924 30.8284 42.8444 30.7813 42.827 30.7369C42.8098 30.694 42.813 30.6218 42.8402 30.5889C42.8895 30.5281 42.9565 30.4712 43.0276 30.4413C43.8756 30.0759 44.7197 29.7007 45.5756 29.356C46.839 28.8467 48.1816 28.5858 49.4696 28.1504C49.6999 28.072 49.9464 28.0409 50.1876 28.0003C50.9912 27.8649 51.7974 27.7423 52.6003 27.5998C53.2961 27.4749 53.9867 27.326 54.6803 27.1941C55.6688 27.0063 56.6591 26.8212 57.6483 26.6406C58.0488 26.5673 58.4506 26.478 58.8556 26.4503C59.8052 26.3857 60.7569 26.3568 61.708 26.3064C62.1972 26.2806 62.6889 26.2646 63.1722 26.1933C63.9802 26.0734 64.7873 25.9593 65.6041 25.9305C65.8209 25.9225 66.0377 25.9144 66.253 25.8907C66.4682 25.867 66.6837 25.8303 66.8954 25.7839C67.0913 25.7404 67.2545 25.6283 67.2941 25.4231C67.329 25.2442 67.2008 25.1185 67.0748 25.0157C66.7202 24.7235 66.3602 24.4362 65.999 24.1518C64.8715 23.2642 63.7362 22.386 62.6179 21.4874C62.1333 21.0971 61.6914 20.6537 61.2134 20.2555C60.2951 19.4915 59.4408 18.668 58.6664 17.7563C57.9327 16.891 57.1787 16.0405 56.4024 15.2138C55.1198 13.8479 53.9902 12.3693 52.9726 10.8036C52.7069 10.3964 52.4442 9.99034 52.2429 9.54523C52.1283 9.29023 51.9857 9.25514 51.7066 9.33969C51.6024 9.37137 51.5041 9.41972 51.4014 9.45268C50.1337 9.85881 48.8664 10.2678 47.5149 10.3023C47.2992 10.3074 47.0857 10.3798 46.87 10.3993C45.9222 10.4824 44.9748 10.5857 44.0251 10.6201C43.5366 10.6387 43.0506 10.6527 42.5621 10.687C41.4239 10.767 40.2841 10.8156 39.1455 10.8611C38.2222 10.8987 37.2943 10.8735 36.3731 10.9469C35.0704 11.0515 33.7717 11.1816 32.4641 11.1745C31.7296 11.1694 30.9957 11.1858 30.2606 11.2037C29.116 11.2326 27.9764 11.2092 26.8491 10.9818C26.5561 10.9224 26.261 10.8561 25.9647 10.8373C25.6758 10.8192 25.2822 10.6948 25.1191 10.9422C24.9381 11.2157 25.2632 11.4719 25.4321 11.703C25.6077 11.9435 25.802 12.1677 25.9912 12.3982C26.2148 12.67 26.4519 12.9319 26.6633 13.212C28.1762 15.2188 29.7244 17.2005 31.317 19.1463C31.8303 19.7741 32.2964 20.4525 32.8797 21.0087C33.6102 21.7061 34.2242 22.4895 34.8562 23.264C35.1475 23.6199 35.4116 23.9956 35.7001 24.3532C36.6526 25.531 37.6892 26.6345 38.7447 27.7219C39.2137 28.2058 39.7158 28.6577 40.2074 29.1207C40.5412 29.4365 40.8948 29.7331 41.2153 30.0616C41.3585 30.2074 41.4977 30.2961 41.7017 30.3065C41.8359 30.3137 41.9709 30.3452 42.1007 30.3815C42.3227 30.442 42.4946 30.5548 42.5266 30.8106C42.5438 30.9427 42.594 31.0716 42.6156 31.2048C42.6718 31.546 42.518 31.86 42.2073 32.0066C42.0616 32.0754 41.9001 32.1155 41.7428 32.1537C41.2482 32.2736 40.8123 32.1763 40.5153 31.7462C40.2354 31.3418 40.263 30.9378 40.6009 30.5627C40.677 30.4791 40.7021 30.3789 40.6348 30.2689C40.4471 29.9634 39.8257 29.418 39.3479 29.1579L39.3445 29.1525ZM12.0223 29.9991C12.0438 29.997 12.0668 29.9948 12.0884 29.9927C12.1767 30.9047 12.2637 31.8183 12.3535 32.7302C12.3847 33.0522 12.4288 33.373 12.4686 33.6942C12.505 33.9956 12.6863 34.1593 12.9615 34.2751C13.3926 34.4577 13.8523 34.5168 14.2976 34.6362C14.9811 34.8188 15.03 34.7839 15.052 34.0525C15.0833 33.0282 15.0855 32.0024 15.1067 30.9777C15.1233 30.2209 15.2265 29.4745 15.3898 28.7337C15.6929 27.3551 16.1894 26.0413 16.7734 24.7621C17.2461 23.7267 17.8564 22.7643 18.5474 21.8559C18.958 21.317 19.4253 20.81 20.0611 20.5298C20.8194 20.1975 21.6227 20.0737 22.4554 20.18C22.5934 20.1969 22.7263 20.2056 22.8363 20.2927C23.1914 20.5748 23.627 20.639 24.0497 20.7347C24.7066 20.8826 25.2593 21.1973 25.703 21.7052C26.0408 22.0925 26.3946 22.4653 26.7391 22.8476C26.8513 22.972 26.9675 23.0787 27.1545 23.0476C27.4101 23.0056 27.5486 23.1777 27.5134 23.3681C27.4247 23.8456 27.6537 24.2032 27.8791 24.5683C28.1353 24.9822 28.3913 25.3932 28.5523 25.8581C28.7293 26.3674 28.9385 26.8649 29.1296 27.37C29.3302 27.8986 29.5952 28.4037 29.6441 28.9829C29.66 29.1626 29.7614 29.3412 29.846 29.51C30.0793 29.9721 30.2326 30.4621 30.3618 30.9574C30.6341 32.0012 30.8836 33.0501 31.1389 34.0984C31.3942 35.1467 31.6509 36.1949 31.8907 37.2476C31.9685 37.5867 32.1498 37.7662 32.4957 37.7888C33.2066 37.835 33.8896 37.9975 34.5606 38.2303C34.7903 38.3102 35.0331 38.3615 35.2736 38.4029C36.0495 38.5363 36.8269 38.6696 37.6065 38.7811C37.9272 38.8277 38.2572 38.8346 38.5833 38.8318C38.9094 38.829 39.0328 38.6804 39.0035 38.3783C38.9958 38.2985 38.9836 38.2177 38.9658 38.1388C38.6273 36.68 38.778 35.181 38.6007 33.7094C38.585 33.5772 38.6079 33.4398 38.6211 33.3062C38.7557 32.0144 38.7348 30.7204 38.6835 29.4265C38.677 29.2546 38.6907 29.0964 38.7976 28.9725C38.975 28.7669 38.954 28.5948 38.7691 28.4085C38.6164 28.255 38.4877 28.079 38.3391 27.9223C37.6122 27.1569 36.8788 26.3995 36.1532 25.6326C35.6507 25.1016 35.1966 24.5314 34.7636 23.9404C34.2204 23.199 33.638 22.4873 32.9738 21.8454C32.6825 21.5629 32.3907 21.2762 32.1342 20.9644C31.1916 19.8144 30.2557 18.6579 29.3322 17.4945C28.559 16.5208 27.787 15.5441 27.0448 14.5458C26.3511 13.6134 25.5467 12.7664 24.926 11.7793C24.7116 11.4376 24.4684 11.1131 24.2225 10.7917C24.0648 10.5854 23.8286 10.5738 23.6619 10.7539C23.2191 11.2298 22.7467 11.684 22.3556 12.1994C21.8603 12.8515 21.2813 13.4182 20.7106 13.9956C19.4911 15.2285 18.2381 16.4301 17.049 17.6916C16.0651 18.7362 15.1466 19.8421 14.2122 20.9323C13.4887 21.7748 12.7764 22.6277 12.0749 23.4882C11.8196 23.802 11.5868 24.1396 11.3812 24.4874C11.1143 24.9376 11.1066 25.4116 11.3935 25.8584C11.5626 26.1211 11.6048 26.4076 11.6378 26.7036C11.7618 27.8034 11.8899 28.9015 12.0152 30.0012L12.0223 29.9991ZM22.3721 33.9837C22.4053 34.6853 22.4296 35.2511 22.4626 35.816C22.4802 36.1178 22.6266 36.3122 22.9473 36.3732C23.534 36.4847 24.113 36.6372 24.7034 36.7267C26.0726 36.935 27.4445 37.1416 28.8204 37.2989C29.5494 37.3822 30.2801 37.438 31.0003 37.5797C31.188 37.6162 31.3207 37.4883 31.3056 37.3028C31.2916 37.143 31.2644 36.9817 31.2289 36.8255C30.9934 35.8011 30.7775 34.7706 30.5093 33.7537C30.2221 32.6596 30.0072 31.5498 29.6701 30.4648C29.2461 29.0977 28.7243 27.7688 28.194 26.4422C27.9141 25.7386 27.5483 25.0764 27.1385 24.4401C26.9814 24.1964 26.8142 24.2068 26.6297 24.4433C26.2232 24.9646 26.031 25.5859 25.7931 26.1857C25.7139 26.3861 25.6588 26.5957 25.5081 26.7627C25.301 26.9899 25.1181 26.9889 24.9069 26.7404C24.7483 26.5558 24.6083 26.3536 24.4366 26.1833C24.072 25.8187 23.676 25.4888 23.1787 25.3112C22.9202 25.2183 22.7319 25.3113 22.6958 25.5679C22.6531 25.8612 22.6369 26.1576 22.6162 26.4531C22.5408 27.5018 22.5613 28.5527 22.473 29.6026C22.3471 31.1036 22.1156 32.6075 22.3719 33.9808L22.3721 33.9837ZM21.3246 20.711C20.8839 20.8486 20.3223 20.8756 19.8835 21.2432C19.4878 21.575 19.0958 21.9164 18.8081 22.3456C18.1007 23.3994 17.3569 24.4366 16.941 25.6535C16.8968 25.7815 16.8344 25.9011 16.7812 26.0257C16.248 27.2755 15.8947 28.5697 15.7411 29.9194C15.6061 31.1019 15.6311 32.289 15.6358 33.4753C15.6378 33.826 15.6601 34.1763 15.6708 34.5262C15.678 34.7801 15.8179 34.9219 16.0553 34.9766C16.4262 35.0615 16.795 35.1552 17.1698 35.221C18.48 35.4494 19.8066 35.5914 21.0791 36.0004C21.2318 36.0489 21.3996 36.0585 21.5616 36.0687C21.7191 36.0779 21.8173 35.9835 21.8422 35.8358C21.8642 35.7043 21.8728 35.5682 21.8699 35.4333C21.8541 34.7602 21.8796 34.0803 21.8006 33.4147C21.6401 32.0566 21.8909 30.722 22.008 29.3844C22.1058 28.253 22.0528 27.1218 22.1556 25.9957C22.1607 25.9434 22.1524 25.8881 22.1459 25.8355C21.9497 24.3341 21.9143 22.8301 22.0365 21.3209C22.0451 21.2151 22.0389 21.1064 22.0286 20.9995C22.0061 20.7672 21.8925 20.6732 21.6497 20.6824C21.5687 20.6845 21.4873 20.6981 21.3278 20.7135L21.3246 20.711ZM22.6273 24.2915C22.7179 24.2828 22.814 24.3022 22.8712 24.2636C23.3491 23.9411 23.8795 23.756 24.4318 23.6018C24.874 23.4799 25.3028 23.3089 25.7362 23.1562C25.8919 23.1008 25.9841 22.9452 25.914 22.8499C25.4134 22.1748 24.8839 21.5299 24.0024 21.3247C23.8184 21.2822 23.6331 21.2411 23.4491 21.1985C22.5067 20.9791 22.5008 20.9782 22.4736 21.9705C22.4614 22.3989 22.4583 22.8307 22.4852 23.2582C22.5068 23.6013 22.4804 23.9577 22.6288 24.2914L22.6273 24.2915ZM26.0417 23.5998C25.229 23.8957 24.4128 24.1848 23.6027 24.4919C23.4264 24.5594 23.4278 24.7534 23.5976 24.8736C24.0614 25.1998 24.5458 25.4981 24.9532 25.9002C25.104 26.0496 25.2563 26.019 25.3406 25.8268C25.6207 25.184 25.9298 24.5557 26.283 23.949C26.3836 23.7753 26.2653 23.6314 26.0433 23.6011L26.0417 23.5998ZM40.9027 31.2225C40.9057 31.2538 40.9053 31.2798 40.9107 31.3051C40.9569 31.5121 41.1427 31.7084 41.3434 31.7293C41.616 31.7575 41.8841 31.7402 42.076 31.5044C42.1057 31.467 42.1215 31.4051 42.1166 31.3552C42.0936 31.087 41.8569 30.7849 41.6482 30.772C41.3665 30.7547 41.1133 30.8209 40.9495 31.077C40.9218 31.12 40.9157 31.1766 40.9013 31.2226L40.9027 31.2225ZM3.09144 31.5904C3.1384 31.7009 3.12689 31.8516 3.28495 31.8061C3.34564 31.7887 3.42474 31.6919 3.4234 31.633C3.41173 31.2429 3.54238 30.8994 3.73231 30.5689C3.74461 30.5461 3.74917 30.5184 3.75373 30.4906C3.76966 30.3855 3.81172 30.2505 3.69526 30.2014C3.55013 30.1406 3.4299 30.2472 3.37024 30.3652C3.17749 30.7564 3.07242 31.1693 3.09 31.5905L3.09144 31.5904ZM68.2641 26.1073C68.0719 26.1144 67.8799 26.1244 67.7397 26.2789C67.6807 26.3436 67.6744 26.4435 67.7427 26.4901C67.9711 26.6463 68.2953 26.6091 68.4839 26.414C68.5141 26.3823 68.5232 26.3109 68.5116 26.266C68.5 26.2211 68.4592 26.1747 68.4175 26.1485C68.3744 26.1225 68.3161 26.1195 68.2641 26.1073ZM76.2175 33.2957C76.0294 33.3009 75.8485 33.4853 75.873 33.6483C75.8949 33.7843 76.0793 33.906 76.234 33.8852C76.383 33.8665 76.5037 33.7052 76.4834 33.5403C76.4646 33.3911 76.3673 33.3142 76.2175 33.2957ZM10.5125 25.2533C10.4859 25.2487 10.4584 25.2341 10.4358 25.2406C10.2181 25.2991 10.0816 25.5827 10.1678 25.8132C10.1813 25.8478 10.2547 25.8868 10.2948 25.8814C10.5177 25.8469 10.6896 25.5699 10.6235 25.3519C10.6109 25.3114 10.5518 25.2855 10.5125 25.2533ZM49.0119 42.2219C49.0571 42.2391 49.1134 42.2811 49.1483 42.2676C49.3528 42.1917 49.4946 42.0385 49.6045 41.8552C49.657 41.7682 49.6042 41.7028 49.5415 41.6542C49.5038 41.6248 49.44 41.595 49.4005 41.606C49.1763 41.6723 48.9656 42.0135 49.0119 42.2219ZM49.9202 40.9213C49.9609 41.0267 50.0343 41.0656 50.115 41.0449C50.354 40.9815 50.4246 40.7675 50.5057 40.5712C50.5186 40.5398 50.4709 40.4811 50.4409 40.4408C50.4307 40.426 50.3881 40.4201 50.3686 40.4291C50.1406 40.5303 49.968 40.6808 49.9204 40.9228L49.9202 40.9213ZM74.8795 34.8478C74.889 34.8713 74.8917 34.8984 74.9061 34.9128C74.9221 34.9285 74.9543 34.9456 74.9712 34.941C75.1597 34.8796 75.2727 34.7436 75.3258 34.5586C75.3314 34.5408 75.3153 34.5093 75.2992 34.4936C75.2832 34.4779 75.2511 34.4608 75.2328 34.4669C75.0413 34.5258 74.9358 34.6654 74.8797 34.8492L74.8795 34.8478Z" stroke="black" stroke-width="0.4" mask="url(#path-1-outside-1_17_486)"/>
    <path d="M41.2447 5.52579C41.2418 5.56115 41.2386 5.59648 41.2351 5.63176C41.1535 5.68304 41.0646 5.72648 40.9692 5.76C40.9634 5.59426 40.9522 5.42583 40.9347 5.25653C41.0616 5.33358 41.164 5.42835 41.2447 5.52579ZM40.1558 8.36841C40.2952 8.35932 40.4371 8.37213 40.5759 8.40868L40.1558 8.36841Z" fill="#3A3A3A" stroke="black" stroke-width="3"/>
    <path d="M45.8797 14.2536C45.8889 14.2525 45.8981 14.2513 45.9073 14.2502L45.9134 14.301C45.9026 14.2853 45.8914 14.2695 45.8797 14.2536ZM45.9142 14.3021L45.908 14.2501C46.4766 14.1795 47.0461 14.1165 47.6159 14.057L47.662 14.5329L46.1704 14.6774L46.1705 14.6775L46.1705 14.6775L46.1705 14.6776L46.1705 14.6777L46.1705 14.6778L46.1705 14.6779L46.1705 14.678L46.1705 14.678L46.1705 14.6781L46.1705 14.6782L46.1705 14.6783L46.1705 14.6784L46.1706 14.6785L46.1706 14.6785L46.1706 14.6786L46.1706 14.6787L46.1706 14.6788L46.1706 14.6789L46.1706 14.679L46.1706 14.679L46.1706 14.6791L46.1706 14.6792L46.1706 14.6793L46.1706 14.6794L46.1706 14.6795L46.1707 14.6795L46.1707 14.6796L46.1707 14.6797L46.1707 14.6798L46.1707 14.6799L46.1707 14.68L46.1707 14.68L46.1707 14.6801L46.1707 14.6802L46.1707 14.6803L46.1707 14.6804L46.1707 14.6805L46.1708 14.6805L46.1708 14.6806L46.1708 14.6807L46.1708 14.6808L46.1708 14.6809L46.1708 14.681L46.1708 14.681L46.1708 14.6811L46.1708 14.6812L46.1708 14.6813L46.1708 14.6814L46.1708 14.6815L46.1709 14.6815L46.1709 14.6816L46.1709 14.6817L46.1709 14.6818L46.1709 14.6819L46.1709 14.682L46.1709 14.682L46.1709 14.6821L46.1709 14.6822L46.1709 14.6823L46.1709 14.6824L46.1709 14.6825L46.1709 14.6825L46.171 14.6826L46.171 14.6827L46.171 14.6828L46.171 14.6829L46.171 14.683L46.171 14.683L46.171 14.6831L46.171 14.6832L46.171 14.6833L46.171 14.6834L46.171 14.6835L46.171 14.6836L46.1711 14.6836L46.1711 14.6837L46.1711 14.6838L46.1711 14.6839L46.1711 14.684L46.1711 14.6841L46.1711 14.6841L46.1711 14.6842L46.1711 14.6843L46.1711 14.6844L46.1711 14.6845L46.1711 14.6846L46.1711 14.6846L46.1712 14.6847L46.1712 14.6848L46.1712 14.6849L46.1712 14.685L46.1712 14.6851L46.1712 14.6851L46.1712 14.6852L46.1712 14.6853L46.1712 14.6854L46.1712 14.6855L46.1712 14.6856L46.1712 14.6856L46.1713 14.6857L46.1713 14.6858L46.1713 14.6859L46.1713 14.686L46.1713 14.6861L46.1713 14.6861L46.1713 14.6862L46.1713 14.6863L46.1713 14.6864L46.1713 14.6865L46.1713 14.6866L46.1713 14.6866L46.1714 14.6867L46.1714 14.6868L46.1714 14.6869L46.1714 14.687L46.1714 14.6871L46.1714 14.6871L46.1714 14.6872L46.1714 14.6873L46.1714 14.6874L46.1714 14.6875L46.1714 14.6876L46.1714 14.6876L46.1714 14.6877L46.1715 14.6878L46.1715 14.6879L46.1715 14.688L46.1715 14.6881L46.1715 14.6881L46.1715 14.6882L46.1715 14.6883L46.1715 14.6884L46.1715 14.6885L46.1715 14.6886L46.1715 14.6886L46.1715 14.6887L46.1716 14.6888L46.1716 14.6889L46.1716 14.689L46.1716 14.6891L46.1716 14.6891L46.1716 14.6892L46.1716 14.6893L46.1716 14.6894L46.1716 14.6895L46.1716 14.6896L46.1716 14.6896L46.1716 14.6897L46.1717 14.6898L46.1717 14.6899L46.1717 14.69L46.1717 14.6901L46.1717 14.6901L46.1717 14.6902L46.1717 14.6903L46.1717 14.6904L46.1717 14.6905L46.1717 14.6906L46.1717 14.6906L46.1717 14.6907L46.1717 14.6908L46.1718 14.6909L46.1718 14.691L46.1718 14.6911L46.1718 14.6911L46.1718 14.6912L46.1718 14.6913L46.1718 14.6914L46.1718 14.6915L46.1718 14.6916L46.1718 14.6916L46.1718 14.6917L46.1718 14.6918L46.1719 14.6919L46.1719 14.692L46.1719 14.6921L46.1719 14.6922L46.1719 14.6922L46.1719 14.6923L46.1719 14.6924L46.1719 14.6925L46.1719 14.6926L46.1719 14.6927L46.1719 14.6927L46.1719 14.6928L46.172 14.6929L46.172 14.693L46.172 14.6931L46.172 14.6932L46.172 14.6932L46.172 14.6933L46.172 14.6934L46.172 14.6935L46.172 14.6936L46.172 14.6937L46.172 14.6937L46.172 14.6938L46.172 14.6939L46.1721 14.694L46.1721 14.6941L46.1721 14.6942L46.1721 14.6942L46.1721 14.6943L46.1721 14.6944L46.1721 14.6945L46.1721 14.6946L46.1721 14.6947L46.1721 14.6947L46.1721 14.6948L46.1721 14.6949L46.1722 14.695L46.1722 14.6951L46.1722 14.6952L46.1722 14.6952L46.1722 14.6953L46.1722 14.6954L46.1722 14.6955L46.1722 14.6956L46.1722 14.6957L46.1722 14.6957L46.1722 14.6958L46.1722 14.6959L46.1722 14.696L46.1723 14.6961L46.1723 14.6962L46.1723 14.6962L46.1723 14.6963L46.1723 14.6964L46.1723 14.6965L46.1723 14.6966L46.1723 14.6967L46.1723 14.6967L46.1723 14.6968L46.1723 14.6969L46.1723 14.697L46.1724 14.6971L46.1724 14.6972L46.1724 14.6972L46.1724 14.6973L46.1724 14.6974L46.1724 14.6975L46.1724 14.6976L46.1724 14.6977L46.1724 14.6977L46.1724 14.6978L46.1724 14.6979L46.1724 14.698L46.1725 14.6981L46.1725 14.6982L46.1725 14.6982L46.1725 14.6983L46.1725 14.6984L46.1725 14.6985L46.1725 14.6986L46.1725 14.6987L46.1725 14.6987L46.1725 14.6988L46.1725 14.6989L46.1725 14.699L46.1725 14.6991L46.1726 14.6992L46.1726 14.6992L46.1726 14.6993L46.1726 14.6994L46.1726 14.6995L46.1726 14.6996L46.1726 14.6997L46.1726 14.6997L46.1726 14.6998L46.1726 14.6999L46.1726 14.7L46.1726 14.7001L46.1727 14.7002L46.1727 14.7002L46.1727 14.7003L46.1727 14.7004L46.1727 14.7005L46.1727 14.7006L46.1727 14.7007L46.1727 14.7008L46.1727 14.7008L46.1727 14.7009L46.1727 14.701L46.1727 14.7011L46.1728 14.7012L46.1728 14.7013L46.1728 14.7013L46.1728 14.7014L46.1728 14.7015L46.1728 14.7016L46.1728 14.7017L46.1728 14.7018L46.1728 14.7018L46.1728 14.7019L46.1728 14.702L46.1728 14.7021L46.1728 14.7022L46.1729 14.7023L46.1729 14.7023L46.1729 14.7024L46.1729 14.7025L46.1729 14.7026L46.1729 14.7027L46.1729 14.7028L46.1729 14.7028L46.1729 14.7029L46.1729 14.703L46.1729 14.7031L46.1729 14.7032L46.173 14.7033L46.173 14.7033L46.173 14.7034L46.173 14.7035L46.173 14.7036L46.173 14.7037L46.173 14.7038L46.173 14.7038L46.173 14.7039L46.173 14.704L46.173 14.7041L46.173 14.7042L46.173 14.7043L46.1731 14.7043L46.1731 14.7044L46.1731 14.7045L46.1731 14.7046L46.1731 14.7047L46.1731 14.7048L46.1731 14.7048L46.1731 14.7049L46.1731 14.705L46.1731 14.7051L46.1731 14.7052L46.1731 14.7053L46.1732 14.7053L46.1732 14.7054L46.1732 14.7055L46.1732 14.7056L46.1732 14.7057L46.1732 14.7058L46.1732 14.7058L46.1732 14.7059L46.1732 14.706L46.1732 14.7061L46.1732 14.7062L46.1732 14.7063L46.1733 14.7063L46.1733 14.7064L46.1733 14.7065L46.1733 14.7066L46.1733 14.7067L46.1733 14.7068L46.1733 14.7068L46.1733 14.7069L46.1733 14.707L46.1733 14.7071L46.1733 14.7072L46.1733 14.7073L46.1733 14.7073L46.1734 14.7074L46.1734 14.7075L46.1734 14.7076L46.1734 14.7077L46.1734 14.7078L46.1734 14.7078L46.1734 14.7079L46.1734 14.708L46.1734 14.7081L46.1734 14.7082L46.1734 14.7083L46.1734 14.7083L46.1735 14.7084L46.1735 14.7085L46.1735 14.7086L46.1735 14.7087L46.1735 14.7088L46.1735 14.7089L46.1735 14.7089L46.1735 14.709L46.1735 14.7091L46.1735 14.7092L46.1735 14.7093L46.1735 14.7094L46.1736 14.7094L46.1736 14.7095L46.1736 14.7096L46.1736 14.7097L46.1736 14.7098L46.1736 14.7099L46.1736 14.7099L46.1736 14.71L46.1736 14.7101L46.1736 14.7102L46.1736 14.7103L46.1736 14.7104L46.1736 14.7104L46.1737 14.7105L46.1737 14.7106L46.1737 14.7107L46.1737 14.7108L46.1737 14.7109L46.1737 14.7109L46.1737 14.711L46.1737 14.7111L46.1737 14.7112L46.1737 14.7113L46.1737 14.7114L46.1737 14.7114L46.1738 14.7115L46.1738 14.7116L46.1738 14.7117L46.1738 14.7118L46.1738 14.7119L46.1738 14.7119L46.1738 14.712L46.1738 14.7121L46.1738 14.7122L46.1738 14.7123L46.1738 14.7124L46.1738 14.7124L46.1739 14.7125L46.1739 14.7126L46.1739 14.7127L46.1739 14.7128L46.1739 14.7129L46.1739 14.7129L46.1739 14.713L46.1739 14.7131L46.1739 14.7132L46.1739 14.7133L46.1739 14.7134L46.1739 14.7134L46.1739 14.7135L46.174 14.7136L46.174 14.7137L46.174 14.7138L46.174 14.7139L46.174 14.7139L46.174 14.714L46.174 14.7141L46.174 14.7142L46.174 14.7143L46.174 14.7144L46.174 14.7144L46.174 14.7145L46.1741 14.7146L46.1741 14.7147L46.1741 14.7148L46.1741 14.7149L46.1741 14.7149L46.1741 14.715L46.1741 14.7151L46.1741 14.7152L46.1741 14.7153L46.1741 14.7154L46.1741 14.7154L46.1741 14.7155L46.1741 14.7156L46.1742 14.7157L46.1742 14.7158L46.1742 14.7159L46.1742 14.7159L46.1742 14.716L46.1742 14.7161L46.1742 14.7162L46.1742 14.7163L46.1742 14.7164L46.1742 14.7164L46.1742 14.7165L46.1742 14.7166L46.1743 14.7167L46.1743 14.7168L46.1743 14.7169L46.1743 14.7169L46.1743 14.717L46.1743 14.7171L46.1743 14.7172L46.1743 14.7173L46.1743 14.7174L46.1743 14.7175L46.1743 14.7175L46.1743 14.7176L46.1744 14.7177L46.1744 14.7178L46.1744 14.7179L46.1744 14.718L46.1744 14.718L46.1744 14.7181L46.1744 14.7182L46.1744 14.7183L46.1744 14.7184L46.1744 14.7185L46.1744 14.7185L46.1744 14.7186L46.1744 14.7187L46.1745 14.7188L46.1745 14.7189L46.1745 14.719L46.1745 14.719L46.1745 14.7191L46.1745 14.7192L46.1745 14.7192C46.1617 14.7206 46.1489 14.7221 46.1361 14.7235C46.0913 14.6097 46.0219 14.459 45.9142 14.3021ZM43.8678 14.5447C43.7988 14.7424 43.7718 14.9324 43.7664 15.0999L43.0957 14.6832C43.3526 14.6341 43.61 14.588 43.8678 14.5447Z" fill="#3A3A3A" stroke="black" stroke-width="3"/>
    <path d="M24.966 14.306L24.9247 13.8793C24.8797 13.8505 24.8336 13.8237 24.7861 13.799C24.886 13.9928 24.9358 14.1733 24.9606 14.293C24.9617 14.2983 24.9628 14.3035 24.9638 14.3088L24.966 14.306ZM24.966 14.306L24.966 14.3063M24.966 14.306L25.1648 14.0598L25.9982 15.4046M23.9903 15.0327L23.5517 15.0512L23.5312 15.052L23.5313 15.0531L23.5378 15.1194M23.9903 15.0327L23.6188 15.2893L23.5815 15.2723L23.5512 15.2585L23.5502 15.248M23.9903 15.0327C23.9904 15.0366 23.9906 15.0405 23.9907 15.0443C23.9914 15.0638 23.9923 15.0826 23.9934 15.1005C23.7625 15.0717 23.6208 15.093 23.5378 15.1194M23.9903 15.0327L23.5502 15.248M23.5378 15.1194C23.5361 15.1199 23.5346 15.1204 23.533 15.1209C23.5331 15.1252 23.5332 15.1295 23.5334 15.1338C23.5344 15.1694 23.5357 15.205 23.5369 15.2406C23.5369 15.242 23.537 15.2434 23.537 15.2448C23.5394 15.2454 23.5419 15.246 23.5443 15.2466C23.5463 15.247 23.5482 15.2475 23.5502 15.248M23.5378 15.1194L23.5502 15.248M23.5636 15.3863L23.5546 15.2936L23.553 15.2765L23.5636 15.3863ZM23.5636 15.3863C23.5608 15.3752 23.5578 15.3642 23.5546 15.3532C23.5498 15.3365 23.5446 15.3198 23.539 15.3032C23.5404 15.3446 23.5416 15.386 23.5424 15.4275C23.5486 15.4243 23.5547 15.4211 23.5609 15.418C23.5627 15.4171 23.5646 15.4161 23.5664 15.4152L23.5636 15.3863ZM25.9982 15.4046C25.9871 15.3742 25.9761 15.3437 25.965 15.3133C25.9024 15.1399 25.8397 14.9661 25.7515 14.8065M25.9982 15.4046C25.8572 15.3432 25.7144 15.3026 25.5778 15.2793L25.513 15.6591L25.9982 15.4046ZM25.7515 14.8065C25.5918 14.5213 25.3978 14.2636 25.1652 14.0602L24.966 14.3063M25.7515 14.8065L25.4892 14.9533L25.024 14.6532C25.0814 14.7157 25.1332 14.7812 25.18 14.8494C25.1807 14.8505 25.1815 14.8515 25.1822 14.8525C25.1998 14.8783 25.2167 14.9045 25.2329 14.931C25.2332 14.9316 25.2336 14.9322 25.2339 14.9327C25.2582 14.9725 25.2809 15.0132 25.3022 15.0545L25.3701 15.0171C25.3827 14.9931 25.394 14.9696 25.4041 14.9468C25.4043 14.9462 25.4046 14.9456 25.4049 14.945C25.4681 14.802 25.4852 14.687 25.4907 14.642C25.4948 14.6077 25.4954 14.5819 25.4954 14.5819C25.4954 14.5819 25.4952 14.5932 25.4957 14.6208C25.4958 14.6234 25.4959 14.6271 25.496 14.6318C25.497 14.6774 25.5003 14.8156 25.4893 14.9512L25.7515 14.8065ZM24.966 14.3063L24.9638 14.309C24.9656 14.3177 24.9672 14.3263 24.9688 14.3348M24.966 14.3063L24.9688 14.3348M24.9688 14.3348L24.9968 14.6243C24.9996 14.6272 25.0023 14.63 25.0051 14.6329C25.0006 14.565 24.9916 14.4573 24.9688 14.3348ZM25.8994 17.5216L25.9675 17.5452C25.7783 18.0114 25.4817 18.4085 25.1557 18.7899L25.8994 17.5216ZM24.0042 15.2595C24.0042 15.2608 24.0043 15.2621 24.0043 15.2634C24.0078 15.3157 24.0112 15.3651 24.0145 15.4115L24.0042 15.2595ZM25.4891 14.9539L25.4891 14.9534L25.4891 14.9539ZM25.3559 17.6012L25.4338 17.595L25.3428 17.627C25.3472 17.6184 25.3516 17.6098 25.3559 17.6012Z" fill="#3A3A3A" stroke="black" stroke-width="3"/>
  </g>
  <defs>
    <clipPath id="clip0_17_486">
      <rect width="74" height="40" fill="white" transform="translate(0.244446 7.65967) rotate(-5.53151)"/>
    </clipPath>
  </defs>
</svg>