<svg xmlns="http://www.w3.org/2000/svg" width="67" height="61" viewBox="0 0 67 61" fill="none">
  <g clipPath="url(#clip0_17_259)">
    <path d="M64.4062 27.8115C63.4702 27.1215 62.3106 26.6008 61.3001 26.0265C59.6063 25.0615 57.9107 24.0965 56.215 23.1366C56.489 21.7525 56.1895 20.2173 55.3507 19.0952C54.8547 18.431 54.1493 17.9331 53.3357 17.7448C52.8187 17.6254 52.3352 17.727 51.8206 17.6827C51.3758 17.6429 51.02 17.4722 50.6316 17.377C50.6078 16.9072 50.5326 16.451 50.4161 16.0699C50.1517 15.2107 49.5408 14.5333 48.7462 14.1226C47.4145 13.4366 46.0561 12.7164 44.6881 12.1056C43.697 11.6629 42.7281 11.7806 41.7874 12.1609C41.4456 11.4051 40.9238 10.7294 40.2502 10.224C39.233 9.46117 38.2612 8.88145 36.9611 9.23219C35.7654 9.55559 34.7263 9.49452 33.8194 10.3625C32.3723 9.53607 30.3858 8.626 29.6289 9.77876C29.1082 10.571 29.9707 11.3505 30.5855 11.7473C31.1696 12.1238 31.7648 12.485 32.3619 12.8411C32.1735 13.3673 32.0403 13.9148 32.0922 14.4764C32.1542 15.136 32.4824 15.3858 32.7764 15.9289C33.0998 16.5289 33.1378 17.1318 33.625 17.6597C33.9845 18.0501 34.4577 18.3508 34.9263 18.5903C35.5219 18.8958 36.1369 19.1043 36.8115 19.0415C37.1329 19.0121 37.4308 18.9137 37.7641 18.9406C37.867 18.948 37.9609 18.9656 38.0548 18.9814C37.9379 19.6952 38.0804 20.3109 38.7672 20.8377C39.2874 21.2361 39.8899 21.5436 40.4624 21.8586C41.8334 22.6141 43.6651 23.771 45.2801 23.6033C45.6509 23.5653 46.0045 23.429 46.3409 23.2398C46.6428 24.0778 47.215 24.8077 47.7956 25.4996C48.6424 26.5068 49.6753 26.7734 50.9527 26.7373C52.0635 26.707 53.1778 26.7256 54.1598 26.1342C54.3659 26.0097 54.5586 25.869 54.7397 25.7121C56.3735 26.6451 58.0091 27.5765 59.6448 28.5044C60.7633 29.1386 61.8684 29.8455 63.0283 30.4046C64.7535 31.2366 65.8512 28.8732 64.4064 27.808L64.4062 27.8115ZM45.1723 13.6637C46.2057 14.19 47.3208 14.6393 48.313 15.2338C49.4353 15.9048 49.4587 17.1103 49.3521 18.2847C49.343 18.3837 49.3253 18.4789 49.3043 18.5705C47.5382 17.6637 45.7341 16.7903 44.043 15.7557C44.0705 15.633 44.093 15.5049 44.1055 15.3624C44.1669 14.6796 44.2791 13.9047 44.2299 13.1845C44.557 13.3244 44.8701 13.5108 45.1705 13.6637L45.1723 13.6637ZM30.8544 10.4956C30.8894 10.4969 30.9243 10.4983 30.9609 10.5032C31.0856 10.5376 31.2234 10.5499 31.3498 10.5862C31.7792 10.7074 32.1933 10.9081 32.5917 11.1049C33.2444 11.4264 33.8762 11.7908 34.5082 12.1499C34.4327 12.2917 34.3413 12.4399 34.2461 12.5931C33.5654 12.1798 32.8829 11.7699 32.2039 11.3566C31.826 11.1258 31.0863 10.7904 30.8561 10.4974L30.8544 10.4956ZM35.4559 17.5212C35.0699 17.3198 34.6785 17.0763 34.4101 16.7277C34.1569 16.3971 34.1109 16.0013 33.9521 15.6256C33.7514 15.1576 33.3169 14.8061 33.276 14.2798C33.2548 14.0122 33.318 13.7357 33.4071 13.469C33.5114 13.5323 33.614 13.5938 33.7184 13.6571C33.7269 13.6626 33.7356 13.6647 33.7441 13.6703C33.7215 13.8019 33.7182 13.9342 33.7446 14.066C33.7959 14.3243 34.0954 14.3637 34.2774 14.2278C34.9495 13.7308 35.3553 13.1032 35.7387 12.377C35.9351 12.0046 36.4875 11.3443 35.9321 10.9951C35.6092 10.7908 35.3386 10.9094 35.1179 11.1379C35.0512 11.0988 34.9777 11.0541 34.8955 11.0056C35.1066 10.8429 35.3404 10.7264 35.6416 10.677C36.0344 10.612 36.4259 10.6271 36.813 10.5288C37.2992 10.4046 37.7307 10.1981 38.2372 10.3641C38.64 10.4947 39.0488 10.8313 39.3859 11.0762C41.0135 12.2583 41.6437 14.5682 40.4479 16.2985C39.9992 16.9471 38.9756 17.8455 38.1282 17.8058C37.197 17.7611 36.3257 17.9785 35.4558 17.5247L35.4559 17.5212ZM44.3269 22.3165C43.6565 22.1354 42.9972 21.8502 42.3774 21.5368C41.7422 21.2142 41.1148 20.8726 40.4967 20.5175C40.2912 20.3998 40.0804 20.2835 39.877 20.1554C41.0529 19.3047 42.136 18.3162 43.1237 17.2613C43.2698 17.1048 43.4014 16.96 43.5154 16.818C45.3172 17.6599 47.0636 18.6217 48.854 19.4876C48.4761 19.982 47.9456 20.3939 47.4722 20.8236C46.5744 21.6362 45.6261 22.6665 44.3269 22.3165ZM48.9309 24.9734C48.3236 24.3833 47.503 23.3788 47.3543 22.5154C47.6004 22.3069 47.8362 22.0929 48.0555 21.8991C48.7983 21.2462 49.967 20.4005 50.3518 19.4565C50.4639 19.1819 50.5391 18.8675 50.5869 18.5364C50.8933 18.6232 51.2067 18.8027 51.5008 18.8471C51.8854 18.9038 52.2631 18.8226 52.6472 18.8496C53.2755 18.8948 53.8273 19.1567 54.2466 19.6279C55.0536 20.5325 55.2936 21.933 55.0144 23.0885C54.6188 24.7189 53.2879 25.4607 51.707 25.5165C50.7377 25.5505 49.6917 25.7141 48.9325 24.9769L48.9309 24.9734ZM63.3858 29.2609C63.1625 29.1964 62.9214 29.0023 62.721 28.89C62.0066 28.4893 61.2941 28.0852 60.5833 27.6812C58.8996 26.727 57.2161 25.7677 55.5343 24.8083C55.6476 24.6384 55.7507 24.4628 55.8383 24.2796C57.3285 25.1235 58.8168 25.9707 60.3051 26.8179C60.9576 27.1901 61.6084 27.5604 62.2591 27.9342C62.706 28.1903 63.3275 28.4148 63.6941 28.7567C64.0962 29.1314 63.8375 29.3934 63.3857 29.2626L63.3858 29.2609Z" fill="black"/>
    <path d="M39.8184 13.6088C39.9793 14.0195 40.0162 14.469 40.0431 14.9059C40.0561 15.1121 40.3363 15.2449 40.4599 15.0353C41.0647 14.0144 40.1507 12.8895 39.4573 12.1723C39.2941 12.0021 38.9676 12.2092 39.1082 12.4203C39.3612 12.8014 39.6512 13.1805 39.8184 13.6088Z" fill="black"/>
    <path d="M52.9838 19.6942C52.7747 19.5798 52.5356 19.8356 52.7086 20.0218C53.4397 20.8067 53.8053 21.8093 53.7395 22.8771C53.7218 23.1554 54.1239 23.2128 54.2142 22.96C54.6558 21.7236 54.1375 20.3246 52.9821 19.6942L52.9838 19.6942Z" fill="black"/>
    <path d="M28.6647 15.6617C27.6636 14.3469 25.6757 13.836 24.1484 13.4092C23.7862 12.9071 23.3245 12.49 22.7309 12.2247C21.2253 11.5529 19.455 11.3904 17.8309 11.2492C17.5457 9.66042 17.1586 8.08168 16.8008 6.51453C16.5746 5.52777 16.3484 4.54275 16.0904 3.56348C15.8843 2.78147 15.6411 1.96316 14.8839 1.5399C13.9518 1.01924 12.7515 1.23437 11.7364 1.32242C10.6739 1.41387 9.60895 1.47907 8.54787 1.57929C7.15298 1.71194 6.70433 3.04047 6.98663 4.29613C7.24501 5.44627 8.12203 5.62485 9.15574 5.55321C9.82263 5.5075 10.4869 5.43902 11.1524 5.38454C11.3754 5.367 11.7396 5.27298 11.9561 5.3319C12.3996 5.45015 12.4798 6.09306 12.5757 6.46462C12.9719 7.98792 13.3008 9.53304 13.5787 11.0849C12.2078 11.093 10.7055 11.1064 9.42115 11.5955C8.87048 11.8043 8.38104 12.1498 7.96904 12.5749C7.9603 12.5746 7.95156 12.5742 7.94269 12.5774C6.52058 12.8258 4.86864 13.088 3.67963 13.9625C2.45459 14.8636 2.44757 16.4498 2.54414 17.8464C2.5854 18.4547 2.60293 19.1789 2.97694 19.6919C3.21798 20.022 3.57391 20.2781 3.94718 20.493C4.38712 25.4158 4.8973 30.3326 5.48303 35.2418C5.75543 37.524 6.01715 39.8109 6.33351 42.0877C6.57836 43.8597 7.6253 44.9409 9.19736 45.7496C12.6573 47.529 17.5972 47.7896 21.1084 46.0197C22.6668 45.2344 23.6575 44.1011 24.1111 42.4189C24.5974 40.6141 24.8412 38.6989 25.1121 36.8509C25.8666 31.7302 26.741 26.6281 27.4694 21.5029C28.0086 21.2291 28.4708 20.8634 28.7112 20.3497C29.0412 19.6442 29.0103 18.6336 29.0678 17.8687C29.1238 17.1003 29.1546 16.3031 28.6665 15.6618L28.6647 15.6617ZM4.30421 15.2837C4.50192 14.8782 4.92642 14.5825 5.4338 14.3615C5.94723 14.1652 6.51229 14.0371 7.03936 13.9407C6.99352 14.04 6.94942 14.1394 6.90875 14.2407C6.45022 15.4172 7.53239 15.9942 8.49692 16.3087C9.99223 16.7935 11.6064 17.0093 13.1651 17.1672C15.9286 17.4465 18.753 17.5086 21.5179 17.2092C22.743 17.0752 25.5575 16.8963 24.9322 15.0033C24.9149 14.952 24.8977 14.9008 24.8787 14.8495C24.9566 14.8717 25.0361 14.8957 25.1157 14.9214C26.5456 15.4683 28.5156 16.4858 26.7515 17.4776C24.9964 18.4628 22.664 18.622 20.701 18.7798C18.1201 18.9869 15.5258 18.9477 12.9518 18.6565C10.5085 18.3808 7.86986 17.9964 5.63427 16.9198C5.06553 16.6451 3.91439 16.0863 4.30408 15.2872L4.30421 15.2837ZM10.1329 12.7457C10.4341 12.651 10.7525 12.6092 11.0639 12.569C11.9734 12.4489 12.8823 12.3917 13.7982 12.3782C13.8039 12.4133 13.8095 12.4484 13.8151 12.4852C13.7472 12.4756 13.6794 12.4643 13.6115 12.4547C13.1679 12.3853 13.0586 12.993 13.4736 13.124C14.3107 13.3865 15.1955 13.5427 16.0695 13.6183C16.7726 13.6786 17.5984 13.7785 18.2458 13.4671C18.5311 13.3299 18.5029 12.9732 18.2057 12.8728C18.1557 12.8551 18.1036 12.8444 18.0515 12.8319C18.0588 12.7799 18.0609 12.726 18.0527 12.6664C18.0486 12.6348 18.0428 12.605 18.0388 12.5734C18.8476 12.6605 19.6516 12.7787 20.4526 12.9334C20.9599 13.0315 21.752 13.0969 22.1776 13.408C22.3886 13.5626 22.5464 13.4658 22.2039 13.6775C22.0031 13.8022 21.6387 13.8108 21.4116 13.8439C20.9998 13.9012 20.5832 13.9479 20.1685 13.9894C18.9191 14.1172 17.6564 14.1347 16.4029 14.0949C15.1163 14.054 13.832 13.952 12.5604 13.7478C11.7846 13.6219 10.8627 13.5636 10.1302 13.2668C9.57708 13.0415 9.665 12.895 10.1311 12.7456L10.1329 12.7457ZM16.8437 12.7452C16.6019 12.7498 16.3601 12.7579 16.1312 12.7473C15.7712 12.7316 15.4155 12.697 15.06 12.6554C15.0604 12.6467 15.0607 12.638 15.0594 12.6274C14.8183 11.0753 14.5209 9.52962 14.1794 7.99448C13.9749 7.08003 13.8655 5.69856 13.258 4.84176C13.5286 4.76854 13.796 4.68821 14.0655 4.601C14.404 4.4903 14.7228 4.43985 15.0555 4.38995C15.2423 5.12937 15.4184 5.87187 15.5892 6.61416C16.0554 8.63877 16.5715 10.6827 16.8455 12.7435L16.8437 12.7452ZM14.5253 2.84751C14.7021 3.07401 14.7956 3.3705 14.8765 3.67871C14.3418 3.6999 13.7571 3.92835 13.2401 4.17163C13.412 3.93594 13.6114 3.71352 13.7746 3.52108C13.9984 3.25602 14.2702 3.06255 14.527 2.84758L14.5253 2.84751ZM13.842 2.45675C13.5618 2.68651 13.3156 2.98906 13.1292 3.23639C13.0075 3.39731 12.8564 3.5937 12.7256 3.80656C12.7126 3.32838 12.7279 2.84258 12.8534 2.40287C13.1953 2.38819 13.5292 2.3976 13.842 2.45675ZM10.1578 4.26175C9.69238 4.30304 9.22493 4.35123 8.75681 4.3715C8.12729 4.40122 7.93546 3.79409 8.17208 3.19655C8.37382 2.68657 8.83784 2.77248 9.32586 2.73555C9.85428 2.69495 10.3829 2.64912 10.9097 2.60497C11.2943 2.57276 11.7114 2.51217 12.1316 2.4639C12.0249 3.00719 12.0429 3.58319 12.1424 4.13444C11.4967 4.03802 10.7286 4.21232 10.1561 4.26168L10.1578 4.26175ZM8.9811 13.2451C9.34549 13.9164 11.162 14.1958 11.6141 14.2743C14.3368 14.7491 17.1332 14.946 19.8925 14.6987C20.3 14.6622 22.4938 14.5569 23.054 13.9178C23.1141 13.9934 23.1706 14.0722 23.2215 14.1596C23.3704 14.4269 23.9009 15.2389 23.8706 15.48C23.8713 15.4609 23.437 15.6481 23.2423 15.705C22.8015 15.8327 22.3439 15.8987 21.89 15.9596C20.6884 16.1172 19.4731 16.1766 18.2612 16.1943C15.4292 16.2383 12.5609 16.0438 9.79523 15.4139C9.2365 15.2877 7.94197 15.1784 8.16361 14.4252C8.28656 14.0063 8.61131 13.5743 8.98285 13.2452L8.9811 13.2451ZM16.9257 45.9157C14.8521 46.0814 12.7026 45.8571 10.7497 45.1209C9.93882 44.8159 9.13837 44.4223 8.48311 43.8496C7.72966 43.1912 7.58783 42.4674 7.47727 41.5235C7.22846 39.4009 6.9375 37.282 6.68345 35.1592C6.43746 33.0995 6.20902 31.0388 5.98945 28.9749C9.6402 35.3292 16.1242 39.9311 22.4723 43.3371C22.3805 43.4939 22.2767 43.6433 22.161 43.7836C20.9619 45.2365 18.7219 45.7706 16.9275 45.914L16.9257 45.9157ZM24.3471 33.7269C24.1537 35.0653 23.9758 36.4061 23.7633 37.7402C20.3284 35.6288 16.9776 33.3812 13.9861 30.668C12.4168 29.2441 10.9587 27.7042 9.59123 26.0858C8.84637 25.2045 8.10354 24.3164 7.41468 23.3902C6.94052 22.7512 6.5077 22.0842 6.06232 21.4255C7.12835 21.7857 8.24105 22.0257 9.33902 22.239C12.8535 22.9221 16.5082 23.1488 20.0825 22.9643C21.7855 22.8767 23.4864 22.66 25.1441 22.2498C25.4569 22.173 25.8172 22.0876 26.1854 21.9815C25.6103 25.9028 24.9135 29.8036 24.3472 33.7252L24.3471 33.7269ZM25.8065 20.8267C22.513 21.8518 18.9694 21.9206 15.55 21.7659C13.7625 21.6846 11.9809 21.4972 10.2181 21.1851C8.60829 20.9015 6.9456 20.581 5.44889 19.906C4.65577 19.5493 3.97006 19.2666 3.7988 18.3534C3.68581 17.7441 3.64059 16.9666 3.72758 16.3005C4.19132 17.0733 5.19162 17.5042 5.98985 17.8192C7.44496 18.3932 8.99115 18.7388 10.5299 19.004C13.8544 19.577 17.2566 19.7258 20.6201 19.4705C22.0105 19.3638 23.4034 19.1927 24.7632 18.8809C25.7203 18.6616 26.8005 18.3843 27.5794 17.7502C27.7113 17.642 27.8187 17.5363 27.9086 17.4299C27.9291 18.1211 27.8472 19.0175 27.6763 19.6368C27.4705 20.3872 26.4637 20.6237 25.8063 20.8302L25.8065 20.8267Z" fill="black"/>
    <path d="M24.7076 24.3516C23.9986 28.0689 23.3055 31.8287 22.8575 35.5875C22.8238 35.8704 23.2385 35.9648 23.2986 35.6778C24.0754 31.9718 24.6189 28.187 25.1348 24.4378C25.1735 24.1621 24.7586 24.0729 24.7059 24.3498L24.7076 24.3516Z" fill="black"/>
    <path d="M8.12673 41.2941C8.0199 42.0204 8.26665 42.8825 8.74908 43.4433C8.88143 43.5966 9.1932 43.5459 9.16235 43.3024C9.0737 42.6068 8.83562 41.8375 8.50766 41.2199C8.42284 41.0597 8.15247 41.126 8.12666 41.2958L8.12673 41.2941Z" fill="black"/>
    <path d="M8.101 40.4197C8.101 40.4197 8.10086 40.4232 8.10073 40.4267C8.10375 40.439 8.10489 40.4547 8.10973 40.4654C8.10973 40.4654 8.1133 40.4638 8.11511 40.4621C8.1215 40.478 8.12432 40.4956 8.13245 40.5116C8.134 40.5169 8.13736 40.5205 8.13897 40.524C8.29627 40.7114 8.57812 40.6648 8.64521 40.4233C8.66135 40.3681 8.65301 40.312 8.63587 40.2573C8.59043 40.1196 8.41882 40.031 8.28014 40.0867C8.17884 40.1263 8.11613 40.2094 8.10019 40.3046L8.10033 40.3011C8.10033 40.3011 8.09999 40.3098 8.09986 40.3133C8.09952 40.322 8.09918 40.3307 8.09891 40.3377C8.09609 40.3655 8.09683 40.3917 8.10281 40.418L8.101 40.4197Z" fill="black"/>
    <path d="M9.37895 20.2989C8.4942 20.1392 7.61442 19.9413 6.75273 19.6831C6.49487 19.6069 6.42166 20.0068 6.67058 20.0879C7.53314 20.3688 8.40042 20.5731 9.29921 20.6863C9.55008 20.7169 9.6327 20.3453 9.37895 20.2989Z" fill="black"/>
    <path d="M14.678 5.87139C14.9683 7.14653 15.2781 8.41546 15.5543 9.69355C15.6004 9.90453 15.9516 9.82919 15.9265 9.61727C15.7725 8.30207 15.5083 6.98609 15.0896 5.7269C14.9986 5.45491 14.6165 5.60402 14.6762 5.87132L14.678 5.87139Z" fill="black"/>
    <path d="M38.4693 34.0322C38.4693 34.0322 38.4709 34.034 38.4726 34.0358C38.969 34.5065 39.9989 35.1233 40.6982 34.7372C41.4244 34.3346 40.9463 33.4357 40.5325 32.9996C40.0178 32.4585 39.0782 31.8155 38.2813 32.1002C37.339 32.4352 37.9326 33.5146 38.4047 33.9826C38.4249 34.0025 38.447 34.0191 38.4692 34.0339L38.4693 34.0322ZM38.7838 32.7316C39.2891 32.7912 39.7787 33.1657 40.1005 33.5356C40.2665 33.725 40.63 34.1906 40.1552 34.1583C39.7117 34.129 39.2838 33.8352 38.9426 33.5588C38.7757 33.3937 38.5698 33.1975 38.4981 32.9681C38.4187 32.714 38.5608 32.7038 38.7838 32.7316Z" fill="black"/>
    <path d="M28.4618 43.3859C31.7665 44.516 35.1838 45.0438 38.6728 44.6661C38.9153 44.6406 38.926 44.2295 38.6705 44.2266C35.3084 44.1735 31.8754 43.9171 28.6337 42.969C28.3585 42.8886 28.1802 43.2914 28.4601 43.3859L28.4618 43.3859Z" fill="black"/>
    <path d="M32.462 35.2592C32.4938 35.25 32.5206 35.2353 32.5457 35.2206C33.2347 34.9666 34.3521 34.3577 34.3523 33.5383C34.3509 32.6684 33.2276 32.7487 32.6563 32.901C31.8781 33.1098 30.6719 33.6611 30.5194 34.5705C30.335 35.6739 31.8579 35.4451 32.462 35.2592ZM31.2278 34.5839C31.2292 34.4567 31.5216 34.2292 31.6066 34.1575C32.0099 33.8227 32.6188 33.5551 33.1376 33.4914C33.2344 33.4795 33.5537 33.4151 33.634 33.5106C33.7377 33.6349 33.4066 33.915 33.3195 33.9936C33.0024 34.2742 32.6204 34.4652 32.2326 34.6262C32.2185 34.6292 32.2062 34.6305 32.192 34.6351C32.0662 34.6739 31.2238 34.9603 31.2295 34.5857L31.2278 34.5839Z" fill="black"/>
    <path d="M33.7368 36.5132C33.7655 37.311 34.7734 37.8172 35.4607 38.0129C35.4882 38.0261 35.5174 38.0395 35.5504 38.046C36.1873 38.1874 37.3715 38.1163 37.2014 37.1753C37.0501 36.3344 35.9916 35.8699 35.2513 35.7314C34.6726 35.6237 33.7078 35.7224 33.7368 36.5132ZM35.1621 36.4079C35.6017 36.4929 36.1727 36.7085 36.4324 37.1003C36.7566 37.5887 35.8981 37.4283 35.6412 37.3713C35.6377 37.3712 35.6343 37.371 35.6308 37.3709C35.2541 37.243 34.8373 37.0683 34.5796 36.762C34.183 36.2899 34.8268 36.3444 35.162 36.4096L35.1621 36.4079Z" fill="black"/>
    <path d="M56.9343 40.6278C55.9211 39.6699 54.6766 40.6661 53.5873 40.3642C54.4282 35.8588 50.5062 32.7662 46.7362 31.2206C41.6618 29.1418 36.0111 29.4744 30.9331 31.3842C27.9315 32.5112 24.73 34.7811 23.6916 37.9627C23.2096 38.0261 22.687 38.0076 22.2536 37.9438C21.7994 37.8757 21.3867 37.7743 20.9464 37.9822C20.2315 38.319 19.871 39.1767 19.8998 39.9257C19.9158 40.329 20.0419 40.6442 20.2082 41.0046C20.4214 41.4661 20.2417 41.8148 20.3103 42.3038C20.4025 42.9524 20.7941 43.508 21.3518 43.798C21.1988 44.54 21.275 45.242 21.7703 45.7859C22.1515 46.2034 22.6558 46.1984 23.1705 46.0614C23.3156 46.2902 23.459 46.5206 23.438 46.8371C23.3922 47.5257 23.4076 48.0772 24.0031 48.5221C23.3519 50.969 24.1854 53.4977 26.023 55.2719C28.2386 57.4094 31.5382 58.3545 34.5031 58.8579C38.0018 59.4533 41.5706 59.2739 44.9859 58.3127C47.7712 57.5295 50.6339 56.3273 52.4051 53.9307C53.2842 52.7408 53.6784 51.2811 53.5812 49.8112C53.5421 49.2361 53.4041 48.143 53.0115 47.3851C53.085 47.3862 53.1602 47.3874 53.2337 47.3867C53.7765 47.3816 54.3515 47.3584 54.83 47.0718C55.294 46.7934 55.6349 46.3062 55.7187 45.769C55.772 45.4311 55.6369 45.0319 55.7229 44.7075C55.8294 44.3089 56.3722 43.9864 56.6422 43.7022C57.4122 42.8899 57.873 41.52 56.9324 40.6294L56.9343 40.6278ZM26.2783 35.887C27.3515 34.5669 28.8061 33.6137 30.347 32.9183C34.6187 30.9913 39.7528 30.3476 44.2888 31.6386C47.6822 32.6048 52.0688 34.7268 52.4554 38.6748C52.5695 39.842 52.3685 41.1487 51.5124 42.0152C50.536 43.0043 49.0427 43.5551 47.7391 43.9527C46.7401 44.2576 45.7173 44.5005 44.6842 44.6907C44.5934 44.6872 44.5123 44.7015 44.4427 44.7354C42.4865 45.08 40.4885 45.2399 38.5214 45.2772C38.4812 45.2774 38.4442 45.283 38.4089 45.2903C35.7977 45.2818 33.1584 45.0509 30.611 44.4782C28.4489 43.992 25.2627 43.1472 24.6412 40.658C24.2333 39.0297 25.275 37.1191 26.2784 35.8852L26.2783 35.887ZM49.7299 48.1928C49.4916 48.2899 48.9632 47.7413 48.8026 47.5939C48.1383 46.9842 47.3836 46.1304 46.5449 45.5053C47.059 45.3822 47.5684 45.2449 48.0748 45.0937C48.8416 44.8635 49.6296 44.5837 50.3631 44.218C50.3039 45.0264 50.3005 45.8369 50.1609 46.6422C50.1161 46.895 50.0002 48.0829 49.7317 48.1911L49.7299 48.1928ZM50.3836 49.5325C50.2967 50.0591 49.6144 50.2315 49.165 50.2665C48.8648 50.2897 48.798 49.8426 49.1007 49.802C49.2854 49.7777 49.4619 49.6939 49.6197 49.5972C49.7774 49.5004 49.8985 49.3569 50.0809 49.3029C50.2314 49.2582 50.4133 49.3524 50.3836 49.5308L50.3836 49.5325ZM45.6777 48.425C45.6653 48.428 45.653 48.431 45.6388 48.434C44.9594 48.6692 44.5772 48.5934 43.9673 48.2979C43.6013 48.1199 43.2906 48.0085 42.8762 48.0884C42.5905 48.1436 42.3178 48.2708 42.075 48.4392C42.25 47.9857 42.5017 47.6328 43.1877 47.6803C43.6696 47.7128 44.1222 47.9134 44.6089 47.7735C45.2372 47.5938 45.4365 46.9216 45.9867 46.6796C46.0003 46.6889 46.014 46.6981 46.0258 46.709C46.357 46.9694 46.6753 47.2484 46.9899 47.5325C46.9882 47.5325 46.9864 47.5324 46.9847 47.5323C46.4564 47.6148 46.0939 48.0732 45.6795 48.4233L45.6777 48.425ZM46.0944 50.5523C45.9218 51.5759 43.961 51.8576 43.1543 51.6277C42.9292 51.5632 43.0405 51.2188 43.2566 51.2446C43.7461 51.3036 44.2745 51.0834 44.724 50.9108C45.1166 50.7603 45.3789 50.4497 45.749 50.2931C45.918 50.223 46.1244 50.3634 46.0926 50.5522L46.0944 50.5523ZM40.7415 49.9724C40.6064 50.0718 40.4463 50.1371 40.2428 50.1502C39.5025 50.193 39.0659 50.1674 38.3527 50.4589C37.9899 50.607 37.6255 50.8423 37.2369 50.5274C37.0197 50.3499 36.8816 49.846 36.737 49.6033C36.7337 49.5979 36.7304 49.5926 36.7271 49.5872C37.2276 49.5908 37.7076 49.5344 38.1126 49.4246C39.501 49.0528 40.6754 47.7872 40.9161 46.36C42.2061 46.2668 43.4935 46.1091 44.7661 45.8794C44.9724 46.0216 45.1896 46.1537 45.4032 46.2875C45.2823 46.3822 45.1675 46.4998 45.0555 46.6332C44.221 47.6191 43.5994 46.9012 42.6174 47.1283C42.1565 47.2342 41.8634 47.5733 41.6757 47.9897C41.3558 48.7043 41.1736 49.3441 40.7397 49.9741L40.7415 49.9724ZM41.6433 51.639C41.2859 52.0105 40.5886 51.9365 40.1529 51.7506C39.9067 51.6452 40.0088 51.2691 40.2735 51.302C40.4843 51.3275 40.6952 51.3514 40.9076 51.3369C41.1059 51.3236 41.3093 51.267 41.5055 51.3094C41.6391 51.339 41.7618 51.5163 41.6433 51.639ZM30.7219 48.222C30.7045 48.2213 30.6871 48.2172 30.6696 48.2165C30.6926 48.2104 30.7173 48.2062 30.7403 48.2001C31.8539 47.9171 32.9125 47.1578 33.5586 46.1995C33.8374 46.2329 34.1163 46.2611 34.3954 46.2876C33.4856 47.3647 32.1254 48.3652 30.7237 48.2221L30.7219 48.222ZM32.866 50.3986C32.4015 50.6875 31.504 50.5866 31.2028 50.092C31.0794 49.8885 31.2884 49.6438 31.5016 49.788C31.7029 49.9248 31.8922 50.0071 32.1385 50.0201C32.3726 50.0326 32.5916 49.9818 32.818 50.0551C32.9546 50.0987 32.9916 50.3198 32.866 50.3986ZM24.6618 46.1051C24.6139 45.9394 24.53 45.8019 24.4316 45.676C24.8878 45.8732 24.9506 46.5573 25.4454 46.7996C25.8662 47.0059 26.2841 46.8825 26.7075 46.932C26.299 47.0853 26.0009 47.3719 25.5578 47.5588C25.1765 47.7794 24.855 47.6746 24.5934 47.2426C24.6088 47.1595 24.626 47.0765 24.6415 46.9934C24.6221 46.6789 24.7558 46.4347 24.6617 46.1086L24.6618 46.1051ZM25.4312 45.8977C25.305 45.7202 25.1871 45.557 25.0591 45.4266C25.7603 45.2636 26.4712 45.1656 27.1861 45.0991C27.1018 45.4689 27.0759 45.8688 27.0977 46.2567C27.0233 46.2329 26.9453 46.2142 26.8653 46.2007C26.3138 46.1131 25.8197 46.4427 25.4312 45.8977ZM27.8798 49.5243C28.1435 49.8588 28.5075 50.0402 28.9268 50.107C29.2956 50.1648 29.6542 50.1264 30.0036 50.2793C30.1722 50.3538 30.1669 50.5837 30.0063 50.6612C29.1588 51.0783 27.8749 50.6033 27.4822 49.76C27.369 49.5168 27.7197 49.3194 27.8798 49.5243ZM28.6973 47.3488C28.6336 47.2766 28.5788 47.1996 28.5347 47.1177C28.1801 46.4641 28.3652 45.7966 28.4872 45.1301C28.5391 45.1461 28.5909 45.1638 28.6446 45.1798C28.5396 45.8121 28.49 46.8248 29.2092 46.7828C29.5829 46.7607 29.8899 46.3803 30.1253 46.1314C30.2531 45.9968 30.4007 45.8456 30.5311 45.685C30.5641 45.6933 30.5971 45.6998 30.63 45.708C30.4029 46.1944 30.3022 46.8983 30.8871 47.0272C31.2169 47.0993 31.5863 46.8712 31.8385 46.6857C32.0691 46.5168 32.2826 46.2914 32.4651 46.0509C32.6252 46.0763 32.7853 46.0999 32.9472 46.1218C32.3786 46.7501 31.731 47.2028 30.867 47.4571C30.0172 47.7067 29.4216 47.6279 28.699 47.3506L28.6973 47.3488ZM29.0885 45.7862C29.0805 45.6307 29.09 45.4742 29.1065 45.3197C29.3748 45.3963 29.6468 45.4696 29.9189 45.5394C29.774 45.7098 29.6241 45.8766 29.464 46.0326C29.3876 46.1081 29.2722 46.2867 29.1375 46.1943C29.0846 46.1574 29.09 45.8368 29.0885 45.7862ZM30.9797 46.3073C30.9861 46.2762 30.9926 46.2451 30.9991 46.2139C31.0255 46.0737 31.0795 45.9451 31.1266 45.8127C31.3245 45.8534 31.5209 45.8906 31.7191 45.9262C31.6075 46.0492 31.4859 46.163 31.3423 46.2551C31.2741 46.2995 31.119 46.4173 31.0388 46.4072C30.9635 46.4549 30.9437 46.4227 30.9796 46.3091L30.9797 46.3073ZM33.4719 51.2083C33.81 51.2893 34.1301 51.3854 34.4794 51.4076C34.8286 51.4298 35.18 51.3946 35.5265 51.4411C35.7076 51.4655 35.7783 51.7646 35.5801 51.8215C34.895 52.0216 33.9107 52.0376 33.3117 51.5944C33.1466 51.4729 33.2535 51.1528 33.4719 51.2065L33.4719 51.2083ZM34.7138 47.6493C35.0472 47.2664 35.3018 46.8369 35.4424 46.3699C36.3206 46.4265 37.2001 46.45 38.0736 46.4489C37.3719 47.6212 36.076 48.4097 34.7138 47.6493ZM38.6963 46.459C39.0396 46.4531 39.3831 46.4419 39.7285 46.4257C39.3068 47.2845 38.7884 48.0176 37.7108 48.2741C37.4634 48.3325 37.2066 48.3662 36.9472 48.3754C37.7309 48.0238 38.3791 47.3289 38.6964 46.4573L38.6963 46.459ZM46.1312 49.3264C46.1528 49.1756 46.2835 49.1004 46.4252 49.1024C46.5808 49.1049 46.7357 49.083 46.8876 49.0488C47.0412 49.0146 47.1877 48.9383 47.3385 49.0209C47.4431 49.0772 47.4951 49.1803 47.4538 49.2973C47.3812 49.5002 47.1537 49.5455 46.9632 49.5834C46.7638 49.6245 46.5606 49.6289 46.3579 49.6211C46.2163 49.6156 46.1139 49.4582 46.1311 49.3281L46.1312 49.3264ZM21.5991 39.1179C21.9589 39.0482 22.4484 39.1996 22.8426 39.1886C23.0546 39.1829 23.243 39.1536 23.4216 39.1082C23.4025 39.2399 23.3869 39.3718 23.3747 39.5056C23.3589 39.6898 23.3537 39.8691 23.3592 40.0437C23.2226 40.2267 23.0692 40.4369 22.9081 40.6661C22.8629 40.612 22.8142 40.5596 22.7619 40.507C22.6185 40.3672 21.1519 39.4127 21.6026 39.1181L21.5991 39.1179ZM21.5159 42.1325C21.4697 41.8326 21.6331 41.5443 21.6202 41.2439C21.5965 40.6816 21.0584 40.3366 21.1125 39.7529C21.1238 39.776 21.1352 39.7991 21.1484 39.8205C21.309 40.1022 21.5601 40.3089 21.8097 40.5086C22.1153 40.7522 22.3236 40.9782 22.5032 41.2676C22.235 41.6861 21.9741 42.1415 21.7619 42.6057C21.6407 42.4825 21.5484 42.3342 21.5159 42.1325ZM23.4334 44.6455C23.311 44.6878 22.9529 44.8972 22.8349 44.8699C22.4531 44.7855 22.5383 44.4383 22.5788 44.161C22.6387 43.7431 22.8205 43.3405 22.9996 42.9621C23.215 42.5084 23.4629 42.07 23.7332 41.6446C24.1934 42.6439 25.0328 43.4346 26.0176 44.0393C25.1402 44.1431 24.2707 44.3571 23.4334 44.6472L23.4334 44.6455ZM52.3433 51.0901C52.1382 52.367 51.4153 53.4078 50.4822 54.2748C48.714 55.9149 46.3269 56.7659 44.0188 57.3392C38.867 58.622 32.5139 58.2441 27.9603 55.2788C25.821 53.8851 24.4846 51.3719 25.1538 48.8646C25.1678 48.8652 25.1818 48.8657 25.1975 48.8663C25.1731 49.2716 25.224 49.6763 25.4394 50.035C25.7797 50.6043 26.4478 50.8009 26.9155 51.2444C27.8391 52.1204 28.8697 52.0364 30.0693 52.1577C31.3682 52.2898 32.4672 53.1116 33.7985 53.1299C34.6714 53.1409 35.5101 52.9519 36.3879 53.0207C37.2133 53.0857 38.0238 53.2652 38.8396 53.3979C40.5285 53.674 41.9589 53.0302 43.6179 52.8555C44.3086 52.7828 45.0196 52.819 45.7052 52.6955C46.4367 52.5634 46.9633 52.1636 47.6241 51.8684C48.365 51.5378 49.2039 51.6156 49.9557 51.3204C50.5244 51.0965 51.0315 50.7012 51.3868 50.2041C51.7587 49.685 52.0172 49.0203 52.1081 48.3422C52.2044 48.6597 52.2648 48.9985 52.3042 49.2005C52.4273 49.8224 52.448 50.463 52.3485 51.0903L52.3433 51.0901ZM51.4108 45.824C51.4523 45.1108 51.4154 44.3894 51.2472 43.7152C52.127 43.1408 52.8592 42.402 53.2804 41.4228C53.6505 41.5818 54.1046 41.608 54.5177 41.5612C54.6285 41.5481 54.7644 41.5202 54.9126 41.4893C54.7755 42.0471 54.8707 42.7551 54.2967 42.9788C54.0248 43.0851 53.7449 42.9906 53.4722 43.1631C53.291 43.2764 53.1493 43.4557 53.0459 43.64C52.5891 44.4539 52.6597 46.0257 51.4125 45.8241L51.4108 45.824ZM56.2406 42.0915C56.1612 42.7422 55.4239 43.1147 55.0289 43.5527C54.6924 43.9267 54.5359 44.3077 54.5149 44.8055C54.4845 45.5923 54.5306 46.077 53.6275 46.1642C53.2656 46.199 52.876 46.1351 52.4863 46.0748C52.9006 45.817 53.2051 45.3651 53.3356 44.7966C53.3862 44.5719 53.3903 44.2844 53.498 44.0811C53.8436 43.4267 54.0592 43.6443 54.4995 43.5288C54.6905 43.4786 54.8487 43.415 54.9909 43.2671C55.1806 43.0687 55.268 42.8019 55.3219 42.539C55.3501 42.3971 55.3252 42.227 55.3672 42.0909C55.4395 41.8514 55.6409 41.5767 55.8921 41.4156C56.1364 41.4808 56.292 41.6681 56.2405 42.0933L56.2406 42.0915Z" fill="black"/>
    <path d="M23.5342 42.852C23.3788 42.9802 23.2791 43.1594 23.1745 43.3297C23.0718 43.4949 22.9374 43.6657 22.9106 43.8617C22.8841 44.049 23.0975 44.1444 23.2412 44.0488C23.4046 43.9418 23.5018 43.7381 23.6043 43.5765C23.7124 43.4063 23.8238 43.2415 23.8734 43.0447C23.9189 42.8634 23.6663 42.742 23.5342 42.852Z" fill="black"/>
    <path d="M45.9214 35.6836C45.9498 35.6742 45.9783 35.6614 46.007 35.6416C46.5693 35.2693 47.3386 34.3384 46.4798 33.8258C45.7065 33.3636 44.5492 33.8698 43.9409 34.392C43.51 34.7623 43.1074 35.4895 43.6944 35.9253C44.3103 36.3832 45.3127 36.0349 45.9197 35.6818L45.9214 35.6836ZM44.3665 34.9297C44.7381 34.5988 45.2889 34.3394 45.7928 34.345C46.5399 34.3529 45.892 34.9032 45.5832 35.1057C45.5795 35.109 45.576 35.1106 45.5723 35.114C45.2528 35.276 44.9133 35.4093 44.5516 35.4389C44.0371 35.48 43.9769 35.2737 44.363 34.9295L44.3665 34.9297Z" fill="black"/>
    <path d="M49.5084 45.6808C49.3984 46.1734 49.2815 46.7058 49.2254 47.2075C49.1982 47.4575 49.5515 47.5548 49.6533 47.3216C49.8647 46.8347 49.938 46.2064 49.8918 45.6799C49.8709 45.4507 49.5529 45.482 49.5084 45.6808Z" fill="black"/>
    <path d="M51.0773 40.1381C51.0567 40.3988 51.4066 40.4943 51.5191 40.2563C52.4011 38.4023 51.1055 36.4625 49.6482 35.3567C49.4612 35.2152 49.1797 35.478 49.3513 35.6572C50.5948 36.9518 51.2172 38.3304 51.0756 40.138L51.0773 40.1381Z" fill="black"/>
    <path d="M40.4777 36.5489C39.9186 36.7034 39.1319 37.1768 39.4622 37.8695C39.7974 38.571 40.924 38.6337 41.6142 38.5279C41.6439 38.5291 41.6754 38.5285 41.7107 38.5212C42.3393 38.3798 43.459 37.8495 42.9024 37.0348C42.4103 36.315 41.2101 36.3488 40.4776 36.5506L40.4777 36.5489ZM42.2825 37.3578C42.4168 37.689 41.7997 37.8046 41.6179 37.8447C41.6055 37.8477 41.5948 37.8525 41.5842 37.8556C41.1806 37.8818 39.4111 37.742 40.4213 37.2824C40.8294 37.0959 41.3981 37.0534 41.83 37.1555C41.9376 37.1806 42.2378 37.2462 42.2825 37.3578Z" fill="black"/>
    <path d="M51.4494 50.9842C51.1893 51.3298 51.013 51.7693 50.8024 52.1481C50.5674 52.5679 50.3213 52.9559 50.0333 53.3423C49.8894 53.5337 50.16 53.8248 50.3454 53.6472C50.7398 53.2702 51.148 52.8519 51.4542 52.4017C51.7343 51.9924 52.0198 51.5344 51.8589 51.0331C51.8026 50.8601 51.5508 50.8521 51.4512 50.9842L51.4494 50.9842Z" fill="black"/>
  </g>
  <defs>
    <clipPath id="clip0_17_259">
      <rect width="63" height="57" fill="white" transform="translate(3.12372 0.805176) rotate(2.21244)"/>
    </clipPath>
  </defs>
</svg>