<svg xmlns="http://www.w3.org/2000/svg" width="49" height="40" viewBox="0 0 49 40" fill="none">
  <g clipPath="url(#clip0_17_426)">
    <path d="M48.8724 10.2149C48.7481 10.0316 48.6024 9.86146 48.4526 9.69877C47.7076 8.89109 46.9577 8.08919 46.2111 7.28316C45.5048 6.52008 44.801 5.75452 44.0964 4.99061C44.0108 4.89811 43.9301 4.80149 43.8396 4.71477C43.7762 4.65366 43.7531 4.58677 43.7539 4.5017C43.7564 4.14907 43.7564 3.79643 43.7556 3.44379C43.7556 3.07877 43.7605 2.71291 43.7506 2.34789C43.7334 1.70786 43.4872 1.16692 43.0188 0.730877C42.9365 0.654073 42.846 0.585527 42.7596 0.512852C42.7382 0.494684 42.7184 0.474863 42.6888 0.44761C42.7406 0.412099 42.7842 0.382368 42.8271 0.351812C42.9818 0.240322 43.1316 0.122226 43.2781 0H6.92862C6.85783 0.0355115 6.7895 0.0701972 6.72777 0.112315C6.26597 0.430267 5.94082 0.85145 5.81569 1.4056C5.77454 1.58811 5.7696 1.78053 5.76795 1.96882C5.76054 2.63611 5.76054 3.3034 5.75972 3.97151C5.75972 4.07144 5.75972 4.17136 5.81899 4.26221C5.85521 4.31754 5.8264 4.36874 5.78277 4.41912C5.30862 4.96418 4.78509 5.45969 4.26155 5.95437C3.53963 6.63652 2.80948 7.30959 2.08509 7.98844C1.51628 8.52111 0.950761 9.05709 0.38442 9.59224C0.293048 9.67895 0.206616 9.77062 0.114421 9.85568C0.082317 9.88541 0.038689 9.90358 0 9.92671V11.4132C0.0312805 11.4223 0.0666768 11.4248 0.092195 11.4421C0.344908 11.6147 0.593505 11.7931 0.847865 11.9616C0.935944 12.0202 0.964755 12.0913 0.964755 12.1928C0.960639 12.8775 0.963109 13.5621 0.958993 14.2459C0.933474 18.7682 0.907956 23.2906 0.879145 27.8129C0.857743 31.118 0.831401 34.4222 0.805883 37.7273C0.804237 37.9032 0.791889 38.0799 0.788597 38.2558C0.78695 38.3566 0.78695 38.4573 0.798475 38.5572C0.828109 38.824 0.972163 39.0123 1.22076 39.1031C1.40433 39.17 1.59695 39.2179 1.78875 39.2592C2.32052 39.3715 2.85475 39.4731 3.38652 39.5846C3.7339 39.6573 4.07963 39.7407 4.42618 39.8183C4.87316 39.9182 5.32591 39.9612 5.78441 39.9595C6.7928 39.9562 7.802 39.9513 8.81039 39.9554C10.8782 39.9637 12.946 39.9843 15.013 39.9876C17.6628 39.9917 20.3117 39.9785 22.9615 39.981C25.8451 39.9827 28.7294 39.9992 31.613 39.9983C33.6635 39.9983 35.7149 39.9736 37.7654 39.9686C40.0135 39.9628 42.2607 39.9686 44.5088 39.967C45.0027 39.967 45.4966 39.9637 45.9905 39.9604C46.0695 39.9604 46.1502 39.9562 46.2284 39.9438C46.4869 39.9034 46.6745 39.7118 46.7099 39.4508C46.7223 39.3591 46.7281 39.2666 46.7305 39.175C46.7495 38.4358 46.7643 37.6975 46.7865 36.9584C46.8112 36.14 46.8425 35.3216 46.8729 34.5032C46.9067 33.5881 46.9421 32.6739 46.9775 31.7597C47.0334 30.3244 47.087 28.8899 47.1462 27.4554C47.2071 25.9705 47.2755 24.4856 47.338 22.9999C47.3923 21.6992 47.4409 20.3985 47.4969 19.0978C47.5578 17.6674 47.6261 16.237 47.6887 14.8066C47.729 13.8751 47.7652 12.9435 47.7998 12.0128C47.8023 11.9385 47.8352 11.9021 47.892 11.8641C48.1069 11.7188 48.3225 11.5743 48.5291 11.4174C48.6798 11.3026 48.7991 11.1547 48.8922 10.9879C49.0379 10.7261 49.0412 10.461 48.8732 10.2141L48.8724 10.2149ZM7.08914 1.36926C7.26777 1.15371 7.49167 1.00258 7.75673 0.91917C7.84234 0.891917 7.93783 0.88531 8.0292 0.886136C9.13801 0.890265 10.2476 0.890265 11.3573 0.905957C12.7213 0.924951 14.0861 0.961288 15.4501 0.981935C16.7054 1.00093 17.9616 0.991845 19.2169 1.02323C21.372 1.07773 23.5278 1.10168 25.6829 1.12315C27.0559 1.13719 28.4282 1.18262 29.8012 1.195C31.6929 1.21235 33.5853 1.214 35.477 1.2173C37.3184 1.2206 39.1607 1.21482 41.0021 1.2173C41.198 1.2173 41.3947 1.24125 41.5906 1.25529C41.7224 1.2652 41.8434 1.31227 41.9561 1.37917C42.362 1.62279 42.6188 1.96387 42.6542 2.44947C42.6624 2.56261 42.669 2.67575 42.669 2.78889C42.669 3.3769 42.6674 3.9649 42.6657 4.55291C42.6657 4.57355 42.6657 4.59502 42.6649 4.61567C42.6591 4.69991 42.6443 4.71477 42.5571 4.7189C42.5315 4.72055 42.5068 4.71808 42.4813 4.71725C40.7066 4.68009 38.9326 4.65036 37.1579 4.60493C34.1912 4.52813 31.2228 4.51574 28.2553 4.47858C27.1045 4.46371 25.9537 4.43894 24.8029 4.41829C24.8029 4.41994 24.8029 4.42242 24.8029 4.42407C21.8395 4.3737 18.8769 4.32497 15.9135 4.27294C14.7833 4.25312 13.6531 4.23578 12.5237 4.20192C10.716 4.14659 8.90834 4.12842 7.09984 4.11851C6.93274 4.11768 6.93027 4.11603 6.93027 3.95004C6.93027 3.23568 6.93274 2.52214 6.93027 1.80861C6.93027 1.63931 6.98213 1.49726 7.08831 1.37008L7.08914 1.36926ZM38.2486 10.0795C37.5127 10.0679 36.7768 10.0316 36.0408 10.0068C35.9865 10.0052 35.9322 10.0068 35.8779 10.0068C35.775 10.006 35.7659 10.001 35.733 9.90441C35.6523 9.66656 35.5733 9.42707 35.4926 9.18922C35.2704 8.5335 35.0465 7.8786 34.8258 7.22288C34.6818 6.79343 34.5427 6.36234 34.4011 5.93207C34.3756 5.85444 34.3468 5.77681 34.3155 5.6901C34.3525 5.6868 34.3723 5.68267 34.392 5.68267C35.6762 5.70166 36.9603 5.72231 38.2445 5.74048C38.3194 5.7413 38.3646 5.7636 38.4025 5.8338C38.6322 6.26241 38.8627 6.69103 39.1039 7.11221C39.4521 7.71921 39.8077 8.32291 40.1657 8.92412C40.3806 9.28419 40.6053 9.63766 40.8259 9.99443C40.8407 10.0184 40.8556 10.0423 40.872 10.0704C40.8523 10.0795 40.8416 10.0877 40.8317 10.0877C39.9698 10.0861 39.108 10.0935 38.2461 10.0803L38.2486 10.0795ZM39.6628 11.1952C39.6019 11.215 39.5706 11.2299 39.5368 11.2357C38.8651 11.3496 38.1918 11.3695 37.5151 11.2794C37.3406 11.2563 37.1678 11.2315 37.0048 11.1614C36.9784 11.1498 36.9546 11.1357 36.929 11.1225C36.9307 11.1135 36.9332 11.1052 36.9348 11.0969C37.8296 11.253 38.731 11.2266 39.6636 11.196L39.6628 11.1952ZM32.1687 9.86394C31.2755 9.80035 30.3832 9.7219 29.4901 9.65005C29.4151 9.64427 29.3402 9.6327 29.2653 9.6294C29.1945 9.6261 29.1583 9.59224 29.1493 9.52369C29.1361 9.42376 29.1188 9.32466 29.1081 9.22473C29.0332 8.49386 28.9608 7.76298 28.885 7.03211C28.8389 6.58532 28.7887 6.13936 28.7401 5.69258C28.7377 5.6678 28.7401 5.64303 28.7401 5.59761C28.8258 5.60256 28.899 5.60999 28.9731 5.61082C29.6555 5.62073 30.3371 5.62899 31.0195 5.63807C31.6805 5.64716 32.3423 5.65541 33.0033 5.6645C33.1276 5.66615 33.1285 5.6678 33.1647 5.77764L34.5328 9.89945C34.5402 9.92258 34.5476 9.94653 34.5608 9.98947C34.5106 9.99443 34.4669 10.0035 34.425 10.001C33.6734 9.95726 32.921 9.91927 32.1695 9.86559L32.1687 9.86394ZM33.2602 11.1242C33.1178 11.1977 32.9647 11.2307 32.8099 11.2522C32.3399 11.3183 31.8698 11.3397 31.3957 11.2894C30.9372 11.2406 30.4844 11.1614 30.0457 11.0177C29.9889 10.9995 29.9272 10.9846 29.8893 10.9342C29.8926 10.9227 29.8967 10.9119 29.9 10.9004C30.2729 10.9417 30.6458 10.9904 31.0195 11.0226C31.3899 11.0548 31.762 11.0779 32.1341 11.0928C32.5086 11.1077 32.884 11.1077 33.2602 11.1242ZM25.8418 9.9011C24.6893 10.0275 23.532 10.0944 22.3746 10.1555C22.3293 10.1579 22.284 10.1555 22.2165 10.1555C22.2379 10.0638 22.2577 9.99112 22.2717 9.91845C22.3729 9.39073 22.4676 8.86219 22.5746 8.33612C22.7541 7.45246 22.9417 6.57046 23.1261 5.68762C23.1294 5.67111 23.1327 5.65459 23.1377 5.6389C23.1706 5.51502 23.1788 5.51254 23.3105 5.51419C23.9756 5.52163 24.6408 5.52741 25.3059 5.53484C26.0253 5.5431 26.7448 5.55218 27.4642 5.56127C27.5795 5.56292 27.5902 5.57283 27.6017 5.6901C27.7169 6.8595 27.8314 8.0289 27.9458 9.19831C27.9532 9.27759 27.9532 9.3577 27.9598 9.43698C27.9655 9.50139 27.9376 9.54186 27.8791 9.56251C27.8124 9.58563 27.7458 9.61123 27.6766 9.6261C27.0699 9.7541 26.4559 9.83421 25.8409 9.90193L25.8418 9.9011ZM27.5334 10.8335C27.4906 10.869 27.4502 10.9086 27.405 10.94C26.8172 11.3505 26.1579 11.5627 25.4516 11.6337C24.9001 11.6891 24.3485 11.6783 23.8028 11.5693C23.6521 11.5396 23.5048 11.4876 23.3583 11.4388C23.3155 11.4248 23.2801 11.3893 23.2414 11.3629C23.2438 11.3529 23.2471 11.343 23.2496 11.3331C23.2973 11.3249 23.3451 11.3141 23.3928 11.31C24.072 11.2538 24.7519 11.2002 25.431 11.1432C25.9529 11.0994 26.4698 11.0251 26.9819 10.9194C27.1613 10.8822 27.3416 10.85 27.5334 10.8327V10.8335ZM15.432 10.3281C15.3414 10.3281 15.2492 10.3396 15.1521 10.2983C15.2072 10.1893 15.2624 10.0861 15.3126 9.98121C15.581 9.41716 15.8444 8.85063 16.116 8.28822C16.4494 7.59699 16.7877 6.90905 17.1277 6.22112C17.2479 5.97667 17.3788 5.738 17.5039 5.49603C17.5335 5.43904 17.5804 5.42418 17.6389 5.42583C17.7731 5.42831 17.9064 5.42996 18.0406 5.43244C19.3124 5.45391 20.5842 5.47621 21.856 5.49768C21.893 5.49768 21.9292 5.50346 21.9844 5.50759C21.9704 5.59348 21.9605 5.67028 21.9457 5.74543C21.7539 6.68277 21.5646 7.62011 21.3687 8.5558C21.2724 9.01579 21.1637 9.47249 21.06 9.93084C21.0517 9.968 21.0443 10.0043 21.0361 10.0415C21.0114 10.1588 21.0007 10.167 20.8772 10.1736C20.6978 10.1835 20.5175 10.1918 20.3381 10.2025C18.7049 10.3025 17.0692 10.3264 15.4328 10.3272L15.432 10.3281ZM19.873 11.3373C19.8565 11.3505 19.8425 11.3686 19.8236 11.3752C18.965 11.6726 18.0867 11.7551 17.1894 11.6098C16.9293 11.5677 16.67 11.5181 16.4115 11.4686C16.3391 11.4545 16.2691 11.4289 16.1975 11.4091C16.2008 11.3975 16.2041 11.386 16.2074 11.3736C17.4265 11.3538 18.6456 11.3331 19.8656 11.3133C19.868 11.3207 19.8705 11.329 19.873 11.3364V11.3373ZM8.77828 10.2447C8.73301 10.2447 8.68773 10.2389 8.61776 10.2339C8.64328 10.1819 8.65728 10.1472 8.67703 10.1167C9.11496 9.4312 9.55042 8.74492 9.99163 8.06111C10.4411 7.36327 10.8963 6.66873 11.3482 5.97337C11.4552 5.8082 11.5688 5.64633 11.6684 5.47621C11.7203 5.38784 11.7829 5.35811 11.8816 5.36059C12.3961 5.3738 12.9106 5.38123 13.4251 5.39114C14.2952 5.40683 15.1661 5.4217 16.0362 5.43739C16.107 5.43822 16.1769 5.43739 16.2584 5.43739C16.2494 5.46877 16.2469 5.49272 16.237 5.51254C15.8798 6.23433 15.5159 6.952 15.1661 7.67709C14.8236 8.38732 14.496 9.10499 14.161 9.81852C14.0951 9.95891 14.0202 10.0952 13.9519 10.2339C13.9223 10.2942 13.8795 10.3157 13.812 10.3149C12.1343 10.2909 10.4559 10.2678 8.77828 10.2447ZM12.4274 11.4834C12.3994 11.495 12.3731 11.5115 12.3443 11.5165C12.2002 11.5404 12.0561 11.5726 11.9113 11.5801C11.4058 11.6065 10.9004 11.6081 10.3958 11.566C10.2048 11.5503 10.0172 11.5033 9.82865 11.4686C9.80231 11.4636 9.77679 11.4487 9.75127 11.4388C9.75291 11.4264 9.75538 11.4149 9.75703 11.4025C10.6452 11.4231 11.5343 11.4438 12.4225 11.4653C12.4241 11.471 12.4257 11.4777 12.4274 11.4834ZM1.7657 10.039C1.73524 9.96552 1.7443 9.90771 1.79533 9.85486C1.86201 9.78549 1.93198 9.71942 2.00113 9.65252C3.13875 8.5624 4.27637 7.47146 5.41646 6.38299C5.76219 6.05265 6.11615 5.73139 6.46271 5.4027C6.54173 5.32838 6.62158 5.29947 6.73188 5.30443C7.02905 5.31682 7.32621 5.31599 7.62337 5.31682C8.54862 5.31764 9.47304 5.31682 10.3983 5.31682C10.4098 5.31682 10.4205 5.32177 10.4427 5.32755C9.97188 6.04604 9.50596 6.75297 9.04417 7.46237C8.50005 8.29896 7.95923 9.13802 7.41676 9.97543C7.36655 10.0531 7.31304 10.1282 7.26036 10.2034C7.22743 10.2504 7.18792 10.2777 7.12536 10.2785C6.48081 10.2942 5.83627 10.314 5.19255 10.2752C4.65749 10.243 4.12408 10.1968 3.58902 10.1703C3.03338 10.1431 2.47692 10.1307 1.92045 10.1125C1.85789 10.1109 1.79945 10.1167 1.76652 10.0382L1.7657 10.039ZM1.95832 11.2861C2.64402 11.277 3.32972 11.2605 4.01625 11.2621C4.53484 11.2638 5.05344 11.291 5.57204 11.3001C5.8231 11.3042 6.07335 11.291 6.32441 11.2852C6.35158 11.2852 6.37957 11.2877 6.41661 11.31C6.39274 11.3282 6.37133 11.3496 6.34582 11.3629C5.75066 11.6701 5.11518 11.7807 4.45088 11.7535C4.01542 11.7353 3.58408 11.6849 3.15439 11.6114C2.78725 11.5487 2.42177 11.4826 2.05545 11.4165C2.011 11.4083 1.96573 11.3942 1.92457 11.3752C1.90235 11.3653 1.88917 11.3381 1.85954 11.305C1.90564 11.2968 1.9328 11.2877 1.95914 11.2877L1.95832 11.2861ZM20.1512 15.7754C20.1199 17.0051 20.0804 18.2347 20.0565 19.4653C20.0359 20.5529 20.0318 21.6405 20.0211 22.7282C20.0088 23.8827 19.9964 25.0373 19.9841 26.1926C19.9841 26.2347 19.9866 26.2785 19.9742 26.3182C19.9322 26.4577 19.9446 26.6006 19.9438 26.7426C19.9413 27.6792 19.9454 28.6157 19.9372 29.5522C19.9224 31.0973 19.9001 32.6425 19.8795 34.1877C19.8664 35.1787 19.8499 36.1697 19.8335 37.1599C19.8244 37.7141 19.8129 38.2682 19.8022 38.8223C19.8022 38.843 19.7989 38.8636 19.7964 38.9024C19.7363 38.9058 19.6869 38.9107 19.6375 38.9107C17.2396 38.9016 14.8409 38.8983 12.4422 38.8801C10.2238 38.8636 8.00615 38.8314 5.78771 38.8058C5.58191 38.8033 5.57615 38.838 5.57697 38.5895C5.58027 37.2664 5.58603 35.9443 5.59097 34.6212C5.59591 33.0967 5.57615 31.5722 5.60908 30.0485C5.70951 25.3841 5.65929 20.7181 5.67987 16.0537C5.68152 15.7812 5.68399 15.5078 5.68563 15.2353C5.68563 15.2055 5.6881 15.1766 5.68893 15.1469C5.69057 15.0767 5.72926 15.0561 5.79511 15.0561C5.94987 15.0561 6.10463 15.0453 6.25938 15.0453C7.5106 15.0437 8.76264 15.0478 10.0139 15.042C13.0439 15.0288 16.0749 15.0123 19.1049 14.9974C19.314 14.9966 19.5231 14.9974 19.733 15.0024C19.9759 15.009 20.1207 15.1411 20.143 15.3856C20.1553 15.5152 20.1545 15.6457 20.1504 15.7754H20.1512ZM46.6342 12.4596C46.5675 14.3021 46.5017 16.1437 46.4325 17.9862C46.3757 19.4925 46.3165 20.9989 46.2572 22.5052C46.1905 24.2089 46.1238 25.9127 46.0563 27.6156C46.016 28.6305 45.9707 29.6463 45.9296 30.6613C45.8868 31.7101 45.8407 32.759 45.8069 33.8078C45.7567 35.3819 45.7156 36.9559 45.6703 38.53C45.6686 38.601 45.6662 38.6729 45.6612 38.7439C45.6555 38.8298 45.6423 38.843 45.5559 38.8529C45.5056 38.8579 45.4554 38.8587 45.4052 38.8587C39.6998 38.9066 33.9953 38.9388 28.2899 38.9206C26.1472 38.914 24.0036 38.9074 21.8609 38.9016C21.5893 38.9016 21.3168 38.9033 21.0452 38.9033C21.0122 38.9033 20.9793 38.9 20.9324 38.8983C20.9283 38.8504 20.9217 38.8058 20.9217 38.7612C20.9291 37.6736 20.9143 36.5851 20.9488 35.4983C21.0435 32.5178 21.0353 29.5373 21.0731 26.5568C21.0888 25.3478 21.1209 24.1387 21.1357 22.9297C21.1662 20.5612 21.1909 18.1935 21.2164 15.8249C21.2188 15.5648 21.2131 15.3046 21.1983 15.0445C21.1884 14.8669 21.1283 14.7009 21.0452 14.5424C20.925 14.3128 20.734 14.1732 20.492 14.0981C20.3076 14.0403 20.1183 14.0064 19.924 14.0056C19.2128 14.0006 18.5007 13.9915 17.7895 13.9899C14.9891 13.9825 12.1895 13.975 9.38907 13.9717C8.31319 13.9709 7.23731 13.9816 6.16225 13.9891C5.91118 13.9907 5.66011 13.9973 5.41399 14.0568C4.93902 14.1716 4.63774 14.5143 4.59823 15.0065C4.57929 15.2443 4.576 15.4847 4.57518 15.7242C4.56448 18.8401 4.55213 21.956 4.54637 25.0711C4.53731 29.392 4.5332 33.7136 4.52743 38.0345C4.52743 38.198 4.52908 38.3623 4.52908 38.5259C4.52908 38.5581 4.52496 38.5903 4.52085 38.6365C4.46899 38.6316 4.42454 38.6316 4.38091 38.6233C3.75942 38.5102 3.13792 38.397 2.51643 38.2822C2.33122 38.2484 2.14765 38.2079 1.96244 38.1732C1.90811 38.1633 1.88012 38.1377 1.88177 38.0807C1.88259 38.0469 1.88177 38.0138 1.88177 37.98C1.89823 34.7336 1.91305 31.488 1.9328 28.2424C1.94597 26.1596 1.96079 24.0768 1.98631 21.994C2.00195 20.6669 2.04393 19.3406 2.06369 18.0142C2.09085 16.2255 2.10896 14.4367 2.13119 12.6487C2.13119 12.6198 2.1353 12.5909 2.13777 12.5521C2.1707 12.5554 2.19869 12.5529 2.2242 12.5603C3.2046 12.8477 4.20393 12.9369 5.21807 12.8453C5.68975 12.8031 6.15649 12.7206 6.58289 12.4918C6.93109 12.3052 7.26283 12.0946 7.546 11.8146C7.5995 11.7617 7.64642 11.7031 7.7024 11.6403C7.72627 11.6511 7.75426 11.6585 7.77648 11.6742C8.16584 11.9476 8.58895 12.159 9.02523 12.3423C9.29688 12.4563 9.58663 12.5083 9.87557 12.5554C10.1522 12.6008 10.4296 12.6421 10.7078 12.676C11.1144 12.7255 11.5186 12.6925 11.9203 12.6231C12.3163 12.5554 12.7147 12.4967 13.0983 12.3729C13.4588 12.2556 13.8013 12.1003 14.0885 11.8452C14.1412 11.7981 14.1857 11.7419 14.2417 11.6816C14.3273 11.7304 14.4038 11.7708 14.4771 11.8162C14.9496 12.1061 15.4353 12.3663 15.9654 12.5356C16.4181 12.6801 16.8824 12.7602 17.3549 12.8023C17.7179 12.8345 18.0817 12.8494 18.4456 12.8279C19.2449 12.7808 20.008 12.5909 20.7184 12.2135C20.9661 12.0822 21.1991 11.9253 21.4074 11.7337C21.4255 11.7171 21.4477 11.7056 21.4691 11.6907C21.6329 11.7906 21.7901 11.8947 21.9539 11.9864C22.4692 12.2738 23.0101 12.4877 23.5953 12.5876C24.3765 12.7214 25.161 12.7486 25.9463 12.6512C26.6213 12.5678 27.2675 12.382 27.8487 12.0153C28.0676 11.8774 28.2742 11.7188 28.4841 11.5668C28.5582 11.5132 28.5615 11.5115 28.6504 11.5578C28.9064 11.6899 29.1616 11.8262 29.4226 11.9492C29.8893 12.1697 30.3848 12.2837 30.8944 12.3481C31.3817 12.41 31.8715 12.4142 32.3613 12.3952C33.2692 12.3597 34.1196 12.1259 34.8975 11.6461C34.9082 11.6395 34.9205 11.6346 34.9296 11.6263C35.0382 11.5115 35.1395 11.5495 35.2613 11.6189C35.8318 11.9443 36.431 12.2052 37.0756 12.3365C37.8485 12.4934 38.6272 12.5124 39.4101 12.3861C40.0513 12.2829 40.6465 12.0632 41.198 11.7196C41.226 11.7023 41.254 11.6833 41.2811 11.6635C41.3574 11.6079 41.4378 11.6054 41.5223 11.656C41.8812 11.8732 42.2492 12.0731 42.6418 12.2209C43.1078 12.3968 43.5951 12.472 44.0882 12.519C44.8265 12.5901 45.56 12.5513 46.2885 12.4183C46.3667 12.4043 46.4432 12.3828 46.5214 12.3663C46.5527 12.3597 46.5848 12.3572 46.6276 12.3522C46.6301 12.3952 46.6342 12.4274 46.6334 12.4588L46.6342 12.4596ZM42.7703 10.9706C42.7917 10.9681 42.8139 10.9623 42.8345 10.9648C42.9678 10.978 43.1012 10.9871 43.2329 11.0077C43.7218 11.0862 44.2149 11.0953 44.708 11.1135C45.4274 11.1399 46.1452 11.1159 46.8639 11.0705C46.8886 11.0689 46.9141 11.0697 46.9388 11.0705C46.9454 11.0705 46.9511 11.0796 46.9816 11.1027C45.5485 11.6445 44.1524 11.6189 42.7703 10.9698V10.9706ZM47.1125 9.95561C45.853 9.95313 44.5928 9.949 43.3333 9.94735C42.9522 9.94735 42.5719 9.95066 42.1907 9.95726C42.1092 9.95891 42.0582 9.93331 42.0179 9.86312C41.817 9.51874 41.6137 9.17601 41.4104 8.83328C40.9873 8.11892 40.5642 7.40374 40.1394 6.6902C39.9789 6.42015 39.8118 6.1534 39.648 5.885C39.6373 5.86766 39.6315 5.84784 39.615 5.81067C39.657 5.8082 39.6809 5.80489 39.7048 5.80489C40.7798 5.82389 41.8557 5.84288 42.9308 5.86188C42.9974 5.8627 43.0649 5.86766 43.1316 5.86023C43.2535 5.84701 43.3489 5.88335 43.4346 5.97337C43.7926 6.34995 44.1598 6.71828 44.5137 7.09817C45.257 7.89512 45.9938 8.69784 46.7346 9.49726C46.8425 9.61371 46.9577 9.72437 47.0688 9.83834C47.0968 9.86724 47.1224 9.89945 47.1528 9.93579C47.1314 9.94653 47.1215 9.95561 47.1116 9.95561H47.1125Z" fill="black"/>
    <path d="M43.8 18.1167C43.5687 17.9549 43.3037 17.8739 43.0263 17.8425C42.6731 17.8021 42.3183 17.7699 41.9644 17.7377C41.0474 17.6559 40.1295 17.5799 39.2125 17.4949C38.2996 17.4098 37.3884 17.314 36.4755 17.2289C35.6046 17.148 34.7328 17.0737 33.8611 16.9969C32.6477 16.8903 31.4352 16.7772 30.221 16.6789C28.9155 16.5732 27.6083 16.4774 26.3019 16.3849C25.8681 16.3544 25.4326 16.3354 24.998 16.3321C24.6498 16.3296 24.3839 16.4997 24.1995 16.797C24.0843 16.9828 24.0267 17.1885 24.0102 17.404C23.997 17.5882 23.9888 17.7732 23.9863 17.9573C23.9699 19.2803 23.9518 20.6025 23.9419 21.9255C23.9164 25.3396 23.895 28.7537 23.8736 32.1677C23.8736 32.2602 23.876 32.3527 23.8859 32.4444C23.9435 32.9936 24.2983 33.3776 24.8573 33.423C24.9659 33.4321 25.0746 33.4354 25.1832 33.4362C25.794 33.4412 26.4056 33.4478 27.0164 33.4486C29.3435 33.4503 31.6715 33.4486 33.9986 33.4486V33.4593C35.7651 33.4593 37.5316 33.4643 39.2981 33.4577C40.5411 33.4527 41.7841 33.4362 43.0271 33.418C43.4946 33.4114 43.8214 33.1719 44.0305 32.7574C44.1285 32.5633 44.1491 32.3568 44.1499 32.1454C44.1524 31.6202 44.154 31.0958 44.1589 30.5705C44.1589 30.5094 44.1639 30.44 44.1919 30.388C44.2454 30.2864 44.2561 30.1824 44.2577 30.0717C44.2758 28.9758 44.2939 27.8799 44.3145 26.7848C44.326 26.1927 44.3466 25.6014 44.3565 25.0093C44.3894 23.1115 44.4224 21.2137 44.447 19.3159C44.4536 18.803 44.2141 18.4058 43.8 18.1159V18.1167ZM43.2444 19.3877C43.2197 21.2351 43.1967 23.0825 43.1703 24.93C43.1489 26.4371 43.1234 27.9443 43.1003 29.4515C43.0987 29.544 43.0979 29.6365 43.0979 29.729C43.0979 29.7769 43.0814 29.8132 43.032 29.8215C42.8723 29.8479 42.7118 29.8719 42.5356 29.8999C42.5282 29.8248 42.5192 29.7686 42.5184 29.7125C42.5184 29.1121 42.52 28.5117 42.5184 27.9113C42.5184 27.7981 42.5134 27.6842 42.497 27.5727C42.4509 27.249 42.1553 26.9822 41.8277 26.9839C41.0449 26.988 40.2629 26.9996 39.48 27.0152C39.3739 27.0177 39.2635 27.0441 39.1648 27.0838C38.9112 27.1862 38.7631 27.3794 38.7359 27.6561C38.7227 27.794 38.7161 27.9328 38.7153 28.0707C38.7104 28.7933 38.7046 29.5151 38.7071 30.2377C38.7071 30.421 38.7268 30.606 38.754 30.7885C38.7812 30.9777 38.9022 31.104 39.0734 31.1808C39.2438 31.2576 39.4241 31.3006 39.6101 31.2931C40.4003 31.2642 41.1914 31.2395 41.9808 31.1907C42.3389 31.1693 42.697 31.1172 43.0435 31.0115C43.0542 31.0082 43.0674 31.0132 43.088 31.0148C43.0905 31.0479 43.0954 31.0801 43.0954 31.1123C43.0946 31.3724 43.0946 31.6334 43.0896 31.8935C43.088 31.9844 43.1077 32.086 43.0312 32.1562C42.9341 32.2445 42.8229 32.3131 42.6888 32.3279C42.6303 32.3345 42.5719 32.3337 42.5134 32.3337C38.4996 32.3296 34.4859 32.3263 30.4721 32.3197C28.7854 32.3172 27.0987 32.3065 25.4121 32.299C25.333 32.299 25.2532 32.2965 25.1742 32.2883C25.026 32.2734 24.9733 32.2181 24.9667 32.0719C24.961 31.9381 24.9577 31.8035 24.9593 31.6689C24.9758 30.3005 24.9931 28.9312 25.0112 27.5628C25.0186 26.9748 25.0252 26.3868 25.0334 25.7996C25.0696 23.1924 25.1067 20.5852 25.1429 17.9788C25.1445 17.8401 25.1462 17.7013 25.1478 17.5634C25.1495 17.4387 25.1552 17.4329 25.2754 17.4403C25.6804 17.4668 26.0854 17.4924 26.4904 17.5205C27.0329 17.5584 27.5762 17.5956 28.1187 17.6377C28.8068 17.6914 29.495 17.7467 30.1832 17.8062C31.1545 17.8913 32.1258 17.9796 33.0964 18.0688C34.0965 18.1613 35.0967 18.2563 36.096 18.3513C36.3207 18.3727 36.5454 18.3983 36.7702 18.4223C36.7858 18.4239 36.8006 18.4305 36.8286 18.438C36.8072 18.4727 36.7932 18.5016 36.7735 18.5255C36.1832 19.2506 35.5972 19.979 35.0012 20.6991C34.1533 21.7232 33.298 22.7398 32.4461 23.7597C32.3333 23.8952 32.2189 24.029 32.1061 24.1644C32.0789 24.1966 32.0534 24.2297 32.0287 24.2635C31.7875 24.5963 31.9456 25.0423 32.3423 25.1571C32.5029 25.2033 32.6461 25.1579 32.7663 25.0613C32.8897 24.9622 33.005 24.8499 33.1062 24.7285C34.006 23.645 34.9016 22.5581 35.7988 21.4721C36.282 20.8874 36.7652 20.3027 37.2476 19.7172C37.4501 19.4711 37.6518 19.225 37.8526 18.9773C37.8897 18.9318 37.9218 18.8823 37.9555 18.8344C38.0189 18.7444 38.0601 18.6461 38.051 18.523C38.0881 18.523 38.1169 18.5206 38.1449 18.523C39.1582 18.6122 40.1707 18.7031 41.1832 18.7914C41.7084 18.8369 42.2344 18.8748 42.7596 18.9236C42.8871 18.9351 43.0123 18.9773 43.1374 19.0095C43.2115 19.0285 43.2444 19.0838 43.2436 19.1606C43.2436 19.2357 43.246 19.3117 43.2452 19.3877H43.2444ZM41.3445 30.0032C41.3445 30.1047 41.3355 30.118 41.2301 30.1229C40.821 30.1411 40.411 30.1559 40.0019 30.1716C39.9287 30.1741 39.8546 30.1716 39.7739 30.1716C39.769 30.1196 39.7632 30.0833 39.7632 30.0461C39.7616 29.4631 39.7599 28.88 39.7599 28.297C39.7599 28.0806 39.7599 28.1062 39.9509 28.1029C40.3896 28.0946 40.8284 28.0855 41.2671 28.0773C41.2836 28.0773 41.3001 28.0814 41.3355 28.0855C41.3379 28.1384 41.3429 28.1838 41.3429 28.2284C41.3429 28.8197 41.3437 29.411 41.3437 30.0023L41.3445 30.0032Z" fill="black"/>
    <path d="M19.84 28.5481C19.84 27.8511 19.8376 27.1541 19.8417 26.457C19.8425 26.2861 19.8219 26.1234 19.7552 25.9657C19.6153 25.6353 19.3651 25.4156 19.0564 25.2546C18.76 25.1002 18.4415 25.044 18.1106 25.044C17.424 25.044 16.7375 25.0407 16.0518 25.0391C15.9596 25.0391 15.8674 25.0391 15.776 25.044C15.7308 25.0465 15.6839 25.0523 15.641 25.0688C15.2887 25.2018 15.0204 25.5726 15.0171 25.9508C15.0113 26.5677 15.0154 27.1854 15.0154 27.8024H15.0056C15.0056 27.9741 15.0056 28.1467 15.0056 28.3185C15.0047 28.7802 15.0039 29.2418 15.0006 29.7043C14.9982 29.9875 15.1076 30.2188 15.3217 30.3996C15.5365 30.5813 15.7859 30.687 16.0674 30.6903C16.6363 30.697 17.2059 30.6928 17.7747 30.6953C18.0217 30.6961 18.267 30.6804 18.5123 30.6416C18.7921 30.5979 19.0613 30.526 19.3 30.3683C19.6474 30.1379 19.8516 29.8282 19.8409 29.3938C19.8343 29.113 19.8392 28.8314 19.8392 28.5497L19.84 28.5481ZM17.3664 29.5655C17.3302 29.5697 17.2899 29.5788 17.2503 29.5796C16.9194 29.5812 16.5893 29.5821 16.2584 29.5812C16.0864 29.5812 16.0724 29.5688 16.0699 29.3946C16.0658 29.1427 16.0658 28.8908 16.0666 28.6389C16.0683 27.8874 16.0707 27.1359 16.0724 26.3844C16.0724 26.3389 16.0724 26.2935 16.0724 26.2316H17.3565C17.3804 26.3043 17.3903 29.3847 17.3664 29.5655ZM18.8506 26.6082C18.8481 26.8303 18.8489 27.0533 18.8481 27.2755C18.8456 27.809 18.8456 28.3416 18.8391 28.8751C18.8382 28.9751 18.8193 29.075 18.8004 29.1741C18.7831 29.2625 18.7213 29.3062 18.6324 29.3137C18.5822 29.2501 18.5954 29.1807 18.5954 29.1163C18.5921 28.7389 18.5913 28.3606 18.5896 27.9832C18.588 27.5463 18.5888 27.1103 18.5847 26.6734C18.5847 26.6164 18.5641 26.5603 18.5534 26.5033C18.5477 26.4727 18.5419 26.443 18.5337 26.4001C18.6292 26.4331 18.7082 26.4603 18.7864 26.4876C18.8456 26.5082 18.8498 26.5545 18.8498 26.609L18.8506 26.6082Z" fill="black"/>
    <path d="M18.3369 18.6188C18.5139 18.4115 18.6876 18.2017 18.8563 17.9878C18.9683 17.8458 19.002 17.6864 18.9107 17.5179C18.867 17.437 18.8218 17.3561 18.7674 17.2826C18.5872 17.0381 18.2538 17.0348 18.0636 17.2305C17.9698 17.3263 17.8768 17.4229 17.7903 17.5254C17.3277 18.0729 16.87 18.6246 16.4049 19.1704C15.4995 20.2333 14.5981 21.2995 13.6803 22.3508C13.0102 23.118 12.3113 23.8596 11.6322 24.6186C10.8914 25.4461 10.1513 26.2744 9.42282 27.1135C8.77745 27.8576 8.1469 28.6149 7.51471 29.3705C7.43569 29.4655 7.36325 29.5761 7.32291 29.6918C7.21014 30.0147 7.46285 30.3681 7.82257 30.3665C7.91312 30.3681 8.01437 30.3178 8.10245 30.2443C8.20206 30.1608 8.29919 30.0733 8.38645 29.9775C8.67126 29.6645 8.95196 29.3474 9.23349 29.0311C9.95294 28.2242 10.6732 27.4174 11.391 26.6089C12.192 25.7062 12.9962 24.8052 13.7897 23.896C14.7133 22.838 15.6287 21.7735 16.5457 20.7107C17.145 20.0153 17.7409 19.3174 18.3369 18.6188Z" fill="black"/>
    <path d="M7.70487 25.7111C7.8234 25.7243 7.93124 25.669 8.02261 25.5848C8.14609 25.4716 8.27038 25.3577 8.38151 25.233C8.9388 24.607 9.49691 23.9818 10.046 23.3484C10.5818 22.7315 11.1062 22.1038 11.6371 21.4828C11.9121 21.1607 12.1911 20.8427 12.4669 20.5223C12.5599 20.4141 12.6521 20.3059 12.7427 20.1961C12.8349 20.0838 12.876 19.9558 12.8571 19.8096C12.8275 19.5701 12.7122 19.3934 12.4842 19.2992C12.257 19.2059 12.0668 19.2728 11.9022 19.4396C11.8372 19.5049 11.7738 19.5726 11.7145 19.6428C11.247 20.192 10.7811 20.742 10.3143 21.2912C9.51337 22.2335 8.71243 23.1758 7.91148 24.1172C7.68923 24.379 7.46121 24.6367 7.24554 24.9043C7.06032 25.1339 7.06691 25.1867 7.22661 25.4402C7.33609 25.6137 7.48426 25.7119 7.70404 25.7103L7.70487 25.7111Z" fill="black"/>
    <path d="M42.0566 21.2416C41.9751 21.2044 41.8812 21.1829 41.7907 21.1771C41.5874 21.1631 41.4087 21.2283 41.2778 21.3902C41.1618 21.5339 41.0581 21.6859 40.9453 21.832C40.6275 22.2433 40.3073 22.6529 39.9888 23.0642C39.6093 23.5548 39.2339 24.0494 38.8503 24.5375C38.3037 25.2329 37.7489 25.9225 37.2023 26.6187C36.5216 27.4866 35.8474 28.3596 35.1691 29.2283C34.9806 29.4695 34.7929 29.7123 34.5558 29.9088C34.4966 29.9584 34.4217 30.0071 34.3492 30.0162C34.2225 30.0327 34.0916 30.0245 33.9623 30.0162C33.8833 30.0113 33.8347 29.9584 33.8232 29.8775C33.8175 29.8362 33.8117 29.7941 33.8101 29.7528C33.8076 29.6561 33.8068 29.5595 33.8068 29.4629C33.8084 28.9798 33.8117 28.4966 33.8133 28.0144C33.815 27.665 33.5927 27.3487 33.2775 27.2612C33.1984 27.2397 33.112 27.2347 33.0297 27.2347C32.293 27.2347 31.5562 27.2356 30.8195 27.2381C30.7026 27.2381 30.5849 27.2447 30.468 27.2455C30.3453 27.2463 30.2408 27.2926 30.1453 27.3669C29.979 27.4957 29.8934 27.6584 29.8942 27.8748C29.8975 28.6098 29.8926 29.3448 29.8901 30.0798C29.8901 30.2342 29.8654 30.2549 29.714 30.2285C29.7024 30.2268 29.6909 30.2185 29.658 30.2037C29.658 30.1583 29.658 30.1128 29.658 30.0666C29.658 29.8775 29.6596 29.6883 29.6605 29.5001C29.6654 28.4124 29.6712 27.3248 29.6744 26.2371C29.6753 25.9175 29.4966 25.7144 29.1822 25.6764C29.0702 25.6632 28.9566 25.6574 28.8439 25.6566C28.0866 25.6516 27.3284 25.6483 26.5711 25.645C26.4748 25.645 26.3785 25.6483 26.2822 25.6516C26.1686 25.6557 26.0723 25.702 25.9908 25.7813C25.8549 25.9117 25.7743 26.0711 25.7652 26.2594C25.7537 26.4898 25.7496 26.7211 25.7479 26.9515C25.7422 28.0474 25.7381 29.1433 25.7364 30.24C25.7364 30.3903 25.743 30.5431 25.7627 30.6918C25.7891 30.8834 25.8912 31.0337 26.0467 31.1501C26.199 31.2641 26.3653 31.3277 26.5588 31.3252C27.1325 31.3177 27.7054 31.3161 28.2792 31.3103C29.7312 31.2963 31.1841 31.2814 32.6362 31.2657C33.289 31.2591 33.9418 31.2492 34.5954 31.2451C34.7847 31.2434 34.9526 31.1889 35.0851 31.0551C35.2325 30.9065 35.3774 30.7545 35.5074 30.591C36.189 29.7354 36.8665 28.8757 37.544 28.0168C38.009 27.428 38.4741 26.8383 38.9368 26.2479C39.2314 25.8721 39.5237 25.493 39.8159 25.1156C40.1806 24.6449 40.5461 24.175 40.9099 23.7034C41.3017 23.1955 41.6927 22.6868 42.0813 22.1764C42.1545 22.0798 42.227 21.9799 42.2805 21.8725C42.4031 21.6248 42.3068 21.3572 42.0549 21.2424L42.0566 21.2416ZM28.6373 26.911C28.634 27.9722 28.6315 29.0343 28.6282 30.0955C28.6282 30.2128 28.6191 30.2243 28.4998 30.2251C28.0149 30.2285 27.5293 30.2309 27.0444 30.2318C26.9909 30.2318 26.9374 30.2235 26.8724 30.2177C26.8683 30.1401 26.8609 30.0699 26.8609 29.9997C26.8609 29.0723 26.8625 28.1448 26.8633 27.2182C26.8633 27.1175 26.8633 27.0167 26.8658 26.916C26.8683 26.783 26.8699 26.7805 26.9983 26.7805C27.4124 26.7805 27.8264 26.7805 28.2405 26.7797C28.3648 26.7797 28.4899 26.7797 28.6364 26.7797C28.6364 26.8383 28.6364 26.8747 28.6364 26.911H28.6373ZM32.6765 30.079C32.6765 30.1806 32.67 30.1913 32.5745 30.1921C32.1226 30.1946 31.6715 30.1946 31.2195 30.1946C31.1907 30.1946 31.1627 30.1872 31.1175 30.1814C31.115 30.1293 31.1101 30.0889 31.1109 30.0476C31.115 29.5067 31.1191 28.9649 31.1241 28.424C31.1249 28.2935 31.129 28.2877 31.2574 28.2869C31.692 28.2836 32.1275 28.2828 32.5621 28.2811C32.6724 28.2811 32.6798 28.2877 32.6798 28.405C32.6798 28.9294 32.6774 29.4538 32.6765 29.9782C32.6765 30.0121 32.6765 30.0451 32.6765 30.079Z" fill="black"/>
  </g>
  <defs>
    <clipPath id="clip0_17_426">
      <rect width="49" height="40" fill="white"/>
    </clipPath>
  </defs>
</svg>